G04 MADE WITH FRITZING*
G04 WWW.FRITZING.ORG*
G04 DOUBLE SIDED*
G04 HOLES PLATED*
G04 CONTOUR ON CENTER OF CONTOUR VECTOR*
%ASAXBY*%
%FSLAX23Y23*%
%MOIN*%
%OFA0B0*%
%SFA1.0B1.0*%
%ADD10C,0.020000*%
%ADD11C,0.010000*%
%ADD12R,0.001000X0.001000*%
%LNSILK1*%
G90*
G70*
G54D10*
X1283Y202D02*
X983Y202D01*
D02*
X983Y202D02*
X983Y102D01*
D02*
X983Y102D02*
X1283Y102D01*
D02*
X1283Y102D02*
X1283Y202D01*
G54D11*
D02*
X1183Y202D02*
X1183Y102D01*
G54D10*
D02*
X1283Y402D02*
X983Y402D01*
D02*
X983Y402D02*
X983Y302D01*
D02*
X983Y302D02*
X1283Y302D01*
D02*
X1283Y302D02*
X1283Y402D01*
G54D11*
D02*
X1183Y402D02*
X1183Y302D01*
G54D10*
D02*
X1283Y602D02*
X983Y602D01*
D02*
X983Y602D02*
X983Y502D01*
D02*
X983Y502D02*
X1283Y502D01*
D02*
X1283Y502D02*
X1283Y602D01*
G54D11*
D02*
X1183Y602D02*
X1183Y502D01*
G54D10*
D02*
X1283Y802D02*
X983Y802D01*
D02*
X983Y802D02*
X983Y702D01*
D02*
X983Y702D02*
X1283Y702D01*
D02*
X1283Y702D02*
X1283Y802D01*
G54D11*
D02*
X1183Y802D02*
X1183Y702D01*
G54D10*
D02*
X1283Y1002D02*
X983Y1002D01*
D02*
X983Y1002D02*
X983Y902D01*
D02*
X983Y902D02*
X1283Y902D01*
D02*
X1283Y902D02*
X1283Y1002D01*
G54D11*
D02*
X1183Y1002D02*
X1183Y902D01*
G54D10*
D02*
X1283Y1202D02*
X983Y1202D01*
D02*
X983Y1202D02*
X983Y1102D01*
D02*
X983Y1102D02*
X1283Y1102D01*
D02*
X1283Y1102D02*
X1283Y1202D01*
G54D11*
D02*
X1183Y1202D02*
X1183Y1102D01*
G54D10*
D02*
X1283Y1902D02*
X983Y1902D01*
D02*
X983Y1902D02*
X983Y1802D01*
D02*
X983Y1802D02*
X1283Y1802D01*
D02*
X1283Y1802D02*
X1283Y1902D01*
G54D11*
D02*
X1183Y1902D02*
X1183Y1802D01*
G54D10*
D02*
X1283Y1402D02*
X983Y1402D01*
D02*
X983Y1402D02*
X983Y1302D01*
D02*
X983Y1302D02*
X1283Y1302D01*
D02*
X1283Y1302D02*
X1283Y1402D01*
G54D11*
D02*
X1183Y1402D02*
X1183Y1302D01*
G54D10*
D02*
X1283Y1602D02*
X983Y1602D01*
D02*
X983Y1602D02*
X983Y1502D01*
D02*
X983Y1502D02*
X1283Y1502D01*
D02*
X1283Y1502D02*
X1283Y1602D01*
G54D11*
D02*
X1183Y1602D02*
X1183Y1502D01*
D02*
X1783Y1602D02*
X1783Y1902D01*
D02*
X1783Y1902D02*
X1683Y1902D01*
D02*
X1683Y1902D02*
X1683Y1602D01*
D02*
X1683Y1602D02*
X1783Y1602D01*
G54D12*
X1588Y2084D02*
X1610Y2084D01*
X1644Y2084D02*
X1647Y2084D01*
X1674Y2084D02*
X1703Y2084D01*
X1742Y2084D02*
X1745Y2084D01*
X1760Y2084D02*
X1784Y2084D01*
X1803Y2084D02*
X1827Y2084D01*
X1846Y2084D02*
X1854Y2084D01*
X1868Y2084D02*
X1875Y2084D01*
X1588Y2083D02*
X1611Y2083D01*
X1643Y2083D02*
X1648Y2083D01*
X1674Y2083D02*
X1703Y2083D01*
X1741Y2083D02*
X1746Y2083D01*
X1760Y2083D02*
X1786Y2083D01*
X1803Y2083D02*
X1829Y2083D01*
X1846Y2083D02*
X1854Y2083D01*
X1867Y2083D02*
X1875Y2083D01*
X1588Y2082D02*
X1613Y2082D01*
X1643Y2082D02*
X1648Y2082D01*
X1674Y2082D02*
X1703Y2082D01*
X1741Y2082D02*
X1746Y2082D01*
X1760Y2082D02*
X1787Y2082D01*
X1803Y2082D02*
X1830Y2082D01*
X1846Y2082D02*
X1855Y2082D01*
X1867Y2082D02*
X1875Y2082D01*
X1588Y2081D02*
X1614Y2081D01*
X1643Y2081D02*
X1648Y2081D01*
X1674Y2081D02*
X1703Y2081D01*
X1740Y2081D02*
X1746Y2081D01*
X1760Y2081D02*
X1788Y2081D01*
X1803Y2081D02*
X1831Y2081D01*
X1846Y2081D02*
X1856Y2081D01*
X1866Y2081D02*
X1875Y2081D01*
X1588Y2080D02*
X1615Y2080D01*
X1642Y2080D02*
X1649Y2080D01*
X1674Y2080D02*
X1703Y2080D01*
X1739Y2080D02*
X1745Y2080D01*
X1760Y2080D02*
X1788Y2080D01*
X1803Y2080D02*
X1831Y2080D01*
X1846Y2080D02*
X1857Y2080D01*
X1865Y2080D02*
X1875Y2080D01*
X1588Y2079D02*
X1615Y2079D01*
X1642Y2079D02*
X1649Y2079D01*
X1674Y2079D02*
X1703Y2079D01*
X1739Y2079D02*
X1745Y2079D01*
X1760Y2079D02*
X1789Y2079D01*
X1803Y2079D02*
X1832Y2079D01*
X1846Y2079D02*
X1857Y2079D01*
X1864Y2079D02*
X1875Y2079D01*
X1588Y2078D02*
X1593Y2078D01*
X1609Y2078D02*
X1616Y2078D01*
X1642Y2078D02*
X1649Y2078D01*
X1674Y2078D02*
X1679Y2078D01*
X1686Y2078D02*
X1691Y2078D01*
X1698Y2078D02*
X1703Y2078D01*
X1738Y2078D02*
X1744Y2078D01*
X1760Y2078D02*
X1765Y2078D01*
X1783Y2078D02*
X1789Y2078D01*
X1803Y2078D02*
X1808Y2078D01*
X1826Y2078D02*
X1832Y2078D01*
X1846Y2078D02*
X1858Y2078D01*
X1864Y2078D02*
X1875Y2078D01*
X1588Y2077D02*
X1593Y2077D01*
X1610Y2077D02*
X1616Y2077D01*
X1641Y2077D02*
X1650Y2077D01*
X1674Y2077D02*
X1679Y2077D01*
X1686Y2077D02*
X1691Y2077D01*
X1698Y2077D02*
X1703Y2077D01*
X1738Y2077D02*
X1744Y2077D01*
X1760Y2077D02*
X1765Y2077D01*
X1784Y2077D02*
X1789Y2077D01*
X1803Y2077D02*
X1808Y2077D01*
X1827Y2077D02*
X1832Y2077D01*
X1846Y2077D02*
X1859Y2077D01*
X1863Y2077D02*
X1875Y2077D01*
X1588Y2076D02*
X1593Y2076D01*
X1611Y2076D02*
X1616Y2076D01*
X1641Y2076D02*
X1650Y2076D01*
X1674Y2076D02*
X1679Y2076D01*
X1686Y2076D02*
X1691Y2076D01*
X1698Y2076D02*
X1703Y2076D01*
X1737Y2076D02*
X1743Y2076D01*
X1760Y2076D02*
X1765Y2076D01*
X1784Y2076D02*
X1789Y2076D01*
X1803Y2076D02*
X1808Y2076D01*
X1827Y2076D02*
X1832Y2076D01*
X1846Y2076D02*
X1859Y2076D01*
X1862Y2076D02*
X1875Y2076D01*
X1588Y2075D02*
X1593Y2075D01*
X1611Y2075D02*
X1617Y2075D01*
X1641Y2075D02*
X1650Y2075D01*
X1675Y2075D02*
X1679Y2075D01*
X1686Y2075D02*
X1691Y2075D01*
X1699Y2075D02*
X1702Y2075D01*
X1736Y2075D02*
X1742Y2075D01*
X1760Y2075D02*
X1765Y2075D01*
X1784Y2075D02*
X1789Y2075D01*
X1803Y2075D02*
X1808Y2075D01*
X1827Y2075D02*
X1832Y2075D01*
X1846Y2075D02*
X1852Y2075D01*
X1854Y2075D02*
X1860Y2075D01*
X1862Y2075D02*
X1868Y2075D01*
X1870Y2075D02*
X1875Y2075D01*
X1588Y2074D02*
X1593Y2074D01*
X1612Y2074D02*
X1617Y2074D01*
X1641Y2074D02*
X1650Y2074D01*
X1676Y2074D02*
X1677Y2074D01*
X1686Y2074D02*
X1691Y2074D01*
X1700Y2074D02*
X1701Y2074D01*
X1736Y2074D02*
X1742Y2074D01*
X1760Y2074D02*
X1765Y2074D01*
X1784Y2074D02*
X1789Y2074D01*
X1803Y2074D02*
X1808Y2074D01*
X1827Y2074D02*
X1832Y2074D01*
X1846Y2074D02*
X1852Y2074D01*
X1854Y2074D02*
X1867Y2074D01*
X1870Y2074D02*
X1875Y2074D01*
X1588Y2073D02*
X1593Y2073D01*
X1612Y2073D02*
X1617Y2073D01*
X1640Y2073D02*
X1651Y2073D01*
X1686Y2073D02*
X1691Y2073D01*
X1735Y2073D02*
X1741Y2073D01*
X1760Y2073D02*
X1765Y2073D01*
X1784Y2073D02*
X1789Y2073D01*
X1803Y2073D02*
X1808Y2073D01*
X1827Y2073D02*
X1832Y2073D01*
X1846Y2073D02*
X1852Y2073D01*
X1855Y2073D02*
X1867Y2073D01*
X1870Y2073D02*
X1875Y2073D01*
X1588Y2072D02*
X1593Y2072D01*
X1612Y2072D02*
X1617Y2072D01*
X1640Y2072D02*
X1651Y2072D01*
X1686Y2072D02*
X1691Y2072D01*
X1735Y2072D02*
X1741Y2072D01*
X1760Y2072D02*
X1765Y2072D01*
X1784Y2072D02*
X1789Y2072D01*
X1803Y2072D02*
X1808Y2072D01*
X1827Y2072D02*
X1832Y2072D01*
X1846Y2072D02*
X1852Y2072D01*
X1856Y2072D02*
X1866Y2072D01*
X1870Y2072D02*
X1875Y2072D01*
X1588Y2071D02*
X1593Y2071D01*
X1612Y2071D02*
X1617Y2071D01*
X1640Y2071D02*
X1651Y2071D01*
X1686Y2071D02*
X1691Y2071D01*
X1734Y2071D02*
X1740Y2071D01*
X1760Y2071D02*
X1765Y2071D01*
X1784Y2071D02*
X1789Y2071D01*
X1803Y2071D02*
X1808Y2071D01*
X1827Y2071D02*
X1832Y2071D01*
X1846Y2071D02*
X1852Y2071D01*
X1856Y2071D02*
X1865Y2071D01*
X1870Y2071D02*
X1875Y2071D01*
X1588Y2070D02*
X1593Y2070D01*
X1612Y2070D02*
X1617Y2070D01*
X1639Y2070D02*
X1652Y2070D01*
X1686Y2070D02*
X1691Y2070D01*
X1733Y2070D02*
X1740Y2070D01*
X1760Y2070D02*
X1765Y2070D01*
X1784Y2070D02*
X1789Y2070D01*
X1803Y2070D02*
X1808Y2070D01*
X1827Y2070D02*
X1832Y2070D01*
X1846Y2070D02*
X1852Y2070D01*
X1857Y2070D02*
X1865Y2070D01*
X1870Y2070D02*
X1875Y2070D01*
X1588Y2069D02*
X1593Y2069D01*
X1612Y2069D02*
X1617Y2069D01*
X1639Y2069D02*
X1644Y2069D01*
X1647Y2069D02*
X1652Y2069D01*
X1686Y2069D02*
X1691Y2069D01*
X1733Y2069D02*
X1739Y2069D01*
X1760Y2069D02*
X1765Y2069D01*
X1784Y2069D02*
X1789Y2069D01*
X1803Y2069D02*
X1808Y2069D01*
X1827Y2069D02*
X1832Y2069D01*
X1846Y2069D02*
X1852Y2069D01*
X1858Y2069D02*
X1864Y2069D01*
X1870Y2069D02*
X1875Y2069D01*
X1588Y2068D02*
X1593Y2068D01*
X1611Y2068D02*
X1617Y2068D01*
X1639Y2068D02*
X1644Y2068D01*
X1647Y2068D02*
X1652Y2068D01*
X1686Y2068D02*
X1691Y2068D01*
X1732Y2068D02*
X1738Y2068D01*
X1760Y2068D02*
X1765Y2068D01*
X1784Y2068D02*
X1789Y2068D01*
X1803Y2068D02*
X1808Y2068D01*
X1827Y2068D02*
X1832Y2068D01*
X1846Y2068D02*
X1852Y2068D01*
X1858Y2068D02*
X1863Y2068D01*
X1870Y2068D02*
X1875Y2068D01*
X1588Y2067D02*
X1593Y2067D01*
X1610Y2067D02*
X1616Y2067D01*
X1638Y2067D02*
X1644Y2067D01*
X1647Y2067D02*
X1653Y2067D01*
X1686Y2067D02*
X1691Y2067D01*
X1732Y2067D02*
X1738Y2067D01*
X1760Y2067D02*
X1765Y2067D01*
X1784Y2067D02*
X1789Y2067D01*
X1803Y2067D02*
X1808Y2067D01*
X1827Y2067D02*
X1832Y2067D01*
X1846Y2067D02*
X1852Y2067D01*
X1858Y2067D02*
X1863Y2067D01*
X1870Y2067D02*
X1875Y2067D01*
X1588Y2066D02*
X1593Y2066D01*
X1609Y2066D02*
X1616Y2066D01*
X1638Y2066D02*
X1643Y2066D01*
X1648Y2066D02*
X1653Y2066D01*
X1686Y2066D02*
X1691Y2066D01*
X1731Y2066D02*
X1737Y2066D01*
X1760Y2066D02*
X1765Y2066D01*
X1784Y2066D02*
X1789Y2066D01*
X1803Y2066D02*
X1808Y2066D01*
X1827Y2066D02*
X1832Y2066D01*
X1846Y2066D02*
X1852Y2066D01*
X1858Y2066D02*
X1863Y2066D01*
X1870Y2066D02*
X1875Y2066D01*
X1588Y2065D02*
X1593Y2065D01*
X1608Y2065D02*
X1615Y2065D01*
X1638Y2065D02*
X1643Y2065D01*
X1648Y2065D02*
X1653Y2065D01*
X1686Y2065D02*
X1691Y2065D01*
X1731Y2065D02*
X1737Y2065D01*
X1760Y2065D02*
X1765Y2065D01*
X1784Y2065D02*
X1789Y2065D01*
X1803Y2065D02*
X1808Y2065D01*
X1827Y2065D02*
X1832Y2065D01*
X1846Y2065D02*
X1852Y2065D01*
X1859Y2065D02*
X1863Y2065D01*
X1870Y2065D02*
X1875Y2065D01*
X1588Y2064D02*
X1615Y2064D01*
X1638Y2064D02*
X1643Y2064D01*
X1648Y2064D02*
X1653Y2064D01*
X1686Y2064D02*
X1691Y2064D01*
X1730Y2064D02*
X1736Y2064D01*
X1760Y2064D02*
X1765Y2064D01*
X1784Y2064D02*
X1789Y2064D01*
X1803Y2064D02*
X1808Y2064D01*
X1827Y2064D02*
X1832Y2064D01*
X1846Y2064D02*
X1852Y2064D01*
X1860Y2064D02*
X1862Y2064D01*
X1870Y2064D02*
X1875Y2064D01*
X1588Y2063D02*
X1614Y2063D01*
X1637Y2063D02*
X1643Y2063D01*
X1648Y2063D02*
X1654Y2063D01*
X1686Y2063D02*
X1691Y2063D01*
X1729Y2063D02*
X1735Y2063D01*
X1760Y2063D02*
X1765Y2063D01*
X1783Y2063D02*
X1789Y2063D01*
X1803Y2063D02*
X1808Y2063D01*
X1826Y2063D02*
X1832Y2063D01*
X1846Y2063D02*
X1852Y2063D01*
X1870Y2063D02*
X1875Y2063D01*
X1588Y2062D02*
X1613Y2062D01*
X1637Y2062D02*
X1642Y2062D01*
X1649Y2062D02*
X1654Y2062D01*
X1686Y2062D02*
X1691Y2062D01*
X1729Y2062D02*
X1735Y2062D01*
X1760Y2062D02*
X1789Y2062D01*
X1803Y2062D02*
X1832Y2062D01*
X1846Y2062D02*
X1852Y2062D01*
X1870Y2062D02*
X1875Y2062D01*
X1588Y2061D02*
X1613Y2061D01*
X1637Y2061D02*
X1642Y2061D01*
X1649Y2061D02*
X1654Y2061D01*
X1686Y2061D02*
X1691Y2061D01*
X1728Y2061D02*
X1734Y2061D01*
X1760Y2061D02*
X1788Y2061D01*
X1803Y2061D02*
X1831Y2061D01*
X1846Y2061D02*
X1852Y2061D01*
X1870Y2061D02*
X1875Y2061D01*
X1588Y2060D02*
X1614Y2060D01*
X1636Y2060D02*
X1642Y2060D01*
X1649Y2060D02*
X1655Y2060D01*
X1686Y2060D02*
X1691Y2060D01*
X1728Y2060D02*
X1734Y2060D01*
X1760Y2060D02*
X1787Y2060D01*
X1803Y2060D02*
X1831Y2060D01*
X1846Y2060D02*
X1852Y2060D01*
X1870Y2060D02*
X1875Y2060D01*
X1588Y2059D02*
X1615Y2059D01*
X1636Y2059D02*
X1641Y2059D01*
X1650Y2059D02*
X1655Y2059D01*
X1686Y2059D02*
X1691Y2059D01*
X1727Y2059D02*
X1733Y2059D01*
X1760Y2059D02*
X1787Y2059D01*
X1803Y2059D02*
X1830Y2059D01*
X1846Y2059D02*
X1852Y2059D01*
X1870Y2059D02*
X1875Y2059D01*
X1588Y2058D02*
X1593Y2058D01*
X1609Y2058D02*
X1616Y2058D01*
X1636Y2058D02*
X1641Y2058D01*
X1650Y2058D02*
X1655Y2058D01*
X1686Y2058D02*
X1691Y2058D01*
X1726Y2058D02*
X1733Y2058D01*
X1760Y2058D02*
X1786Y2058D01*
X1803Y2058D02*
X1829Y2058D01*
X1846Y2058D02*
X1852Y2058D01*
X1870Y2058D02*
X1875Y2058D01*
X1588Y2057D02*
X1593Y2057D01*
X1610Y2057D02*
X1616Y2057D01*
X1636Y2057D02*
X1641Y2057D01*
X1650Y2057D02*
X1655Y2057D01*
X1686Y2057D02*
X1691Y2057D01*
X1726Y2057D02*
X1732Y2057D01*
X1760Y2057D02*
X1784Y2057D01*
X1803Y2057D02*
X1827Y2057D01*
X1846Y2057D02*
X1852Y2057D01*
X1870Y2057D02*
X1875Y2057D01*
X1588Y2056D02*
X1593Y2056D01*
X1611Y2056D02*
X1616Y2056D01*
X1635Y2056D02*
X1641Y2056D01*
X1650Y2056D02*
X1656Y2056D01*
X1686Y2056D02*
X1691Y2056D01*
X1725Y2056D02*
X1731Y2056D01*
X1760Y2056D02*
X1766Y2056D01*
X1803Y2056D02*
X1809Y2056D01*
X1846Y2056D02*
X1852Y2056D01*
X1870Y2056D02*
X1875Y2056D01*
X1588Y2055D02*
X1593Y2055D01*
X1611Y2055D02*
X1617Y2055D01*
X1635Y2055D02*
X1640Y2055D01*
X1651Y2055D02*
X1656Y2055D01*
X1686Y2055D02*
X1691Y2055D01*
X1725Y2055D02*
X1731Y2055D01*
X1760Y2055D02*
X1765Y2055D01*
X1803Y2055D02*
X1808Y2055D01*
X1846Y2055D02*
X1852Y2055D01*
X1870Y2055D02*
X1875Y2055D01*
X1588Y2054D02*
X1593Y2054D01*
X1612Y2054D02*
X1617Y2054D01*
X1635Y2054D02*
X1656Y2054D01*
X1686Y2054D02*
X1691Y2054D01*
X1724Y2054D02*
X1730Y2054D01*
X1760Y2054D02*
X1765Y2054D01*
X1803Y2054D02*
X1808Y2054D01*
X1846Y2054D02*
X1852Y2054D01*
X1870Y2054D02*
X1875Y2054D01*
X1588Y2053D02*
X1593Y2053D01*
X1612Y2053D02*
X1617Y2053D01*
X1634Y2053D02*
X1657Y2053D01*
X1686Y2053D02*
X1691Y2053D01*
X1724Y2053D02*
X1730Y2053D01*
X1760Y2053D02*
X1765Y2053D01*
X1803Y2053D02*
X1808Y2053D01*
X1846Y2053D02*
X1852Y2053D01*
X1870Y2053D02*
X1875Y2053D01*
X1588Y2052D02*
X1593Y2052D01*
X1612Y2052D02*
X1617Y2052D01*
X1634Y2052D02*
X1657Y2052D01*
X1686Y2052D02*
X1691Y2052D01*
X1723Y2052D02*
X1729Y2052D01*
X1760Y2052D02*
X1765Y2052D01*
X1803Y2052D02*
X1808Y2052D01*
X1846Y2052D02*
X1852Y2052D01*
X1870Y2052D02*
X1875Y2052D01*
X1588Y2051D02*
X1593Y2051D01*
X1612Y2051D02*
X1617Y2051D01*
X1634Y2051D02*
X1657Y2051D01*
X1686Y2051D02*
X1691Y2051D01*
X1722Y2051D02*
X1728Y2051D01*
X1760Y2051D02*
X1765Y2051D01*
X1803Y2051D02*
X1808Y2051D01*
X1846Y2051D02*
X1852Y2051D01*
X1870Y2051D02*
X1875Y2051D01*
X1588Y2050D02*
X1593Y2050D01*
X1612Y2050D02*
X1617Y2050D01*
X1633Y2050D02*
X1657Y2050D01*
X1686Y2050D02*
X1691Y2050D01*
X1722Y2050D02*
X1728Y2050D01*
X1760Y2050D02*
X1765Y2050D01*
X1803Y2050D02*
X1808Y2050D01*
X1846Y2050D02*
X1852Y2050D01*
X1870Y2050D02*
X1875Y2050D01*
X1588Y2049D02*
X1593Y2049D01*
X1612Y2049D02*
X1617Y2049D01*
X1633Y2049D02*
X1658Y2049D01*
X1686Y2049D02*
X1691Y2049D01*
X1721Y2049D02*
X1727Y2049D01*
X1760Y2049D02*
X1765Y2049D01*
X1803Y2049D02*
X1808Y2049D01*
X1846Y2049D02*
X1852Y2049D01*
X1870Y2049D02*
X1875Y2049D01*
X1588Y2048D02*
X1593Y2048D01*
X1611Y2048D02*
X1617Y2048D01*
X1633Y2048D02*
X1638Y2048D01*
X1653Y2048D02*
X1658Y2048D01*
X1686Y2048D02*
X1691Y2048D01*
X1721Y2048D02*
X1727Y2048D01*
X1760Y2048D02*
X1765Y2048D01*
X1803Y2048D02*
X1808Y2048D01*
X1846Y2048D02*
X1852Y2048D01*
X1870Y2048D02*
X1875Y2048D01*
X1588Y2047D02*
X1593Y2047D01*
X1611Y2047D02*
X1616Y2047D01*
X1633Y2047D02*
X1638Y2047D01*
X1653Y2047D02*
X1658Y2047D01*
X1686Y2047D02*
X1691Y2047D01*
X1720Y2047D02*
X1726Y2047D01*
X1760Y2047D02*
X1765Y2047D01*
X1803Y2047D02*
X1808Y2047D01*
X1846Y2047D02*
X1852Y2047D01*
X1870Y2047D02*
X1875Y2047D01*
X1588Y2046D02*
X1593Y2046D01*
X1610Y2046D02*
X1616Y2046D01*
X1632Y2046D02*
X1638Y2046D01*
X1653Y2046D02*
X1659Y2046D01*
X1686Y2046D02*
X1691Y2046D01*
X1719Y2046D02*
X1726Y2046D01*
X1760Y2046D02*
X1765Y2046D01*
X1803Y2046D02*
X1808Y2046D01*
X1846Y2046D02*
X1852Y2046D01*
X1870Y2046D02*
X1875Y2046D01*
X1588Y2045D02*
X1593Y2045D01*
X1608Y2045D02*
X1616Y2045D01*
X1632Y2045D02*
X1637Y2045D01*
X1654Y2045D02*
X1659Y2045D01*
X1686Y2045D02*
X1691Y2045D01*
X1719Y2045D02*
X1725Y2045D01*
X1760Y2045D02*
X1765Y2045D01*
X1803Y2045D02*
X1808Y2045D01*
X1846Y2045D02*
X1852Y2045D01*
X1870Y2045D02*
X1875Y2045D01*
X1588Y2044D02*
X1615Y2044D01*
X1632Y2044D02*
X1637Y2044D01*
X1654Y2044D02*
X1659Y2044D01*
X1686Y2044D02*
X1691Y2044D01*
X1718Y2044D02*
X1724Y2044D01*
X1760Y2044D02*
X1765Y2044D01*
X1803Y2044D02*
X1808Y2044D01*
X1846Y2044D02*
X1852Y2044D01*
X1870Y2044D02*
X1875Y2044D01*
X1588Y2043D02*
X1614Y2043D01*
X1631Y2043D02*
X1637Y2043D01*
X1654Y2043D02*
X1660Y2043D01*
X1686Y2043D02*
X1691Y2043D01*
X1718Y2043D02*
X1724Y2043D01*
X1760Y2043D02*
X1765Y2043D01*
X1803Y2043D02*
X1808Y2043D01*
X1846Y2043D02*
X1852Y2043D01*
X1870Y2043D02*
X1875Y2043D01*
X1588Y2042D02*
X1613Y2042D01*
X1631Y2042D02*
X1636Y2042D01*
X1655Y2042D02*
X1660Y2042D01*
X1686Y2042D02*
X1691Y2042D01*
X1717Y2042D02*
X1723Y2042D01*
X1760Y2042D02*
X1765Y2042D01*
X1803Y2042D02*
X1808Y2042D01*
X1846Y2042D02*
X1852Y2042D01*
X1870Y2042D02*
X1875Y2042D01*
X1588Y2041D02*
X1612Y2041D01*
X1631Y2041D02*
X1636Y2041D01*
X1655Y2041D02*
X1660Y2041D01*
X1686Y2041D02*
X1691Y2041D01*
X1717Y2041D02*
X1723Y2041D01*
X1760Y2041D02*
X1765Y2041D01*
X1803Y2041D02*
X1808Y2041D01*
X1846Y2041D02*
X1851Y2041D01*
X1870Y2041D02*
X1875Y2041D01*
X1588Y2040D02*
X1611Y2040D01*
X1631Y2040D02*
X1636Y2040D01*
X1655Y2040D02*
X1660Y2040D01*
X1686Y2040D02*
X1691Y2040D01*
X1718Y2040D02*
X1722Y2040D01*
X1761Y2040D02*
X1765Y2040D01*
X1804Y2040D02*
X1808Y2040D01*
X1847Y2040D02*
X1851Y2040D01*
X1871Y2040D02*
X1875Y2040D01*
X1588Y2039D02*
X1609Y2039D01*
X1632Y2039D02*
X1635Y2039D01*
X1656Y2039D02*
X1659Y2039D01*
X1687Y2039D02*
X1690Y2039D01*
X1718Y2039D02*
X1721Y2039D01*
X1761Y2039D02*
X1764Y2039D01*
X1805Y2039D02*
X1807Y2039D01*
X1848Y2039D02*
X1850Y2039D01*
X1871Y2039D02*
X1874Y2039D01*
X761Y1891D02*
X784Y1891D01*
X826Y1891D02*
X829Y1891D01*
X861Y1891D02*
X895Y1891D01*
X761Y1890D02*
X787Y1890D01*
X825Y1890D02*
X830Y1890D01*
X861Y1890D02*
X895Y1890D01*
X761Y1889D02*
X788Y1889D01*
X825Y1889D02*
X831Y1889D01*
X861Y1889D02*
X895Y1889D01*
X761Y1888D02*
X790Y1888D01*
X825Y1888D02*
X831Y1888D01*
X861Y1888D02*
X895Y1888D01*
X761Y1887D02*
X791Y1887D01*
X824Y1887D02*
X831Y1887D01*
X861Y1887D02*
X895Y1887D01*
X761Y1886D02*
X792Y1886D01*
X824Y1886D02*
X831Y1886D01*
X861Y1886D02*
X895Y1886D01*
X761Y1885D02*
X792Y1885D01*
X824Y1885D02*
X832Y1885D01*
X861Y1885D02*
X895Y1885D01*
X761Y1884D02*
X767Y1884D01*
X784Y1884D02*
X793Y1884D01*
X823Y1884D02*
X832Y1884D01*
X861Y1884D02*
X867Y1884D01*
X875Y1884D02*
X881Y1884D01*
X888Y1884D02*
X895Y1884D01*
X761Y1883D02*
X767Y1883D01*
X786Y1883D02*
X793Y1883D01*
X823Y1883D02*
X832Y1883D01*
X861Y1883D02*
X867Y1883D01*
X875Y1883D02*
X881Y1883D01*
X889Y1883D02*
X895Y1883D01*
X761Y1882D02*
X767Y1882D01*
X787Y1882D02*
X794Y1882D01*
X823Y1882D02*
X833Y1882D01*
X861Y1882D02*
X867Y1882D01*
X875Y1882D02*
X881Y1882D01*
X889Y1882D02*
X895Y1882D01*
X761Y1881D02*
X767Y1881D01*
X788Y1881D02*
X794Y1881D01*
X823Y1881D02*
X833Y1881D01*
X861Y1881D02*
X867Y1881D01*
X875Y1881D02*
X881Y1881D01*
X889Y1881D02*
X894Y1881D01*
X761Y1880D02*
X767Y1880D01*
X788Y1880D02*
X794Y1880D01*
X822Y1880D02*
X833Y1880D01*
X862Y1880D02*
X866Y1880D01*
X875Y1880D02*
X881Y1880D01*
X889Y1880D02*
X894Y1880D01*
X761Y1879D02*
X767Y1879D01*
X788Y1879D02*
X794Y1879D01*
X822Y1879D02*
X833Y1879D01*
X863Y1879D02*
X865Y1879D01*
X875Y1879D02*
X881Y1879D01*
X890Y1879D02*
X893Y1879D01*
X761Y1878D02*
X767Y1878D01*
X789Y1878D02*
X795Y1878D01*
X822Y1878D02*
X834Y1878D01*
X875Y1878D02*
X881Y1878D01*
X761Y1877D02*
X767Y1877D01*
X789Y1877D02*
X795Y1877D01*
X821Y1877D02*
X834Y1877D01*
X875Y1877D02*
X881Y1877D01*
X761Y1876D02*
X767Y1876D01*
X789Y1876D02*
X795Y1876D01*
X821Y1876D02*
X834Y1876D01*
X875Y1876D02*
X881Y1876D01*
X761Y1875D02*
X767Y1875D01*
X789Y1875D02*
X795Y1875D01*
X821Y1875D02*
X835Y1875D01*
X875Y1875D02*
X881Y1875D01*
X761Y1874D02*
X767Y1874D01*
X788Y1874D02*
X795Y1874D01*
X820Y1874D02*
X827Y1874D01*
X829Y1874D02*
X835Y1874D01*
X875Y1874D02*
X881Y1874D01*
X761Y1873D02*
X767Y1873D01*
X788Y1873D02*
X794Y1873D01*
X820Y1873D02*
X827Y1873D01*
X829Y1873D02*
X835Y1873D01*
X875Y1873D02*
X881Y1873D01*
X761Y1872D02*
X767Y1872D01*
X788Y1872D02*
X794Y1872D01*
X820Y1872D02*
X826Y1872D01*
X829Y1872D02*
X836Y1872D01*
X875Y1872D02*
X881Y1872D01*
X761Y1871D02*
X767Y1871D01*
X787Y1871D02*
X794Y1871D01*
X820Y1871D02*
X826Y1871D01*
X829Y1871D02*
X836Y1871D01*
X875Y1871D02*
X881Y1871D01*
X761Y1870D02*
X767Y1870D01*
X786Y1870D02*
X794Y1870D01*
X819Y1870D02*
X826Y1870D01*
X830Y1870D02*
X836Y1870D01*
X875Y1870D02*
X881Y1870D01*
X761Y1869D02*
X767Y1869D01*
X785Y1869D02*
X793Y1869D01*
X819Y1869D02*
X825Y1869D01*
X830Y1869D02*
X836Y1869D01*
X875Y1869D02*
X881Y1869D01*
X761Y1868D02*
X767Y1868D01*
X783Y1868D02*
X793Y1868D01*
X819Y1868D02*
X825Y1868D01*
X830Y1868D02*
X837Y1868D01*
X875Y1868D02*
X881Y1868D01*
X761Y1867D02*
X792Y1867D01*
X818Y1867D02*
X825Y1867D01*
X831Y1867D02*
X837Y1867D01*
X875Y1867D02*
X881Y1867D01*
X761Y1866D02*
X791Y1866D01*
X818Y1866D02*
X824Y1866D01*
X831Y1866D02*
X837Y1866D01*
X875Y1866D02*
X881Y1866D01*
X761Y1865D02*
X790Y1865D01*
X818Y1865D02*
X824Y1865D01*
X831Y1865D02*
X838Y1865D01*
X875Y1865D02*
X881Y1865D01*
X761Y1864D02*
X790Y1864D01*
X818Y1864D02*
X824Y1864D01*
X832Y1864D02*
X838Y1864D01*
X875Y1864D02*
X881Y1864D01*
X761Y1863D02*
X791Y1863D01*
X817Y1863D02*
X824Y1863D01*
X832Y1863D02*
X838Y1863D01*
X875Y1863D02*
X881Y1863D01*
X761Y1862D02*
X792Y1862D01*
X817Y1862D02*
X823Y1862D01*
X832Y1862D02*
X838Y1862D01*
X875Y1862D02*
X881Y1862D01*
X761Y1861D02*
X793Y1861D01*
X817Y1861D02*
X823Y1861D01*
X832Y1861D02*
X839Y1861D01*
X875Y1861D02*
X881Y1861D01*
X761Y1860D02*
X767Y1860D01*
X785Y1860D02*
X793Y1860D01*
X816Y1860D02*
X823Y1860D01*
X833Y1860D02*
X839Y1860D01*
X875Y1860D02*
X881Y1860D01*
X761Y1859D02*
X767Y1859D01*
X786Y1859D02*
X794Y1859D01*
X816Y1859D02*
X822Y1859D01*
X833Y1859D02*
X839Y1859D01*
X875Y1859D02*
X881Y1859D01*
X761Y1858D02*
X767Y1858D01*
X787Y1858D02*
X794Y1858D01*
X816Y1858D02*
X822Y1858D01*
X833Y1858D02*
X840Y1858D01*
X875Y1858D02*
X881Y1858D01*
X761Y1857D02*
X767Y1857D01*
X788Y1857D02*
X794Y1857D01*
X815Y1857D02*
X822Y1857D01*
X834Y1857D02*
X840Y1857D01*
X875Y1857D02*
X881Y1857D01*
X761Y1856D02*
X767Y1856D01*
X788Y1856D02*
X794Y1856D01*
X815Y1856D02*
X840Y1856D01*
X875Y1856D02*
X881Y1856D01*
X761Y1855D02*
X767Y1855D01*
X788Y1855D02*
X795Y1855D01*
X815Y1855D02*
X840Y1855D01*
X875Y1855D02*
X881Y1855D01*
X761Y1854D02*
X767Y1854D01*
X789Y1854D02*
X795Y1854D01*
X815Y1854D02*
X841Y1854D01*
X875Y1854D02*
X881Y1854D01*
X761Y1853D02*
X767Y1853D01*
X789Y1853D02*
X795Y1853D01*
X814Y1853D02*
X841Y1853D01*
X875Y1853D02*
X881Y1853D01*
X761Y1852D02*
X767Y1852D01*
X789Y1852D02*
X795Y1852D01*
X814Y1852D02*
X841Y1852D01*
X875Y1852D02*
X881Y1852D01*
X761Y1851D02*
X767Y1851D01*
X789Y1851D02*
X795Y1851D01*
X814Y1851D02*
X842Y1851D01*
X875Y1851D02*
X881Y1851D01*
X761Y1850D02*
X767Y1850D01*
X788Y1850D02*
X795Y1850D01*
X813Y1850D02*
X842Y1850D01*
X875Y1850D02*
X881Y1850D01*
X761Y1849D02*
X767Y1849D01*
X788Y1849D02*
X794Y1849D01*
X813Y1849D02*
X820Y1849D01*
X836Y1849D02*
X842Y1849D01*
X875Y1849D02*
X881Y1849D01*
X761Y1848D02*
X767Y1848D01*
X788Y1848D02*
X794Y1848D01*
X813Y1848D02*
X819Y1848D01*
X836Y1848D02*
X843Y1848D01*
X875Y1848D02*
X881Y1848D01*
X761Y1847D02*
X767Y1847D01*
X787Y1847D02*
X794Y1847D01*
X813Y1847D02*
X819Y1847D01*
X837Y1847D02*
X843Y1847D01*
X875Y1847D02*
X881Y1847D01*
X761Y1846D02*
X767Y1846D01*
X786Y1846D02*
X794Y1846D01*
X812Y1846D02*
X819Y1846D01*
X837Y1846D02*
X843Y1846D01*
X875Y1846D02*
X881Y1846D01*
X761Y1845D02*
X767Y1845D01*
X785Y1845D02*
X793Y1845D01*
X812Y1845D02*
X818Y1845D01*
X837Y1845D02*
X843Y1845D01*
X875Y1845D02*
X881Y1845D01*
X761Y1844D02*
X792Y1844D01*
X812Y1844D02*
X818Y1844D01*
X837Y1844D02*
X844Y1844D01*
X875Y1844D02*
X881Y1844D01*
X761Y1843D02*
X792Y1843D01*
X811Y1843D02*
X818Y1843D01*
X838Y1843D02*
X844Y1843D01*
X875Y1843D02*
X881Y1843D01*
X761Y1842D02*
X791Y1842D01*
X811Y1842D02*
X817Y1842D01*
X838Y1842D02*
X844Y1842D01*
X875Y1842D02*
X881Y1842D01*
X761Y1841D02*
X790Y1841D01*
X811Y1841D02*
X817Y1841D01*
X838Y1841D02*
X845Y1841D01*
X875Y1841D02*
X881Y1841D01*
X761Y1840D02*
X789Y1840D01*
X811Y1840D02*
X817Y1840D01*
X839Y1840D02*
X845Y1840D01*
X875Y1840D02*
X881Y1840D01*
X761Y1839D02*
X787Y1839D01*
X811Y1839D02*
X816Y1839D01*
X839Y1839D02*
X844Y1839D01*
X875Y1839D02*
X880Y1839D01*
X761Y1838D02*
X785Y1838D01*
X812Y1838D02*
X815Y1838D01*
X840Y1838D02*
X843Y1838D01*
X876Y1838D02*
X879Y1838D01*
X1781Y1639D02*
X1781Y1639D01*
X1780Y1638D02*
X1782Y1638D01*
X1779Y1637D02*
X1783Y1637D01*
X1778Y1636D02*
X1783Y1636D01*
X1777Y1635D02*
X1783Y1635D01*
X1777Y1634D02*
X1782Y1634D01*
X1777Y1633D02*
X1781Y1633D01*
X1777Y1632D02*
X1780Y1632D01*
X1777Y1631D02*
X1779Y1631D01*
X1777Y1630D02*
X1778Y1630D01*
X1777Y1629D02*
X1777Y1629D01*
X1750Y1608D02*
X1756Y1608D01*
X1749Y1607D02*
X1755Y1607D01*
X1748Y1606D02*
X1754Y1606D01*
X1747Y1605D02*
X1753Y1605D01*
X1747Y1604D02*
X1752Y1604D01*
X1748Y1603D02*
X1751Y1603D01*
X1749Y1602D02*
X1750Y1602D01*
X798Y1591D02*
X815Y1591D01*
X835Y1591D02*
X837Y1591D01*
X892Y1591D02*
X908Y1591D01*
X796Y1590D02*
X816Y1590D01*
X834Y1590D02*
X839Y1590D01*
X891Y1590D02*
X909Y1590D01*
X794Y1589D02*
X817Y1589D01*
X833Y1589D02*
X839Y1589D01*
X890Y1589D02*
X910Y1589D01*
X793Y1588D02*
X817Y1588D01*
X833Y1588D02*
X839Y1588D01*
X890Y1588D02*
X910Y1588D01*
X793Y1587D02*
X817Y1587D01*
X833Y1587D02*
X839Y1587D01*
X890Y1587D02*
X910Y1587D01*
X792Y1586D02*
X816Y1586D01*
X833Y1586D02*
X839Y1586D01*
X890Y1586D02*
X910Y1586D01*
X792Y1585D02*
X815Y1585D01*
X833Y1585D02*
X839Y1585D01*
X890Y1585D02*
X910Y1585D01*
X791Y1584D02*
X799Y1584D01*
X833Y1584D02*
X839Y1584D01*
X890Y1584D02*
X896Y1584D01*
X904Y1584D02*
X910Y1584D01*
X791Y1583D02*
X798Y1583D01*
X833Y1583D02*
X839Y1583D01*
X890Y1583D02*
X896Y1583D01*
X904Y1583D02*
X910Y1583D01*
X790Y1582D02*
X797Y1582D01*
X833Y1582D02*
X839Y1582D01*
X890Y1582D02*
X896Y1582D01*
X904Y1582D02*
X910Y1582D01*
X790Y1581D02*
X796Y1581D01*
X833Y1581D02*
X839Y1581D01*
X890Y1581D02*
X896Y1581D01*
X904Y1581D02*
X910Y1581D01*
X789Y1580D02*
X796Y1580D01*
X833Y1580D02*
X839Y1580D01*
X890Y1580D02*
X896Y1580D01*
X904Y1580D02*
X910Y1580D01*
X789Y1579D02*
X795Y1579D01*
X833Y1579D02*
X839Y1579D01*
X890Y1579D02*
X896Y1579D01*
X904Y1579D02*
X910Y1579D01*
X788Y1578D02*
X795Y1578D01*
X833Y1578D02*
X839Y1578D01*
X890Y1578D02*
X896Y1578D01*
X904Y1578D02*
X910Y1578D01*
X788Y1577D02*
X794Y1577D01*
X833Y1577D02*
X839Y1577D01*
X890Y1577D02*
X896Y1577D01*
X904Y1577D02*
X910Y1577D01*
X787Y1576D02*
X794Y1576D01*
X833Y1576D02*
X839Y1576D01*
X849Y1576D02*
X860Y1576D01*
X890Y1576D02*
X896Y1576D01*
X904Y1576D02*
X910Y1576D01*
X787Y1575D02*
X793Y1575D01*
X833Y1575D02*
X839Y1575D01*
X847Y1575D02*
X862Y1575D01*
X890Y1575D02*
X896Y1575D01*
X904Y1575D02*
X910Y1575D01*
X786Y1574D02*
X793Y1574D01*
X833Y1574D02*
X839Y1574D01*
X845Y1574D02*
X863Y1574D01*
X890Y1574D02*
X896Y1574D01*
X904Y1574D02*
X910Y1574D01*
X786Y1573D02*
X792Y1573D01*
X833Y1573D02*
X839Y1573D01*
X844Y1573D02*
X864Y1573D01*
X890Y1573D02*
X896Y1573D01*
X904Y1573D02*
X910Y1573D01*
X785Y1572D02*
X792Y1572D01*
X833Y1572D02*
X839Y1572D01*
X842Y1572D02*
X865Y1572D01*
X890Y1572D02*
X896Y1572D01*
X904Y1572D02*
X910Y1572D01*
X785Y1571D02*
X791Y1571D01*
X833Y1571D02*
X865Y1571D01*
X890Y1571D02*
X896Y1571D01*
X904Y1571D02*
X910Y1571D01*
X784Y1570D02*
X791Y1570D01*
X833Y1570D02*
X866Y1570D01*
X890Y1570D02*
X896Y1570D01*
X904Y1570D02*
X910Y1570D01*
X784Y1569D02*
X790Y1569D01*
X833Y1569D02*
X849Y1569D01*
X859Y1569D02*
X866Y1569D01*
X890Y1569D02*
X896Y1569D01*
X904Y1569D02*
X910Y1569D01*
X784Y1568D02*
X790Y1568D01*
X833Y1568D02*
X848Y1568D01*
X860Y1568D02*
X866Y1568D01*
X890Y1568D02*
X896Y1568D01*
X903Y1568D02*
X910Y1568D01*
X783Y1567D02*
X790Y1567D01*
X833Y1567D02*
X846Y1567D01*
X860Y1567D02*
X866Y1567D01*
X887Y1567D02*
X913Y1567D01*
X783Y1566D02*
X789Y1566D01*
X833Y1566D02*
X845Y1566D01*
X860Y1566D02*
X866Y1566D01*
X885Y1566D02*
X914Y1566D01*
X783Y1565D02*
X789Y1565D01*
X833Y1565D02*
X843Y1565D01*
X860Y1565D02*
X866Y1565D01*
X885Y1565D02*
X915Y1565D01*
X783Y1564D02*
X789Y1564D01*
X833Y1564D02*
X842Y1564D01*
X860Y1564D02*
X866Y1564D01*
X884Y1564D02*
X916Y1564D01*
X783Y1563D02*
X789Y1563D01*
X833Y1563D02*
X840Y1563D01*
X860Y1563D02*
X866Y1563D01*
X883Y1563D02*
X916Y1563D01*
X783Y1562D02*
X790Y1562D01*
X833Y1562D02*
X839Y1562D01*
X860Y1562D02*
X866Y1562D01*
X883Y1562D02*
X917Y1562D01*
X784Y1561D02*
X790Y1561D01*
X833Y1561D02*
X839Y1561D01*
X860Y1561D02*
X866Y1561D01*
X883Y1561D02*
X917Y1561D01*
X784Y1560D02*
X790Y1560D01*
X833Y1560D02*
X839Y1560D01*
X860Y1560D02*
X866Y1560D01*
X883Y1560D02*
X889Y1560D01*
X911Y1560D02*
X917Y1560D01*
X784Y1559D02*
X791Y1559D01*
X833Y1559D02*
X839Y1559D01*
X860Y1559D02*
X866Y1559D01*
X883Y1559D02*
X889Y1559D01*
X911Y1559D02*
X917Y1559D01*
X785Y1558D02*
X791Y1558D01*
X833Y1558D02*
X839Y1558D01*
X860Y1558D02*
X866Y1558D01*
X883Y1558D02*
X889Y1558D01*
X911Y1558D02*
X917Y1558D01*
X785Y1557D02*
X792Y1557D01*
X833Y1557D02*
X839Y1557D01*
X860Y1557D02*
X866Y1557D01*
X883Y1557D02*
X889Y1557D01*
X911Y1557D02*
X917Y1557D01*
X785Y1556D02*
X792Y1556D01*
X833Y1556D02*
X839Y1556D01*
X860Y1556D02*
X866Y1556D01*
X883Y1556D02*
X889Y1556D01*
X911Y1556D02*
X917Y1556D01*
X786Y1555D02*
X793Y1555D01*
X833Y1555D02*
X839Y1555D01*
X860Y1555D02*
X866Y1555D01*
X883Y1555D02*
X889Y1555D01*
X911Y1555D02*
X917Y1555D01*
X786Y1554D02*
X793Y1554D01*
X833Y1554D02*
X839Y1554D01*
X860Y1554D02*
X866Y1554D01*
X883Y1554D02*
X889Y1554D01*
X911Y1554D02*
X917Y1554D01*
X787Y1553D02*
X794Y1553D01*
X833Y1553D02*
X839Y1553D01*
X860Y1553D02*
X866Y1553D01*
X883Y1553D02*
X889Y1553D01*
X911Y1553D02*
X917Y1553D01*
X787Y1552D02*
X794Y1552D01*
X833Y1552D02*
X839Y1552D01*
X860Y1552D02*
X866Y1552D01*
X883Y1552D02*
X889Y1552D01*
X911Y1552D02*
X917Y1552D01*
X788Y1551D02*
X795Y1551D01*
X833Y1551D02*
X839Y1551D01*
X860Y1551D02*
X866Y1551D01*
X883Y1551D02*
X889Y1551D01*
X911Y1551D02*
X917Y1551D01*
X788Y1550D02*
X795Y1550D01*
X833Y1550D02*
X839Y1550D01*
X860Y1550D02*
X866Y1550D01*
X883Y1550D02*
X889Y1550D01*
X911Y1550D02*
X917Y1550D01*
X789Y1549D02*
X796Y1549D01*
X833Y1549D02*
X839Y1549D01*
X860Y1549D02*
X866Y1549D01*
X883Y1549D02*
X889Y1549D01*
X911Y1549D02*
X917Y1549D01*
X789Y1548D02*
X796Y1548D01*
X833Y1548D02*
X839Y1548D01*
X860Y1548D02*
X866Y1548D01*
X883Y1548D02*
X889Y1548D01*
X911Y1548D02*
X917Y1548D01*
X790Y1547D02*
X797Y1547D01*
X833Y1547D02*
X839Y1547D01*
X860Y1547D02*
X866Y1547D01*
X883Y1547D02*
X889Y1547D01*
X911Y1547D02*
X917Y1547D01*
X790Y1546D02*
X797Y1546D01*
X833Y1546D02*
X839Y1546D01*
X860Y1546D02*
X866Y1546D01*
X883Y1546D02*
X889Y1546D01*
X911Y1546D02*
X917Y1546D01*
X791Y1545D02*
X798Y1545D01*
X833Y1545D02*
X839Y1545D01*
X860Y1545D02*
X866Y1545D01*
X883Y1545D02*
X889Y1545D01*
X911Y1545D02*
X917Y1545D01*
X791Y1544D02*
X815Y1544D01*
X833Y1544D02*
X839Y1544D01*
X860Y1544D02*
X866Y1544D01*
X883Y1544D02*
X917Y1544D01*
X792Y1543D02*
X816Y1543D01*
X833Y1543D02*
X839Y1543D01*
X860Y1543D02*
X866Y1543D01*
X883Y1543D02*
X917Y1543D01*
X793Y1542D02*
X817Y1542D01*
X833Y1542D02*
X839Y1542D01*
X860Y1542D02*
X866Y1542D01*
X884Y1542D02*
X916Y1542D01*
X793Y1541D02*
X817Y1541D01*
X833Y1541D02*
X839Y1541D01*
X860Y1541D02*
X866Y1541D01*
X884Y1541D02*
X916Y1541D01*
X794Y1540D02*
X817Y1540D01*
X833Y1540D02*
X839Y1540D01*
X860Y1540D02*
X866Y1540D01*
X885Y1540D02*
X915Y1540D01*
X796Y1539D02*
X816Y1539D01*
X834Y1539D02*
X839Y1539D01*
X861Y1539D02*
X866Y1539D01*
X886Y1539D02*
X914Y1539D01*
X798Y1538D02*
X815Y1538D01*
X835Y1538D02*
X838Y1538D01*
X862Y1538D02*
X865Y1538D01*
X887Y1538D02*
X913Y1538D01*
X1598Y1468D02*
X1610Y1468D01*
X1629Y1468D02*
X1629Y1468D01*
X1653Y1468D02*
X1653Y1468D01*
X1739Y1468D02*
X1739Y1468D01*
X1756Y1468D02*
X1776Y1468D01*
X1801Y1468D02*
X1801Y1468D01*
X1825Y1468D02*
X1825Y1468D01*
X1842Y1468D02*
X1848Y1468D01*
X1864Y1468D02*
X1870Y1468D01*
X1595Y1467D02*
X1611Y1467D01*
X1627Y1467D02*
X1631Y1467D01*
X1651Y1467D02*
X1654Y1467D01*
X1737Y1467D02*
X1741Y1467D01*
X1756Y1467D02*
X1780Y1467D01*
X1799Y1467D02*
X1803Y1467D01*
X1823Y1467D02*
X1827Y1467D01*
X1842Y1467D02*
X1849Y1467D01*
X1863Y1467D02*
X1871Y1467D01*
X1593Y1466D02*
X1612Y1466D01*
X1627Y1466D02*
X1631Y1466D01*
X1650Y1466D02*
X1655Y1466D01*
X1736Y1466D02*
X1741Y1466D01*
X1756Y1466D02*
X1781Y1466D01*
X1799Y1466D02*
X1804Y1466D01*
X1823Y1466D02*
X1827Y1466D01*
X1842Y1466D02*
X1850Y1466D01*
X1863Y1466D02*
X1871Y1466D01*
X1592Y1465D02*
X1612Y1465D01*
X1626Y1465D02*
X1631Y1465D01*
X1650Y1465D02*
X1655Y1465D01*
X1736Y1465D02*
X1741Y1465D01*
X1756Y1465D02*
X1782Y1465D01*
X1799Y1465D02*
X1804Y1465D01*
X1822Y1465D02*
X1827Y1465D01*
X1842Y1465D02*
X1850Y1465D01*
X1862Y1465D02*
X1871Y1465D01*
X1591Y1464D02*
X1612Y1464D01*
X1626Y1464D02*
X1631Y1464D01*
X1650Y1464D02*
X1655Y1464D01*
X1735Y1464D02*
X1741Y1464D01*
X1756Y1464D02*
X1783Y1464D01*
X1799Y1464D02*
X1804Y1464D01*
X1822Y1464D02*
X1827Y1464D01*
X1842Y1464D02*
X1851Y1464D01*
X1861Y1464D02*
X1871Y1464D01*
X1591Y1463D02*
X1611Y1463D01*
X1626Y1463D02*
X1631Y1463D01*
X1650Y1463D02*
X1655Y1463D01*
X1735Y1463D02*
X1741Y1463D01*
X1756Y1463D02*
X1783Y1463D01*
X1799Y1463D02*
X1804Y1463D01*
X1822Y1463D02*
X1827Y1463D01*
X1842Y1463D02*
X1852Y1463D01*
X1860Y1463D02*
X1871Y1463D01*
X1590Y1462D02*
X1598Y1462D01*
X1626Y1462D02*
X1631Y1462D01*
X1650Y1462D02*
X1655Y1462D01*
X1734Y1462D02*
X1740Y1462D01*
X1756Y1462D02*
X1761Y1462D01*
X1776Y1462D02*
X1784Y1462D01*
X1799Y1462D02*
X1804Y1462D01*
X1822Y1462D02*
X1827Y1462D01*
X1842Y1462D02*
X1853Y1462D01*
X1860Y1462D02*
X1871Y1462D01*
X1590Y1461D02*
X1596Y1461D01*
X1626Y1461D02*
X1631Y1461D01*
X1650Y1461D02*
X1655Y1461D01*
X1733Y1461D02*
X1739Y1461D01*
X1756Y1461D02*
X1761Y1461D01*
X1779Y1461D02*
X1784Y1461D01*
X1799Y1461D02*
X1804Y1461D01*
X1822Y1461D02*
X1827Y1461D01*
X1842Y1461D02*
X1853Y1461D01*
X1859Y1461D02*
X1871Y1461D01*
X1589Y1460D02*
X1595Y1460D01*
X1626Y1460D02*
X1631Y1460D01*
X1650Y1460D02*
X1655Y1460D01*
X1733Y1460D02*
X1739Y1460D01*
X1756Y1460D02*
X1761Y1460D01*
X1779Y1460D02*
X1784Y1460D01*
X1799Y1460D02*
X1804Y1460D01*
X1822Y1460D02*
X1827Y1460D01*
X1842Y1460D02*
X1854Y1460D01*
X1858Y1460D02*
X1871Y1460D01*
X1589Y1459D02*
X1595Y1459D01*
X1626Y1459D02*
X1631Y1459D01*
X1650Y1459D02*
X1655Y1459D01*
X1732Y1459D02*
X1738Y1459D01*
X1756Y1459D02*
X1761Y1459D01*
X1779Y1459D02*
X1784Y1459D01*
X1799Y1459D02*
X1804Y1459D01*
X1822Y1459D02*
X1827Y1459D01*
X1842Y1459D02*
X1855Y1459D01*
X1858Y1459D02*
X1871Y1459D01*
X1588Y1458D02*
X1594Y1458D01*
X1626Y1458D02*
X1631Y1458D01*
X1650Y1458D02*
X1655Y1458D01*
X1732Y1458D02*
X1738Y1458D01*
X1756Y1458D02*
X1761Y1458D01*
X1779Y1458D02*
X1784Y1458D01*
X1799Y1458D02*
X1804Y1458D01*
X1822Y1458D02*
X1827Y1458D01*
X1842Y1458D02*
X1847Y1458D01*
X1849Y1458D02*
X1855Y1458D01*
X1857Y1458D02*
X1863Y1458D01*
X1865Y1458D02*
X1871Y1458D01*
X1588Y1457D02*
X1594Y1457D01*
X1626Y1457D02*
X1631Y1457D01*
X1650Y1457D02*
X1655Y1457D01*
X1731Y1457D02*
X1737Y1457D01*
X1756Y1457D02*
X1761Y1457D01*
X1779Y1457D02*
X1784Y1457D01*
X1799Y1457D02*
X1804Y1457D01*
X1822Y1457D02*
X1827Y1457D01*
X1842Y1457D02*
X1847Y1457D01*
X1850Y1457D02*
X1863Y1457D01*
X1865Y1457D02*
X1871Y1457D01*
X1587Y1456D02*
X1593Y1456D01*
X1626Y1456D02*
X1631Y1456D01*
X1650Y1456D02*
X1655Y1456D01*
X1731Y1456D02*
X1737Y1456D01*
X1756Y1456D02*
X1761Y1456D01*
X1779Y1456D02*
X1784Y1456D01*
X1799Y1456D02*
X1804Y1456D01*
X1822Y1456D02*
X1827Y1456D01*
X1842Y1456D02*
X1847Y1456D01*
X1850Y1456D02*
X1862Y1456D01*
X1865Y1456D02*
X1871Y1456D01*
X1587Y1455D02*
X1593Y1455D01*
X1626Y1455D02*
X1631Y1455D01*
X1650Y1455D02*
X1655Y1455D01*
X1675Y1455D02*
X1692Y1455D01*
X1730Y1455D02*
X1736Y1455D01*
X1756Y1455D02*
X1761Y1455D01*
X1779Y1455D02*
X1784Y1455D01*
X1799Y1455D02*
X1804Y1455D01*
X1822Y1455D02*
X1827Y1455D01*
X1842Y1455D02*
X1847Y1455D01*
X1851Y1455D02*
X1861Y1455D01*
X1865Y1455D02*
X1871Y1455D01*
X1586Y1454D02*
X1592Y1454D01*
X1626Y1454D02*
X1631Y1454D01*
X1650Y1454D02*
X1655Y1454D01*
X1673Y1454D02*
X1694Y1454D01*
X1729Y1454D02*
X1735Y1454D01*
X1756Y1454D02*
X1761Y1454D01*
X1779Y1454D02*
X1784Y1454D01*
X1799Y1454D02*
X1804Y1454D01*
X1822Y1454D02*
X1827Y1454D01*
X1842Y1454D02*
X1847Y1454D01*
X1852Y1454D02*
X1860Y1454D01*
X1865Y1454D02*
X1871Y1454D01*
X1586Y1453D02*
X1592Y1453D01*
X1626Y1453D02*
X1631Y1453D01*
X1650Y1453D02*
X1655Y1453D01*
X1672Y1453D02*
X1696Y1453D01*
X1729Y1453D02*
X1735Y1453D01*
X1756Y1453D02*
X1761Y1453D01*
X1779Y1453D02*
X1784Y1453D01*
X1799Y1453D02*
X1804Y1453D01*
X1822Y1453D02*
X1827Y1453D01*
X1842Y1453D02*
X1847Y1453D01*
X1852Y1453D02*
X1860Y1453D01*
X1865Y1453D02*
X1871Y1453D01*
X1585Y1452D02*
X1591Y1452D01*
X1626Y1452D02*
X1631Y1452D01*
X1650Y1452D02*
X1655Y1452D01*
X1671Y1452D02*
X1697Y1452D01*
X1728Y1452D02*
X1734Y1452D01*
X1756Y1452D02*
X1761Y1452D01*
X1779Y1452D02*
X1784Y1452D01*
X1799Y1452D02*
X1804Y1452D01*
X1812Y1452D02*
X1815Y1452D01*
X1822Y1452D02*
X1827Y1452D01*
X1842Y1452D02*
X1847Y1452D01*
X1853Y1452D02*
X1859Y1452D01*
X1865Y1452D02*
X1871Y1452D01*
X1585Y1451D02*
X1591Y1451D01*
X1626Y1451D02*
X1631Y1451D01*
X1650Y1451D02*
X1655Y1451D01*
X1671Y1451D02*
X1697Y1451D01*
X1728Y1451D02*
X1734Y1451D01*
X1756Y1451D02*
X1761Y1451D01*
X1779Y1451D02*
X1784Y1451D01*
X1799Y1451D02*
X1804Y1451D01*
X1811Y1451D02*
X1815Y1451D01*
X1822Y1451D02*
X1827Y1451D01*
X1842Y1451D02*
X1847Y1451D01*
X1854Y1451D02*
X1859Y1451D01*
X1865Y1451D02*
X1871Y1451D01*
X1584Y1450D02*
X1590Y1450D01*
X1626Y1450D02*
X1631Y1450D01*
X1650Y1450D02*
X1655Y1450D01*
X1671Y1450D02*
X1698Y1450D01*
X1727Y1450D02*
X1733Y1450D01*
X1756Y1450D02*
X1761Y1450D01*
X1779Y1450D02*
X1784Y1450D01*
X1799Y1450D02*
X1804Y1450D01*
X1811Y1450D02*
X1816Y1450D01*
X1822Y1450D02*
X1827Y1450D01*
X1842Y1450D02*
X1847Y1450D01*
X1854Y1450D02*
X1859Y1450D01*
X1865Y1450D02*
X1871Y1450D01*
X1584Y1449D02*
X1590Y1449D01*
X1626Y1449D02*
X1631Y1449D01*
X1650Y1449D02*
X1655Y1449D01*
X1670Y1449D02*
X1676Y1449D01*
X1692Y1449D02*
X1698Y1449D01*
X1726Y1449D02*
X1732Y1449D01*
X1756Y1449D02*
X1761Y1449D01*
X1779Y1449D02*
X1784Y1449D01*
X1799Y1449D02*
X1804Y1449D01*
X1811Y1449D02*
X1816Y1449D01*
X1822Y1449D02*
X1827Y1449D01*
X1842Y1449D02*
X1847Y1449D01*
X1854Y1449D02*
X1859Y1449D01*
X1865Y1449D02*
X1871Y1449D01*
X1584Y1448D02*
X1589Y1448D01*
X1626Y1448D02*
X1632Y1448D01*
X1650Y1448D02*
X1655Y1448D01*
X1670Y1448D02*
X1675Y1448D01*
X1693Y1448D02*
X1697Y1448D01*
X1726Y1448D02*
X1732Y1448D01*
X1756Y1448D02*
X1761Y1448D01*
X1779Y1448D02*
X1784Y1448D01*
X1799Y1448D02*
X1804Y1448D01*
X1811Y1448D02*
X1816Y1448D01*
X1822Y1448D02*
X1827Y1448D01*
X1842Y1448D02*
X1847Y1448D01*
X1854Y1448D02*
X1858Y1448D01*
X1865Y1448D02*
X1871Y1448D01*
X1584Y1447D02*
X1589Y1447D01*
X1626Y1447D02*
X1655Y1447D01*
X1670Y1447D02*
X1675Y1447D01*
X1695Y1447D02*
X1696Y1447D01*
X1725Y1447D02*
X1731Y1447D01*
X1756Y1447D02*
X1761Y1447D01*
X1779Y1447D02*
X1784Y1447D01*
X1799Y1447D02*
X1804Y1447D01*
X1811Y1447D02*
X1816Y1447D01*
X1822Y1447D02*
X1827Y1447D01*
X1842Y1447D02*
X1847Y1447D01*
X1855Y1447D02*
X1857Y1447D01*
X1865Y1447D02*
X1871Y1447D01*
X1583Y1446D02*
X1589Y1446D01*
X1626Y1446D02*
X1655Y1446D01*
X1670Y1446D02*
X1677Y1446D01*
X1725Y1446D02*
X1731Y1446D01*
X1756Y1446D02*
X1761Y1446D01*
X1778Y1446D02*
X1784Y1446D01*
X1799Y1446D02*
X1804Y1446D01*
X1811Y1446D02*
X1816Y1446D01*
X1822Y1446D02*
X1827Y1446D01*
X1842Y1446D02*
X1847Y1446D01*
X1865Y1446D02*
X1871Y1446D01*
X1583Y1445D02*
X1588Y1445D01*
X1626Y1445D02*
X1655Y1445D01*
X1671Y1445D02*
X1679Y1445D01*
X1724Y1445D02*
X1730Y1445D01*
X1756Y1445D02*
X1784Y1445D01*
X1799Y1445D02*
X1804Y1445D01*
X1811Y1445D02*
X1816Y1445D01*
X1822Y1445D02*
X1827Y1445D01*
X1842Y1445D02*
X1847Y1445D01*
X1865Y1445D02*
X1871Y1445D01*
X1583Y1444D02*
X1588Y1444D01*
X1626Y1444D02*
X1655Y1444D01*
X1671Y1444D02*
X1681Y1444D01*
X1723Y1444D02*
X1730Y1444D01*
X1756Y1444D02*
X1783Y1444D01*
X1799Y1444D02*
X1804Y1444D01*
X1811Y1444D02*
X1816Y1444D01*
X1822Y1444D02*
X1827Y1444D01*
X1842Y1444D02*
X1847Y1444D01*
X1865Y1444D02*
X1871Y1444D01*
X1583Y1443D02*
X1589Y1443D01*
X1626Y1443D02*
X1655Y1443D01*
X1672Y1443D02*
X1683Y1443D01*
X1723Y1443D02*
X1729Y1443D01*
X1756Y1443D02*
X1783Y1443D01*
X1799Y1443D02*
X1804Y1443D01*
X1811Y1443D02*
X1816Y1443D01*
X1822Y1443D02*
X1827Y1443D01*
X1842Y1443D02*
X1847Y1443D01*
X1865Y1443D02*
X1871Y1443D01*
X1584Y1442D02*
X1589Y1442D01*
X1626Y1442D02*
X1655Y1442D01*
X1673Y1442D02*
X1686Y1442D01*
X1722Y1442D02*
X1728Y1442D01*
X1756Y1442D02*
X1782Y1442D01*
X1799Y1442D02*
X1804Y1442D01*
X1811Y1442D02*
X1816Y1442D01*
X1822Y1442D02*
X1827Y1442D01*
X1842Y1442D02*
X1847Y1442D01*
X1865Y1442D02*
X1871Y1442D01*
X1584Y1441D02*
X1589Y1441D01*
X1626Y1441D02*
X1631Y1441D01*
X1650Y1441D02*
X1655Y1441D01*
X1674Y1441D02*
X1688Y1441D01*
X1722Y1441D02*
X1728Y1441D01*
X1756Y1441D02*
X1781Y1441D01*
X1799Y1441D02*
X1804Y1441D01*
X1811Y1441D02*
X1816Y1441D01*
X1822Y1441D02*
X1827Y1441D01*
X1842Y1441D02*
X1847Y1441D01*
X1865Y1441D02*
X1871Y1441D01*
X1584Y1440D02*
X1590Y1440D01*
X1626Y1440D02*
X1631Y1440D01*
X1650Y1440D02*
X1655Y1440D01*
X1676Y1440D02*
X1690Y1440D01*
X1721Y1440D02*
X1727Y1440D01*
X1756Y1440D02*
X1779Y1440D01*
X1799Y1440D02*
X1804Y1440D01*
X1811Y1440D02*
X1816Y1440D01*
X1822Y1440D02*
X1827Y1440D01*
X1842Y1440D02*
X1847Y1440D01*
X1865Y1440D02*
X1871Y1440D01*
X1585Y1439D02*
X1590Y1439D01*
X1626Y1439D02*
X1631Y1439D01*
X1650Y1439D02*
X1655Y1439D01*
X1679Y1439D02*
X1693Y1439D01*
X1721Y1439D02*
X1727Y1439D01*
X1756Y1439D02*
X1761Y1439D01*
X1799Y1439D02*
X1804Y1439D01*
X1811Y1439D02*
X1816Y1439D01*
X1822Y1439D02*
X1827Y1439D01*
X1842Y1439D02*
X1847Y1439D01*
X1865Y1439D02*
X1871Y1439D01*
X1585Y1438D02*
X1591Y1438D01*
X1626Y1438D02*
X1631Y1438D01*
X1650Y1438D02*
X1655Y1438D01*
X1681Y1438D02*
X1694Y1438D01*
X1720Y1438D02*
X1726Y1438D01*
X1756Y1438D02*
X1761Y1438D01*
X1799Y1438D02*
X1804Y1438D01*
X1811Y1438D02*
X1816Y1438D01*
X1822Y1438D02*
X1827Y1438D01*
X1842Y1438D02*
X1847Y1438D01*
X1865Y1438D02*
X1871Y1438D01*
X1586Y1437D02*
X1591Y1437D01*
X1626Y1437D02*
X1631Y1437D01*
X1650Y1437D02*
X1655Y1437D01*
X1683Y1437D02*
X1695Y1437D01*
X1719Y1437D02*
X1725Y1437D01*
X1756Y1437D02*
X1761Y1437D01*
X1799Y1437D02*
X1804Y1437D01*
X1811Y1437D02*
X1816Y1437D01*
X1822Y1437D02*
X1827Y1437D01*
X1842Y1437D02*
X1847Y1437D01*
X1865Y1437D02*
X1871Y1437D01*
X1586Y1436D02*
X1592Y1436D01*
X1626Y1436D02*
X1631Y1436D01*
X1650Y1436D02*
X1655Y1436D01*
X1685Y1436D02*
X1696Y1436D01*
X1719Y1436D02*
X1725Y1436D01*
X1756Y1436D02*
X1761Y1436D01*
X1799Y1436D02*
X1804Y1436D01*
X1811Y1436D02*
X1816Y1436D01*
X1822Y1436D02*
X1827Y1436D01*
X1842Y1436D02*
X1847Y1436D01*
X1865Y1436D02*
X1871Y1436D01*
X1586Y1435D02*
X1592Y1435D01*
X1626Y1435D02*
X1631Y1435D01*
X1650Y1435D02*
X1655Y1435D01*
X1688Y1435D02*
X1697Y1435D01*
X1718Y1435D02*
X1724Y1435D01*
X1756Y1435D02*
X1761Y1435D01*
X1799Y1435D02*
X1804Y1435D01*
X1811Y1435D02*
X1816Y1435D01*
X1822Y1435D02*
X1827Y1435D01*
X1842Y1435D02*
X1847Y1435D01*
X1865Y1435D02*
X1871Y1435D01*
X1587Y1434D02*
X1593Y1434D01*
X1626Y1434D02*
X1631Y1434D01*
X1650Y1434D02*
X1655Y1434D01*
X1690Y1434D02*
X1697Y1434D01*
X1718Y1434D02*
X1724Y1434D01*
X1756Y1434D02*
X1761Y1434D01*
X1799Y1434D02*
X1804Y1434D01*
X1811Y1434D02*
X1816Y1434D01*
X1822Y1434D02*
X1827Y1434D01*
X1842Y1434D02*
X1847Y1434D01*
X1865Y1434D02*
X1871Y1434D01*
X1587Y1433D02*
X1593Y1433D01*
X1626Y1433D02*
X1631Y1433D01*
X1650Y1433D02*
X1655Y1433D01*
X1692Y1433D02*
X1698Y1433D01*
X1717Y1433D02*
X1723Y1433D01*
X1756Y1433D02*
X1761Y1433D01*
X1799Y1433D02*
X1804Y1433D01*
X1811Y1433D02*
X1816Y1433D01*
X1822Y1433D02*
X1827Y1433D01*
X1842Y1433D02*
X1847Y1433D01*
X1865Y1433D02*
X1871Y1433D01*
X1588Y1432D02*
X1594Y1432D01*
X1626Y1432D02*
X1631Y1432D01*
X1650Y1432D02*
X1655Y1432D01*
X1693Y1432D02*
X1698Y1432D01*
X1716Y1432D02*
X1723Y1432D01*
X1756Y1432D02*
X1761Y1432D01*
X1799Y1432D02*
X1804Y1432D01*
X1811Y1432D02*
X1816Y1432D01*
X1822Y1432D02*
X1827Y1432D01*
X1842Y1432D02*
X1847Y1432D01*
X1865Y1432D02*
X1871Y1432D01*
X1589Y1431D02*
X1594Y1431D01*
X1626Y1431D02*
X1631Y1431D01*
X1650Y1431D02*
X1655Y1431D01*
X1693Y1431D02*
X1698Y1431D01*
X1716Y1431D02*
X1722Y1431D01*
X1756Y1431D02*
X1761Y1431D01*
X1799Y1431D02*
X1804Y1431D01*
X1811Y1431D02*
X1816Y1431D01*
X1822Y1431D02*
X1827Y1431D01*
X1842Y1431D02*
X1847Y1431D01*
X1865Y1431D02*
X1871Y1431D01*
X1589Y1430D02*
X1595Y1430D01*
X1626Y1430D02*
X1631Y1430D01*
X1650Y1430D02*
X1655Y1430D01*
X1693Y1430D02*
X1698Y1430D01*
X1715Y1430D02*
X1721Y1430D01*
X1756Y1430D02*
X1761Y1430D01*
X1799Y1430D02*
X1804Y1430D01*
X1810Y1430D02*
X1816Y1430D01*
X1822Y1430D02*
X1827Y1430D01*
X1842Y1430D02*
X1847Y1430D01*
X1865Y1430D02*
X1871Y1430D01*
X1590Y1429D02*
X1595Y1429D01*
X1626Y1429D02*
X1631Y1429D01*
X1650Y1429D02*
X1655Y1429D01*
X1670Y1429D02*
X1674Y1429D01*
X1693Y1429D02*
X1698Y1429D01*
X1715Y1429D02*
X1721Y1429D01*
X1756Y1429D02*
X1761Y1429D01*
X1799Y1429D02*
X1804Y1429D01*
X1810Y1429D02*
X1816Y1429D01*
X1822Y1429D02*
X1827Y1429D01*
X1842Y1429D02*
X1847Y1429D01*
X1865Y1429D02*
X1871Y1429D01*
X1590Y1428D02*
X1596Y1428D01*
X1626Y1428D02*
X1631Y1428D01*
X1650Y1428D02*
X1655Y1428D01*
X1670Y1428D02*
X1675Y1428D01*
X1692Y1428D02*
X1698Y1428D01*
X1714Y1428D02*
X1720Y1428D01*
X1756Y1428D02*
X1761Y1428D01*
X1799Y1428D02*
X1805Y1428D01*
X1809Y1428D02*
X1817Y1428D01*
X1821Y1428D02*
X1827Y1428D01*
X1842Y1428D02*
X1847Y1428D01*
X1865Y1428D02*
X1871Y1428D01*
X1591Y1427D02*
X1611Y1427D01*
X1626Y1427D02*
X1631Y1427D01*
X1650Y1427D02*
X1655Y1427D01*
X1670Y1427D02*
X1697Y1427D01*
X1714Y1427D02*
X1720Y1427D01*
X1756Y1427D02*
X1761Y1427D01*
X1800Y1427D02*
X1826Y1427D01*
X1842Y1427D02*
X1847Y1427D01*
X1865Y1427D02*
X1871Y1427D01*
X1591Y1426D02*
X1612Y1426D01*
X1626Y1426D02*
X1631Y1426D01*
X1650Y1426D02*
X1655Y1426D01*
X1670Y1426D02*
X1697Y1426D01*
X1713Y1426D02*
X1719Y1426D01*
X1756Y1426D02*
X1761Y1426D01*
X1800Y1426D02*
X1826Y1426D01*
X1842Y1426D02*
X1847Y1426D01*
X1865Y1426D02*
X1871Y1426D01*
X1592Y1425D02*
X1612Y1425D01*
X1626Y1425D02*
X1631Y1425D01*
X1650Y1425D02*
X1655Y1425D01*
X1670Y1425D02*
X1696Y1425D01*
X1713Y1425D02*
X1718Y1425D01*
X1756Y1425D02*
X1761Y1425D01*
X1801Y1425D02*
X1825Y1425D01*
X1842Y1425D02*
X1847Y1425D01*
X1865Y1425D02*
X1871Y1425D01*
X1593Y1424D02*
X1612Y1424D01*
X1626Y1424D02*
X1631Y1424D01*
X1650Y1424D02*
X1655Y1424D01*
X1671Y1424D02*
X1695Y1424D01*
X1713Y1424D02*
X1718Y1424D01*
X1756Y1424D02*
X1761Y1424D01*
X1801Y1424D02*
X1825Y1424D01*
X1842Y1424D02*
X1847Y1424D01*
X1866Y1424D02*
X1871Y1424D01*
X1594Y1423D02*
X1612Y1423D01*
X1627Y1423D02*
X1631Y1423D01*
X1651Y1423D02*
X1655Y1423D01*
X1673Y1423D02*
X1694Y1423D01*
X1713Y1423D02*
X1717Y1423D01*
X1756Y1423D02*
X1760Y1423D01*
X1802Y1423D02*
X1812Y1423D01*
X1814Y1423D02*
X1824Y1423D01*
X1842Y1423D02*
X1846Y1423D01*
X1866Y1423D02*
X1870Y1423D01*
X1596Y1422D02*
X1611Y1422D01*
X1628Y1422D02*
X1630Y1422D01*
X1651Y1422D02*
X1654Y1422D01*
X1675Y1422D02*
X1692Y1422D01*
X1714Y1422D02*
X1716Y1422D01*
X1757Y1422D02*
X1759Y1422D01*
X1803Y1422D02*
X1811Y1422D01*
X1815Y1422D02*
X1823Y1422D01*
X1843Y1422D02*
X1846Y1422D01*
X1867Y1422D02*
X1869Y1422D01*
X798Y1391D02*
X815Y1391D01*
X835Y1391D02*
X837Y1391D01*
X885Y1391D02*
X917Y1391D01*
X796Y1390D02*
X816Y1390D01*
X834Y1390D02*
X839Y1390D01*
X884Y1390D02*
X917Y1390D01*
X794Y1389D02*
X817Y1389D01*
X833Y1389D02*
X839Y1389D01*
X883Y1389D02*
X917Y1389D01*
X793Y1388D02*
X817Y1388D01*
X833Y1388D02*
X839Y1388D01*
X883Y1388D02*
X917Y1388D01*
X793Y1387D02*
X817Y1387D01*
X833Y1387D02*
X839Y1387D01*
X883Y1387D02*
X917Y1387D01*
X792Y1386D02*
X816Y1386D01*
X833Y1386D02*
X839Y1386D01*
X883Y1386D02*
X917Y1386D01*
X792Y1385D02*
X815Y1385D01*
X833Y1385D02*
X839Y1385D01*
X883Y1385D02*
X917Y1385D01*
X791Y1384D02*
X799Y1384D01*
X833Y1384D02*
X839Y1384D01*
X883Y1384D02*
X889Y1384D01*
X911Y1384D02*
X917Y1384D01*
X791Y1383D02*
X798Y1383D01*
X833Y1383D02*
X839Y1383D01*
X884Y1383D02*
X888Y1383D01*
X911Y1383D02*
X917Y1383D01*
X790Y1382D02*
X797Y1382D01*
X833Y1382D02*
X839Y1382D01*
X885Y1382D02*
X887Y1382D01*
X911Y1382D02*
X917Y1382D01*
X790Y1381D02*
X796Y1381D01*
X833Y1381D02*
X839Y1381D01*
X911Y1381D02*
X917Y1381D01*
X789Y1380D02*
X796Y1380D01*
X833Y1380D02*
X839Y1380D01*
X911Y1380D02*
X917Y1380D01*
X789Y1379D02*
X795Y1379D01*
X833Y1379D02*
X839Y1379D01*
X911Y1379D02*
X917Y1379D01*
X788Y1378D02*
X795Y1378D01*
X833Y1378D02*
X839Y1378D01*
X911Y1378D02*
X917Y1378D01*
X788Y1377D02*
X794Y1377D01*
X833Y1377D02*
X839Y1377D01*
X911Y1377D02*
X917Y1377D01*
X787Y1376D02*
X794Y1376D01*
X833Y1376D02*
X839Y1376D01*
X849Y1376D02*
X860Y1376D01*
X911Y1376D02*
X917Y1376D01*
X787Y1375D02*
X793Y1375D01*
X833Y1375D02*
X839Y1375D01*
X847Y1375D02*
X862Y1375D01*
X911Y1375D02*
X917Y1375D01*
X786Y1374D02*
X793Y1374D01*
X833Y1374D02*
X839Y1374D01*
X845Y1374D02*
X863Y1374D01*
X911Y1374D02*
X917Y1374D01*
X786Y1373D02*
X792Y1373D01*
X833Y1373D02*
X839Y1373D01*
X844Y1373D02*
X864Y1373D01*
X911Y1373D02*
X917Y1373D01*
X785Y1372D02*
X792Y1372D01*
X833Y1372D02*
X839Y1372D01*
X842Y1372D02*
X865Y1372D01*
X911Y1372D02*
X917Y1372D01*
X785Y1371D02*
X791Y1371D01*
X833Y1371D02*
X865Y1371D01*
X910Y1371D02*
X917Y1371D01*
X784Y1370D02*
X791Y1370D01*
X833Y1370D02*
X866Y1370D01*
X909Y1370D02*
X917Y1370D01*
X784Y1369D02*
X790Y1369D01*
X833Y1369D02*
X849Y1369D01*
X859Y1369D02*
X866Y1369D01*
X907Y1369D02*
X917Y1369D01*
X784Y1368D02*
X790Y1368D01*
X833Y1368D02*
X848Y1368D01*
X860Y1368D02*
X866Y1368D01*
X906Y1368D02*
X916Y1368D01*
X783Y1367D02*
X790Y1367D01*
X833Y1367D02*
X846Y1367D01*
X860Y1367D02*
X866Y1367D01*
X905Y1367D02*
X915Y1367D01*
X783Y1366D02*
X789Y1366D01*
X833Y1366D02*
X845Y1366D01*
X860Y1366D02*
X866Y1366D01*
X904Y1366D02*
X914Y1366D01*
X783Y1365D02*
X789Y1365D01*
X833Y1365D02*
X843Y1365D01*
X860Y1365D02*
X866Y1365D01*
X903Y1365D02*
X912Y1365D01*
X783Y1364D02*
X789Y1364D01*
X833Y1364D02*
X842Y1364D01*
X860Y1364D02*
X866Y1364D01*
X901Y1364D02*
X911Y1364D01*
X783Y1363D02*
X789Y1363D01*
X833Y1363D02*
X840Y1363D01*
X860Y1363D02*
X866Y1363D01*
X900Y1363D02*
X910Y1363D01*
X783Y1362D02*
X790Y1362D01*
X833Y1362D02*
X839Y1362D01*
X860Y1362D02*
X866Y1362D01*
X899Y1362D02*
X909Y1362D01*
X784Y1361D02*
X790Y1361D01*
X833Y1361D02*
X839Y1361D01*
X860Y1361D02*
X866Y1361D01*
X898Y1361D02*
X908Y1361D01*
X784Y1360D02*
X790Y1360D01*
X833Y1360D02*
X839Y1360D01*
X860Y1360D02*
X866Y1360D01*
X897Y1360D02*
X907Y1360D01*
X784Y1359D02*
X791Y1359D01*
X833Y1359D02*
X839Y1359D01*
X860Y1359D02*
X866Y1359D01*
X897Y1359D02*
X905Y1359D01*
X785Y1358D02*
X791Y1358D01*
X833Y1358D02*
X839Y1358D01*
X860Y1358D02*
X866Y1358D01*
X897Y1358D02*
X904Y1358D01*
X785Y1357D02*
X792Y1357D01*
X833Y1357D02*
X839Y1357D01*
X860Y1357D02*
X866Y1357D01*
X897Y1357D02*
X903Y1357D01*
X785Y1356D02*
X792Y1356D01*
X833Y1356D02*
X839Y1356D01*
X860Y1356D02*
X866Y1356D01*
X897Y1356D02*
X903Y1356D01*
X786Y1355D02*
X793Y1355D01*
X833Y1355D02*
X839Y1355D01*
X860Y1355D02*
X866Y1355D01*
X897Y1355D02*
X903Y1355D01*
X786Y1354D02*
X793Y1354D01*
X833Y1354D02*
X839Y1354D01*
X860Y1354D02*
X866Y1354D01*
X897Y1354D02*
X903Y1354D01*
X787Y1353D02*
X794Y1353D01*
X833Y1353D02*
X839Y1353D01*
X860Y1353D02*
X866Y1353D01*
X897Y1353D02*
X903Y1353D01*
X787Y1352D02*
X794Y1352D01*
X833Y1352D02*
X839Y1352D01*
X860Y1352D02*
X866Y1352D01*
X897Y1352D02*
X903Y1352D01*
X788Y1351D02*
X795Y1351D01*
X833Y1351D02*
X839Y1351D01*
X860Y1351D02*
X866Y1351D01*
X897Y1351D02*
X903Y1351D01*
X788Y1350D02*
X795Y1350D01*
X833Y1350D02*
X839Y1350D01*
X860Y1350D02*
X866Y1350D01*
X897Y1350D02*
X903Y1350D01*
X789Y1349D02*
X796Y1349D01*
X833Y1349D02*
X839Y1349D01*
X860Y1349D02*
X866Y1349D01*
X897Y1349D02*
X903Y1349D01*
X789Y1348D02*
X796Y1348D01*
X833Y1348D02*
X839Y1348D01*
X860Y1348D02*
X866Y1348D01*
X897Y1348D02*
X903Y1348D01*
X790Y1347D02*
X797Y1347D01*
X833Y1347D02*
X839Y1347D01*
X860Y1347D02*
X866Y1347D01*
X897Y1347D02*
X903Y1347D01*
X790Y1346D02*
X797Y1346D01*
X833Y1346D02*
X839Y1346D01*
X860Y1346D02*
X866Y1346D01*
X897Y1346D02*
X903Y1346D01*
X791Y1345D02*
X798Y1345D01*
X833Y1345D02*
X839Y1345D01*
X860Y1345D02*
X866Y1345D01*
X897Y1345D02*
X903Y1345D01*
X791Y1344D02*
X815Y1344D01*
X833Y1344D02*
X839Y1344D01*
X860Y1344D02*
X866Y1344D01*
X897Y1344D02*
X903Y1344D01*
X792Y1343D02*
X816Y1343D01*
X833Y1343D02*
X839Y1343D01*
X860Y1343D02*
X866Y1343D01*
X897Y1343D02*
X903Y1343D01*
X793Y1342D02*
X817Y1342D01*
X833Y1342D02*
X839Y1342D01*
X860Y1342D02*
X866Y1342D01*
X897Y1342D02*
X903Y1342D01*
X793Y1341D02*
X817Y1341D01*
X833Y1341D02*
X839Y1341D01*
X860Y1341D02*
X866Y1341D01*
X897Y1341D02*
X903Y1341D01*
X794Y1340D02*
X817Y1340D01*
X833Y1340D02*
X839Y1340D01*
X860Y1340D02*
X866Y1340D01*
X897Y1340D02*
X903Y1340D01*
X796Y1339D02*
X816Y1339D01*
X834Y1339D02*
X839Y1339D01*
X861Y1339D02*
X866Y1339D01*
X897Y1339D02*
X902Y1339D01*
X798Y1338D02*
X815Y1338D01*
X835Y1338D02*
X838Y1338D01*
X862Y1338D02*
X865Y1338D01*
X898Y1338D02*
X901Y1338D01*
X787Y1191D02*
X804Y1191D01*
X824Y1191D02*
X826Y1191D01*
X874Y1191D02*
X880Y1191D01*
X785Y1190D02*
X805Y1190D01*
X823Y1190D02*
X827Y1190D01*
X873Y1190D02*
X881Y1190D01*
X783Y1189D02*
X806Y1189D01*
X822Y1189D02*
X828Y1189D01*
X872Y1189D02*
X881Y1189D01*
X782Y1188D02*
X806Y1188D01*
X822Y1188D02*
X828Y1188D01*
X872Y1188D02*
X881Y1188D01*
X781Y1187D02*
X806Y1187D01*
X822Y1187D02*
X828Y1187D01*
X872Y1187D02*
X881Y1187D01*
X781Y1186D02*
X805Y1186D01*
X822Y1186D02*
X828Y1186D01*
X872Y1186D02*
X881Y1186D01*
X780Y1185D02*
X804Y1185D01*
X822Y1185D02*
X828Y1185D01*
X872Y1185D02*
X880Y1185D01*
X780Y1184D02*
X787Y1184D01*
X822Y1184D02*
X828Y1184D01*
X872Y1184D02*
X878Y1184D01*
X779Y1183D02*
X786Y1183D01*
X822Y1183D02*
X828Y1183D01*
X872Y1183D02*
X878Y1183D01*
X779Y1182D02*
X786Y1182D01*
X822Y1182D02*
X828Y1182D01*
X872Y1182D02*
X878Y1182D01*
X778Y1181D02*
X785Y1181D01*
X822Y1181D02*
X828Y1181D01*
X872Y1181D02*
X878Y1181D01*
X778Y1180D02*
X785Y1180D01*
X822Y1180D02*
X828Y1180D01*
X872Y1180D02*
X878Y1180D01*
X777Y1179D02*
X784Y1179D01*
X822Y1179D02*
X828Y1179D01*
X872Y1179D02*
X878Y1179D01*
X777Y1178D02*
X784Y1178D01*
X822Y1178D02*
X828Y1178D01*
X872Y1178D02*
X878Y1178D01*
X776Y1177D02*
X783Y1177D01*
X822Y1177D02*
X828Y1177D01*
X872Y1177D02*
X878Y1177D01*
X776Y1176D02*
X783Y1176D01*
X822Y1176D02*
X828Y1176D01*
X838Y1176D02*
X849Y1176D01*
X872Y1176D02*
X878Y1176D01*
X775Y1175D02*
X782Y1175D01*
X822Y1175D02*
X828Y1175D01*
X836Y1175D02*
X851Y1175D01*
X872Y1175D02*
X878Y1175D01*
X775Y1174D02*
X782Y1174D01*
X822Y1174D02*
X828Y1174D01*
X834Y1174D02*
X852Y1174D01*
X872Y1174D02*
X878Y1174D01*
X774Y1173D02*
X781Y1173D01*
X822Y1173D02*
X828Y1173D01*
X833Y1173D02*
X853Y1173D01*
X872Y1173D02*
X878Y1173D01*
X774Y1172D02*
X781Y1172D01*
X822Y1172D02*
X828Y1172D01*
X831Y1172D02*
X854Y1172D01*
X872Y1172D02*
X878Y1172D01*
X774Y1171D02*
X780Y1171D01*
X822Y1171D02*
X854Y1171D01*
X872Y1171D02*
X878Y1171D01*
X773Y1170D02*
X780Y1170D01*
X822Y1170D02*
X855Y1170D01*
X872Y1170D02*
X878Y1170D01*
X773Y1169D02*
X779Y1169D01*
X822Y1169D02*
X838Y1169D01*
X848Y1169D02*
X855Y1169D01*
X872Y1169D02*
X878Y1169D01*
X773Y1168D02*
X779Y1168D01*
X822Y1168D02*
X837Y1168D01*
X849Y1168D02*
X855Y1168D01*
X872Y1168D02*
X878Y1168D01*
X772Y1167D02*
X778Y1167D01*
X822Y1167D02*
X835Y1167D01*
X849Y1167D02*
X855Y1167D01*
X872Y1167D02*
X878Y1167D01*
X772Y1166D02*
X778Y1166D01*
X822Y1166D02*
X834Y1166D01*
X849Y1166D02*
X855Y1166D01*
X872Y1166D02*
X878Y1166D01*
X772Y1165D02*
X778Y1165D01*
X822Y1165D02*
X832Y1165D01*
X849Y1165D02*
X855Y1165D01*
X872Y1165D02*
X878Y1165D01*
X772Y1164D02*
X778Y1164D01*
X822Y1164D02*
X830Y1164D01*
X849Y1164D02*
X855Y1164D01*
X872Y1164D02*
X878Y1164D01*
X772Y1163D02*
X778Y1163D01*
X822Y1163D02*
X829Y1163D01*
X849Y1163D02*
X855Y1163D01*
X872Y1163D02*
X878Y1163D01*
X772Y1162D02*
X778Y1162D01*
X822Y1162D02*
X828Y1162D01*
X849Y1162D02*
X855Y1162D01*
X872Y1162D02*
X903Y1162D01*
X772Y1161D02*
X779Y1161D01*
X822Y1161D02*
X828Y1161D01*
X849Y1161D02*
X855Y1161D01*
X872Y1161D02*
X905Y1161D01*
X773Y1160D02*
X779Y1160D01*
X822Y1160D02*
X828Y1160D01*
X849Y1160D02*
X855Y1160D01*
X872Y1160D02*
X905Y1160D01*
X773Y1159D02*
X780Y1159D01*
X822Y1159D02*
X828Y1159D01*
X849Y1159D02*
X855Y1159D01*
X872Y1159D02*
X906Y1159D01*
X773Y1158D02*
X780Y1158D01*
X822Y1158D02*
X828Y1158D01*
X849Y1158D02*
X855Y1158D01*
X872Y1158D02*
X906Y1158D01*
X774Y1157D02*
X781Y1157D01*
X822Y1157D02*
X828Y1157D01*
X849Y1157D02*
X855Y1157D01*
X872Y1157D02*
X906Y1157D01*
X774Y1156D02*
X781Y1156D01*
X822Y1156D02*
X828Y1156D01*
X849Y1156D02*
X855Y1156D01*
X872Y1156D02*
X906Y1156D01*
X775Y1155D02*
X782Y1155D01*
X822Y1155D02*
X828Y1155D01*
X849Y1155D02*
X855Y1155D01*
X872Y1155D02*
X878Y1155D01*
X899Y1155D02*
X906Y1155D01*
X775Y1154D02*
X782Y1154D01*
X822Y1154D02*
X828Y1154D01*
X849Y1154D02*
X855Y1154D01*
X872Y1154D02*
X878Y1154D01*
X900Y1154D02*
X906Y1154D01*
X776Y1153D02*
X783Y1153D01*
X822Y1153D02*
X828Y1153D01*
X849Y1153D02*
X855Y1153D01*
X872Y1153D02*
X878Y1153D01*
X900Y1153D02*
X906Y1153D01*
X776Y1152D02*
X783Y1152D01*
X822Y1152D02*
X828Y1152D01*
X849Y1152D02*
X855Y1152D01*
X872Y1152D02*
X878Y1152D01*
X900Y1152D02*
X906Y1152D01*
X777Y1151D02*
X784Y1151D01*
X822Y1151D02*
X828Y1151D01*
X849Y1151D02*
X855Y1151D01*
X872Y1151D02*
X878Y1151D01*
X900Y1151D02*
X906Y1151D01*
X777Y1150D02*
X784Y1150D01*
X822Y1150D02*
X828Y1150D01*
X849Y1150D02*
X855Y1150D01*
X872Y1150D02*
X878Y1150D01*
X900Y1150D02*
X906Y1150D01*
X778Y1149D02*
X785Y1149D01*
X822Y1149D02*
X828Y1149D01*
X849Y1149D02*
X855Y1149D01*
X872Y1149D02*
X878Y1149D01*
X900Y1149D02*
X906Y1149D01*
X778Y1148D02*
X785Y1148D01*
X822Y1148D02*
X828Y1148D01*
X849Y1148D02*
X855Y1148D01*
X872Y1148D02*
X878Y1148D01*
X900Y1148D02*
X906Y1148D01*
X779Y1147D02*
X786Y1147D01*
X822Y1147D02*
X828Y1147D01*
X849Y1147D02*
X855Y1147D01*
X872Y1147D02*
X878Y1147D01*
X900Y1147D02*
X906Y1147D01*
X779Y1146D02*
X786Y1146D01*
X822Y1146D02*
X828Y1146D01*
X849Y1146D02*
X855Y1146D01*
X872Y1146D02*
X878Y1146D01*
X900Y1146D02*
X906Y1146D01*
X780Y1145D02*
X787Y1145D01*
X822Y1145D02*
X828Y1145D01*
X849Y1145D02*
X855Y1145D01*
X872Y1145D02*
X878Y1145D01*
X900Y1145D02*
X906Y1145D01*
X780Y1144D02*
X804Y1144D01*
X822Y1144D02*
X828Y1144D01*
X849Y1144D02*
X855Y1144D01*
X872Y1144D02*
X906Y1144D01*
X781Y1143D02*
X805Y1143D01*
X822Y1143D02*
X828Y1143D01*
X849Y1143D02*
X855Y1143D01*
X872Y1143D02*
X906Y1143D01*
X782Y1142D02*
X805Y1142D01*
X822Y1142D02*
X828Y1142D01*
X849Y1142D02*
X855Y1142D01*
X872Y1142D02*
X906Y1142D01*
X782Y1141D02*
X806Y1141D01*
X822Y1141D02*
X828Y1141D01*
X849Y1141D02*
X855Y1141D01*
X872Y1141D02*
X906Y1141D01*
X783Y1140D02*
X806Y1140D01*
X822Y1140D02*
X828Y1140D01*
X849Y1140D02*
X855Y1140D01*
X872Y1140D02*
X906Y1140D01*
X785Y1139D02*
X805Y1139D01*
X823Y1139D02*
X828Y1139D01*
X850Y1139D02*
X855Y1139D01*
X873Y1139D02*
X905Y1139D01*
X787Y1138D02*
X804Y1138D01*
X824Y1138D02*
X827Y1138D01*
X851Y1138D02*
X854Y1138D01*
X873Y1138D02*
X904Y1138D01*
X787Y991D02*
X804Y991D01*
X824Y991D02*
X826Y991D01*
X879Y991D02*
X904Y991D01*
X785Y990D02*
X805Y990D01*
X823Y990D02*
X827Y990D01*
X879Y990D02*
X905Y990D01*
X783Y989D02*
X806Y989D01*
X822Y989D02*
X828Y989D01*
X879Y989D02*
X905Y989D01*
X782Y988D02*
X806Y988D01*
X822Y988D02*
X828Y988D01*
X879Y988D02*
X906Y988D01*
X781Y987D02*
X806Y987D01*
X822Y987D02*
X828Y987D01*
X879Y987D02*
X905Y987D01*
X781Y986D02*
X805Y986D01*
X822Y986D02*
X828Y986D01*
X879Y986D02*
X905Y986D01*
X780Y985D02*
X804Y985D01*
X822Y985D02*
X828Y985D01*
X879Y985D02*
X904Y985D01*
X780Y984D02*
X787Y984D01*
X822Y984D02*
X828Y984D01*
X879Y984D02*
X885Y984D01*
X779Y983D02*
X786Y983D01*
X822Y983D02*
X828Y983D01*
X879Y983D02*
X885Y983D01*
X779Y982D02*
X786Y982D01*
X822Y982D02*
X828Y982D01*
X879Y982D02*
X885Y982D01*
X778Y981D02*
X785Y981D01*
X822Y981D02*
X828Y981D01*
X879Y981D02*
X885Y981D01*
X778Y980D02*
X785Y980D01*
X822Y980D02*
X828Y980D01*
X879Y980D02*
X885Y980D01*
X777Y979D02*
X784Y979D01*
X822Y979D02*
X828Y979D01*
X879Y979D02*
X885Y979D01*
X777Y978D02*
X784Y978D01*
X822Y978D02*
X828Y978D01*
X879Y978D02*
X885Y978D01*
X776Y977D02*
X783Y977D01*
X822Y977D02*
X828Y977D01*
X879Y977D02*
X885Y977D01*
X776Y976D02*
X783Y976D01*
X822Y976D02*
X828Y976D01*
X838Y976D02*
X849Y976D01*
X879Y976D02*
X885Y976D01*
X775Y975D02*
X782Y975D01*
X822Y975D02*
X828Y975D01*
X836Y975D02*
X851Y975D01*
X879Y975D02*
X885Y975D01*
X775Y974D02*
X782Y974D01*
X822Y974D02*
X828Y974D01*
X834Y974D02*
X852Y974D01*
X879Y974D02*
X885Y974D01*
X774Y973D02*
X781Y973D01*
X822Y973D02*
X828Y973D01*
X833Y973D02*
X853Y973D01*
X879Y973D02*
X885Y973D01*
X774Y972D02*
X781Y972D01*
X822Y972D02*
X828Y972D01*
X831Y972D02*
X854Y972D01*
X879Y972D02*
X885Y972D01*
X774Y971D02*
X780Y971D01*
X822Y971D02*
X854Y971D01*
X879Y971D02*
X885Y971D01*
X773Y970D02*
X780Y970D01*
X822Y970D02*
X855Y970D01*
X879Y970D02*
X885Y970D01*
X773Y969D02*
X779Y969D01*
X822Y969D02*
X838Y969D01*
X848Y969D02*
X855Y969D01*
X879Y969D02*
X885Y969D01*
X773Y968D02*
X779Y968D01*
X822Y968D02*
X837Y968D01*
X849Y968D02*
X855Y968D01*
X879Y968D02*
X885Y968D01*
X772Y967D02*
X778Y967D01*
X822Y967D02*
X835Y967D01*
X849Y967D02*
X855Y967D01*
X879Y967D02*
X902Y967D01*
X772Y966D02*
X778Y966D01*
X822Y966D02*
X834Y966D01*
X849Y966D02*
X855Y966D01*
X879Y966D02*
X903Y966D01*
X772Y965D02*
X778Y965D01*
X822Y965D02*
X832Y965D01*
X849Y965D02*
X855Y965D01*
X879Y965D02*
X904Y965D01*
X772Y964D02*
X778Y964D01*
X822Y964D02*
X830Y964D01*
X849Y964D02*
X855Y964D01*
X879Y964D02*
X905Y964D01*
X772Y963D02*
X778Y963D01*
X822Y963D02*
X829Y963D01*
X849Y963D02*
X855Y963D01*
X879Y963D02*
X905Y963D01*
X772Y962D02*
X778Y962D01*
X822Y962D02*
X828Y962D01*
X849Y962D02*
X855Y962D01*
X879Y962D02*
X906Y962D01*
X772Y961D02*
X779Y961D01*
X822Y961D02*
X828Y961D01*
X849Y961D02*
X855Y961D01*
X879Y961D02*
X906Y961D01*
X773Y960D02*
X779Y960D01*
X822Y960D02*
X828Y960D01*
X849Y960D02*
X855Y960D01*
X900Y960D02*
X906Y960D01*
X773Y959D02*
X780Y959D01*
X822Y959D02*
X828Y959D01*
X849Y959D02*
X855Y959D01*
X900Y959D02*
X906Y959D01*
X773Y958D02*
X780Y958D01*
X822Y958D02*
X828Y958D01*
X849Y958D02*
X855Y958D01*
X900Y958D02*
X906Y958D01*
X774Y957D02*
X781Y957D01*
X822Y957D02*
X828Y957D01*
X849Y957D02*
X855Y957D01*
X900Y957D02*
X906Y957D01*
X774Y956D02*
X781Y956D01*
X822Y956D02*
X828Y956D01*
X849Y956D02*
X855Y956D01*
X900Y956D02*
X906Y956D01*
X775Y955D02*
X782Y955D01*
X822Y955D02*
X828Y955D01*
X849Y955D02*
X855Y955D01*
X900Y955D02*
X906Y955D01*
X775Y954D02*
X782Y954D01*
X822Y954D02*
X828Y954D01*
X849Y954D02*
X855Y954D01*
X900Y954D02*
X906Y954D01*
X776Y953D02*
X783Y953D01*
X822Y953D02*
X828Y953D01*
X849Y953D02*
X855Y953D01*
X900Y953D02*
X906Y953D01*
X776Y952D02*
X783Y952D01*
X822Y952D02*
X828Y952D01*
X849Y952D02*
X855Y952D01*
X900Y952D02*
X906Y952D01*
X777Y951D02*
X784Y951D01*
X822Y951D02*
X828Y951D01*
X849Y951D02*
X855Y951D01*
X900Y951D02*
X906Y951D01*
X777Y950D02*
X784Y950D01*
X822Y950D02*
X828Y950D01*
X849Y950D02*
X855Y950D01*
X900Y950D02*
X906Y950D01*
X778Y949D02*
X785Y949D01*
X822Y949D02*
X828Y949D01*
X849Y949D02*
X855Y949D01*
X900Y949D02*
X906Y949D01*
X778Y948D02*
X785Y948D01*
X822Y948D02*
X828Y948D01*
X849Y948D02*
X855Y948D01*
X900Y948D02*
X906Y948D01*
X779Y947D02*
X786Y947D01*
X822Y947D02*
X828Y947D01*
X849Y947D02*
X855Y947D01*
X874Y947D02*
X876Y947D01*
X900Y947D02*
X906Y947D01*
X779Y946D02*
X786Y946D01*
X822Y946D02*
X828Y946D01*
X849Y946D02*
X855Y946D01*
X873Y946D02*
X878Y946D01*
X900Y946D02*
X906Y946D01*
X780Y945D02*
X787Y945D01*
X822Y945D02*
X828Y945D01*
X849Y945D02*
X855Y945D01*
X872Y945D02*
X881Y945D01*
X900Y945D02*
X906Y945D01*
X780Y944D02*
X804Y944D01*
X822Y944D02*
X828Y944D01*
X849Y944D02*
X855Y944D01*
X872Y944D02*
X906Y944D01*
X781Y943D02*
X805Y943D01*
X822Y943D02*
X828Y943D01*
X849Y943D02*
X855Y943D01*
X872Y943D02*
X906Y943D01*
X782Y942D02*
X805Y942D01*
X822Y942D02*
X828Y942D01*
X849Y942D02*
X855Y942D01*
X872Y942D02*
X905Y942D01*
X782Y941D02*
X806Y941D01*
X822Y941D02*
X828Y941D01*
X849Y941D02*
X855Y941D01*
X873Y941D02*
X905Y941D01*
X783Y940D02*
X806Y940D01*
X822Y940D02*
X828Y940D01*
X849Y940D02*
X855Y940D01*
X875Y940D02*
X904Y940D01*
X785Y939D02*
X805Y939D01*
X823Y939D02*
X828Y939D01*
X850Y939D02*
X855Y939D01*
X877Y939D02*
X903Y939D01*
X787Y938D02*
X804Y938D01*
X824Y938D02*
X827Y938D01*
X851Y938D02*
X854Y938D01*
X880Y938D02*
X902Y938D01*
X787Y791D02*
X804Y791D01*
X824Y791D02*
X826Y791D01*
X875Y791D02*
X878Y791D01*
X785Y790D02*
X805Y790D01*
X823Y790D02*
X827Y790D01*
X874Y790D02*
X879Y790D01*
X783Y789D02*
X806Y789D01*
X822Y789D02*
X828Y789D01*
X874Y789D02*
X880Y789D01*
X782Y788D02*
X806Y788D01*
X822Y788D02*
X828Y788D01*
X874Y788D02*
X880Y788D01*
X781Y787D02*
X806Y787D01*
X822Y787D02*
X828Y787D01*
X874Y787D02*
X880Y787D01*
X781Y786D02*
X805Y786D01*
X822Y786D02*
X828Y786D01*
X874Y786D02*
X880Y786D01*
X780Y785D02*
X804Y785D01*
X822Y785D02*
X828Y785D01*
X874Y785D02*
X880Y785D01*
X896Y785D02*
X899Y785D01*
X780Y784D02*
X787Y784D01*
X822Y784D02*
X828Y784D01*
X874Y784D02*
X880Y784D01*
X895Y784D02*
X900Y784D01*
X779Y783D02*
X786Y783D01*
X822Y783D02*
X828Y783D01*
X874Y783D02*
X880Y783D01*
X895Y783D02*
X900Y783D01*
X779Y782D02*
X786Y782D01*
X822Y782D02*
X828Y782D01*
X874Y782D02*
X880Y782D01*
X894Y782D02*
X900Y782D01*
X778Y781D02*
X785Y781D01*
X822Y781D02*
X828Y781D01*
X874Y781D02*
X880Y781D01*
X894Y781D02*
X900Y781D01*
X778Y780D02*
X785Y780D01*
X822Y780D02*
X828Y780D01*
X874Y780D02*
X880Y780D01*
X894Y780D02*
X900Y780D01*
X777Y779D02*
X784Y779D01*
X822Y779D02*
X828Y779D01*
X874Y779D02*
X880Y779D01*
X894Y779D02*
X900Y779D01*
X777Y778D02*
X784Y778D01*
X822Y778D02*
X828Y778D01*
X874Y778D02*
X880Y778D01*
X894Y778D02*
X900Y778D01*
X776Y777D02*
X783Y777D01*
X822Y777D02*
X828Y777D01*
X874Y777D02*
X880Y777D01*
X894Y777D02*
X900Y777D01*
X776Y776D02*
X783Y776D01*
X822Y776D02*
X828Y776D01*
X838Y776D02*
X849Y776D01*
X874Y776D02*
X880Y776D01*
X894Y776D02*
X900Y776D01*
X775Y775D02*
X782Y775D01*
X822Y775D02*
X828Y775D01*
X836Y775D02*
X851Y775D01*
X874Y775D02*
X880Y775D01*
X894Y775D02*
X900Y775D01*
X775Y774D02*
X782Y774D01*
X822Y774D02*
X828Y774D01*
X834Y774D02*
X852Y774D01*
X874Y774D02*
X880Y774D01*
X894Y774D02*
X900Y774D01*
X774Y773D02*
X781Y773D01*
X822Y773D02*
X828Y773D01*
X832Y773D02*
X853Y773D01*
X874Y773D02*
X880Y773D01*
X894Y773D02*
X900Y773D01*
X774Y772D02*
X781Y772D01*
X822Y772D02*
X828Y772D01*
X831Y772D02*
X854Y772D01*
X874Y772D02*
X880Y772D01*
X894Y772D02*
X900Y772D01*
X774Y771D02*
X780Y771D01*
X822Y771D02*
X854Y771D01*
X874Y771D02*
X880Y771D01*
X894Y771D02*
X900Y771D01*
X773Y770D02*
X780Y770D01*
X822Y770D02*
X855Y770D01*
X874Y770D02*
X880Y770D01*
X894Y770D02*
X900Y770D01*
X773Y769D02*
X779Y769D01*
X822Y769D02*
X838Y769D01*
X848Y769D02*
X855Y769D01*
X874Y769D02*
X880Y769D01*
X894Y769D02*
X900Y769D01*
X773Y768D02*
X779Y768D01*
X822Y768D02*
X837Y768D01*
X849Y768D02*
X855Y768D01*
X874Y768D02*
X880Y768D01*
X894Y768D02*
X900Y768D01*
X772Y767D02*
X778Y767D01*
X822Y767D02*
X835Y767D01*
X849Y767D02*
X855Y767D01*
X874Y767D02*
X880Y767D01*
X894Y767D02*
X900Y767D01*
X772Y766D02*
X778Y766D01*
X822Y766D02*
X834Y766D01*
X849Y766D02*
X855Y766D01*
X874Y766D02*
X880Y766D01*
X894Y766D02*
X900Y766D01*
X772Y765D02*
X778Y765D01*
X822Y765D02*
X832Y765D01*
X849Y765D02*
X855Y765D01*
X874Y765D02*
X880Y765D01*
X894Y765D02*
X900Y765D01*
X772Y764D02*
X778Y764D01*
X822Y764D02*
X830Y764D01*
X849Y764D02*
X855Y764D01*
X874Y764D02*
X880Y764D01*
X894Y764D02*
X900Y764D01*
X772Y763D02*
X778Y763D01*
X822Y763D02*
X829Y763D01*
X849Y763D02*
X855Y763D01*
X874Y763D02*
X880Y763D01*
X894Y763D02*
X900Y763D01*
X772Y762D02*
X778Y762D01*
X822Y762D02*
X828Y762D01*
X849Y762D02*
X855Y762D01*
X874Y762D02*
X901Y762D01*
X772Y761D02*
X779Y761D01*
X822Y761D02*
X828Y761D01*
X849Y761D02*
X855Y761D01*
X874Y761D02*
X903Y761D01*
X773Y760D02*
X779Y760D01*
X822Y760D02*
X828Y760D01*
X849Y760D02*
X855Y760D01*
X874Y760D02*
X904Y760D01*
X773Y759D02*
X780Y759D01*
X822Y759D02*
X828Y759D01*
X849Y759D02*
X855Y759D01*
X874Y759D02*
X904Y759D01*
X773Y758D02*
X780Y758D01*
X822Y758D02*
X828Y758D01*
X849Y758D02*
X855Y758D01*
X874Y758D02*
X904Y758D01*
X774Y757D02*
X781Y757D01*
X822Y757D02*
X828Y757D01*
X849Y757D02*
X855Y757D01*
X874Y757D02*
X904Y757D01*
X774Y756D02*
X781Y756D01*
X822Y756D02*
X828Y756D01*
X849Y756D02*
X855Y756D01*
X874Y756D02*
X903Y756D01*
X775Y755D02*
X782Y755D01*
X822Y755D02*
X828Y755D01*
X849Y755D02*
X855Y755D01*
X894Y755D02*
X901Y755D01*
X775Y754D02*
X782Y754D01*
X822Y754D02*
X828Y754D01*
X849Y754D02*
X855Y754D01*
X894Y754D02*
X900Y754D01*
X776Y753D02*
X783Y753D01*
X822Y753D02*
X828Y753D01*
X849Y753D02*
X855Y753D01*
X894Y753D02*
X900Y753D01*
X776Y752D02*
X783Y752D01*
X822Y752D02*
X828Y752D01*
X849Y752D02*
X855Y752D01*
X894Y752D02*
X900Y752D01*
X777Y751D02*
X784Y751D01*
X822Y751D02*
X828Y751D01*
X849Y751D02*
X855Y751D01*
X894Y751D02*
X900Y751D01*
X777Y750D02*
X784Y750D01*
X822Y750D02*
X828Y750D01*
X849Y750D02*
X855Y750D01*
X894Y750D02*
X900Y750D01*
X778Y749D02*
X785Y749D01*
X822Y749D02*
X828Y749D01*
X849Y749D02*
X855Y749D01*
X894Y749D02*
X900Y749D01*
X778Y748D02*
X785Y748D01*
X822Y748D02*
X828Y748D01*
X849Y748D02*
X855Y748D01*
X894Y748D02*
X900Y748D01*
X779Y747D02*
X786Y747D01*
X822Y747D02*
X828Y747D01*
X849Y747D02*
X855Y747D01*
X894Y747D02*
X900Y747D01*
X779Y746D02*
X786Y746D01*
X822Y746D02*
X828Y746D01*
X849Y746D02*
X855Y746D01*
X894Y746D02*
X900Y746D01*
X780Y745D02*
X787Y745D01*
X822Y745D02*
X828Y745D01*
X849Y745D02*
X855Y745D01*
X894Y745D02*
X900Y745D01*
X780Y744D02*
X804Y744D01*
X822Y744D02*
X828Y744D01*
X849Y744D02*
X855Y744D01*
X894Y744D02*
X900Y744D01*
X781Y743D02*
X805Y743D01*
X822Y743D02*
X828Y743D01*
X849Y743D02*
X855Y743D01*
X894Y743D02*
X900Y743D01*
X782Y742D02*
X805Y742D01*
X822Y742D02*
X828Y742D01*
X849Y742D02*
X855Y742D01*
X894Y742D02*
X900Y742D01*
X782Y741D02*
X806Y741D01*
X822Y741D02*
X828Y741D01*
X849Y741D02*
X855Y741D01*
X894Y741D02*
X900Y741D01*
X783Y740D02*
X806Y740D01*
X822Y740D02*
X828Y740D01*
X849Y740D02*
X855Y740D01*
X895Y740D02*
X900Y740D01*
X785Y739D02*
X805Y739D01*
X823Y739D02*
X828Y739D01*
X850Y739D02*
X855Y739D01*
X895Y739D02*
X900Y739D01*
X787Y738D02*
X804Y738D01*
X824Y738D02*
X827Y738D01*
X851Y738D02*
X854Y738D01*
X896Y738D02*
X899Y738D01*
X781Y591D02*
X798Y591D01*
X818Y591D02*
X821Y591D01*
X868Y591D02*
X896Y591D01*
X779Y590D02*
X799Y590D01*
X817Y590D02*
X822Y590D01*
X867Y590D02*
X897Y590D01*
X778Y589D02*
X800Y589D01*
X817Y589D02*
X822Y589D01*
X867Y589D02*
X898Y589D01*
X777Y588D02*
X800Y588D01*
X817Y588D02*
X823Y588D01*
X867Y588D02*
X899Y588D01*
X776Y587D02*
X800Y587D01*
X817Y587D02*
X823Y587D01*
X867Y587D02*
X900Y587D01*
X775Y586D02*
X799Y586D01*
X817Y586D02*
X823Y586D01*
X867Y586D02*
X900Y586D01*
X775Y585D02*
X798Y585D01*
X817Y585D02*
X823Y585D01*
X868Y585D02*
X900Y585D01*
X774Y584D02*
X782Y584D01*
X817Y584D02*
X823Y584D01*
X894Y584D02*
X900Y584D01*
X774Y583D02*
X781Y583D01*
X817Y583D02*
X823Y583D01*
X894Y583D02*
X900Y583D01*
X773Y582D02*
X780Y582D01*
X817Y582D02*
X823Y582D01*
X894Y582D02*
X900Y582D01*
X773Y581D02*
X780Y581D01*
X817Y581D02*
X823Y581D01*
X894Y581D02*
X900Y581D01*
X772Y580D02*
X779Y580D01*
X817Y580D02*
X823Y580D01*
X894Y580D02*
X900Y580D01*
X772Y579D02*
X779Y579D01*
X817Y579D02*
X823Y579D01*
X894Y579D02*
X900Y579D01*
X771Y578D02*
X778Y578D01*
X817Y578D02*
X823Y578D01*
X894Y578D02*
X900Y578D01*
X771Y577D02*
X778Y577D01*
X817Y577D02*
X823Y577D01*
X894Y577D02*
X900Y577D01*
X770Y576D02*
X777Y576D01*
X817Y576D02*
X823Y576D01*
X832Y576D02*
X843Y576D01*
X894Y576D02*
X900Y576D01*
X770Y575D02*
X777Y575D01*
X817Y575D02*
X823Y575D01*
X830Y575D02*
X845Y575D01*
X894Y575D02*
X900Y575D01*
X769Y574D02*
X776Y574D01*
X817Y574D02*
X823Y574D01*
X829Y574D02*
X846Y574D01*
X894Y574D02*
X900Y574D01*
X769Y573D02*
X776Y573D01*
X817Y573D02*
X823Y573D01*
X827Y573D02*
X847Y573D01*
X894Y573D02*
X900Y573D01*
X768Y572D02*
X775Y572D01*
X817Y572D02*
X823Y572D01*
X825Y572D02*
X848Y572D01*
X894Y572D02*
X900Y572D01*
X768Y571D02*
X775Y571D01*
X817Y571D02*
X849Y571D01*
X894Y571D02*
X900Y571D01*
X768Y570D02*
X774Y570D01*
X817Y570D02*
X849Y570D01*
X894Y570D02*
X900Y570D01*
X767Y569D02*
X774Y569D01*
X817Y569D02*
X833Y569D01*
X842Y569D02*
X849Y569D01*
X893Y569D02*
X900Y569D01*
X767Y568D02*
X773Y568D01*
X817Y568D02*
X831Y568D01*
X843Y568D02*
X849Y568D01*
X891Y568D02*
X900Y568D01*
X767Y567D02*
X773Y567D01*
X817Y567D02*
X830Y567D01*
X844Y567D02*
X850Y567D01*
X874Y567D02*
X899Y567D01*
X767Y566D02*
X773Y566D01*
X817Y566D02*
X828Y566D01*
X844Y566D02*
X850Y566D01*
X874Y566D02*
X899Y566D01*
X767Y565D02*
X773Y565D01*
X817Y565D02*
X826Y565D01*
X844Y565D02*
X850Y565D01*
X873Y565D02*
X898Y565D01*
X767Y564D02*
X773Y564D01*
X817Y564D02*
X825Y564D01*
X844Y564D02*
X850Y564D01*
X873Y564D02*
X898Y564D01*
X767Y563D02*
X773Y563D01*
X817Y563D02*
X823Y563D01*
X844Y563D02*
X850Y563D01*
X874Y563D02*
X898Y563D01*
X767Y562D02*
X773Y562D01*
X817Y562D02*
X823Y562D01*
X844Y562D02*
X850Y562D01*
X874Y562D02*
X899Y562D01*
X767Y561D02*
X773Y561D01*
X817Y561D02*
X823Y561D01*
X844Y561D02*
X850Y561D01*
X876Y561D02*
X899Y561D01*
X767Y560D02*
X774Y560D01*
X817Y560D02*
X823Y560D01*
X844Y560D02*
X850Y560D01*
X893Y560D02*
X900Y560D01*
X767Y559D02*
X774Y559D01*
X817Y559D02*
X823Y559D01*
X844Y559D02*
X850Y559D01*
X894Y559D02*
X900Y559D01*
X768Y558D02*
X775Y558D01*
X817Y558D02*
X823Y558D01*
X844Y558D02*
X850Y558D01*
X894Y558D02*
X900Y558D01*
X768Y557D02*
X775Y557D01*
X817Y557D02*
X823Y557D01*
X844Y557D02*
X850Y557D01*
X894Y557D02*
X900Y557D01*
X769Y556D02*
X776Y556D01*
X817Y556D02*
X823Y556D01*
X844Y556D02*
X850Y556D01*
X894Y556D02*
X900Y556D01*
X769Y555D02*
X776Y555D01*
X817Y555D02*
X823Y555D01*
X844Y555D02*
X850Y555D01*
X894Y555D02*
X900Y555D01*
X770Y554D02*
X777Y554D01*
X817Y554D02*
X823Y554D01*
X844Y554D02*
X850Y554D01*
X894Y554D02*
X900Y554D01*
X770Y553D02*
X777Y553D01*
X817Y553D02*
X823Y553D01*
X844Y553D02*
X850Y553D01*
X894Y553D02*
X900Y553D01*
X771Y552D02*
X778Y552D01*
X817Y552D02*
X823Y552D01*
X844Y552D02*
X850Y552D01*
X894Y552D02*
X900Y552D01*
X771Y551D02*
X778Y551D01*
X817Y551D02*
X823Y551D01*
X844Y551D02*
X850Y551D01*
X894Y551D02*
X900Y551D01*
X772Y550D02*
X779Y550D01*
X817Y550D02*
X823Y550D01*
X844Y550D02*
X850Y550D01*
X894Y550D02*
X900Y550D01*
X772Y549D02*
X779Y549D01*
X817Y549D02*
X823Y549D01*
X844Y549D02*
X850Y549D01*
X894Y549D02*
X900Y549D01*
X773Y548D02*
X780Y548D01*
X817Y548D02*
X823Y548D01*
X844Y548D02*
X850Y548D01*
X894Y548D02*
X900Y548D01*
X773Y547D02*
X780Y547D01*
X817Y547D02*
X823Y547D01*
X844Y547D02*
X850Y547D01*
X894Y547D02*
X900Y547D01*
X774Y546D02*
X781Y546D01*
X817Y546D02*
X823Y546D01*
X844Y546D02*
X850Y546D01*
X894Y546D02*
X900Y546D01*
X774Y545D02*
X782Y545D01*
X817Y545D02*
X823Y545D01*
X844Y545D02*
X850Y545D01*
X894Y545D02*
X900Y545D01*
X775Y544D02*
X798Y544D01*
X817Y544D02*
X823Y544D01*
X844Y544D02*
X850Y544D01*
X868Y544D02*
X900Y544D01*
X775Y543D02*
X799Y543D01*
X817Y543D02*
X823Y543D01*
X844Y543D02*
X850Y543D01*
X867Y543D02*
X900Y543D01*
X776Y542D02*
X800Y542D01*
X817Y542D02*
X823Y542D01*
X844Y542D02*
X850Y542D01*
X867Y542D02*
X900Y542D01*
X777Y541D02*
X800Y541D01*
X817Y541D02*
X823Y541D01*
X844Y541D02*
X850Y541D01*
X867Y541D02*
X899Y541D01*
X778Y540D02*
X800Y540D01*
X817Y540D02*
X822Y540D01*
X844Y540D02*
X849Y540D01*
X867Y540D02*
X898Y540D01*
X779Y539D02*
X800Y539D01*
X817Y539D02*
X822Y539D01*
X844Y539D02*
X849Y539D01*
X867Y539D02*
X897Y539D01*
X781Y538D02*
X799Y538D01*
X818Y538D02*
X821Y538D01*
X845Y538D02*
X848Y538D01*
X868Y538D02*
X896Y538D01*
X780Y385D02*
X799Y385D01*
X818Y385D02*
X821Y385D01*
X868Y385D02*
X897Y385D01*
X778Y384D02*
X800Y384D01*
X817Y384D02*
X822Y384D01*
X867Y384D02*
X898Y384D01*
X777Y383D02*
X800Y383D01*
X817Y383D02*
X822Y383D01*
X867Y383D02*
X899Y383D01*
X776Y382D02*
X800Y382D01*
X817Y382D02*
X823Y382D01*
X867Y382D02*
X899Y382D01*
X776Y381D02*
X800Y381D01*
X817Y381D02*
X823Y381D01*
X867Y381D02*
X900Y381D01*
X775Y380D02*
X799Y380D01*
X817Y380D02*
X823Y380D01*
X868Y380D02*
X900Y380D01*
X775Y379D02*
X797Y379D01*
X817Y379D02*
X823Y379D01*
X869Y379D02*
X900Y379D01*
X774Y378D02*
X781Y378D01*
X817Y378D02*
X823Y378D01*
X894Y378D02*
X900Y378D01*
X774Y377D02*
X781Y377D01*
X817Y377D02*
X823Y377D01*
X894Y377D02*
X900Y377D01*
X773Y376D02*
X780Y376D01*
X817Y376D02*
X823Y376D01*
X894Y376D02*
X900Y376D01*
X773Y375D02*
X780Y375D01*
X817Y375D02*
X823Y375D01*
X894Y375D02*
X900Y375D01*
X772Y374D02*
X779Y374D01*
X817Y374D02*
X823Y374D01*
X894Y374D02*
X900Y374D01*
X772Y373D02*
X779Y373D01*
X817Y373D02*
X823Y373D01*
X894Y373D02*
X900Y373D01*
X771Y372D02*
X778Y372D01*
X817Y372D02*
X823Y372D01*
X894Y372D02*
X900Y372D01*
X771Y371D02*
X778Y371D01*
X817Y371D02*
X823Y371D01*
X834Y371D02*
X841Y371D01*
X894Y371D02*
X900Y371D01*
X770Y370D02*
X777Y370D01*
X817Y370D02*
X823Y370D01*
X831Y370D02*
X844Y370D01*
X894Y370D02*
X900Y370D01*
X770Y369D02*
X777Y369D01*
X817Y369D02*
X823Y369D01*
X829Y369D02*
X846Y369D01*
X894Y369D02*
X900Y369D01*
X769Y368D02*
X776Y368D01*
X817Y368D02*
X823Y368D01*
X828Y368D02*
X847Y368D01*
X894Y368D02*
X900Y368D01*
X769Y367D02*
X776Y367D01*
X817Y367D02*
X823Y367D01*
X826Y367D02*
X848Y367D01*
X894Y367D02*
X900Y367D01*
X768Y366D02*
X775Y366D01*
X817Y366D02*
X823Y366D01*
X825Y366D02*
X848Y366D01*
X894Y366D02*
X900Y366D01*
X768Y365D02*
X775Y365D01*
X817Y365D02*
X849Y365D01*
X894Y365D02*
X900Y365D01*
X767Y364D02*
X774Y364D01*
X817Y364D02*
X834Y364D01*
X841Y364D02*
X849Y364D01*
X894Y364D02*
X900Y364D01*
X767Y363D02*
X774Y363D01*
X817Y363D02*
X832Y363D01*
X843Y363D02*
X849Y363D01*
X894Y363D02*
X900Y363D01*
X767Y362D02*
X773Y362D01*
X817Y362D02*
X830Y362D01*
X843Y362D02*
X850Y362D01*
X871Y362D02*
X900Y362D01*
X767Y361D02*
X773Y361D01*
X817Y361D02*
X829Y361D01*
X844Y361D02*
X850Y361D01*
X869Y361D02*
X900Y361D01*
X767Y360D02*
X773Y360D01*
X817Y360D02*
X827Y360D01*
X844Y360D02*
X850Y360D01*
X868Y360D02*
X900Y360D01*
X767Y359D02*
X773Y359D01*
X817Y359D02*
X826Y359D01*
X844Y359D02*
X850Y359D01*
X868Y359D02*
X899Y359D01*
X767Y358D02*
X773Y358D01*
X817Y358D02*
X824Y358D01*
X844Y358D02*
X850Y358D01*
X867Y358D02*
X898Y358D01*
X767Y357D02*
X773Y357D01*
X817Y357D02*
X823Y357D01*
X844Y357D02*
X850Y357D01*
X867Y357D02*
X897Y357D01*
X767Y356D02*
X773Y356D01*
X817Y356D02*
X823Y356D01*
X844Y356D02*
X850Y356D01*
X867Y356D02*
X896Y356D01*
X767Y355D02*
X773Y355D01*
X817Y355D02*
X823Y355D01*
X844Y355D02*
X850Y355D01*
X867Y355D02*
X873Y355D01*
X767Y354D02*
X774Y354D01*
X817Y354D02*
X823Y354D01*
X844Y354D02*
X850Y354D01*
X867Y354D02*
X873Y354D01*
X768Y353D02*
X774Y353D01*
X817Y353D02*
X823Y353D01*
X844Y353D02*
X850Y353D01*
X867Y353D02*
X873Y353D01*
X768Y352D02*
X775Y352D01*
X817Y352D02*
X823Y352D01*
X844Y352D02*
X850Y352D01*
X867Y352D02*
X873Y352D01*
X769Y351D02*
X775Y351D01*
X817Y351D02*
X823Y351D01*
X844Y351D02*
X850Y351D01*
X867Y351D02*
X873Y351D01*
X769Y350D02*
X776Y350D01*
X817Y350D02*
X823Y350D01*
X844Y350D02*
X850Y350D01*
X867Y350D02*
X873Y350D01*
X769Y349D02*
X776Y349D01*
X817Y349D02*
X823Y349D01*
X844Y349D02*
X850Y349D01*
X867Y349D02*
X873Y349D01*
X770Y348D02*
X777Y348D01*
X817Y348D02*
X823Y348D01*
X844Y348D02*
X850Y348D01*
X867Y348D02*
X873Y348D01*
X770Y347D02*
X777Y347D01*
X817Y347D02*
X823Y347D01*
X844Y347D02*
X850Y347D01*
X867Y347D02*
X873Y347D01*
X771Y346D02*
X778Y346D01*
X817Y346D02*
X823Y346D01*
X844Y346D02*
X850Y346D01*
X867Y346D02*
X873Y346D01*
X771Y345D02*
X778Y345D01*
X817Y345D02*
X823Y345D01*
X844Y345D02*
X850Y345D01*
X867Y345D02*
X873Y345D01*
X772Y344D02*
X779Y344D01*
X817Y344D02*
X823Y344D01*
X844Y344D02*
X850Y344D01*
X867Y344D02*
X873Y344D01*
X772Y343D02*
X779Y343D01*
X817Y343D02*
X823Y343D01*
X844Y343D02*
X850Y343D01*
X867Y343D02*
X873Y343D01*
X773Y342D02*
X780Y342D01*
X817Y342D02*
X823Y342D01*
X844Y342D02*
X850Y342D01*
X867Y342D02*
X873Y342D01*
X774Y341D02*
X780Y341D01*
X817Y341D02*
X823Y341D01*
X844Y341D02*
X850Y341D01*
X867Y341D02*
X873Y341D01*
X774Y340D02*
X781Y340D01*
X817Y340D02*
X823Y340D01*
X844Y340D02*
X850Y340D01*
X867Y340D02*
X873Y340D01*
X775Y339D02*
X782Y339D01*
X817Y339D02*
X823Y339D01*
X844Y339D02*
X850Y339D01*
X867Y339D02*
X873Y339D01*
X775Y338D02*
X799Y338D01*
X817Y338D02*
X823Y338D01*
X844Y338D02*
X850Y338D01*
X867Y338D02*
X899Y338D01*
X776Y337D02*
X800Y337D01*
X817Y337D02*
X823Y337D01*
X844Y337D02*
X850Y337D01*
X867Y337D02*
X900Y337D01*
X776Y336D02*
X800Y336D01*
X817Y336D02*
X823Y336D01*
X844Y336D02*
X850Y336D01*
X867Y336D02*
X900Y336D01*
X777Y335D02*
X800Y335D01*
X817Y335D02*
X823Y335D01*
X844Y335D02*
X850Y335D01*
X867Y335D02*
X900Y335D01*
X778Y334D02*
X800Y334D01*
X817Y334D02*
X822Y334D01*
X844Y334D02*
X849Y334D01*
X867Y334D02*
X900Y334D01*
X780Y333D02*
X799Y333D01*
X817Y333D02*
X822Y333D01*
X844Y333D02*
X849Y333D01*
X867Y333D02*
X899Y333D01*
X783Y332D02*
X798Y332D01*
X819Y332D02*
X820Y332D01*
X846Y332D02*
X847Y332D01*
X867Y332D02*
X898Y332D01*
X781Y191D02*
X798Y191D01*
X818Y191D02*
X821Y191D01*
X868Y191D02*
X886Y191D01*
X779Y190D02*
X799Y190D01*
X817Y190D02*
X822Y190D01*
X867Y190D02*
X886Y190D01*
X778Y189D02*
X800Y189D01*
X817Y189D02*
X822Y189D01*
X867Y189D02*
X886Y189D01*
X777Y188D02*
X800Y188D01*
X817Y188D02*
X823Y188D01*
X867Y188D02*
X886Y188D01*
X776Y187D02*
X800Y187D01*
X817Y187D02*
X823Y187D01*
X867Y187D02*
X886Y187D01*
X775Y186D02*
X799Y186D01*
X817Y186D02*
X823Y186D01*
X867Y186D02*
X886Y186D01*
X775Y185D02*
X798Y185D01*
X817Y185D02*
X823Y185D01*
X868Y185D02*
X886Y185D01*
X774Y184D02*
X782Y184D01*
X817Y184D02*
X823Y184D01*
X880Y184D02*
X886Y184D01*
X774Y183D02*
X781Y183D01*
X817Y183D02*
X823Y183D01*
X880Y183D02*
X886Y183D01*
X773Y182D02*
X780Y182D01*
X817Y182D02*
X823Y182D01*
X880Y182D02*
X886Y182D01*
X773Y181D02*
X780Y181D01*
X817Y181D02*
X823Y181D01*
X880Y181D02*
X886Y181D01*
X772Y180D02*
X779Y180D01*
X817Y180D02*
X823Y180D01*
X880Y180D02*
X886Y180D01*
X772Y179D02*
X779Y179D01*
X817Y179D02*
X823Y179D01*
X880Y179D02*
X886Y179D01*
X771Y178D02*
X778Y178D01*
X817Y178D02*
X823Y178D01*
X880Y178D02*
X886Y178D01*
X771Y177D02*
X778Y177D01*
X817Y177D02*
X823Y177D01*
X880Y177D02*
X886Y177D01*
X770Y176D02*
X777Y176D01*
X817Y176D02*
X823Y176D01*
X832Y176D02*
X843Y176D01*
X880Y176D02*
X886Y176D01*
X770Y175D02*
X777Y175D01*
X817Y175D02*
X823Y175D01*
X830Y175D02*
X845Y175D01*
X880Y175D02*
X886Y175D01*
X769Y174D02*
X776Y174D01*
X817Y174D02*
X823Y174D01*
X829Y174D02*
X846Y174D01*
X880Y174D02*
X886Y174D01*
X769Y173D02*
X776Y173D01*
X817Y173D02*
X823Y173D01*
X827Y173D02*
X847Y173D01*
X880Y173D02*
X886Y173D01*
X768Y172D02*
X775Y172D01*
X817Y172D02*
X823Y172D01*
X825Y172D02*
X848Y172D01*
X880Y172D02*
X886Y172D01*
X768Y171D02*
X775Y171D01*
X817Y171D02*
X849Y171D01*
X880Y171D02*
X886Y171D01*
X768Y170D02*
X774Y170D01*
X817Y170D02*
X849Y170D01*
X880Y170D02*
X886Y170D01*
X767Y169D02*
X774Y169D01*
X817Y169D02*
X833Y169D01*
X842Y169D02*
X849Y169D01*
X880Y169D02*
X886Y169D01*
X767Y168D02*
X773Y168D01*
X817Y168D02*
X831Y168D01*
X843Y168D02*
X849Y168D01*
X880Y168D02*
X886Y168D01*
X767Y167D02*
X773Y167D01*
X817Y167D02*
X830Y167D01*
X844Y167D02*
X850Y167D01*
X880Y167D02*
X886Y167D01*
X767Y166D02*
X773Y166D01*
X817Y166D02*
X828Y166D01*
X844Y166D02*
X850Y166D01*
X880Y166D02*
X886Y166D01*
X767Y165D02*
X773Y165D01*
X817Y165D02*
X826Y165D01*
X844Y165D02*
X850Y165D01*
X880Y165D02*
X886Y165D01*
X767Y164D02*
X773Y164D01*
X817Y164D02*
X825Y164D01*
X844Y164D02*
X850Y164D01*
X880Y164D02*
X886Y164D01*
X767Y163D02*
X773Y163D01*
X817Y163D02*
X823Y163D01*
X844Y163D02*
X850Y163D01*
X880Y163D02*
X886Y163D01*
X767Y162D02*
X773Y162D01*
X817Y162D02*
X823Y162D01*
X844Y162D02*
X850Y162D01*
X880Y162D02*
X886Y162D01*
X897Y162D02*
X897Y162D01*
X767Y161D02*
X773Y161D01*
X817Y161D02*
X823Y161D01*
X844Y161D02*
X850Y161D01*
X880Y161D02*
X886Y161D01*
X895Y161D02*
X899Y161D01*
X767Y160D02*
X774Y160D01*
X817Y160D02*
X823Y160D01*
X844Y160D02*
X850Y160D01*
X880Y160D02*
X886Y160D01*
X894Y160D02*
X900Y160D01*
X767Y159D02*
X774Y159D01*
X817Y159D02*
X823Y159D01*
X844Y159D02*
X850Y159D01*
X880Y159D02*
X886Y159D01*
X894Y159D02*
X900Y159D01*
X768Y158D02*
X775Y158D01*
X817Y158D02*
X823Y158D01*
X844Y158D02*
X850Y158D01*
X880Y158D02*
X886Y158D01*
X894Y158D02*
X900Y158D01*
X768Y157D02*
X775Y157D01*
X817Y157D02*
X823Y157D01*
X844Y157D02*
X850Y157D01*
X880Y157D02*
X886Y157D01*
X894Y157D02*
X900Y157D01*
X769Y156D02*
X776Y156D01*
X817Y156D02*
X823Y156D01*
X844Y156D02*
X850Y156D01*
X880Y156D02*
X886Y156D01*
X894Y156D02*
X900Y156D01*
X769Y155D02*
X776Y155D01*
X817Y155D02*
X823Y155D01*
X844Y155D02*
X850Y155D01*
X880Y155D02*
X886Y155D01*
X894Y155D02*
X900Y155D01*
X770Y154D02*
X777Y154D01*
X817Y154D02*
X823Y154D01*
X844Y154D02*
X850Y154D01*
X880Y154D02*
X886Y154D01*
X894Y154D02*
X900Y154D01*
X770Y153D02*
X777Y153D01*
X817Y153D02*
X823Y153D01*
X844Y153D02*
X850Y153D01*
X880Y153D02*
X886Y153D01*
X894Y153D02*
X900Y153D01*
X771Y152D02*
X778Y152D01*
X817Y152D02*
X823Y152D01*
X844Y152D02*
X850Y152D01*
X880Y152D02*
X886Y152D01*
X894Y152D02*
X900Y152D01*
X771Y151D02*
X778Y151D01*
X817Y151D02*
X823Y151D01*
X844Y151D02*
X850Y151D01*
X880Y151D02*
X886Y151D01*
X894Y151D02*
X900Y151D01*
X772Y150D02*
X779Y150D01*
X817Y150D02*
X823Y150D01*
X844Y150D02*
X850Y150D01*
X880Y150D02*
X886Y150D01*
X894Y150D02*
X900Y150D01*
X772Y149D02*
X779Y149D01*
X817Y149D02*
X823Y149D01*
X844Y149D02*
X850Y149D01*
X880Y149D02*
X886Y149D01*
X894Y149D02*
X900Y149D01*
X773Y148D02*
X780Y148D01*
X817Y148D02*
X823Y148D01*
X844Y148D02*
X850Y148D01*
X880Y148D02*
X886Y148D01*
X894Y148D02*
X900Y148D01*
X773Y147D02*
X780Y147D01*
X817Y147D02*
X823Y147D01*
X844Y147D02*
X850Y147D01*
X880Y147D02*
X886Y147D01*
X894Y147D02*
X900Y147D01*
X774Y146D02*
X781Y146D01*
X817Y146D02*
X823Y146D01*
X844Y146D02*
X850Y146D01*
X880Y146D02*
X886Y146D01*
X894Y146D02*
X900Y146D01*
X774Y145D02*
X782Y145D01*
X817Y145D02*
X823Y145D01*
X844Y145D02*
X850Y145D01*
X880Y145D02*
X886Y145D01*
X894Y145D02*
X900Y145D01*
X775Y144D02*
X798Y144D01*
X817Y144D02*
X823Y144D01*
X844Y144D02*
X850Y144D01*
X868Y144D02*
X900Y144D01*
X775Y143D02*
X799Y143D01*
X817Y143D02*
X823Y143D01*
X844Y143D02*
X850Y143D01*
X867Y143D02*
X900Y143D01*
X776Y142D02*
X800Y142D01*
X817Y142D02*
X823Y142D01*
X844Y142D02*
X850Y142D01*
X867Y142D02*
X900Y142D01*
X777Y141D02*
X800Y141D01*
X817Y141D02*
X823Y141D01*
X844Y141D02*
X850Y141D01*
X867Y141D02*
X900Y141D01*
X778Y140D02*
X800Y140D01*
X817Y140D02*
X822Y140D01*
X844Y140D02*
X849Y140D01*
X867Y140D02*
X900Y140D01*
X779Y139D02*
X800Y139D01*
X817Y139D02*
X822Y139D01*
X844Y139D02*
X849Y139D01*
X867Y139D02*
X900Y139D01*
X781Y138D02*
X799Y138D01*
X818Y138D02*
X821Y138D01*
X845Y138D02*
X848Y138D01*
X868Y138D02*
X899Y138D01*
D02*
G04 End of Silk1*
M02*