G04 MADE WITH FRITZING*
G04 WWW.FRITZING.ORG*
G04 DOUBLE SIDED*
G04 HOLES PLATED*
G04 CONTOUR ON CENTER OF CONTOUR VECTOR*
%ASAXBY*%
%FSLAX23Y23*%
%MOIN*%
%OFA0B0*%
%SFA1.0B1.0*%
%ADD10C,0.020000*%
%ADD11C,0.010000*%
%ADD12R,0.001000X0.001000*%
%LNSILK1*%
G90*
G70*
G54D10*
X1283Y202D02*
X983Y202D01*
D02*
X983Y202D02*
X983Y102D01*
D02*
X983Y102D02*
X1283Y102D01*
D02*
X1283Y102D02*
X1283Y202D01*
G54D11*
D02*
X1183Y202D02*
X1183Y102D01*
G54D10*
D02*
X1283Y402D02*
X983Y402D01*
D02*
X983Y402D02*
X983Y302D01*
D02*
X983Y302D02*
X1283Y302D01*
D02*
X1283Y302D02*
X1283Y402D01*
G54D11*
D02*
X1183Y402D02*
X1183Y302D01*
G54D10*
D02*
X1283Y602D02*
X983Y602D01*
D02*
X983Y602D02*
X983Y502D01*
D02*
X983Y502D02*
X1283Y502D01*
D02*
X1283Y502D02*
X1283Y602D01*
G54D11*
D02*
X1183Y602D02*
X1183Y502D01*
G54D10*
D02*
X1283Y802D02*
X983Y802D01*
D02*
X983Y802D02*
X983Y702D01*
D02*
X983Y702D02*
X1283Y702D01*
D02*
X1283Y702D02*
X1283Y802D01*
G54D11*
D02*
X1183Y802D02*
X1183Y702D01*
G54D10*
D02*
X1283Y1002D02*
X983Y1002D01*
D02*
X983Y1002D02*
X983Y902D01*
D02*
X983Y902D02*
X1283Y902D01*
D02*
X1283Y902D02*
X1283Y1002D01*
G54D11*
D02*
X1183Y1002D02*
X1183Y902D01*
G54D10*
D02*
X1283Y1202D02*
X983Y1202D01*
D02*
X983Y1202D02*
X983Y1102D01*
D02*
X983Y1102D02*
X1283Y1102D01*
D02*
X1283Y1102D02*
X1283Y1202D01*
G54D11*
D02*
X1183Y1202D02*
X1183Y1102D01*
G54D10*
D02*
X1283Y1902D02*
X983Y1902D01*
D02*
X983Y1902D02*
X983Y1802D01*
D02*
X983Y1802D02*
X1283Y1802D01*
D02*
X1283Y1802D02*
X1283Y1902D01*
G54D11*
D02*
X1183Y1902D02*
X1183Y1802D01*
G54D10*
D02*
X1283Y1402D02*
X983Y1402D01*
D02*
X983Y1402D02*
X983Y1302D01*
D02*
X983Y1302D02*
X1283Y1302D01*
D02*
X1283Y1302D02*
X1283Y1402D01*
G54D11*
D02*
X1183Y1402D02*
X1183Y1302D01*
G54D10*
D02*
X1283Y1602D02*
X983Y1602D01*
D02*
X983Y1602D02*
X983Y1502D01*
D02*
X983Y1502D02*
X1283Y1502D01*
D02*
X1283Y1502D02*
X1283Y1602D01*
G54D11*
D02*
X1183Y1602D02*
X1183Y1502D01*
D02*
X1783Y1602D02*
X1783Y1902D01*
D02*
X1783Y1902D02*
X1683Y1902D01*
D02*
X1683Y1902D02*
X1683Y1602D01*
D02*
X1683Y1602D02*
X1783Y1602D01*
G54D12*
X1593Y2028D02*
X1614Y2028D01*
X1649Y2028D02*
X1652Y2028D01*
X1679Y2028D02*
X1708Y2028D01*
X1747Y2028D02*
X1750Y2028D01*
X1765Y2028D02*
X1789Y2028D01*
X1808Y2028D02*
X1832Y2028D01*
X1851Y2028D02*
X1858Y2028D01*
X1873Y2028D02*
X1880Y2028D01*
X1593Y2027D02*
X1616Y2027D01*
X1648Y2027D02*
X1652Y2027D01*
X1679Y2027D02*
X1708Y2027D01*
X1746Y2027D02*
X1750Y2027D01*
X1765Y2027D02*
X1790Y2027D01*
X1808Y2027D02*
X1833Y2027D01*
X1851Y2027D02*
X1859Y2027D01*
X1872Y2027D02*
X1880Y2027D01*
X1593Y2026D02*
X1617Y2026D01*
X1648Y2026D02*
X1653Y2026D01*
X1679Y2026D02*
X1708Y2026D01*
X1745Y2026D02*
X1751Y2026D01*
X1765Y2026D02*
X1791Y2026D01*
X1808Y2026D02*
X1834Y2026D01*
X1851Y2026D02*
X1860Y2026D01*
X1871Y2026D02*
X1880Y2026D01*
X1593Y2025D02*
X1618Y2025D01*
X1647Y2025D02*
X1653Y2025D01*
X1679Y2025D02*
X1708Y2025D01*
X1745Y2025D02*
X1751Y2025D01*
X1765Y2025D02*
X1792Y2025D01*
X1808Y2025D02*
X1835Y2025D01*
X1851Y2025D02*
X1860Y2025D01*
X1871Y2025D02*
X1880Y2025D01*
X1593Y2024D02*
X1619Y2024D01*
X1647Y2024D02*
X1653Y2024D01*
X1679Y2024D02*
X1708Y2024D01*
X1744Y2024D02*
X1750Y2024D01*
X1765Y2024D02*
X1793Y2024D01*
X1808Y2024D02*
X1836Y2024D01*
X1851Y2024D02*
X1861Y2024D01*
X1870Y2024D02*
X1880Y2024D01*
X1593Y2023D02*
X1620Y2023D01*
X1647Y2023D02*
X1654Y2023D01*
X1679Y2023D02*
X1708Y2023D01*
X1744Y2023D02*
X1750Y2023D01*
X1765Y2023D02*
X1793Y2023D01*
X1808Y2023D02*
X1836Y2023D01*
X1851Y2023D02*
X1862Y2023D01*
X1869Y2023D02*
X1880Y2023D01*
X1593Y2022D02*
X1598Y2022D01*
X1613Y2022D02*
X1620Y2022D01*
X1646Y2022D02*
X1654Y2022D01*
X1679Y2022D02*
X1684Y2022D01*
X1691Y2022D02*
X1696Y2022D01*
X1703Y2022D02*
X1708Y2022D01*
X1743Y2022D02*
X1749Y2022D01*
X1765Y2022D02*
X1770Y2022D01*
X1788Y2022D02*
X1794Y2022D01*
X1808Y2022D02*
X1813Y2022D01*
X1831Y2022D02*
X1837Y2022D01*
X1851Y2022D02*
X1863Y2022D01*
X1869Y2022D02*
X1880Y2022D01*
X1593Y2021D02*
X1598Y2021D01*
X1615Y2021D02*
X1621Y2021D01*
X1646Y2021D02*
X1654Y2021D01*
X1679Y2021D02*
X1684Y2021D01*
X1691Y2021D02*
X1696Y2021D01*
X1703Y2021D02*
X1708Y2021D01*
X1742Y2021D02*
X1748Y2021D01*
X1765Y2021D02*
X1770Y2021D01*
X1788Y2021D02*
X1794Y2021D01*
X1808Y2021D02*
X1813Y2021D01*
X1832Y2021D02*
X1837Y2021D01*
X1851Y2021D02*
X1863Y2021D01*
X1868Y2021D02*
X1880Y2021D01*
X1593Y2020D02*
X1598Y2020D01*
X1616Y2020D02*
X1621Y2020D01*
X1646Y2020D02*
X1655Y2020D01*
X1679Y2020D02*
X1684Y2020D01*
X1691Y2020D02*
X1696Y2020D01*
X1703Y2020D02*
X1708Y2020D01*
X1742Y2020D02*
X1748Y2020D01*
X1765Y2020D02*
X1770Y2020D01*
X1789Y2020D02*
X1794Y2020D01*
X1808Y2020D02*
X1813Y2020D01*
X1832Y2020D02*
X1837Y2020D01*
X1851Y2020D02*
X1864Y2020D01*
X1867Y2020D02*
X1880Y2020D01*
X1593Y2019D02*
X1598Y2019D01*
X1616Y2019D02*
X1621Y2019D01*
X1646Y2019D02*
X1655Y2019D01*
X1679Y2019D02*
X1683Y2019D01*
X1691Y2019D02*
X1696Y2019D01*
X1703Y2019D02*
X1707Y2019D01*
X1741Y2019D02*
X1747Y2019D01*
X1765Y2019D02*
X1770Y2019D01*
X1789Y2019D02*
X1794Y2019D01*
X1808Y2019D02*
X1813Y2019D01*
X1832Y2019D02*
X1837Y2019D01*
X1851Y2019D02*
X1856Y2019D01*
X1858Y2019D02*
X1873Y2019D01*
X1875Y2019D02*
X1880Y2019D01*
X1593Y2018D02*
X1598Y2018D01*
X1616Y2018D02*
X1621Y2018D01*
X1645Y2018D02*
X1655Y2018D01*
X1681Y2018D02*
X1682Y2018D01*
X1691Y2018D02*
X1696Y2018D01*
X1704Y2018D02*
X1706Y2018D01*
X1741Y2018D02*
X1747Y2018D01*
X1765Y2018D02*
X1770Y2018D01*
X1789Y2018D02*
X1794Y2018D01*
X1808Y2018D02*
X1813Y2018D01*
X1832Y2018D02*
X1837Y2018D01*
X1851Y2018D02*
X1856Y2018D01*
X1859Y2018D02*
X1872Y2018D01*
X1875Y2018D02*
X1880Y2018D01*
X1593Y2017D02*
X1598Y2017D01*
X1616Y2017D02*
X1622Y2017D01*
X1645Y2017D02*
X1655Y2017D01*
X1691Y2017D02*
X1696Y2017D01*
X1740Y2017D02*
X1746Y2017D01*
X1765Y2017D02*
X1770Y2017D01*
X1789Y2017D02*
X1794Y2017D01*
X1808Y2017D02*
X1813Y2017D01*
X1832Y2017D02*
X1837Y2017D01*
X1851Y2017D02*
X1856Y2017D01*
X1860Y2017D02*
X1871Y2017D01*
X1875Y2017D02*
X1880Y2017D01*
X1593Y2016D02*
X1598Y2016D01*
X1617Y2016D02*
X1622Y2016D01*
X1645Y2016D02*
X1656Y2016D01*
X1691Y2016D02*
X1696Y2016D01*
X1739Y2016D02*
X1745Y2016D01*
X1765Y2016D02*
X1770Y2016D01*
X1789Y2016D02*
X1794Y2016D01*
X1808Y2016D02*
X1813Y2016D01*
X1832Y2016D02*
X1837Y2016D01*
X1851Y2016D02*
X1856Y2016D01*
X1860Y2016D02*
X1871Y2016D01*
X1875Y2016D02*
X1880Y2016D01*
X1593Y2015D02*
X1598Y2015D01*
X1617Y2015D02*
X1622Y2015D01*
X1644Y2015D02*
X1656Y2015D01*
X1691Y2015D02*
X1696Y2015D01*
X1739Y2015D02*
X1745Y2015D01*
X1765Y2015D02*
X1770Y2015D01*
X1789Y2015D02*
X1794Y2015D01*
X1808Y2015D02*
X1813Y2015D01*
X1832Y2015D02*
X1837Y2015D01*
X1851Y2015D02*
X1856Y2015D01*
X1861Y2015D02*
X1870Y2015D01*
X1875Y2015D02*
X1880Y2015D01*
X1593Y2014D02*
X1598Y2014D01*
X1616Y2014D02*
X1622Y2014D01*
X1644Y2014D02*
X1649Y2014D01*
X1651Y2014D02*
X1656Y2014D01*
X1691Y2014D02*
X1696Y2014D01*
X1738Y2014D02*
X1744Y2014D01*
X1765Y2014D02*
X1770Y2014D01*
X1789Y2014D02*
X1794Y2014D01*
X1808Y2014D02*
X1813Y2014D01*
X1832Y2014D02*
X1837Y2014D01*
X1851Y2014D02*
X1856Y2014D01*
X1862Y2014D02*
X1869Y2014D01*
X1875Y2014D02*
X1880Y2014D01*
X1593Y2013D02*
X1598Y2013D01*
X1616Y2013D02*
X1621Y2013D01*
X1644Y2013D02*
X1649Y2013D01*
X1651Y2013D02*
X1657Y2013D01*
X1691Y2013D02*
X1696Y2013D01*
X1738Y2013D02*
X1744Y2013D01*
X1765Y2013D02*
X1770Y2013D01*
X1789Y2013D02*
X1794Y2013D01*
X1808Y2013D02*
X1813Y2013D01*
X1832Y2013D02*
X1837Y2013D01*
X1851Y2013D02*
X1856Y2013D01*
X1862Y2013D02*
X1869Y2013D01*
X1875Y2013D02*
X1880Y2013D01*
X1593Y2012D02*
X1598Y2012D01*
X1616Y2012D02*
X1621Y2012D01*
X1643Y2012D02*
X1649Y2012D01*
X1652Y2012D02*
X1657Y2012D01*
X1691Y2012D02*
X1696Y2012D01*
X1737Y2012D02*
X1743Y2012D01*
X1765Y2012D02*
X1770Y2012D01*
X1789Y2012D02*
X1794Y2012D01*
X1808Y2012D02*
X1813Y2012D01*
X1832Y2012D02*
X1837Y2012D01*
X1851Y2012D02*
X1856Y2012D01*
X1863Y2012D02*
X1868Y2012D01*
X1875Y2012D02*
X1880Y2012D01*
X1593Y2011D02*
X1598Y2011D01*
X1615Y2011D02*
X1621Y2011D01*
X1643Y2011D02*
X1648Y2011D01*
X1652Y2011D02*
X1657Y2011D01*
X1691Y2011D02*
X1696Y2011D01*
X1737Y2011D02*
X1743Y2011D01*
X1765Y2011D02*
X1770Y2011D01*
X1789Y2011D02*
X1794Y2011D01*
X1808Y2011D02*
X1813Y2011D01*
X1832Y2011D02*
X1837Y2011D01*
X1851Y2011D02*
X1856Y2011D01*
X1863Y2011D02*
X1868Y2011D01*
X1875Y2011D02*
X1880Y2011D01*
X1593Y2010D02*
X1598Y2010D01*
X1614Y2010D02*
X1621Y2010D01*
X1643Y2010D02*
X1648Y2010D01*
X1652Y2010D02*
X1657Y2010D01*
X1691Y2010D02*
X1696Y2010D01*
X1736Y2010D02*
X1742Y2010D01*
X1765Y2010D02*
X1770Y2010D01*
X1789Y2010D02*
X1794Y2010D01*
X1808Y2010D02*
X1813Y2010D01*
X1832Y2010D02*
X1837Y2010D01*
X1851Y2010D02*
X1856Y2010D01*
X1863Y2010D02*
X1868Y2010D01*
X1875Y2010D02*
X1880Y2010D01*
X1593Y2009D02*
X1598Y2009D01*
X1613Y2009D02*
X1620Y2009D01*
X1643Y2009D02*
X1648Y2009D01*
X1652Y2009D02*
X1658Y2009D01*
X1691Y2009D02*
X1696Y2009D01*
X1735Y2009D02*
X1741Y2009D01*
X1765Y2009D02*
X1770Y2009D01*
X1789Y2009D02*
X1794Y2009D01*
X1808Y2009D02*
X1813Y2009D01*
X1832Y2009D02*
X1837Y2009D01*
X1851Y2009D02*
X1856Y2009D01*
X1863Y2009D02*
X1868Y2009D01*
X1875Y2009D02*
X1880Y2009D01*
X1593Y2008D02*
X1620Y2008D01*
X1642Y2008D02*
X1648Y2008D01*
X1653Y2008D02*
X1658Y2008D01*
X1691Y2008D02*
X1696Y2008D01*
X1735Y2008D02*
X1741Y2008D01*
X1765Y2008D02*
X1770Y2008D01*
X1789Y2008D02*
X1794Y2008D01*
X1808Y2008D02*
X1813Y2008D01*
X1832Y2008D02*
X1837Y2008D01*
X1851Y2008D02*
X1856Y2008D01*
X1864Y2008D02*
X1867Y2008D01*
X1875Y2008D02*
X1880Y2008D01*
X1593Y2007D02*
X1619Y2007D01*
X1642Y2007D02*
X1647Y2007D01*
X1653Y2007D02*
X1658Y2007D01*
X1691Y2007D02*
X1696Y2007D01*
X1734Y2007D02*
X1740Y2007D01*
X1765Y2007D02*
X1770Y2007D01*
X1788Y2007D02*
X1794Y2007D01*
X1808Y2007D02*
X1813Y2007D01*
X1831Y2007D02*
X1837Y2007D01*
X1851Y2007D02*
X1856Y2007D01*
X1875Y2007D02*
X1880Y2007D01*
X1593Y2006D02*
X1618Y2006D01*
X1642Y2006D02*
X1647Y2006D01*
X1653Y2006D02*
X1659Y2006D01*
X1691Y2006D02*
X1696Y2006D01*
X1734Y2006D02*
X1740Y2006D01*
X1765Y2006D02*
X1771Y2006D01*
X1786Y2006D02*
X1793Y2006D01*
X1808Y2006D02*
X1814Y2006D01*
X1829Y2006D02*
X1836Y2006D01*
X1851Y2006D02*
X1856Y2006D01*
X1875Y2006D02*
X1880Y2006D01*
X1593Y2005D02*
X1618Y2005D01*
X1641Y2005D02*
X1647Y2005D01*
X1654Y2005D02*
X1659Y2005D01*
X1691Y2005D02*
X1696Y2005D01*
X1733Y2005D02*
X1739Y2005D01*
X1765Y2005D02*
X1793Y2005D01*
X1808Y2005D02*
X1836Y2005D01*
X1851Y2005D02*
X1856Y2005D01*
X1875Y2005D02*
X1880Y2005D01*
X1593Y2004D02*
X1619Y2004D01*
X1641Y2004D02*
X1646Y2004D01*
X1654Y2004D02*
X1659Y2004D01*
X1691Y2004D02*
X1696Y2004D01*
X1732Y2004D02*
X1738Y2004D01*
X1765Y2004D02*
X1792Y2004D01*
X1808Y2004D02*
X1835Y2004D01*
X1851Y2004D02*
X1856Y2004D01*
X1875Y2004D02*
X1880Y2004D01*
X1593Y2003D02*
X1620Y2003D01*
X1641Y2003D02*
X1646Y2003D01*
X1654Y2003D02*
X1659Y2003D01*
X1691Y2003D02*
X1696Y2003D01*
X1732Y2003D02*
X1738Y2003D01*
X1765Y2003D02*
X1791Y2003D01*
X1808Y2003D02*
X1835Y2003D01*
X1851Y2003D02*
X1856Y2003D01*
X1875Y2003D02*
X1880Y2003D01*
X1593Y2002D02*
X1598Y2002D01*
X1613Y2002D02*
X1620Y2002D01*
X1641Y2002D02*
X1646Y2002D01*
X1655Y2002D02*
X1660Y2002D01*
X1691Y2002D02*
X1696Y2002D01*
X1731Y2002D02*
X1737Y2002D01*
X1765Y2002D02*
X1790Y2002D01*
X1808Y2002D02*
X1833Y2002D01*
X1851Y2002D02*
X1856Y2002D01*
X1875Y2002D02*
X1880Y2002D01*
X1593Y2001D02*
X1598Y2001D01*
X1614Y2001D02*
X1621Y2001D01*
X1640Y2001D02*
X1646Y2001D01*
X1655Y2001D02*
X1660Y2001D01*
X1691Y2001D02*
X1696Y2001D01*
X1731Y2001D02*
X1737Y2001D01*
X1765Y2001D02*
X1789Y2001D01*
X1808Y2001D02*
X1832Y2001D01*
X1851Y2001D02*
X1856Y2001D01*
X1875Y2001D02*
X1880Y2001D01*
X1593Y2000D02*
X1598Y2000D01*
X1615Y2000D02*
X1621Y2000D01*
X1640Y2000D02*
X1645Y2000D01*
X1655Y2000D02*
X1660Y2000D01*
X1691Y2000D02*
X1696Y2000D01*
X1730Y2000D02*
X1736Y2000D01*
X1765Y2000D02*
X1786Y2000D01*
X1808Y2000D02*
X1829Y2000D01*
X1851Y2000D02*
X1856Y2000D01*
X1875Y2000D02*
X1880Y2000D01*
X1593Y1999D02*
X1598Y1999D01*
X1616Y1999D02*
X1621Y1999D01*
X1640Y1999D02*
X1645Y1999D01*
X1655Y1999D02*
X1661Y1999D01*
X1691Y1999D02*
X1696Y1999D01*
X1729Y1999D02*
X1736Y1999D01*
X1765Y1999D02*
X1770Y1999D01*
X1808Y1999D02*
X1813Y1999D01*
X1851Y1999D02*
X1856Y1999D01*
X1875Y1999D02*
X1880Y1999D01*
X1593Y1998D02*
X1598Y1998D01*
X1616Y1998D02*
X1621Y1998D01*
X1639Y1998D02*
X1661Y1998D01*
X1691Y1998D02*
X1696Y1998D01*
X1729Y1998D02*
X1735Y1998D01*
X1765Y1998D02*
X1770Y1998D01*
X1808Y1998D02*
X1813Y1998D01*
X1851Y1998D02*
X1856Y1998D01*
X1875Y1998D02*
X1880Y1998D01*
X1593Y1997D02*
X1598Y1997D01*
X1616Y1997D02*
X1622Y1997D01*
X1639Y1997D02*
X1661Y1997D01*
X1691Y1997D02*
X1696Y1997D01*
X1728Y1997D02*
X1734Y1997D01*
X1765Y1997D02*
X1770Y1997D01*
X1808Y1997D02*
X1813Y1997D01*
X1851Y1997D02*
X1856Y1997D01*
X1875Y1997D02*
X1880Y1997D01*
X1593Y1996D02*
X1598Y1996D01*
X1617Y1996D02*
X1622Y1996D01*
X1639Y1996D02*
X1662Y1996D01*
X1691Y1996D02*
X1696Y1996D01*
X1728Y1996D02*
X1734Y1996D01*
X1765Y1996D02*
X1770Y1996D01*
X1808Y1996D02*
X1813Y1996D01*
X1851Y1996D02*
X1856Y1996D01*
X1875Y1996D02*
X1880Y1996D01*
X1593Y1995D02*
X1598Y1995D01*
X1617Y1995D02*
X1622Y1995D01*
X1638Y1995D02*
X1662Y1995D01*
X1691Y1995D02*
X1696Y1995D01*
X1727Y1995D02*
X1733Y1995D01*
X1765Y1995D02*
X1770Y1995D01*
X1808Y1995D02*
X1813Y1995D01*
X1851Y1995D02*
X1856Y1995D01*
X1875Y1995D02*
X1880Y1995D01*
X1593Y1994D02*
X1598Y1994D01*
X1616Y1994D02*
X1622Y1994D01*
X1638Y1994D02*
X1662Y1994D01*
X1691Y1994D02*
X1696Y1994D01*
X1727Y1994D02*
X1733Y1994D01*
X1765Y1994D02*
X1770Y1994D01*
X1808Y1994D02*
X1813Y1994D01*
X1851Y1994D02*
X1856Y1994D01*
X1875Y1994D02*
X1880Y1994D01*
X1593Y1993D02*
X1598Y1993D01*
X1616Y1993D02*
X1621Y1993D01*
X1638Y1993D02*
X1662Y1993D01*
X1691Y1993D02*
X1696Y1993D01*
X1726Y1993D02*
X1732Y1993D01*
X1765Y1993D02*
X1770Y1993D01*
X1808Y1993D02*
X1813Y1993D01*
X1851Y1993D02*
X1856Y1993D01*
X1875Y1993D02*
X1880Y1993D01*
X1593Y1992D02*
X1598Y1992D01*
X1616Y1992D02*
X1621Y1992D01*
X1638Y1992D02*
X1643Y1992D01*
X1657Y1992D02*
X1663Y1992D01*
X1691Y1992D02*
X1696Y1992D01*
X1725Y1992D02*
X1731Y1992D01*
X1765Y1992D02*
X1770Y1992D01*
X1808Y1992D02*
X1813Y1992D01*
X1851Y1992D02*
X1856Y1992D01*
X1875Y1992D02*
X1880Y1992D01*
X1593Y1991D02*
X1598Y1991D01*
X1615Y1991D02*
X1621Y1991D01*
X1637Y1991D02*
X1643Y1991D01*
X1658Y1991D02*
X1663Y1991D01*
X1691Y1991D02*
X1696Y1991D01*
X1725Y1991D02*
X1731Y1991D01*
X1765Y1991D02*
X1770Y1991D01*
X1808Y1991D02*
X1813Y1991D01*
X1851Y1991D02*
X1856Y1991D01*
X1875Y1991D02*
X1880Y1991D01*
X1593Y1990D02*
X1598Y1990D01*
X1615Y1990D02*
X1621Y1990D01*
X1637Y1990D02*
X1642Y1990D01*
X1658Y1990D02*
X1663Y1990D01*
X1691Y1990D02*
X1696Y1990D01*
X1724Y1990D02*
X1730Y1990D01*
X1765Y1990D02*
X1770Y1990D01*
X1808Y1990D02*
X1813Y1990D01*
X1851Y1990D02*
X1856Y1990D01*
X1875Y1990D02*
X1880Y1990D01*
X1593Y1989D02*
X1598Y1989D01*
X1613Y1989D02*
X1620Y1989D01*
X1637Y1989D02*
X1642Y1989D01*
X1658Y1989D02*
X1664Y1989D01*
X1691Y1989D02*
X1696Y1989D01*
X1724Y1989D02*
X1730Y1989D01*
X1765Y1989D02*
X1770Y1989D01*
X1808Y1989D02*
X1813Y1989D01*
X1851Y1989D02*
X1856Y1989D01*
X1875Y1989D02*
X1880Y1989D01*
X1593Y1988D02*
X1620Y1988D01*
X1636Y1988D02*
X1642Y1988D01*
X1659Y1988D02*
X1664Y1988D01*
X1691Y1988D02*
X1696Y1988D01*
X1723Y1988D02*
X1729Y1988D01*
X1765Y1988D02*
X1770Y1988D01*
X1808Y1988D02*
X1813Y1988D01*
X1851Y1988D02*
X1856Y1988D01*
X1875Y1988D02*
X1880Y1988D01*
X1593Y1987D02*
X1619Y1987D01*
X1636Y1987D02*
X1641Y1987D01*
X1659Y1987D02*
X1664Y1987D01*
X1691Y1987D02*
X1696Y1987D01*
X1722Y1987D02*
X1729Y1987D01*
X1765Y1987D02*
X1770Y1987D01*
X1808Y1987D02*
X1813Y1987D01*
X1851Y1987D02*
X1856Y1987D01*
X1875Y1987D02*
X1880Y1987D01*
X1593Y1986D02*
X1618Y1986D01*
X1636Y1986D02*
X1641Y1986D01*
X1659Y1986D02*
X1664Y1986D01*
X1691Y1986D02*
X1696Y1986D01*
X1722Y1986D02*
X1728Y1986D01*
X1765Y1986D02*
X1770Y1986D01*
X1808Y1986D02*
X1813Y1986D01*
X1851Y1986D02*
X1856Y1986D01*
X1875Y1986D02*
X1880Y1986D01*
X1593Y1985D02*
X1617Y1985D01*
X1636Y1985D02*
X1641Y1985D01*
X1659Y1985D02*
X1665Y1985D01*
X1691Y1985D02*
X1696Y1985D01*
X1722Y1985D02*
X1727Y1985D01*
X1765Y1985D02*
X1770Y1985D01*
X1808Y1985D02*
X1813Y1985D01*
X1851Y1985D02*
X1856Y1985D01*
X1875Y1985D02*
X1880Y1985D01*
X1593Y1984D02*
X1616Y1984D01*
X1636Y1984D02*
X1641Y1984D01*
X1660Y1984D02*
X1664Y1984D01*
X1691Y1984D02*
X1696Y1984D01*
X1722Y1984D02*
X1727Y1984D01*
X1765Y1984D02*
X1770Y1984D01*
X1808Y1984D02*
X1813Y1984D01*
X1851Y1984D02*
X1856Y1984D01*
X1875Y1984D02*
X1880Y1984D01*
X1593Y1983D02*
X1614Y1983D01*
X1637Y1983D02*
X1640Y1983D01*
X1661Y1983D02*
X1664Y1983D01*
X1692Y1983D02*
X1695Y1983D01*
X1723Y1983D02*
X1726Y1983D01*
X1766Y1983D02*
X1769Y1983D01*
X1809Y1983D02*
X1812Y1983D01*
X1852Y1983D02*
X1855Y1983D01*
X1876Y1983D02*
X1879Y1983D01*
X761Y1891D02*
X784Y1891D01*
X826Y1891D02*
X829Y1891D01*
X861Y1891D02*
X895Y1891D01*
X761Y1890D02*
X787Y1890D01*
X825Y1890D02*
X830Y1890D01*
X861Y1890D02*
X895Y1890D01*
X761Y1889D02*
X788Y1889D01*
X825Y1889D02*
X831Y1889D01*
X861Y1889D02*
X895Y1889D01*
X761Y1888D02*
X790Y1888D01*
X825Y1888D02*
X831Y1888D01*
X861Y1888D02*
X895Y1888D01*
X761Y1887D02*
X791Y1887D01*
X824Y1887D02*
X831Y1887D01*
X861Y1887D02*
X895Y1887D01*
X761Y1886D02*
X792Y1886D01*
X824Y1886D02*
X831Y1886D01*
X861Y1886D02*
X895Y1886D01*
X761Y1885D02*
X792Y1885D01*
X824Y1885D02*
X832Y1885D01*
X861Y1885D02*
X895Y1885D01*
X761Y1884D02*
X767Y1884D01*
X784Y1884D02*
X793Y1884D01*
X823Y1884D02*
X832Y1884D01*
X861Y1884D02*
X867Y1884D01*
X875Y1884D02*
X881Y1884D01*
X888Y1884D02*
X895Y1884D01*
X761Y1883D02*
X767Y1883D01*
X786Y1883D02*
X793Y1883D01*
X823Y1883D02*
X832Y1883D01*
X861Y1883D02*
X867Y1883D01*
X875Y1883D02*
X881Y1883D01*
X889Y1883D02*
X895Y1883D01*
X761Y1882D02*
X767Y1882D01*
X787Y1882D02*
X794Y1882D01*
X823Y1882D02*
X833Y1882D01*
X861Y1882D02*
X867Y1882D01*
X875Y1882D02*
X881Y1882D01*
X889Y1882D02*
X895Y1882D01*
X761Y1881D02*
X767Y1881D01*
X788Y1881D02*
X794Y1881D01*
X823Y1881D02*
X833Y1881D01*
X861Y1881D02*
X867Y1881D01*
X875Y1881D02*
X881Y1881D01*
X889Y1881D02*
X894Y1881D01*
X761Y1880D02*
X767Y1880D01*
X788Y1880D02*
X794Y1880D01*
X822Y1880D02*
X833Y1880D01*
X862Y1880D02*
X866Y1880D01*
X875Y1880D02*
X881Y1880D01*
X889Y1880D02*
X894Y1880D01*
X761Y1879D02*
X767Y1879D01*
X788Y1879D02*
X794Y1879D01*
X822Y1879D02*
X833Y1879D01*
X863Y1879D02*
X865Y1879D01*
X875Y1879D02*
X881Y1879D01*
X890Y1879D02*
X893Y1879D01*
X761Y1878D02*
X767Y1878D01*
X789Y1878D02*
X795Y1878D01*
X822Y1878D02*
X834Y1878D01*
X875Y1878D02*
X881Y1878D01*
X761Y1877D02*
X767Y1877D01*
X789Y1877D02*
X795Y1877D01*
X821Y1877D02*
X834Y1877D01*
X875Y1877D02*
X881Y1877D01*
X761Y1876D02*
X767Y1876D01*
X789Y1876D02*
X795Y1876D01*
X821Y1876D02*
X834Y1876D01*
X875Y1876D02*
X881Y1876D01*
X761Y1875D02*
X767Y1875D01*
X789Y1875D02*
X795Y1875D01*
X821Y1875D02*
X835Y1875D01*
X875Y1875D02*
X881Y1875D01*
X761Y1874D02*
X767Y1874D01*
X788Y1874D02*
X795Y1874D01*
X820Y1874D02*
X827Y1874D01*
X829Y1874D02*
X835Y1874D01*
X875Y1874D02*
X881Y1874D01*
X761Y1873D02*
X767Y1873D01*
X788Y1873D02*
X794Y1873D01*
X820Y1873D02*
X827Y1873D01*
X829Y1873D02*
X835Y1873D01*
X875Y1873D02*
X881Y1873D01*
X761Y1872D02*
X767Y1872D01*
X788Y1872D02*
X794Y1872D01*
X820Y1872D02*
X826Y1872D01*
X829Y1872D02*
X836Y1872D01*
X875Y1872D02*
X881Y1872D01*
X761Y1871D02*
X767Y1871D01*
X787Y1871D02*
X794Y1871D01*
X820Y1871D02*
X826Y1871D01*
X829Y1871D02*
X836Y1871D01*
X875Y1871D02*
X881Y1871D01*
X761Y1870D02*
X767Y1870D01*
X786Y1870D02*
X794Y1870D01*
X819Y1870D02*
X826Y1870D01*
X830Y1870D02*
X836Y1870D01*
X875Y1870D02*
X881Y1870D01*
X761Y1869D02*
X767Y1869D01*
X785Y1869D02*
X793Y1869D01*
X819Y1869D02*
X825Y1869D01*
X830Y1869D02*
X836Y1869D01*
X875Y1869D02*
X881Y1869D01*
X761Y1868D02*
X767Y1868D01*
X783Y1868D02*
X793Y1868D01*
X819Y1868D02*
X825Y1868D01*
X830Y1868D02*
X837Y1868D01*
X875Y1868D02*
X881Y1868D01*
X761Y1867D02*
X792Y1867D01*
X818Y1867D02*
X825Y1867D01*
X831Y1867D02*
X837Y1867D01*
X875Y1867D02*
X881Y1867D01*
X761Y1866D02*
X791Y1866D01*
X818Y1866D02*
X824Y1866D01*
X831Y1866D02*
X837Y1866D01*
X875Y1866D02*
X881Y1866D01*
X761Y1865D02*
X790Y1865D01*
X818Y1865D02*
X824Y1865D01*
X831Y1865D02*
X838Y1865D01*
X875Y1865D02*
X881Y1865D01*
X761Y1864D02*
X790Y1864D01*
X818Y1864D02*
X824Y1864D01*
X832Y1864D02*
X838Y1864D01*
X875Y1864D02*
X881Y1864D01*
X761Y1863D02*
X791Y1863D01*
X817Y1863D02*
X824Y1863D01*
X832Y1863D02*
X838Y1863D01*
X875Y1863D02*
X881Y1863D01*
X761Y1862D02*
X792Y1862D01*
X817Y1862D02*
X823Y1862D01*
X832Y1862D02*
X838Y1862D01*
X875Y1862D02*
X881Y1862D01*
X761Y1861D02*
X793Y1861D01*
X817Y1861D02*
X823Y1861D01*
X832Y1861D02*
X839Y1861D01*
X875Y1861D02*
X881Y1861D01*
X761Y1860D02*
X767Y1860D01*
X785Y1860D02*
X793Y1860D01*
X816Y1860D02*
X823Y1860D01*
X833Y1860D02*
X839Y1860D01*
X875Y1860D02*
X881Y1860D01*
X761Y1859D02*
X767Y1859D01*
X786Y1859D02*
X794Y1859D01*
X816Y1859D02*
X822Y1859D01*
X833Y1859D02*
X839Y1859D01*
X875Y1859D02*
X881Y1859D01*
X761Y1858D02*
X767Y1858D01*
X787Y1858D02*
X794Y1858D01*
X816Y1858D02*
X822Y1858D01*
X833Y1858D02*
X840Y1858D01*
X875Y1858D02*
X881Y1858D01*
X761Y1857D02*
X767Y1857D01*
X788Y1857D02*
X794Y1857D01*
X815Y1857D02*
X822Y1857D01*
X834Y1857D02*
X840Y1857D01*
X875Y1857D02*
X881Y1857D01*
X761Y1856D02*
X767Y1856D01*
X788Y1856D02*
X794Y1856D01*
X815Y1856D02*
X840Y1856D01*
X875Y1856D02*
X881Y1856D01*
X761Y1855D02*
X767Y1855D01*
X788Y1855D02*
X795Y1855D01*
X815Y1855D02*
X840Y1855D01*
X875Y1855D02*
X881Y1855D01*
X761Y1854D02*
X767Y1854D01*
X789Y1854D02*
X795Y1854D01*
X815Y1854D02*
X841Y1854D01*
X875Y1854D02*
X881Y1854D01*
X761Y1853D02*
X767Y1853D01*
X789Y1853D02*
X795Y1853D01*
X814Y1853D02*
X841Y1853D01*
X875Y1853D02*
X881Y1853D01*
X761Y1852D02*
X767Y1852D01*
X789Y1852D02*
X795Y1852D01*
X814Y1852D02*
X841Y1852D01*
X875Y1852D02*
X881Y1852D01*
X761Y1851D02*
X767Y1851D01*
X789Y1851D02*
X795Y1851D01*
X814Y1851D02*
X842Y1851D01*
X875Y1851D02*
X881Y1851D01*
X761Y1850D02*
X767Y1850D01*
X788Y1850D02*
X795Y1850D01*
X813Y1850D02*
X842Y1850D01*
X875Y1850D02*
X881Y1850D01*
X761Y1849D02*
X767Y1849D01*
X788Y1849D02*
X794Y1849D01*
X813Y1849D02*
X820Y1849D01*
X836Y1849D02*
X842Y1849D01*
X875Y1849D02*
X881Y1849D01*
X761Y1848D02*
X767Y1848D01*
X788Y1848D02*
X794Y1848D01*
X813Y1848D02*
X819Y1848D01*
X836Y1848D02*
X843Y1848D01*
X875Y1848D02*
X881Y1848D01*
X761Y1847D02*
X767Y1847D01*
X787Y1847D02*
X794Y1847D01*
X813Y1847D02*
X819Y1847D01*
X837Y1847D02*
X843Y1847D01*
X875Y1847D02*
X881Y1847D01*
X761Y1846D02*
X767Y1846D01*
X786Y1846D02*
X794Y1846D01*
X812Y1846D02*
X819Y1846D01*
X837Y1846D02*
X843Y1846D01*
X875Y1846D02*
X881Y1846D01*
X761Y1845D02*
X767Y1845D01*
X785Y1845D02*
X793Y1845D01*
X812Y1845D02*
X818Y1845D01*
X837Y1845D02*
X843Y1845D01*
X875Y1845D02*
X881Y1845D01*
X761Y1844D02*
X792Y1844D01*
X812Y1844D02*
X818Y1844D01*
X837Y1844D02*
X844Y1844D01*
X875Y1844D02*
X881Y1844D01*
X761Y1843D02*
X792Y1843D01*
X811Y1843D02*
X818Y1843D01*
X838Y1843D02*
X844Y1843D01*
X875Y1843D02*
X881Y1843D01*
X761Y1842D02*
X791Y1842D01*
X811Y1842D02*
X817Y1842D01*
X838Y1842D02*
X844Y1842D01*
X875Y1842D02*
X881Y1842D01*
X761Y1841D02*
X790Y1841D01*
X811Y1841D02*
X817Y1841D01*
X838Y1841D02*
X845Y1841D01*
X875Y1841D02*
X881Y1841D01*
X761Y1840D02*
X789Y1840D01*
X811Y1840D02*
X817Y1840D01*
X839Y1840D02*
X845Y1840D01*
X875Y1840D02*
X881Y1840D01*
X761Y1839D02*
X787Y1839D01*
X811Y1839D02*
X816Y1839D01*
X839Y1839D02*
X844Y1839D01*
X875Y1839D02*
X880Y1839D01*
X761Y1838D02*
X785Y1838D01*
X812Y1838D02*
X815Y1838D01*
X840Y1838D02*
X843Y1838D01*
X876Y1838D02*
X879Y1838D01*
X1781Y1639D02*
X1781Y1639D01*
X1780Y1638D02*
X1782Y1638D01*
X1779Y1637D02*
X1783Y1637D01*
X1778Y1636D02*
X1783Y1636D01*
X1777Y1635D02*
X1783Y1635D01*
X1777Y1634D02*
X1782Y1634D01*
X1777Y1633D02*
X1781Y1633D01*
X1777Y1632D02*
X1780Y1632D01*
X1777Y1631D02*
X1779Y1631D01*
X1777Y1630D02*
X1778Y1630D01*
X1777Y1629D02*
X1777Y1629D01*
X1750Y1608D02*
X1756Y1608D01*
X1749Y1607D02*
X1755Y1607D01*
X1748Y1606D02*
X1754Y1606D01*
X1747Y1605D02*
X1753Y1605D01*
X1747Y1604D02*
X1752Y1604D01*
X1748Y1603D02*
X1751Y1603D01*
X1749Y1602D02*
X1750Y1602D01*
X798Y1591D02*
X815Y1591D01*
X835Y1591D02*
X837Y1591D01*
X892Y1591D02*
X908Y1591D01*
X796Y1590D02*
X816Y1590D01*
X834Y1590D02*
X839Y1590D01*
X891Y1590D02*
X909Y1590D01*
X794Y1589D02*
X817Y1589D01*
X833Y1589D02*
X839Y1589D01*
X890Y1589D02*
X910Y1589D01*
X793Y1588D02*
X817Y1588D01*
X833Y1588D02*
X839Y1588D01*
X890Y1588D02*
X910Y1588D01*
X793Y1587D02*
X817Y1587D01*
X833Y1587D02*
X839Y1587D01*
X890Y1587D02*
X910Y1587D01*
X792Y1586D02*
X816Y1586D01*
X833Y1586D02*
X839Y1586D01*
X890Y1586D02*
X910Y1586D01*
X792Y1585D02*
X815Y1585D01*
X833Y1585D02*
X839Y1585D01*
X890Y1585D02*
X910Y1585D01*
X791Y1584D02*
X799Y1584D01*
X833Y1584D02*
X839Y1584D01*
X890Y1584D02*
X896Y1584D01*
X904Y1584D02*
X910Y1584D01*
X791Y1583D02*
X798Y1583D01*
X833Y1583D02*
X839Y1583D01*
X890Y1583D02*
X896Y1583D01*
X904Y1583D02*
X910Y1583D01*
X790Y1582D02*
X797Y1582D01*
X833Y1582D02*
X839Y1582D01*
X890Y1582D02*
X896Y1582D01*
X904Y1582D02*
X910Y1582D01*
X790Y1581D02*
X796Y1581D01*
X833Y1581D02*
X839Y1581D01*
X890Y1581D02*
X896Y1581D01*
X904Y1581D02*
X910Y1581D01*
X789Y1580D02*
X796Y1580D01*
X833Y1580D02*
X839Y1580D01*
X890Y1580D02*
X896Y1580D01*
X904Y1580D02*
X910Y1580D01*
X789Y1579D02*
X795Y1579D01*
X833Y1579D02*
X839Y1579D01*
X890Y1579D02*
X896Y1579D01*
X904Y1579D02*
X910Y1579D01*
X788Y1578D02*
X795Y1578D01*
X833Y1578D02*
X839Y1578D01*
X890Y1578D02*
X896Y1578D01*
X904Y1578D02*
X910Y1578D01*
X788Y1577D02*
X794Y1577D01*
X833Y1577D02*
X839Y1577D01*
X890Y1577D02*
X896Y1577D01*
X904Y1577D02*
X910Y1577D01*
X787Y1576D02*
X794Y1576D01*
X833Y1576D02*
X839Y1576D01*
X849Y1576D02*
X860Y1576D01*
X890Y1576D02*
X896Y1576D01*
X904Y1576D02*
X910Y1576D01*
X787Y1575D02*
X793Y1575D01*
X833Y1575D02*
X839Y1575D01*
X847Y1575D02*
X862Y1575D01*
X890Y1575D02*
X896Y1575D01*
X904Y1575D02*
X910Y1575D01*
X786Y1574D02*
X793Y1574D01*
X833Y1574D02*
X839Y1574D01*
X845Y1574D02*
X863Y1574D01*
X890Y1574D02*
X896Y1574D01*
X904Y1574D02*
X910Y1574D01*
X786Y1573D02*
X792Y1573D01*
X833Y1573D02*
X839Y1573D01*
X844Y1573D02*
X864Y1573D01*
X890Y1573D02*
X896Y1573D01*
X904Y1573D02*
X910Y1573D01*
X785Y1572D02*
X792Y1572D01*
X833Y1572D02*
X839Y1572D01*
X842Y1572D02*
X865Y1572D01*
X890Y1572D02*
X896Y1572D01*
X904Y1572D02*
X910Y1572D01*
X785Y1571D02*
X791Y1571D01*
X833Y1571D02*
X865Y1571D01*
X890Y1571D02*
X896Y1571D01*
X904Y1571D02*
X910Y1571D01*
X784Y1570D02*
X791Y1570D01*
X833Y1570D02*
X866Y1570D01*
X890Y1570D02*
X896Y1570D01*
X904Y1570D02*
X910Y1570D01*
X784Y1569D02*
X790Y1569D01*
X833Y1569D02*
X849Y1569D01*
X859Y1569D02*
X866Y1569D01*
X890Y1569D02*
X896Y1569D01*
X904Y1569D02*
X910Y1569D01*
X784Y1568D02*
X790Y1568D01*
X833Y1568D02*
X848Y1568D01*
X860Y1568D02*
X866Y1568D01*
X890Y1568D02*
X896Y1568D01*
X903Y1568D02*
X910Y1568D01*
X783Y1567D02*
X790Y1567D01*
X833Y1567D02*
X846Y1567D01*
X860Y1567D02*
X866Y1567D01*
X887Y1567D02*
X913Y1567D01*
X783Y1566D02*
X789Y1566D01*
X833Y1566D02*
X845Y1566D01*
X860Y1566D02*
X866Y1566D01*
X885Y1566D02*
X914Y1566D01*
X783Y1565D02*
X789Y1565D01*
X833Y1565D02*
X843Y1565D01*
X860Y1565D02*
X866Y1565D01*
X885Y1565D02*
X915Y1565D01*
X783Y1564D02*
X789Y1564D01*
X833Y1564D02*
X842Y1564D01*
X860Y1564D02*
X866Y1564D01*
X884Y1564D02*
X916Y1564D01*
X783Y1563D02*
X789Y1563D01*
X833Y1563D02*
X840Y1563D01*
X860Y1563D02*
X866Y1563D01*
X883Y1563D02*
X916Y1563D01*
X783Y1562D02*
X790Y1562D01*
X833Y1562D02*
X839Y1562D01*
X860Y1562D02*
X866Y1562D01*
X883Y1562D02*
X917Y1562D01*
X784Y1561D02*
X790Y1561D01*
X833Y1561D02*
X839Y1561D01*
X860Y1561D02*
X866Y1561D01*
X883Y1561D02*
X917Y1561D01*
X784Y1560D02*
X790Y1560D01*
X833Y1560D02*
X839Y1560D01*
X860Y1560D02*
X866Y1560D01*
X883Y1560D02*
X889Y1560D01*
X911Y1560D02*
X917Y1560D01*
X784Y1559D02*
X791Y1559D01*
X833Y1559D02*
X839Y1559D01*
X860Y1559D02*
X866Y1559D01*
X883Y1559D02*
X889Y1559D01*
X911Y1559D02*
X917Y1559D01*
X785Y1558D02*
X791Y1558D01*
X833Y1558D02*
X839Y1558D01*
X860Y1558D02*
X866Y1558D01*
X883Y1558D02*
X889Y1558D01*
X911Y1558D02*
X917Y1558D01*
X785Y1557D02*
X792Y1557D01*
X833Y1557D02*
X839Y1557D01*
X860Y1557D02*
X866Y1557D01*
X883Y1557D02*
X889Y1557D01*
X911Y1557D02*
X917Y1557D01*
X785Y1556D02*
X792Y1556D01*
X833Y1556D02*
X839Y1556D01*
X860Y1556D02*
X866Y1556D01*
X883Y1556D02*
X889Y1556D01*
X911Y1556D02*
X917Y1556D01*
X786Y1555D02*
X793Y1555D01*
X833Y1555D02*
X839Y1555D01*
X860Y1555D02*
X866Y1555D01*
X883Y1555D02*
X889Y1555D01*
X911Y1555D02*
X917Y1555D01*
X786Y1554D02*
X793Y1554D01*
X833Y1554D02*
X839Y1554D01*
X860Y1554D02*
X866Y1554D01*
X883Y1554D02*
X889Y1554D01*
X911Y1554D02*
X917Y1554D01*
X787Y1553D02*
X794Y1553D01*
X833Y1553D02*
X839Y1553D01*
X860Y1553D02*
X866Y1553D01*
X883Y1553D02*
X889Y1553D01*
X911Y1553D02*
X917Y1553D01*
X787Y1552D02*
X794Y1552D01*
X833Y1552D02*
X839Y1552D01*
X860Y1552D02*
X866Y1552D01*
X883Y1552D02*
X889Y1552D01*
X911Y1552D02*
X917Y1552D01*
X788Y1551D02*
X795Y1551D01*
X833Y1551D02*
X839Y1551D01*
X860Y1551D02*
X866Y1551D01*
X883Y1551D02*
X889Y1551D01*
X911Y1551D02*
X917Y1551D01*
X788Y1550D02*
X795Y1550D01*
X833Y1550D02*
X839Y1550D01*
X860Y1550D02*
X866Y1550D01*
X883Y1550D02*
X889Y1550D01*
X911Y1550D02*
X917Y1550D01*
X789Y1549D02*
X796Y1549D01*
X833Y1549D02*
X839Y1549D01*
X860Y1549D02*
X866Y1549D01*
X883Y1549D02*
X889Y1549D01*
X911Y1549D02*
X917Y1549D01*
X789Y1548D02*
X796Y1548D01*
X833Y1548D02*
X839Y1548D01*
X860Y1548D02*
X866Y1548D01*
X883Y1548D02*
X889Y1548D01*
X911Y1548D02*
X917Y1548D01*
X790Y1547D02*
X797Y1547D01*
X833Y1547D02*
X839Y1547D01*
X860Y1547D02*
X866Y1547D01*
X883Y1547D02*
X889Y1547D01*
X911Y1547D02*
X917Y1547D01*
X790Y1546D02*
X797Y1546D01*
X833Y1546D02*
X839Y1546D01*
X860Y1546D02*
X866Y1546D01*
X883Y1546D02*
X889Y1546D01*
X911Y1546D02*
X917Y1546D01*
X791Y1545D02*
X798Y1545D01*
X833Y1545D02*
X839Y1545D01*
X860Y1545D02*
X866Y1545D01*
X883Y1545D02*
X889Y1545D01*
X911Y1545D02*
X917Y1545D01*
X791Y1544D02*
X815Y1544D01*
X833Y1544D02*
X839Y1544D01*
X860Y1544D02*
X866Y1544D01*
X883Y1544D02*
X917Y1544D01*
X792Y1543D02*
X816Y1543D01*
X833Y1543D02*
X839Y1543D01*
X860Y1543D02*
X866Y1543D01*
X883Y1543D02*
X917Y1543D01*
X793Y1542D02*
X817Y1542D01*
X833Y1542D02*
X839Y1542D01*
X860Y1542D02*
X866Y1542D01*
X884Y1542D02*
X916Y1542D01*
X793Y1541D02*
X817Y1541D01*
X833Y1541D02*
X839Y1541D01*
X860Y1541D02*
X866Y1541D01*
X884Y1541D02*
X916Y1541D01*
X794Y1540D02*
X817Y1540D01*
X833Y1540D02*
X839Y1540D01*
X860Y1540D02*
X866Y1540D01*
X885Y1540D02*
X915Y1540D01*
X796Y1539D02*
X816Y1539D01*
X834Y1539D02*
X839Y1539D01*
X861Y1539D02*
X866Y1539D01*
X886Y1539D02*
X914Y1539D01*
X798Y1538D02*
X815Y1538D01*
X835Y1538D02*
X838Y1538D01*
X862Y1538D02*
X865Y1538D01*
X887Y1538D02*
X913Y1538D01*
X1595Y1528D02*
X1611Y1528D01*
X1627Y1528D02*
X1631Y1528D01*
X1651Y1528D02*
X1654Y1528D01*
X1737Y1528D02*
X1740Y1528D01*
X1756Y1528D02*
X1779Y1528D01*
X1800Y1528D02*
X1803Y1528D01*
X1823Y1528D02*
X1827Y1528D01*
X1842Y1528D02*
X1849Y1528D01*
X1863Y1528D02*
X1871Y1528D01*
X1593Y1527D02*
X1612Y1527D01*
X1627Y1527D02*
X1631Y1527D01*
X1650Y1527D02*
X1655Y1527D01*
X1736Y1527D02*
X1741Y1527D01*
X1756Y1527D02*
X1781Y1527D01*
X1799Y1527D02*
X1803Y1527D01*
X1823Y1527D02*
X1827Y1527D01*
X1842Y1527D02*
X1850Y1527D01*
X1863Y1527D02*
X1871Y1527D01*
X1592Y1526D02*
X1612Y1526D01*
X1626Y1526D02*
X1631Y1526D01*
X1650Y1526D02*
X1655Y1526D01*
X1736Y1526D02*
X1741Y1526D01*
X1756Y1526D02*
X1782Y1526D01*
X1799Y1526D02*
X1804Y1526D01*
X1822Y1526D02*
X1827Y1526D01*
X1842Y1526D02*
X1850Y1526D01*
X1862Y1526D02*
X1871Y1526D01*
X1591Y1525D02*
X1612Y1525D01*
X1626Y1525D02*
X1631Y1525D01*
X1650Y1525D02*
X1655Y1525D01*
X1735Y1525D02*
X1741Y1525D01*
X1756Y1525D02*
X1783Y1525D01*
X1799Y1525D02*
X1804Y1525D01*
X1822Y1525D02*
X1827Y1525D01*
X1842Y1525D02*
X1851Y1525D01*
X1861Y1525D02*
X1871Y1525D01*
X1591Y1524D02*
X1611Y1524D01*
X1626Y1524D02*
X1631Y1524D01*
X1650Y1524D02*
X1655Y1524D01*
X1735Y1524D02*
X1741Y1524D01*
X1756Y1524D02*
X1783Y1524D01*
X1799Y1524D02*
X1804Y1524D01*
X1822Y1524D02*
X1827Y1524D01*
X1842Y1524D02*
X1852Y1524D01*
X1861Y1524D02*
X1871Y1524D01*
X1590Y1523D02*
X1610Y1523D01*
X1626Y1523D02*
X1631Y1523D01*
X1650Y1523D02*
X1655Y1523D01*
X1734Y1523D02*
X1740Y1523D01*
X1756Y1523D02*
X1784Y1523D01*
X1799Y1523D02*
X1804Y1523D01*
X1822Y1523D02*
X1827Y1523D01*
X1842Y1523D02*
X1852Y1523D01*
X1860Y1523D02*
X1871Y1523D01*
X1590Y1522D02*
X1596Y1522D01*
X1626Y1522D02*
X1631Y1522D01*
X1650Y1522D02*
X1655Y1522D01*
X1734Y1522D02*
X1740Y1522D01*
X1756Y1522D02*
X1761Y1522D01*
X1778Y1522D02*
X1784Y1522D01*
X1799Y1522D02*
X1804Y1522D01*
X1822Y1522D02*
X1827Y1522D01*
X1842Y1522D02*
X1853Y1522D01*
X1859Y1522D02*
X1871Y1522D01*
X1589Y1521D02*
X1595Y1521D01*
X1626Y1521D02*
X1631Y1521D01*
X1650Y1521D02*
X1655Y1521D01*
X1733Y1521D02*
X1739Y1521D01*
X1756Y1521D02*
X1761Y1521D01*
X1779Y1521D02*
X1784Y1521D01*
X1799Y1521D02*
X1804Y1521D01*
X1822Y1521D02*
X1827Y1521D01*
X1842Y1521D02*
X1854Y1521D01*
X1858Y1521D02*
X1871Y1521D01*
X1589Y1520D02*
X1595Y1520D01*
X1626Y1520D02*
X1631Y1520D01*
X1650Y1520D02*
X1655Y1520D01*
X1732Y1520D02*
X1738Y1520D01*
X1756Y1520D02*
X1761Y1520D01*
X1779Y1520D02*
X1784Y1520D01*
X1799Y1520D02*
X1804Y1520D01*
X1822Y1520D02*
X1827Y1520D01*
X1842Y1520D02*
X1855Y1520D01*
X1858Y1520D02*
X1871Y1520D01*
X1588Y1519D02*
X1594Y1519D01*
X1626Y1519D02*
X1631Y1519D01*
X1650Y1519D02*
X1655Y1519D01*
X1732Y1519D02*
X1738Y1519D01*
X1756Y1519D02*
X1761Y1519D01*
X1779Y1519D02*
X1784Y1519D01*
X1799Y1519D02*
X1804Y1519D01*
X1822Y1519D02*
X1827Y1519D01*
X1842Y1519D02*
X1847Y1519D01*
X1849Y1519D02*
X1855Y1519D01*
X1857Y1519D02*
X1863Y1519D01*
X1865Y1519D02*
X1871Y1519D01*
X1588Y1518D02*
X1594Y1518D01*
X1626Y1518D02*
X1631Y1518D01*
X1650Y1518D02*
X1655Y1518D01*
X1731Y1518D02*
X1737Y1518D01*
X1756Y1518D02*
X1761Y1518D01*
X1779Y1518D02*
X1784Y1518D01*
X1799Y1518D02*
X1804Y1518D01*
X1822Y1518D02*
X1827Y1518D01*
X1842Y1518D02*
X1847Y1518D01*
X1850Y1518D02*
X1863Y1518D01*
X1865Y1518D02*
X1871Y1518D01*
X1587Y1517D02*
X1593Y1517D01*
X1626Y1517D02*
X1631Y1517D01*
X1650Y1517D02*
X1655Y1517D01*
X1731Y1517D02*
X1737Y1517D01*
X1756Y1517D02*
X1761Y1517D01*
X1779Y1517D02*
X1784Y1517D01*
X1799Y1517D02*
X1804Y1517D01*
X1822Y1517D02*
X1827Y1517D01*
X1842Y1517D02*
X1847Y1517D01*
X1850Y1517D02*
X1862Y1517D01*
X1865Y1517D02*
X1871Y1517D01*
X1587Y1516D02*
X1593Y1516D01*
X1626Y1516D02*
X1631Y1516D01*
X1650Y1516D02*
X1655Y1516D01*
X1676Y1516D02*
X1692Y1516D01*
X1730Y1516D02*
X1736Y1516D01*
X1756Y1516D02*
X1761Y1516D01*
X1779Y1516D02*
X1784Y1516D01*
X1799Y1516D02*
X1804Y1516D01*
X1822Y1516D02*
X1827Y1516D01*
X1842Y1516D02*
X1847Y1516D01*
X1851Y1516D02*
X1861Y1516D01*
X1865Y1516D02*
X1871Y1516D01*
X1586Y1515D02*
X1592Y1515D01*
X1626Y1515D02*
X1631Y1515D01*
X1650Y1515D02*
X1655Y1515D01*
X1674Y1515D02*
X1694Y1515D01*
X1729Y1515D02*
X1735Y1515D01*
X1756Y1515D02*
X1761Y1515D01*
X1779Y1515D02*
X1784Y1515D01*
X1799Y1515D02*
X1804Y1515D01*
X1822Y1515D02*
X1827Y1515D01*
X1842Y1515D02*
X1847Y1515D01*
X1852Y1515D02*
X1861Y1515D01*
X1865Y1515D02*
X1871Y1515D01*
X1586Y1514D02*
X1592Y1514D01*
X1626Y1514D02*
X1631Y1514D01*
X1650Y1514D02*
X1655Y1514D01*
X1673Y1514D02*
X1696Y1514D01*
X1729Y1514D02*
X1735Y1514D01*
X1756Y1514D02*
X1761Y1514D01*
X1779Y1514D02*
X1784Y1514D01*
X1799Y1514D02*
X1804Y1514D01*
X1822Y1514D02*
X1827Y1514D01*
X1842Y1514D02*
X1847Y1514D01*
X1852Y1514D02*
X1860Y1514D01*
X1865Y1514D02*
X1871Y1514D01*
X1585Y1513D02*
X1591Y1513D01*
X1626Y1513D02*
X1631Y1513D01*
X1650Y1513D02*
X1655Y1513D01*
X1672Y1513D02*
X1697Y1513D01*
X1728Y1513D02*
X1734Y1513D01*
X1756Y1513D02*
X1761Y1513D01*
X1779Y1513D02*
X1784Y1513D01*
X1799Y1513D02*
X1804Y1513D01*
X1812Y1513D02*
X1814Y1513D01*
X1822Y1513D02*
X1827Y1513D01*
X1842Y1513D02*
X1847Y1513D01*
X1853Y1513D02*
X1859Y1513D01*
X1865Y1513D02*
X1871Y1513D01*
X1585Y1512D02*
X1591Y1512D01*
X1626Y1512D02*
X1631Y1512D01*
X1650Y1512D02*
X1655Y1512D01*
X1671Y1512D02*
X1697Y1512D01*
X1728Y1512D02*
X1734Y1512D01*
X1756Y1512D02*
X1761Y1512D01*
X1779Y1512D02*
X1784Y1512D01*
X1799Y1512D02*
X1804Y1512D01*
X1811Y1512D02*
X1815Y1512D01*
X1822Y1512D02*
X1827Y1512D01*
X1842Y1512D02*
X1847Y1512D01*
X1854Y1512D02*
X1859Y1512D01*
X1865Y1512D02*
X1871Y1512D01*
X1584Y1511D02*
X1590Y1511D01*
X1626Y1511D02*
X1631Y1511D01*
X1650Y1511D02*
X1655Y1511D01*
X1671Y1511D02*
X1698Y1511D01*
X1727Y1511D02*
X1733Y1511D01*
X1756Y1511D02*
X1761Y1511D01*
X1779Y1511D02*
X1784Y1511D01*
X1799Y1511D02*
X1804Y1511D01*
X1811Y1511D02*
X1816Y1511D01*
X1822Y1511D02*
X1827Y1511D01*
X1842Y1511D02*
X1847Y1511D01*
X1854Y1511D02*
X1859Y1511D01*
X1865Y1511D02*
X1871Y1511D01*
X1584Y1510D02*
X1590Y1510D01*
X1626Y1510D02*
X1631Y1510D01*
X1650Y1510D02*
X1655Y1510D01*
X1670Y1510D02*
X1676Y1510D01*
X1691Y1510D02*
X1698Y1510D01*
X1727Y1510D02*
X1733Y1510D01*
X1756Y1510D02*
X1761Y1510D01*
X1779Y1510D02*
X1784Y1510D01*
X1799Y1510D02*
X1804Y1510D01*
X1811Y1510D02*
X1816Y1510D01*
X1822Y1510D02*
X1827Y1510D01*
X1842Y1510D02*
X1847Y1510D01*
X1854Y1510D02*
X1859Y1510D01*
X1865Y1510D02*
X1871Y1510D01*
X1584Y1509D02*
X1589Y1509D01*
X1626Y1509D02*
X1632Y1509D01*
X1650Y1509D02*
X1655Y1509D01*
X1670Y1509D02*
X1675Y1509D01*
X1693Y1509D02*
X1697Y1509D01*
X1726Y1509D02*
X1732Y1509D01*
X1756Y1509D02*
X1761Y1509D01*
X1779Y1509D02*
X1784Y1509D01*
X1799Y1509D02*
X1804Y1509D01*
X1811Y1509D02*
X1816Y1509D01*
X1822Y1509D02*
X1827Y1509D01*
X1842Y1509D02*
X1847Y1509D01*
X1854Y1509D02*
X1858Y1509D01*
X1865Y1509D02*
X1871Y1509D01*
X1584Y1508D02*
X1589Y1508D01*
X1626Y1508D02*
X1655Y1508D01*
X1670Y1508D02*
X1675Y1508D01*
X1694Y1508D02*
X1696Y1508D01*
X1725Y1508D02*
X1731Y1508D01*
X1756Y1508D02*
X1761Y1508D01*
X1779Y1508D02*
X1784Y1508D01*
X1799Y1508D02*
X1804Y1508D01*
X1811Y1508D02*
X1816Y1508D01*
X1822Y1508D02*
X1827Y1508D01*
X1842Y1508D02*
X1847Y1508D01*
X1855Y1508D02*
X1857Y1508D01*
X1865Y1508D02*
X1871Y1508D01*
X1583Y1507D02*
X1589Y1507D01*
X1626Y1507D02*
X1655Y1507D01*
X1670Y1507D02*
X1676Y1507D01*
X1725Y1507D02*
X1731Y1507D01*
X1756Y1507D02*
X1761Y1507D01*
X1778Y1507D02*
X1784Y1507D01*
X1799Y1507D02*
X1804Y1507D01*
X1811Y1507D02*
X1816Y1507D01*
X1822Y1507D02*
X1827Y1507D01*
X1842Y1507D02*
X1847Y1507D01*
X1865Y1507D02*
X1871Y1507D01*
X1583Y1506D02*
X1588Y1506D01*
X1626Y1506D02*
X1655Y1506D01*
X1671Y1506D02*
X1678Y1506D01*
X1724Y1506D02*
X1730Y1506D01*
X1756Y1506D02*
X1784Y1506D01*
X1799Y1506D02*
X1804Y1506D01*
X1811Y1506D02*
X1816Y1506D01*
X1822Y1506D02*
X1827Y1506D01*
X1842Y1506D02*
X1847Y1506D01*
X1865Y1506D02*
X1871Y1506D01*
X1583Y1505D02*
X1588Y1505D01*
X1626Y1505D02*
X1655Y1505D01*
X1671Y1505D02*
X1681Y1505D01*
X1724Y1505D02*
X1730Y1505D01*
X1756Y1505D02*
X1783Y1505D01*
X1799Y1505D02*
X1804Y1505D01*
X1811Y1505D02*
X1816Y1505D01*
X1822Y1505D02*
X1827Y1505D01*
X1842Y1505D02*
X1847Y1505D01*
X1865Y1505D02*
X1871Y1505D01*
X1583Y1504D02*
X1589Y1504D01*
X1626Y1504D02*
X1655Y1504D01*
X1672Y1504D02*
X1683Y1504D01*
X1723Y1504D02*
X1729Y1504D01*
X1756Y1504D02*
X1783Y1504D01*
X1799Y1504D02*
X1804Y1504D01*
X1811Y1504D02*
X1816Y1504D01*
X1822Y1504D02*
X1827Y1504D01*
X1842Y1504D02*
X1847Y1504D01*
X1865Y1504D02*
X1871Y1504D01*
X1584Y1503D02*
X1589Y1503D01*
X1626Y1503D02*
X1655Y1503D01*
X1673Y1503D02*
X1685Y1503D01*
X1722Y1503D02*
X1728Y1503D01*
X1756Y1503D02*
X1782Y1503D01*
X1799Y1503D02*
X1804Y1503D01*
X1811Y1503D02*
X1816Y1503D01*
X1822Y1503D02*
X1827Y1503D01*
X1842Y1503D02*
X1847Y1503D01*
X1865Y1503D02*
X1871Y1503D01*
X1584Y1502D02*
X1589Y1502D01*
X1626Y1502D02*
X1631Y1502D01*
X1650Y1502D02*
X1655Y1502D01*
X1674Y1502D02*
X1688Y1502D01*
X1722Y1502D02*
X1728Y1502D01*
X1756Y1502D02*
X1781Y1502D01*
X1799Y1502D02*
X1804Y1502D01*
X1811Y1502D02*
X1816Y1502D01*
X1822Y1502D02*
X1827Y1502D01*
X1842Y1502D02*
X1847Y1502D01*
X1865Y1502D02*
X1871Y1502D01*
X1584Y1501D02*
X1590Y1501D01*
X1626Y1501D02*
X1631Y1501D01*
X1650Y1501D02*
X1655Y1501D01*
X1676Y1501D02*
X1690Y1501D01*
X1721Y1501D02*
X1727Y1501D01*
X1756Y1501D02*
X1779Y1501D01*
X1799Y1501D02*
X1804Y1501D01*
X1811Y1501D02*
X1816Y1501D01*
X1822Y1501D02*
X1827Y1501D01*
X1842Y1501D02*
X1847Y1501D01*
X1865Y1501D02*
X1871Y1501D01*
X1585Y1500D02*
X1590Y1500D01*
X1626Y1500D02*
X1631Y1500D01*
X1650Y1500D02*
X1655Y1500D01*
X1678Y1500D02*
X1692Y1500D01*
X1721Y1500D02*
X1727Y1500D01*
X1756Y1500D02*
X1776Y1500D01*
X1799Y1500D02*
X1804Y1500D01*
X1811Y1500D02*
X1816Y1500D01*
X1822Y1500D02*
X1827Y1500D01*
X1842Y1500D02*
X1847Y1500D01*
X1865Y1500D02*
X1871Y1500D01*
X1585Y1499D02*
X1591Y1499D01*
X1626Y1499D02*
X1631Y1499D01*
X1650Y1499D02*
X1655Y1499D01*
X1680Y1499D02*
X1694Y1499D01*
X1720Y1499D02*
X1726Y1499D01*
X1756Y1499D02*
X1761Y1499D01*
X1799Y1499D02*
X1804Y1499D01*
X1811Y1499D02*
X1816Y1499D01*
X1822Y1499D02*
X1827Y1499D01*
X1842Y1499D02*
X1847Y1499D01*
X1865Y1499D02*
X1871Y1499D01*
X1585Y1498D02*
X1591Y1498D01*
X1626Y1498D02*
X1631Y1498D01*
X1650Y1498D02*
X1655Y1498D01*
X1683Y1498D02*
X1695Y1498D01*
X1719Y1498D02*
X1726Y1498D01*
X1756Y1498D02*
X1761Y1498D01*
X1799Y1498D02*
X1804Y1498D01*
X1811Y1498D02*
X1816Y1498D01*
X1822Y1498D02*
X1827Y1498D01*
X1842Y1498D02*
X1847Y1498D01*
X1865Y1498D02*
X1871Y1498D01*
X1586Y1497D02*
X1592Y1497D01*
X1626Y1497D02*
X1631Y1497D01*
X1650Y1497D02*
X1655Y1497D01*
X1685Y1497D02*
X1696Y1497D01*
X1719Y1497D02*
X1725Y1497D01*
X1756Y1497D02*
X1761Y1497D01*
X1799Y1497D02*
X1804Y1497D01*
X1811Y1497D02*
X1816Y1497D01*
X1822Y1497D02*
X1827Y1497D01*
X1842Y1497D02*
X1847Y1497D01*
X1865Y1497D02*
X1871Y1497D01*
X1586Y1496D02*
X1592Y1496D01*
X1626Y1496D02*
X1631Y1496D01*
X1650Y1496D02*
X1655Y1496D01*
X1687Y1496D02*
X1697Y1496D01*
X1718Y1496D02*
X1724Y1496D01*
X1756Y1496D02*
X1761Y1496D01*
X1799Y1496D02*
X1804Y1496D01*
X1811Y1496D02*
X1816Y1496D01*
X1822Y1496D02*
X1827Y1496D01*
X1842Y1496D02*
X1847Y1496D01*
X1865Y1496D02*
X1871Y1496D01*
X1587Y1495D02*
X1593Y1495D01*
X1626Y1495D02*
X1631Y1495D01*
X1650Y1495D02*
X1655Y1495D01*
X1690Y1495D02*
X1697Y1495D01*
X1718Y1495D02*
X1724Y1495D01*
X1756Y1495D02*
X1761Y1495D01*
X1799Y1495D02*
X1804Y1495D01*
X1811Y1495D02*
X1816Y1495D01*
X1822Y1495D02*
X1827Y1495D01*
X1842Y1495D02*
X1847Y1495D01*
X1865Y1495D02*
X1871Y1495D01*
X1587Y1494D02*
X1593Y1494D01*
X1626Y1494D02*
X1631Y1494D01*
X1650Y1494D02*
X1655Y1494D01*
X1692Y1494D02*
X1698Y1494D01*
X1717Y1494D02*
X1723Y1494D01*
X1756Y1494D02*
X1761Y1494D01*
X1799Y1494D02*
X1804Y1494D01*
X1811Y1494D02*
X1816Y1494D01*
X1822Y1494D02*
X1827Y1494D01*
X1842Y1494D02*
X1847Y1494D01*
X1865Y1494D02*
X1871Y1494D01*
X1588Y1493D02*
X1594Y1493D01*
X1626Y1493D02*
X1631Y1493D01*
X1650Y1493D02*
X1655Y1493D01*
X1693Y1493D02*
X1698Y1493D01*
X1717Y1493D02*
X1723Y1493D01*
X1756Y1493D02*
X1761Y1493D01*
X1799Y1493D02*
X1804Y1493D01*
X1811Y1493D02*
X1816Y1493D01*
X1822Y1493D02*
X1827Y1493D01*
X1842Y1493D02*
X1847Y1493D01*
X1865Y1493D02*
X1871Y1493D01*
X1588Y1492D02*
X1594Y1492D01*
X1626Y1492D02*
X1631Y1492D01*
X1650Y1492D02*
X1655Y1492D01*
X1693Y1492D02*
X1698Y1492D01*
X1716Y1492D02*
X1722Y1492D01*
X1756Y1492D02*
X1761Y1492D01*
X1799Y1492D02*
X1804Y1492D01*
X1811Y1492D02*
X1816Y1492D01*
X1822Y1492D02*
X1827Y1492D01*
X1842Y1492D02*
X1847Y1492D01*
X1865Y1492D02*
X1871Y1492D01*
X1589Y1491D02*
X1595Y1491D01*
X1626Y1491D02*
X1631Y1491D01*
X1650Y1491D02*
X1655Y1491D01*
X1693Y1491D02*
X1698Y1491D01*
X1715Y1491D02*
X1721Y1491D01*
X1756Y1491D02*
X1761Y1491D01*
X1799Y1491D02*
X1804Y1491D01*
X1810Y1491D02*
X1816Y1491D01*
X1822Y1491D02*
X1827Y1491D01*
X1842Y1491D02*
X1847Y1491D01*
X1865Y1491D02*
X1871Y1491D01*
X1589Y1490D02*
X1595Y1490D01*
X1626Y1490D02*
X1631Y1490D01*
X1650Y1490D02*
X1655Y1490D01*
X1670Y1490D02*
X1673Y1490D01*
X1693Y1490D02*
X1698Y1490D01*
X1715Y1490D02*
X1721Y1490D01*
X1756Y1490D02*
X1761Y1490D01*
X1799Y1490D02*
X1804Y1490D01*
X1810Y1490D02*
X1816Y1490D01*
X1822Y1490D02*
X1827Y1490D01*
X1842Y1490D02*
X1847Y1490D01*
X1865Y1490D02*
X1871Y1490D01*
X1590Y1489D02*
X1596Y1489D01*
X1626Y1489D02*
X1631Y1489D01*
X1650Y1489D02*
X1655Y1489D01*
X1670Y1489D02*
X1675Y1489D01*
X1692Y1489D02*
X1698Y1489D01*
X1714Y1489D02*
X1720Y1489D01*
X1756Y1489D02*
X1761Y1489D01*
X1799Y1489D02*
X1805Y1489D01*
X1809Y1489D02*
X1817Y1489D01*
X1821Y1489D02*
X1827Y1489D01*
X1842Y1489D02*
X1847Y1489D01*
X1865Y1489D02*
X1871Y1489D01*
X1590Y1488D02*
X1610Y1488D01*
X1626Y1488D02*
X1631Y1488D01*
X1650Y1488D02*
X1655Y1488D01*
X1670Y1488D02*
X1698Y1488D01*
X1714Y1488D02*
X1720Y1488D01*
X1756Y1488D02*
X1761Y1488D01*
X1800Y1488D02*
X1827Y1488D01*
X1842Y1488D02*
X1847Y1488D01*
X1865Y1488D02*
X1871Y1488D01*
X1591Y1487D02*
X1612Y1487D01*
X1626Y1487D02*
X1631Y1487D01*
X1650Y1487D02*
X1655Y1487D01*
X1670Y1487D02*
X1697Y1487D01*
X1713Y1487D02*
X1719Y1487D01*
X1756Y1487D02*
X1761Y1487D01*
X1800Y1487D02*
X1826Y1487D01*
X1842Y1487D02*
X1847Y1487D01*
X1865Y1487D02*
X1871Y1487D01*
X1592Y1486D02*
X1612Y1486D01*
X1626Y1486D02*
X1631Y1486D01*
X1650Y1486D02*
X1655Y1486D01*
X1670Y1486D02*
X1696Y1486D01*
X1713Y1486D02*
X1719Y1486D01*
X1756Y1486D02*
X1761Y1486D01*
X1801Y1486D02*
X1825Y1486D01*
X1842Y1486D02*
X1847Y1486D01*
X1865Y1486D02*
X1871Y1486D01*
X1593Y1485D02*
X1612Y1485D01*
X1626Y1485D02*
X1631Y1485D01*
X1650Y1485D02*
X1655Y1485D01*
X1671Y1485D02*
X1696Y1485D01*
X1713Y1485D02*
X1718Y1485D01*
X1756Y1485D02*
X1761Y1485D01*
X1801Y1485D02*
X1825Y1485D01*
X1842Y1485D02*
X1847Y1485D01*
X1866Y1485D02*
X1871Y1485D01*
X1594Y1484D02*
X1612Y1484D01*
X1627Y1484D02*
X1631Y1484D01*
X1650Y1484D02*
X1655Y1484D01*
X1673Y1484D02*
X1694Y1484D01*
X1713Y1484D02*
X1717Y1484D01*
X1756Y1484D02*
X1760Y1484D01*
X1802Y1484D02*
X1824Y1484D01*
X1842Y1484D02*
X1847Y1484D01*
X1866Y1484D02*
X1870Y1484D01*
X1595Y1483D02*
X1611Y1483D01*
X1627Y1483D02*
X1630Y1483D01*
X1651Y1483D02*
X1654Y1483D01*
X1675Y1483D02*
X1693Y1483D01*
X1714Y1483D02*
X1717Y1483D01*
X1757Y1483D02*
X1760Y1483D01*
X1803Y1483D02*
X1812Y1483D01*
X1815Y1483D02*
X1823Y1483D01*
X1843Y1483D02*
X1846Y1483D01*
X1867Y1483D02*
X1870Y1483D01*
X798Y1391D02*
X815Y1391D01*
X835Y1391D02*
X837Y1391D01*
X885Y1391D02*
X917Y1391D01*
X796Y1390D02*
X816Y1390D01*
X834Y1390D02*
X839Y1390D01*
X884Y1390D02*
X917Y1390D01*
X794Y1389D02*
X817Y1389D01*
X833Y1389D02*
X839Y1389D01*
X883Y1389D02*
X917Y1389D01*
X793Y1388D02*
X817Y1388D01*
X833Y1388D02*
X839Y1388D01*
X883Y1388D02*
X917Y1388D01*
X793Y1387D02*
X817Y1387D01*
X833Y1387D02*
X839Y1387D01*
X883Y1387D02*
X917Y1387D01*
X792Y1386D02*
X816Y1386D01*
X833Y1386D02*
X839Y1386D01*
X883Y1386D02*
X917Y1386D01*
X792Y1385D02*
X815Y1385D01*
X833Y1385D02*
X839Y1385D01*
X883Y1385D02*
X917Y1385D01*
X791Y1384D02*
X799Y1384D01*
X833Y1384D02*
X839Y1384D01*
X883Y1384D02*
X889Y1384D01*
X911Y1384D02*
X917Y1384D01*
X791Y1383D02*
X798Y1383D01*
X833Y1383D02*
X839Y1383D01*
X884Y1383D02*
X888Y1383D01*
X911Y1383D02*
X917Y1383D01*
X790Y1382D02*
X797Y1382D01*
X833Y1382D02*
X839Y1382D01*
X885Y1382D02*
X887Y1382D01*
X911Y1382D02*
X917Y1382D01*
X790Y1381D02*
X796Y1381D01*
X833Y1381D02*
X839Y1381D01*
X911Y1381D02*
X917Y1381D01*
X789Y1380D02*
X796Y1380D01*
X833Y1380D02*
X839Y1380D01*
X911Y1380D02*
X917Y1380D01*
X789Y1379D02*
X795Y1379D01*
X833Y1379D02*
X839Y1379D01*
X911Y1379D02*
X917Y1379D01*
X788Y1378D02*
X795Y1378D01*
X833Y1378D02*
X839Y1378D01*
X911Y1378D02*
X917Y1378D01*
X788Y1377D02*
X794Y1377D01*
X833Y1377D02*
X839Y1377D01*
X911Y1377D02*
X917Y1377D01*
X787Y1376D02*
X794Y1376D01*
X833Y1376D02*
X839Y1376D01*
X849Y1376D02*
X860Y1376D01*
X911Y1376D02*
X917Y1376D01*
X787Y1375D02*
X793Y1375D01*
X833Y1375D02*
X839Y1375D01*
X847Y1375D02*
X862Y1375D01*
X911Y1375D02*
X917Y1375D01*
X786Y1374D02*
X793Y1374D01*
X833Y1374D02*
X839Y1374D01*
X845Y1374D02*
X863Y1374D01*
X911Y1374D02*
X917Y1374D01*
X786Y1373D02*
X792Y1373D01*
X833Y1373D02*
X839Y1373D01*
X844Y1373D02*
X864Y1373D01*
X911Y1373D02*
X917Y1373D01*
X785Y1372D02*
X792Y1372D01*
X833Y1372D02*
X839Y1372D01*
X842Y1372D02*
X865Y1372D01*
X911Y1372D02*
X917Y1372D01*
X785Y1371D02*
X791Y1371D01*
X833Y1371D02*
X865Y1371D01*
X910Y1371D02*
X917Y1371D01*
X784Y1370D02*
X791Y1370D01*
X833Y1370D02*
X866Y1370D01*
X909Y1370D02*
X917Y1370D01*
X784Y1369D02*
X790Y1369D01*
X833Y1369D02*
X849Y1369D01*
X859Y1369D02*
X866Y1369D01*
X907Y1369D02*
X917Y1369D01*
X784Y1368D02*
X790Y1368D01*
X833Y1368D02*
X848Y1368D01*
X860Y1368D02*
X866Y1368D01*
X906Y1368D02*
X916Y1368D01*
X783Y1367D02*
X790Y1367D01*
X833Y1367D02*
X846Y1367D01*
X860Y1367D02*
X866Y1367D01*
X905Y1367D02*
X915Y1367D01*
X783Y1366D02*
X789Y1366D01*
X833Y1366D02*
X845Y1366D01*
X860Y1366D02*
X866Y1366D01*
X904Y1366D02*
X914Y1366D01*
X783Y1365D02*
X789Y1365D01*
X833Y1365D02*
X843Y1365D01*
X860Y1365D02*
X866Y1365D01*
X903Y1365D02*
X912Y1365D01*
X783Y1364D02*
X789Y1364D01*
X833Y1364D02*
X842Y1364D01*
X860Y1364D02*
X866Y1364D01*
X901Y1364D02*
X911Y1364D01*
X783Y1363D02*
X789Y1363D01*
X833Y1363D02*
X840Y1363D01*
X860Y1363D02*
X866Y1363D01*
X900Y1363D02*
X910Y1363D01*
X783Y1362D02*
X790Y1362D01*
X833Y1362D02*
X839Y1362D01*
X860Y1362D02*
X866Y1362D01*
X899Y1362D02*
X909Y1362D01*
X784Y1361D02*
X790Y1361D01*
X833Y1361D02*
X839Y1361D01*
X860Y1361D02*
X866Y1361D01*
X898Y1361D02*
X908Y1361D01*
X784Y1360D02*
X790Y1360D01*
X833Y1360D02*
X839Y1360D01*
X860Y1360D02*
X866Y1360D01*
X897Y1360D02*
X907Y1360D01*
X784Y1359D02*
X791Y1359D01*
X833Y1359D02*
X839Y1359D01*
X860Y1359D02*
X866Y1359D01*
X897Y1359D02*
X905Y1359D01*
X785Y1358D02*
X791Y1358D01*
X833Y1358D02*
X839Y1358D01*
X860Y1358D02*
X866Y1358D01*
X897Y1358D02*
X904Y1358D01*
X785Y1357D02*
X792Y1357D01*
X833Y1357D02*
X839Y1357D01*
X860Y1357D02*
X866Y1357D01*
X897Y1357D02*
X903Y1357D01*
X785Y1356D02*
X792Y1356D01*
X833Y1356D02*
X839Y1356D01*
X860Y1356D02*
X866Y1356D01*
X897Y1356D02*
X903Y1356D01*
X786Y1355D02*
X793Y1355D01*
X833Y1355D02*
X839Y1355D01*
X860Y1355D02*
X866Y1355D01*
X897Y1355D02*
X903Y1355D01*
X786Y1354D02*
X793Y1354D01*
X833Y1354D02*
X839Y1354D01*
X860Y1354D02*
X866Y1354D01*
X897Y1354D02*
X903Y1354D01*
X787Y1353D02*
X794Y1353D01*
X833Y1353D02*
X839Y1353D01*
X860Y1353D02*
X866Y1353D01*
X897Y1353D02*
X903Y1353D01*
X787Y1352D02*
X794Y1352D01*
X833Y1352D02*
X839Y1352D01*
X860Y1352D02*
X866Y1352D01*
X897Y1352D02*
X903Y1352D01*
X788Y1351D02*
X795Y1351D01*
X833Y1351D02*
X839Y1351D01*
X860Y1351D02*
X866Y1351D01*
X897Y1351D02*
X903Y1351D01*
X788Y1350D02*
X795Y1350D01*
X833Y1350D02*
X839Y1350D01*
X860Y1350D02*
X866Y1350D01*
X897Y1350D02*
X903Y1350D01*
X789Y1349D02*
X796Y1349D01*
X833Y1349D02*
X839Y1349D01*
X860Y1349D02*
X866Y1349D01*
X897Y1349D02*
X903Y1349D01*
X789Y1348D02*
X796Y1348D01*
X833Y1348D02*
X839Y1348D01*
X860Y1348D02*
X866Y1348D01*
X897Y1348D02*
X903Y1348D01*
X790Y1347D02*
X797Y1347D01*
X833Y1347D02*
X839Y1347D01*
X860Y1347D02*
X866Y1347D01*
X897Y1347D02*
X903Y1347D01*
X790Y1346D02*
X797Y1346D01*
X833Y1346D02*
X839Y1346D01*
X860Y1346D02*
X866Y1346D01*
X897Y1346D02*
X903Y1346D01*
X791Y1345D02*
X798Y1345D01*
X833Y1345D02*
X839Y1345D01*
X860Y1345D02*
X866Y1345D01*
X897Y1345D02*
X903Y1345D01*
X791Y1344D02*
X815Y1344D01*
X833Y1344D02*
X839Y1344D01*
X860Y1344D02*
X866Y1344D01*
X897Y1344D02*
X903Y1344D01*
X792Y1343D02*
X816Y1343D01*
X833Y1343D02*
X839Y1343D01*
X860Y1343D02*
X866Y1343D01*
X897Y1343D02*
X903Y1343D01*
X793Y1342D02*
X817Y1342D01*
X833Y1342D02*
X839Y1342D01*
X860Y1342D02*
X866Y1342D01*
X897Y1342D02*
X903Y1342D01*
X793Y1341D02*
X817Y1341D01*
X833Y1341D02*
X839Y1341D01*
X860Y1341D02*
X866Y1341D01*
X897Y1341D02*
X903Y1341D01*
X794Y1340D02*
X817Y1340D01*
X833Y1340D02*
X839Y1340D01*
X860Y1340D02*
X866Y1340D01*
X897Y1340D02*
X903Y1340D01*
X796Y1339D02*
X816Y1339D01*
X834Y1339D02*
X839Y1339D01*
X861Y1339D02*
X866Y1339D01*
X897Y1339D02*
X902Y1339D01*
X798Y1338D02*
X815Y1338D01*
X835Y1338D02*
X838Y1338D01*
X862Y1338D02*
X865Y1338D01*
X898Y1338D02*
X901Y1338D01*
X787Y1191D02*
X804Y1191D01*
X824Y1191D02*
X826Y1191D01*
X874Y1191D02*
X880Y1191D01*
X785Y1190D02*
X805Y1190D01*
X823Y1190D02*
X827Y1190D01*
X873Y1190D02*
X881Y1190D01*
X783Y1189D02*
X806Y1189D01*
X822Y1189D02*
X828Y1189D01*
X872Y1189D02*
X881Y1189D01*
X782Y1188D02*
X806Y1188D01*
X822Y1188D02*
X828Y1188D01*
X872Y1188D02*
X881Y1188D01*
X781Y1187D02*
X806Y1187D01*
X822Y1187D02*
X828Y1187D01*
X872Y1187D02*
X881Y1187D01*
X781Y1186D02*
X805Y1186D01*
X822Y1186D02*
X828Y1186D01*
X872Y1186D02*
X881Y1186D01*
X780Y1185D02*
X804Y1185D01*
X822Y1185D02*
X828Y1185D01*
X872Y1185D02*
X880Y1185D01*
X780Y1184D02*
X787Y1184D01*
X822Y1184D02*
X828Y1184D01*
X872Y1184D02*
X878Y1184D01*
X779Y1183D02*
X786Y1183D01*
X822Y1183D02*
X828Y1183D01*
X872Y1183D02*
X878Y1183D01*
X779Y1182D02*
X786Y1182D01*
X822Y1182D02*
X828Y1182D01*
X872Y1182D02*
X878Y1182D01*
X778Y1181D02*
X785Y1181D01*
X822Y1181D02*
X828Y1181D01*
X872Y1181D02*
X878Y1181D01*
X778Y1180D02*
X785Y1180D01*
X822Y1180D02*
X828Y1180D01*
X872Y1180D02*
X878Y1180D01*
X777Y1179D02*
X784Y1179D01*
X822Y1179D02*
X828Y1179D01*
X872Y1179D02*
X878Y1179D01*
X777Y1178D02*
X784Y1178D01*
X822Y1178D02*
X828Y1178D01*
X872Y1178D02*
X878Y1178D01*
X776Y1177D02*
X783Y1177D01*
X822Y1177D02*
X828Y1177D01*
X872Y1177D02*
X878Y1177D01*
X776Y1176D02*
X783Y1176D01*
X822Y1176D02*
X828Y1176D01*
X838Y1176D02*
X849Y1176D01*
X872Y1176D02*
X878Y1176D01*
X775Y1175D02*
X782Y1175D01*
X822Y1175D02*
X828Y1175D01*
X836Y1175D02*
X851Y1175D01*
X872Y1175D02*
X878Y1175D01*
X775Y1174D02*
X782Y1174D01*
X822Y1174D02*
X828Y1174D01*
X834Y1174D02*
X852Y1174D01*
X872Y1174D02*
X878Y1174D01*
X774Y1173D02*
X781Y1173D01*
X822Y1173D02*
X828Y1173D01*
X833Y1173D02*
X853Y1173D01*
X872Y1173D02*
X878Y1173D01*
X774Y1172D02*
X781Y1172D01*
X822Y1172D02*
X828Y1172D01*
X831Y1172D02*
X854Y1172D01*
X872Y1172D02*
X878Y1172D01*
X774Y1171D02*
X780Y1171D01*
X822Y1171D02*
X854Y1171D01*
X872Y1171D02*
X878Y1171D01*
X773Y1170D02*
X780Y1170D01*
X822Y1170D02*
X855Y1170D01*
X872Y1170D02*
X878Y1170D01*
X773Y1169D02*
X779Y1169D01*
X822Y1169D02*
X838Y1169D01*
X848Y1169D02*
X855Y1169D01*
X872Y1169D02*
X878Y1169D01*
X773Y1168D02*
X779Y1168D01*
X822Y1168D02*
X837Y1168D01*
X849Y1168D02*
X855Y1168D01*
X872Y1168D02*
X878Y1168D01*
X772Y1167D02*
X778Y1167D01*
X822Y1167D02*
X835Y1167D01*
X849Y1167D02*
X855Y1167D01*
X872Y1167D02*
X878Y1167D01*
X772Y1166D02*
X778Y1166D01*
X822Y1166D02*
X834Y1166D01*
X849Y1166D02*
X855Y1166D01*
X872Y1166D02*
X878Y1166D01*
X772Y1165D02*
X778Y1165D01*
X822Y1165D02*
X832Y1165D01*
X849Y1165D02*
X855Y1165D01*
X872Y1165D02*
X878Y1165D01*
X772Y1164D02*
X778Y1164D01*
X822Y1164D02*
X830Y1164D01*
X849Y1164D02*
X855Y1164D01*
X872Y1164D02*
X878Y1164D01*
X772Y1163D02*
X778Y1163D01*
X822Y1163D02*
X829Y1163D01*
X849Y1163D02*
X855Y1163D01*
X872Y1163D02*
X878Y1163D01*
X772Y1162D02*
X778Y1162D01*
X822Y1162D02*
X828Y1162D01*
X849Y1162D02*
X855Y1162D01*
X872Y1162D02*
X903Y1162D01*
X772Y1161D02*
X779Y1161D01*
X822Y1161D02*
X828Y1161D01*
X849Y1161D02*
X855Y1161D01*
X872Y1161D02*
X905Y1161D01*
X773Y1160D02*
X779Y1160D01*
X822Y1160D02*
X828Y1160D01*
X849Y1160D02*
X855Y1160D01*
X872Y1160D02*
X905Y1160D01*
X773Y1159D02*
X780Y1159D01*
X822Y1159D02*
X828Y1159D01*
X849Y1159D02*
X855Y1159D01*
X872Y1159D02*
X906Y1159D01*
X773Y1158D02*
X780Y1158D01*
X822Y1158D02*
X828Y1158D01*
X849Y1158D02*
X855Y1158D01*
X872Y1158D02*
X906Y1158D01*
X774Y1157D02*
X781Y1157D01*
X822Y1157D02*
X828Y1157D01*
X849Y1157D02*
X855Y1157D01*
X872Y1157D02*
X906Y1157D01*
X774Y1156D02*
X781Y1156D01*
X822Y1156D02*
X828Y1156D01*
X849Y1156D02*
X855Y1156D01*
X872Y1156D02*
X906Y1156D01*
X775Y1155D02*
X782Y1155D01*
X822Y1155D02*
X828Y1155D01*
X849Y1155D02*
X855Y1155D01*
X872Y1155D02*
X878Y1155D01*
X899Y1155D02*
X906Y1155D01*
X775Y1154D02*
X782Y1154D01*
X822Y1154D02*
X828Y1154D01*
X849Y1154D02*
X855Y1154D01*
X872Y1154D02*
X878Y1154D01*
X900Y1154D02*
X906Y1154D01*
X776Y1153D02*
X783Y1153D01*
X822Y1153D02*
X828Y1153D01*
X849Y1153D02*
X855Y1153D01*
X872Y1153D02*
X878Y1153D01*
X900Y1153D02*
X906Y1153D01*
X776Y1152D02*
X783Y1152D01*
X822Y1152D02*
X828Y1152D01*
X849Y1152D02*
X855Y1152D01*
X872Y1152D02*
X878Y1152D01*
X900Y1152D02*
X906Y1152D01*
X777Y1151D02*
X784Y1151D01*
X822Y1151D02*
X828Y1151D01*
X849Y1151D02*
X855Y1151D01*
X872Y1151D02*
X878Y1151D01*
X900Y1151D02*
X906Y1151D01*
X777Y1150D02*
X784Y1150D01*
X822Y1150D02*
X828Y1150D01*
X849Y1150D02*
X855Y1150D01*
X872Y1150D02*
X878Y1150D01*
X900Y1150D02*
X906Y1150D01*
X778Y1149D02*
X785Y1149D01*
X822Y1149D02*
X828Y1149D01*
X849Y1149D02*
X855Y1149D01*
X872Y1149D02*
X878Y1149D01*
X900Y1149D02*
X906Y1149D01*
X778Y1148D02*
X785Y1148D01*
X822Y1148D02*
X828Y1148D01*
X849Y1148D02*
X855Y1148D01*
X872Y1148D02*
X878Y1148D01*
X900Y1148D02*
X906Y1148D01*
X779Y1147D02*
X786Y1147D01*
X822Y1147D02*
X828Y1147D01*
X849Y1147D02*
X855Y1147D01*
X872Y1147D02*
X878Y1147D01*
X900Y1147D02*
X906Y1147D01*
X779Y1146D02*
X786Y1146D01*
X822Y1146D02*
X828Y1146D01*
X849Y1146D02*
X855Y1146D01*
X872Y1146D02*
X878Y1146D01*
X900Y1146D02*
X906Y1146D01*
X780Y1145D02*
X787Y1145D01*
X822Y1145D02*
X828Y1145D01*
X849Y1145D02*
X855Y1145D01*
X872Y1145D02*
X878Y1145D01*
X900Y1145D02*
X906Y1145D01*
X780Y1144D02*
X804Y1144D01*
X822Y1144D02*
X828Y1144D01*
X849Y1144D02*
X855Y1144D01*
X872Y1144D02*
X906Y1144D01*
X781Y1143D02*
X805Y1143D01*
X822Y1143D02*
X828Y1143D01*
X849Y1143D02*
X855Y1143D01*
X872Y1143D02*
X906Y1143D01*
X782Y1142D02*
X805Y1142D01*
X822Y1142D02*
X828Y1142D01*
X849Y1142D02*
X855Y1142D01*
X872Y1142D02*
X906Y1142D01*
X782Y1141D02*
X806Y1141D01*
X822Y1141D02*
X828Y1141D01*
X849Y1141D02*
X855Y1141D01*
X872Y1141D02*
X906Y1141D01*
X783Y1140D02*
X806Y1140D01*
X822Y1140D02*
X828Y1140D01*
X849Y1140D02*
X855Y1140D01*
X872Y1140D02*
X906Y1140D01*
X785Y1139D02*
X805Y1139D01*
X823Y1139D02*
X828Y1139D01*
X850Y1139D02*
X855Y1139D01*
X873Y1139D02*
X905Y1139D01*
X787Y1138D02*
X804Y1138D01*
X824Y1138D02*
X827Y1138D01*
X851Y1138D02*
X854Y1138D01*
X873Y1138D02*
X904Y1138D01*
X787Y991D02*
X804Y991D01*
X824Y991D02*
X826Y991D01*
X879Y991D02*
X904Y991D01*
X785Y990D02*
X805Y990D01*
X823Y990D02*
X827Y990D01*
X879Y990D02*
X905Y990D01*
X783Y989D02*
X806Y989D01*
X822Y989D02*
X828Y989D01*
X879Y989D02*
X905Y989D01*
X782Y988D02*
X806Y988D01*
X822Y988D02*
X828Y988D01*
X879Y988D02*
X906Y988D01*
X781Y987D02*
X806Y987D01*
X822Y987D02*
X828Y987D01*
X879Y987D02*
X905Y987D01*
X781Y986D02*
X805Y986D01*
X822Y986D02*
X828Y986D01*
X879Y986D02*
X905Y986D01*
X780Y985D02*
X804Y985D01*
X822Y985D02*
X828Y985D01*
X879Y985D02*
X904Y985D01*
X780Y984D02*
X787Y984D01*
X822Y984D02*
X828Y984D01*
X879Y984D02*
X885Y984D01*
X779Y983D02*
X786Y983D01*
X822Y983D02*
X828Y983D01*
X879Y983D02*
X885Y983D01*
X779Y982D02*
X786Y982D01*
X822Y982D02*
X828Y982D01*
X879Y982D02*
X885Y982D01*
X778Y981D02*
X785Y981D01*
X822Y981D02*
X828Y981D01*
X879Y981D02*
X885Y981D01*
X778Y980D02*
X785Y980D01*
X822Y980D02*
X828Y980D01*
X879Y980D02*
X885Y980D01*
X777Y979D02*
X784Y979D01*
X822Y979D02*
X828Y979D01*
X879Y979D02*
X885Y979D01*
X777Y978D02*
X784Y978D01*
X822Y978D02*
X828Y978D01*
X879Y978D02*
X885Y978D01*
X776Y977D02*
X783Y977D01*
X822Y977D02*
X828Y977D01*
X879Y977D02*
X885Y977D01*
X776Y976D02*
X783Y976D01*
X822Y976D02*
X828Y976D01*
X838Y976D02*
X849Y976D01*
X879Y976D02*
X885Y976D01*
X775Y975D02*
X782Y975D01*
X822Y975D02*
X828Y975D01*
X836Y975D02*
X851Y975D01*
X879Y975D02*
X885Y975D01*
X775Y974D02*
X782Y974D01*
X822Y974D02*
X828Y974D01*
X834Y974D02*
X852Y974D01*
X879Y974D02*
X885Y974D01*
X774Y973D02*
X781Y973D01*
X822Y973D02*
X828Y973D01*
X833Y973D02*
X853Y973D01*
X879Y973D02*
X885Y973D01*
X774Y972D02*
X781Y972D01*
X822Y972D02*
X828Y972D01*
X831Y972D02*
X854Y972D01*
X879Y972D02*
X885Y972D01*
X774Y971D02*
X780Y971D01*
X822Y971D02*
X854Y971D01*
X879Y971D02*
X885Y971D01*
X773Y970D02*
X780Y970D01*
X822Y970D02*
X855Y970D01*
X879Y970D02*
X885Y970D01*
X773Y969D02*
X779Y969D01*
X822Y969D02*
X838Y969D01*
X848Y969D02*
X855Y969D01*
X879Y969D02*
X885Y969D01*
X773Y968D02*
X779Y968D01*
X822Y968D02*
X837Y968D01*
X849Y968D02*
X855Y968D01*
X879Y968D02*
X885Y968D01*
X772Y967D02*
X778Y967D01*
X822Y967D02*
X835Y967D01*
X849Y967D02*
X855Y967D01*
X879Y967D02*
X902Y967D01*
X772Y966D02*
X778Y966D01*
X822Y966D02*
X834Y966D01*
X849Y966D02*
X855Y966D01*
X879Y966D02*
X903Y966D01*
X772Y965D02*
X778Y965D01*
X822Y965D02*
X832Y965D01*
X849Y965D02*
X855Y965D01*
X879Y965D02*
X904Y965D01*
X772Y964D02*
X778Y964D01*
X822Y964D02*
X830Y964D01*
X849Y964D02*
X855Y964D01*
X879Y964D02*
X905Y964D01*
X772Y963D02*
X778Y963D01*
X822Y963D02*
X829Y963D01*
X849Y963D02*
X855Y963D01*
X879Y963D02*
X905Y963D01*
X772Y962D02*
X778Y962D01*
X822Y962D02*
X828Y962D01*
X849Y962D02*
X855Y962D01*
X879Y962D02*
X906Y962D01*
X772Y961D02*
X779Y961D01*
X822Y961D02*
X828Y961D01*
X849Y961D02*
X855Y961D01*
X879Y961D02*
X906Y961D01*
X773Y960D02*
X779Y960D01*
X822Y960D02*
X828Y960D01*
X849Y960D02*
X855Y960D01*
X900Y960D02*
X906Y960D01*
X773Y959D02*
X780Y959D01*
X822Y959D02*
X828Y959D01*
X849Y959D02*
X855Y959D01*
X900Y959D02*
X906Y959D01*
X773Y958D02*
X780Y958D01*
X822Y958D02*
X828Y958D01*
X849Y958D02*
X855Y958D01*
X900Y958D02*
X906Y958D01*
X774Y957D02*
X781Y957D01*
X822Y957D02*
X828Y957D01*
X849Y957D02*
X855Y957D01*
X900Y957D02*
X906Y957D01*
X774Y956D02*
X781Y956D01*
X822Y956D02*
X828Y956D01*
X849Y956D02*
X855Y956D01*
X900Y956D02*
X906Y956D01*
X775Y955D02*
X782Y955D01*
X822Y955D02*
X828Y955D01*
X849Y955D02*
X855Y955D01*
X900Y955D02*
X906Y955D01*
X775Y954D02*
X782Y954D01*
X822Y954D02*
X828Y954D01*
X849Y954D02*
X855Y954D01*
X900Y954D02*
X906Y954D01*
X776Y953D02*
X783Y953D01*
X822Y953D02*
X828Y953D01*
X849Y953D02*
X855Y953D01*
X900Y953D02*
X906Y953D01*
X776Y952D02*
X783Y952D01*
X822Y952D02*
X828Y952D01*
X849Y952D02*
X855Y952D01*
X900Y952D02*
X906Y952D01*
X777Y951D02*
X784Y951D01*
X822Y951D02*
X828Y951D01*
X849Y951D02*
X855Y951D01*
X900Y951D02*
X906Y951D01*
X777Y950D02*
X784Y950D01*
X822Y950D02*
X828Y950D01*
X849Y950D02*
X855Y950D01*
X900Y950D02*
X906Y950D01*
X778Y949D02*
X785Y949D01*
X822Y949D02*
X828Y949D01*
X849Y949D02*
X855Y949D01*
X900Y949D02*
X906Y949D01*
X778Y948D02*
X785Y948D01*
X822Y948D02*
X828Y948D01*
X849Y948D02*
X855Y948D01*
X900Y948D02*
X906Y948D01*
X779Y947D02*
X786Y947D01*
X822Y947D02*
X828Y947D01*
X849Y947D02*
X855Y947D01*
X874Y947D02*
X876Y947D01*
X900Y947D02*
X906Y947D01*
X779Y946D02*
X786Y946D01*
X822Y946D02*
X828Y946D01*
X849Y946D02*
X855Y946D01*
X873Y946D02*
X878Y946D01*
X900Y946D02*
X906Y946D01*
X780Y945D02*
X787Y945D01*
X822Y945D02*
X828Y945D01*
X849Y945D02*
X855Y945D01*
X872Y945D02*
X881Y945D01*
X900Y945D02*
X906Y945D01*
X780Y944D02*
X804Y944D01*
X822Y944D02*
X828Y944D01*
X849Y944D02*
X855Y944D01*
X872Y944D02*
X906Y944D01*
X781Y943D02*
X805Y943D01*
X822Y943D02*
X828Y943D01*
X849Y943D02*
X855Y943D01*
X872Y943D02*
X906Y943D01*
X782Y942D02*
X805Y942D01*
X822Y942D02*
X828Y942D01*
X849Y942D02*
X855Y942D01*
X872Y942D02*
X905Y942D01*
X782Y941D02*
X806Y941D01*
X822Y941D02*
X828Y941D01*
X849Y941D02*
X855Y941D01*
X873Y941D02*
X905Y941D01*
X783Y940D02*
X806Y940D01*
X822Y940D02*
X828Y940D01*
X849Y940D02*
X855Y940D01*
X875Y940D02*
X904Y940D01*
X785Y939D02*
X805Y939D01*
X823Y939D02*
X828Y939D01*
X850Y939D02*
X855Y939D01*
X877Y939D02*
X903Y939D01*
X787Y938D02*
X804Y938D01*
X824Y938D02*
X827Y938D01*
X851Y938D02*
X854Y938D01*
X880Y938D02*
X902Y938D01*
X787Y791D02*
X804Y791D01*
X824Y791D02*
X826Y791D01*
X875Y791D02*
X878Y791D01*
X785Y790D02*
X805Y790D01*
X823Y790D02*
X827Y790D01*
X874Y790D02*
X879Y790D01*
X783Y789D02*
X806Y789D01*
X822Y789D02*
X828Y789D01*
X874Y789D02*
X880Y789D01*
X782Y788D02*
X806Y788D01*
X822Y788D02*
X828Y788D01*
X874Y788D02*
X880Y788D01*
X781Y787D02*
X806Y787D01*
X822Y787D02*
X828Y787D01*
X874Y787D02*
X880Y787D01*
X781Y786D02*
X805Y786D01*
X822Y786D02*
X828Y786D01*
X874Y786D02*
X880Y786D01*
X780Y785D02*
X804Y785D01*
X822Y785D02*
X828Y785D01*
X874Y785D02*
X880Y785D01*
X896Y785D02*
X899Y785D01*
X780Y784D02*
X787Y784D01*
X822Y784D02*
X828Y784D01*
X874Y784D02*
X880Y784D01*
X895Y784D02*
X900Y784D01*
X779Y783D02*
X786Y783D01*
X822Y783D02*
X828Y783D01*
X874Y783D02*
X880Y783D01*
X895Y783D02*
X900Y783D01*
X779Y782D02*
X786Y782D01*
X822Y782D02*
X828Y782D01*
X874Y782D02*
X880Y782D01*
X894Y782D02*
X900Y782D01*
X778Y781D02*
X785Y781D01*
X822Y781D02*
X828Y781D01*
X874Y781D02*
X880Y781D01*
X894Y781D02*
X900Y781D01*
X778Y780D02*
X785Y780D01*
X822Y780D02*
X828Y780D01*
X874Y780D02*
X880Y780D01*
X894Y780D02*
X900Y780D01*
X777Y779D02*
X784Y779D01*
X822Y779D02*
X828Y779D01*
X874Y779D02*
X880Y779D01*
X894Y779D02*
X900Y779D01*
X777Y778D02*
X784Y778D01*
X822Y778D02*
X828Y778D01*
X874Y778D02*
X880Y778D01*
X894Y778D02*
X900Y778D01*
X776Y777D02*
X783Y777D01*
X822Y777D02*
X828Y777D01*
X874Y777D02*
X880Y777D01*
X894Y777D02*
X900Y777D01*
X776Y776D02*
X783Y776D01*
X822Y776D02*
X828Y776D01*
X838Y776D02*
X849Y776D01*
X874Y776D02*
X880Y776D01*
X894Y776D02*
X900Y776D01*
X775Y775D02*
X782Y775D01*
X822Y775D02*
X828Y775D01*
X836Y775D02*
X851Y775D01*
X874Y775D02*
X880Y775D01*
X894Y775D02*
X900Y775D01*
X775Y774D02*
X782Y774D01*
X822Y774D02*
X828Y774D01*
X834Y774D02*
X852Y774D01*
X874Y774D02*
X880Y774D01*
X894Y774D02*
X900Y774D01*
X774Y773D02*
X781Y773D01*
X822Y773D02*
X828Y773D01*
X832Y773D02*
X853Y773D01*
X874Y773D02*
X880Y773D01*
X894Y773D02*
X900Y773D01*
X774Y772D02*
X781Y772D01*
X822Y772D02*
X828Y772D01*
X831Y772D02*
X854Y772D01*
X874Y772D02*
X880Y772D01*
X894Y772D02*
X900Y772D01*
X774Y771D02*
X780Y771D01*
X822Y771D02*
X854Y771D01*
X874Y771D02*
X880Y771D01*
X894Y771D02*
X900Y771D01*
X773Y770D02*
X780Y770D01*
X822Y770D02*
X855Y770D01*
X874Y770D02*
X880Y770D01*
X894Y770D02*
X900Y770D01*
X773Y769D02*
X779Y769D01*
X822Y769D02*
X838Y769D01*
X848Y769D02*
X855Y769D01*
X874Y769D02*
X880Y769D01*
X894Y769D02*
X900Y769D01*
X773Y768D02*
X779Y768D01*
X822Y768D02*
X837Y768D01*
X849Y768D02*
X855Y768D01*
X874Y768D02*
X880Y768D01*
X894Y768D02*
X900Y768D01*
X772Y767D02*
X778Y767D01*
X822Y767D02*
X835Y767D01*
X849Y767D02*
X855Y767D01*
X874Y767D02*
X880Y767D01*
X894Y767D02*
X900Y767D01*
X772Y766D02*
X778Y766D01*
X822Y766D02*
X834Y766D01*
X849Y766D02*
X855Y766D01*
X874Y766D02*
X880Y766D01*
X894Y766D02*
X900Y766D01*
X772Y765D02*
X778Y765D01*
X822Y765D02*
X832Y765D01*
X849Y765D02*
X855Y765D01*
X874Y765D02*
X880Y765D01*
X894Y765D02*
X900Y765D01*
X772Y764D02*
X778Y764D01*
X822Y764D02*
X830Y764D01*
X849Y764D02*
X855Y764D01*
X874Y764D02*
X880Y764D01*
X894Y764D02*
X900Y764D01*
X772Y763D02*
X778Y763D01*
X822Y763D02*
X829Y763D01*
X849Y763D02*
X855Y763D01*
X874Y763D02*
X880Y763D01*
X894Y763D02*
X900Y763D01*
X772Y762D02*
X778Y762D01*
X822Y762D02*
X828Y762D01*
X849Y762D02*
X855Y762D01*
X874Y762D02*
X901Y762D01*
X772Y761D02*
X779Y761D01*
X822Y761D02*
X828Y761D01*
X849Y761D02*
X855Y761D01*
X874Y761D02*
X903Y761D01*
X773Y760D02*
X779Y760D01*
X822Y760D02*
X828Y760D01*
X849Y760D02*
X855Y760D01*
X874Y760D02*
X904Y760D01*
X773Y759D02*
X780Y759D01*
X822Y759D02*
X828Y759D01*
X849Y759D02*
X855Y759D01*
X874Y759D02*
X904Y759D01*
X773Y758D02*
X780Y758D01*
X822Y758D02*
X828Y758D01*
X849Y758D02*
X855Y758D01*
X874Y758D02*
X904Y758D01*
X774Y757D02*
X781Y757D01*
X822Y757D02*
X828Y757D01*
X849Y757D02*
X855Y757D01*
X874Y757D02*
X904Y757D01*
X774Y756D02*
X781Y756D01*
X822Y756D02*
X828Y756D01*
X849Y756D02*
X855Y756D01*
X874Y756D02*
X903Y756D01*
X775Y755D02*
X782Y755D01*
X822Y755D02*
X828Y755D01*
X849Y755D02*
X855Y755D01*
X894Y755D02*
X901Y755D01*
X775Y754D02*
X782Y754D01*
X822Y754D02*
X828Y754D01*
X849Y754D02*
X855Y754D01*
X894Y754D02*
X900Y754D01*
X776Y753D02*
X783Y753D01*
X822Y753D02*
X828Y753D01*
X849Y753D02*
X855Y753D01*
X894Y753D02*
X900Y753D01*
X776Y752D02*
X783Y752D01*
X822Y752D02*
X828Y752D01*
X849Y752D02*
X855Y752D01*
X894Y752D02*
X900Y752D01*
X777Y751D02*
X784Y751D01*
X822Y751D02*
X828Y751D01*
X849Y751D02*
X855Y751D01*
X894Y751D02*
X900Y751D01*
X777Y750D02*
X784Y750D01*
X822Y750D02*
X828Y750D01*
X849Y750D02*
X855Y750D01*
X894Y750D02*
X900Y750D01*
X778Y749D02*
X785Y749D01*
X822Y749D02*
X828Y749D01*
X849Y749D02*
X855Y749D01*
X894Y749D02*
X900Y749D01*
X778Y748D02*
X785Y748D01*
X822Y748D02*
X828Y748D01*
X849Y748D02*
X855Y748D01*
X894Y748D02*
X900Y748D01*
X779Y747D02*
X786Y747D01*
X822Y747D02*
X828Y747D01*
X849Y747D02*
X855Y747D01*
X894Y747D02*
X900Y747D01*
X779Y746D02*
X786Y746D01*
X822Y746D02*
X828Y746D01*
X849Y746D02*
X855Y746D01*
X894Y746D02*
X900Y746D01*
X780Y745D02*
X787Y745D01*
X822Y745D02*
X828Y745D01*
X849Y745D02*
X855Y745D01*
X894Y745D02*
X900Y745D01*
X780Y744D02*
X804Y744D01*
X822Y744D02*
X828Y744D01*
X849Y744D02*
X855Y744D01*
X894Y744D02*
X900Y744D01*
X781Y743D02*
X805Y743D01*
X822Y743D02*
X828Y743D01*
X849Y743D02*
X855Y743D01*
X894Y743D02*
X900Y743D01*
X782Y742D02*
X805Y742D01*
X822Y742D02*
X828Y742D01*
X849Y742D02*
X855Y742D01*
X894Y742D02*
X900Y742D01*
X782Y741D02*
X806Y741D01*
X822Y741D02*
X828Y741D01*
X849Y741D02*
X855Y741D01*
X894Y741D02*
X900Y741D01*
X783Y740D02*
X806Y740D01*
X822Y740D02*
X828Y740D01*
X849Y740D02*
X855Y740D01*
X895Y740D02*
X900Y740D01*
X785Y739D02*
X805Y739D01*
X823Y739D02*
X828Y739D01*
X850Y739D02*
X855Y739D01*
X895Y739D02*
X900Y739D01*
X787Y738D02*
X804Y738D01*
X824Y738D02*
X827Y738D01*
X851Y738D02*
X854Y738D01*
X896Y738D02*
X899Y738D01*
X781Y591D02*
X798Y591D01*
X818Y591D02*
X821Y591D01*
X868Y591D02*
X896Y591D01*
X779Y590D02*
X799Y590D01*
X817Y590D02*
X822Y590D01*
X867Y590D02*
X897Y590D01*
X778Y589D02*
X800Y589D01*
X817Y589D02*
X822Y589D01*
X867Y589D02*
X898Y589D01*
X777Y588D02*
X800Y588D01*
X817Y588D02*
X823Y588D01*
X867Y588D02*
X899Y588D01*
X776Y587D02*
X800Y587D01*
X817Y587D02*
X823Y587D01*
X867Y587D02*
X900Y587D01*
X775Y586D02*
X799Y586D01*
X817Y586D02*
X823Y586D01*
X867Y586D02*
X900Y586D01*
X775Y585D02*
X798Y585D01*
X817Y585D02*
X823Y585D01*
X868Y585D02*
X900Y585D01*
X774Y584D02*
X782Y584D01*
X817Y584D02*
X823Y584D01*
X894Y584D02*
X900Y584D01*
X774Y583D02*
X781Y583D01*
X817Y583D02*
X823Y583D01*
X894Y583D02*
X900Y583D01*
X773Y582D02*
X780Y582D01*
X817Y582D02*
X823Y582D01*
X894Y582D02*
X900Y582D01*
X773Y581D02*
X780Y581D01*
X817Y581D02*
X823Y581D01*
X894Y581D02*
X900Y581D01*
X772Y580D02*
X779Y580D01*
X817Y580D02*
X823Y580D01*
X894Y580D02*
X900Y580D01*
X772Y579D02*
X779Y579D01*
X817Y579D02*
X823Y579D01*
X894Y579D02*
X900Y579D01*
X771Y578D02*
X778Y578D01*
X817Y578D02*
X823Y578D01*
X894Y578D02*
X900Y578D01*
X771Y577D02*
X778Y577D01*
X817Y577D02*
X823Y577D01*
X894Y577D02*
X900Y577D01*
X770Y576D02*
X777Y576D01*
X817Y576D02*
X823Y576D01*
X832Y576D02*
X843Y576D01*
X894Y576D02*
X900Y576D01*
X770Y575D02*
X777Y575D01*
X817Y575D02*
X823Y575D01*
X830Y575D02*
X845Y575D01*
X894Y575D02*
X900Y575D01*
X769Y574D02*
X776Y574D01*
X817Y574D02*
X823Y574D01*
X829Y574D02*
X846Y574D01*
X894Y574D02*
X900Y574D01*
X769Y573D02*
X776Y573D01*
X817Y573D02*
X823Y573D01*
X827Y573D02*
X847Y573D01*
X894Y573D02*
X900Y573D01*
X768Y572D02*
X775Y572D01*
X817Y572D02*
X823Y572D01*
X825Y572D02*
X848Y572D01*
X894Y572D02*
X900Y572D01*
X768Y571D02*
X775Y571D01*
X817Y571D02*
X849Y571D01*
X894Y571D02*
X900Y571D01*
X768Y570D02*
X774Y570D01*
X817Y570D02*
X849Y570D01*
X894Y570D02*
X900Y570D01*
X767Y569D02*
X774Y569D01*
X817Y569D02*
X833Y569D01*
X842Y569D02*
X849Y569D01*
X893Y569D02*
X900Y569D01*
X767Y568D02*
X773Y568D01*
X817Y568D02*
X831Y568D01*
X843Y568D02*
X849Y568D01*
X891Y568D02*
X900Y568D01*
X767Y567D02*
X773Y567D01*
X817Y567D02*
X830Y567D01*
X844Y567D02*
X850Y567D01*
X874Y567D02*
X899Y567D01*
X767Y566D02*
X773Y566D01*
X817Y566D02*
X828Y566D01*
X844Y566D02*
X850Y566D01*
X874Y566D02*
X899Y566D01*
X767Y565D02*
X773Y565D01*
X817Y565D02*
X826Y565D01*
X844Y565D02*
X850Y565D01*
X873Y565D02*
X898Y565D01*
X767Y564D02*
X773Y564D01*
X817Y564D02*
X825Y564D01*
X844Y564D02*
X850Y564D01*
X873Y564D02*
X898Y564D01*
X767Y563D02*
X773Y563D01*
X817Y563D02*
X823Y563D01*
X844Y563D02*
X850Y563D01*
X874Y563D02*
X898Y563D01*
X767Y562D02*
X773Y562D01*
X817Y562D02*
X823Y562D01*
X844Y562D02*
X850Y562D01*
X874Y562D02*
X899Y562D01*
X767Y561D02*
X773Y561D01*
X817Y561D02*
X823Y561D01*
X844Y561D02*
X850Y561D01*
X876Y561D02*
X899Y561D01*
X767Y560D02*
X774Y560D01*
X817Y560D02*
X823Y560D01*
X844Y560D02*
X850Y560D01*
X893Y560D02*
X900Y560D01*
X767Y559D02*
X774Y559D01*
X817Y559D02*
X823Y559D01*
X844Y559D02*
X850Y559D01*
X894Y559D02*
X900Y559D01*
X768Y558D02*
X775Y558D01*
X817Y558D02*
X823Y558D01*
X844Y558D02*
X850Y558D01*
X894Y558D02*
X900Y558D01*
X768Y557D02*
X775Y557D01*
X817Y557D02*
X823Y557D01*
X844Y557D02*
X850Y557D01*
X894Y557D02*
X900Y557D01*
X769Y556D02*
X776Y556D01*
X817Y556D02*
X823Y556D01*
X844Y556D02*
X850Y556D01*
X894Y556D02*
X900Y556D01*
X769Y555D02*
X776Y555D01*
X817Y555D02*
X823Y555D01*
X844Y555D02*
X850Y555D01*
X894Y555D02*
X900Y555D01*
X770Y554D02*
X777Y554D01*
X817Y554D02*
X823Y554D01*
X844Y554D02*
X850Y554D01*
X894Y554D02*
X900Y554D01*
X770Y553D02*
X777Y553D01*
X817Y553D02*
X823Y553D01*
X844Y553D02*
X850Y553D01*
X894Y553D02*
X900Y553D01*
X771Y552D02*
X778Y552D01*
X817Y552D02*
X823Y552D01*
X844Y552D02*
X850Y552D01*
X894Y552D02*
X900Y552D01*
X771Y551D02*
X778Y551D01*
X817Y551D02*
X823Y551D01*
X844Y551D02*
X850Y551D01*
X894Y551D02*
X900Y551D01*
X772Y550D02*
X779Y550D01*
X817Y550D02*
X823Y550D01*
X844Y550D02*
X850Y550D01*
X894Y550D02*
X900Y550D01*
X772Y549D02*
X779Y549D01*
X817Y549D02*
X823Y549D01*
X844Y549D02*
X850Y549D01*
X894Y549D02*
X900Y549D01*
X773Y548D02*
X780Y548D01*
X817Y548D02*
X823Y548D01*
X844Y548D02*
X850Y548D01*
X894Y548D02*
X900Y548D01*
X773Y547D02*
X780Y547D01*
X817Y547D02*
X823Y547D01*
X844Y547D02*
X850Y547D01*
X894Y547D02*
X900Y547D01*
X774Y546D02*
X781Y546D01*
X817Y546D02*
X823Y546D01*
X844Y546D02*
X850Y546D01*
X894Y546D02*
X900Y546D01*
X774Y545D02*
X782Y545D01*
X817Y545D02*
X823Y545D01*
X844Y545D02*
X850Y545D01*
X894Y545D02*
X900Y545D01*
X775Y544D02*
X798Y544D01*
X817Y544D02*
X823Y544D01*
X844Y544D02*
X850Y544D01*
X868Y544D02*
X900Y544D01*
X775Y543D02*
X799Y543D01*
X817Y543D02*
X823Y543D01*
X844Y543D02*
X850Y543D01*
X867Y543D02*
X900Y543D01*
X776Y542D02*
X800Y542D01*
X817Y542D02*
X823Y542D01*
X844Y542D02*
X850Y542D01*
X867Y542D02*
X900Y542D01*
X777Y541D02*
X800Y541D01*
X817Y541D02*
X823Y541D01*
X844Y541D02*
X850Y541D01*
X867Y541D02*
X899Y541D01*
X778Y540D02*
X800Y540D01*
X817Y540D02*
X822Y540D01*
X844Y540D02*
X849Y540D01*
X867Y540D02*
X898Y540D01*
X779Y539D02*
X800Y539D01*
X817Y539D02*
X822Y539D01*
X844Y539D02*
X849Y539D01*
X867Y539D02*
X897Y539D01*
X781Y538D02*
X799Y538D01*
X818Y538D02*
X821Y538D01*
X845Y538D02*
X848Y538D01*
X868Y538D02*
X896Y538D01*
X780Y385D02*
X799Y385D01*
X818Y385D02*
X821Y385D01*
X868Y385D02*
X897Y385D01*
X778Y384D02*
X800Y384D01*
X817Y384D02*
X822Y384D01*
X867Y384D02*
X898Y384D01*
X777Y383D02*
X800Y383D01*
X817Y383D02*
X822Y383D01*
X867Y383D02*
X899Y383D01*
X776Y382D02*
X800Y382D01*
X817Y382D02*
X823Y382D01*
X867Y382D02*
X899Y382D01*
X776Y381D02*
X800Y381D01*
X817Y381D02*
X823Y381D01*
X867Y381D02*
X900Y381D01*
X775Y380D02*
X799Y380D01*
X817Y380D02*
X823Y380D01*
X868Y380D02*
X900Y380D01*
X775Y379D02*
X797Y379D01*
X817Y379D02*
X823Y379D01*
X869Y379D02*
X900Y379D01*
X774Y378D02*
X781Y378D01*
X817Y378D02*
X823Y378D01*
X894Y378D02*
X900Y378D01*
X774Y377D02*
X781Y377D01*
X817Y377D02*
X823Y377D01*
X894Y377D02*
X900Y377D01*
X773Y376D02*
X780Y376D01*
X817Y376D02*
X823Y376D01*
X894Y376D02*
X900Y376D01*
X773Y375D02*
X780Y375D01*
X817Y375D02*
X823Y375D01*
X894Y375D02*
X900Y375D01*
X772Y374D02*
X779Y374D01*
X817Y374D02*
X823Y374D01*
X894Y374D02*
X900Y374D01*
X772Y373D02*
X779Y373D01*
X817Y373D02*
X823Y373D01*
X894Y373D02*
X900Y373D01*
X771Y372D02*
X778Y372D01*
X817Y372D02*
X823Y372D01*
X894Y372D02*
X900Y372D01*
X771Y371D02*
X778Y371D01*
X817Y371D02*
X823Y371D01*
X834Y371D02*
X841Y371D01*
X894Y371D02*
X900Y371D01*
X770Y370D02*
X777Y370D01*
X817Y370D02*
X823Y370D01*
X831Y370D02*
X844Y370D01*
X894Y370D02*
X900Y370D01*
X770Y369D02*
X777Y369D01*
X817Y369D02*
X823Y369D01*
X829Y369D02*
X846Y369D01*
X894Y369D02*
X900Y369D01*
X769Y368D02*
X776Y368D01*
X817Y368D02*
X823Y368D01*
X828Y368D02*
X847Y368D01*
X894Y368D02*
X900Y368D01*
X769Y367D02*
X776Y367D01*
X817Y367D02*
X823Y367D01*
X826Y367D02*
X848Y367D01*
X894Y367D02*
X900Y367D01*
X768Y366D02*
X775Y366D01*
X817Y366D02*
X823Y366D01*
X825Y366D02*
X848Y366D01*
X894Y366D02*
X900Y366D01*
X768Y365D02*
X775Y365D01*
X817Y365D02*
X849Y365D01*
X894Y365D02*
X900Y365D01*
X767Y364D02*
X774Y364D01*
X817Y364D02*
X834Y364D01*
X841Y364D02*
X849Y364D01*
X894Y364D02*
X900Y364D01*
X767Y363D02*
X774Y363D01*
X817Y363D02*
X832Y363D01*
X843Y363D02*
X849Y363D01*
X894Y363D02*
X900Y363D01*
X767Y362D02*
X773Y362D01*
X817Y362D02*
X830Y362D01*
X843Y362D02*
X850Y362D01*
X871Y362D02*
X900Y362D01*
X767Y361D02*
X773Y361D01*
X817Y361D02*
X829Y361D01*
X844Y361D02*
X850Y361D01*
X869Y361D02*
X900Y361D01*
X767Y360D02*
X773Y360D01*
X817Y360D02*
X827Y360D01*
X844Y360D02*
X850Y360D01*
X868Y360D02*
X900Y360D01*
X767Y359D02*
X773Y359D01*
X817Y359D02*
X826Y359D01*
X844Y359D02*
X850Y359D01*
X868Y359D02*
X899Y359D01*
X767Y358D02*
X773Y358D01*
X817Y358D02*
X824Y358D01*
X844Y358D02*
X850Y358D01*
X867Y358D02*
X898Y358D01*
X767Y357D02*
X773Y357D01*
X817Y357D02*
X823Y357D01*
X844Y357D02*
X850Y357D01*
X867Y357D02*
X897Y357D01*
X767Y356D02*
X773Y356D01*
X817Y356D02*
X823Y356D01*
X844Y356D02*
X850Y356D01*
X867Y356D02*
X896Y356D01*
X767Y355D02*
X773Y355D01*
X817Y355D02*
X823Y355D01*
X844Y355D02*
X850Y355D01*
X867Y355D02*
X873Y355D01*
X767Y354D02*
X774Y354D01*
X817Y354D02*
X823Y354D01*
X844Y354D02*
X850Y354D01*
X867Y354D02*
X873Y354D01*
X768Y353D02*
X774Y353D01*
X817Y353D02*
X823Y353D01*
X844Y353D02*
X850Y353D01*
X867Y353D02*
X873Y353D01*
X768Y352D02*
X775Y352D01*
X817Y352D02*
X823Y352D01*
X844Y352D02*
X850Y352D01*
X867Y352D02*
X873Y352D01*
X769Y351D02*
X775Y351D01*
X817Y351D02*
X823Y351D01*
X844Y351D02*
X850Y351D01*
X867Y351D02*
X873Y351D01*
X769Y350D02*
X776Y350D01*
X817Y350D02*
X823Y350D01*
X844Y350D02*
X850Y350D01*
X867Y350D02*
X873Y350D01*
X769Y349D02*
X776Y349D01*
X817Y349D02*
X823Y349D01*
X844Y349D02*
X850Y349D01*
X867Y349D02*
X873Y349D01*
X770Y348D02*
X777Y348D01*
X817Y348D02*
X823Y348D01*
X844Y348D02*
X850Y348D01*
X867Y348D02*
X873Y348D01*
X770Y347D02*
X777Y347D01*
X817Y347D02*
X823Y347D01*
X844Y347D02*
X850Y347D01*
X867Y347D02*
X873Y347D01*
X771Y346D02*
X778Y346D01*
X817Y346D02*
X823Y346D01*
X844Y346D02*
X850Y346D01*
X867Y346D02*
X873Y346D01*
X771Y345D02*
X778Y345D01*
X817Y345D02*
X823Y345D01*
X844Y345D02*
X850Y345D01*
X867Y345D02*
X873Y345D01*
X772Y344D02*
X779Y344D01*
X817Y344D02*
X823Y344D01*
X844Y344D02*
X850Y344D01*
X867Y344D02*
X873Y344D01*
X772Y343D02*
X779Y343D01*
X817Y343D02*
X823Y343D01*
X844Y343D02*
X850Y343D01*
X867Y343D02*
X873Y343D01*
X773Y342D02*
X780Y342D01*
X817Y342D02*
X823Y342D01*
X844Y342D02*
X850Y342D01*
X867Y342D02*
X873Y342D01*
X774Y341D02*
X780Y341D01*
X817Y341D02*
X823Y341D01*
X844Y341D02*
X850Y341D01*
X867Y341D02*
X873Y341D01*
X774Y340D02*
X781Y340D01*
X817Y340D02*
X823Y340D01*
X844Y340D02*
X850Y340D01*
X867Y340D02*
X873Y340D01*
X775Y339D02*
X782Y339D01*
X817Y339D02*
X823Y339D01*
X844Y339D02*
X850Y339D01*
X867Y339D02*
X873Y339D01*
X775Y338D02*
X799Y338D01*
X817Y338D02*
X823Y338D01*
X844Y338D02*
X850Y338D01*
X867Y338D02*
X899Y338D01*
X776Y337D02*
X800Y337D01*
X817Y337D02*
X823Y337D01*
X844Y337D02*
X850Y337D01*
X867Y337D02*
X900Y337D01*
X776Y336D02*
X800Y336D01*
X817Y336D02*
X823Y336D01*
X844Y336D02*
X850Y336D01*
X867Y336D02*
X900Y336D01*
X777Y335D02*
X800Y335D01*
X817Y335D02*
X823Y335D01*
X844Y335D02*
X850Y335D01*
X867Y335D02*
X900Y335D01*
X778Y334D02*
X800Y334D01*
X817Y334D02*
X822Y334D01*
X844Y334D02*
X849Y334D01*
X867Y334D02*
X900Y334D01*
X780Y333D02*
X799Y333D01*
X817Y333D02*
X822Y333D01*
X844Y333D02*
X849Y333D01*
X867Y333D02*
X899Y333D01*
X783Y332D02*
X798Y332D01*
X819Y332D02*
X820Y332D01*
X846Y332D02*
X847Y332D01*
X867Y332D02*
X898Y332D01*
X781Y191D02*
X798Y191D01*
X818Y191D02*
X821Y191D01*
X868Y191D02*
X886Y191D01*
X779Y190D02*
X799Y190D01*
X817Y190D02*
X822Y190D01*
X867Y190D02*
X886Y190D01*
X778Y189D02*
X800Y189D01*
X817Y189D02*
X822Y189D01*
X867Y189D02*
X886Y189D01*
X777Y188D02*
X800Y188D01*
X817Y188D02*
X823Y188D01*
X867Y188D02*
X886Y188D01*
X776Y187D02*
X800Y187D01*
X817Y187D02*
X823Y187D01*
X867Y187D02*
X886Y187D01*
X775Y186D02*
X799Y186D01*
X817Y186D02*
X823Y186D01*
X867Y186D02*
X886Y186D01*
X775Y185D02*
X798Y185D01*
X817Y185D02*
X823Y185D01*
X868Y185D02*
X886Y185D01*
X774Y184D02*
X782Y184D01*
X817Y184D02*
X823Y184D01*
X880Y184D02*
X886Y184D01*
X774Y183D02*
X781Y183D01*
X817Y183D02*
X823Y183D01*
X880Y183D02*
X886Y183D01*
X773Y182D02*
X780Y182D01*
X817Y182D02*
X823Y182D01*
X880Y182D02*
X886Y182D01*
X773Y181D02*
X780Y181D01*
X817Y181D02*
X823Y181D01*
X880Y181D02*
X886Y181D01*
X772Y180D02*
X779Y180D01*
X817Y180D02*
X823Y180D01*
X880Y180D02*
X886Y180D01*
X772Y179D02*
X779Y179D01*
X817Y179D02*
X823Y179D01*
X880Y179D02*
X886Y179D01*
X771Y178D02*
X778Y178D01*
X817Y178D02*
X823Y178D01*
X880Y178D02*
X886Y178D01*
X771Y177D02*
X778Y177D01*
X817Y177D02*
X823Y177D01*
X880Y177D02*
X886Y177D01*
X770Y176D02*
X777Y176D01*
X817Y176D02*
X823Y176D01*
X832Y176D02*
X843Y176D01*
X880Y176D02*
X886Y176D01*
X770Y175D02*
X777Y175D01*
X817Y175D02*
X823Y175D01*
X830Y175D02*
X845Y175D01*
X880Y175D02*
X886Y175D01*
X769Y174D02*
X776Y174D01*
X817Y174D02*
X823Y174D01*
X829Y174D02*
X846Y174D01*
X880Y174D02*
X886Y174D01*
X769Y173D02*
X776Y173D01*
X817Y173D02*
X823Y173D01*
X827Y173D02*
X847Y173D01*
X880Y173D02*
X886Y173D01*
X768Y172D02*
X775Y172D01*
X817Y172D02*
X823Y172D01*
X825Y172D02*
X848Y172D01*
X880Y172D02*
X886Y172D01*
X768Y171D02*
X775Y171D01*
X817Y171D02*
X849Y171D01*
X880Y171D02*
X886Y171D01*
X768Y170D02*
X774Y170D01*
X817Y170D02*
X849Y170D01*
X880Y170D02*
X886Y170D01*
X767Y169D02*
X774Y169D01*
X817Y169D02*
X833Y169D01*
X842Y169D02*
X849Y169D01*
X880Y169D02*
X886Y169D01*
X767Y168D02*
X773Y168D01*
X817Y168D02*
X831Y168D01*
X843Y168D02*
X849Y168D01*
X880Y168D02*
X886Y168D01*
X767Y167D02*
X773Y167D01*
X817Y167D02*
X830Y167D01*
X844Y167D02*
X850Y167D01*
X880Y167D02*
X886Y167D01*
X767Y166D02*
X773Y166D01*
X817Y166D02*
X828Y166D01*
X844Y166D02*
X850Y166D01*
X880Y166D02*
X886Y166D01*
X767Y165D02*
X773Y165D01*
X817Y165D02*
X826Y165D01*
X844Y165D02*
X850Y165D01*
X880Y165D02*
X886Y165D01*
X767Y164D02*
X773Y164D01*
X817Y164D02*
X825Y164D01*
X844Y164D02*
X850Y164D01*
X880Y164D02*
X886Y164D01*
X767Y163D02*
X773Y163D01*
X817Y163D02*
X823Y163D01*
X844Y163D02*
X850Y163D01*
X880Y163D02*
X886Y163D01*
X767Y162D02*
X773Y162D01*
X817Y162D02*
X823Y162D01*
X844Y162D02*
X850Y162D01*
X880Y162D02*
X886Y162D01*
X897Y162D02*
X897Y162D01*
X767Y161D02*
X773Y161D01*
X817Y161D02*
X823Y161D01*
X844Y161D02*
X850Y161D01*
X880Y161D02*
X886Y161D01*
X895Y161D02*
X899Y161D01*
X767Y160D02*
X774Y160D01*
X817Y160D02*
X823Y160D01*
X844Y160D02*
X850Y160D01*
X880Y160D02*
X886Y160D01*
X894Y160D02*
X900Y160D01*
X767Y159D02*
X774Y159D01*
X817Y159D02*
X823Y159D01*
X844Y159D02*
X850Y159D01*
X880Y159D02*
X886Y159D01*
X894Y159D02*
X900Y159D01*
X768Y158D02*
X775Y158D01*
X817Y158D02*
X823Y158D01*
X844Y158D02*
X850Y158D01*
X880Y158D02*
X886Y158D01*
X894Y158D02*
X900Y158D01*
X768Y157D02*
X775Y157D01*
X817Y157D02*
X823Y157D01*
X844Y157D02*
X850Y157D01*
X880Y157D02*
X886Y157D01*
X894Y157D02*
X900Y157D01*
X769Y156D02*
X776Y156D01*
X817Y156D02*
X823Y156D01*
X844Y156D02*
X850Y156D01*
X880Y156D02*
X886Y156D01*
X894Y156D02*
X900Y156D01*
X769Y155D02*
X776Y155D01*
X817Y155D02*
X823Y155D01*
X844Y155D02*
X850Y155D01*
X880Y155D02*
X886Y155D01*
X894Y155D02*
X900Y155D01*
X770Y154D02*
X777Y154D01*
X817Y154D02*
X823Y154D01*
X844Y154D02*
X850Y154D01*
X880Y154D02*
X886Y154D01*
X894Y154D02*
X900Y154D01*
X770Y153D02*
X777Y153D01*
X817Y153D02*
X823Y153D01*
X844Y153D02*
X850Y153D01*
X880Y153D02*
X886Y153D01*
X894Y153D02*
X900Y153D01*
X771Y152D02*
X778Y152D01*
X817Y152D02*
X823Y152D01*
X844Y152D02*
X850Y152D01*
X880Y152D02*
X886Y152D01*
X894Y152D02*
X900Y152D01*
X771Y151D02*
X778Y151D01*
X817Y151D02*
X823Y151D01*
X844Y151D02*
X850Y151D01*
X880Y151D02*
X886Y151D01*
X894Y151D02*
X900Y151D01*
X772Y150D02*
X779Y150D01*
X817Y150D02*
X823Y150D01*
X844Y150D02*
X850Y150D01*
X880Y150D02*
X886Y150D01*
X894Y150D02*
X900Y150D01*
X772Y149D02*
X779Y149D01*
X817Y149D02*
X823Y149D01*
X844Y149D02*
X850Y149D01*
X880Y149D02*
X886Y149D01*
X894Y149D02*
X900Y149D01*
X773Y148D02*
X780Y148D01*
X817Y148D02*
X823Y148D01*
X844Y148D02*
X850Y148D01*
X880Y148D02*
X886Y148D01*
X894Y148D02*
X900Y148D01*
X773Y147D02*
X780Y147D01*
X817Y147D02*
X823Y147D01*
X844Y147D02*
X850Y147D01*
X880Y147D02*
X886Y147D01*
X894Y147D02*
X900Y147D01*
X774Y146D02*
X781Y146D01*
X817Y146D02*
X823Y146D01*
X844Y146D02*
X850Y146D01*
X880Y146D02*
X886Y146D01*
X894Y146D02*
X900Y146D01*
X774Y145D02*
X782Y145D01*
X817Y145D02*
X823Y145D01*
X844Y145D02*
X850Y145D01*
X880Y145D02*
X886Y145D01*
X894Y145D02*
X900Y145D01*
X775Y144D02*
X798Y144D01*
X817Y144D02*
X823Y144D01*
X844Y144D02*
X850Y144D01*
X868Y144D02*
X900Y144D01*
X775Y143D02*
X799Y143D01*
X817Y143D02*
X823Y143D01*
X844Y143D02*
X850Y143D01*
X867Y143D02*
X900Y143D01*
X776Y142D02*
X800Y142D01*
X817Y142D02*
X823Y142D01*
X844Y142D02*
X850Y142D01*
X867Y142D02*
X900Y142D01*
X777Y141D02*
X800Y141D01*
X817Y141D02*
X823Y141D01*
X844Y141D02*
X850Y141D01*
X867Y141D02*
X900Y141D01*
X778Y140D02*
X800Y140D01*
X817Y140D02*
X822Y140D01*
X844Y140D02*
X849Y140D01*
X867Y140D02*
X900Y140D01*
X779Y139D02*
X800Y139D01*
X817Y139D02*
X822Y139D01*
X844Y139D02*
X849Y139D01*
X867Y139D02*
X900Y139D01*
X781Y138D02*
X799Y138D01*
X818Y138D02*
X821Y138D01*
X845Y138D02*
X848Y138D01*
X868Y138D02*
X899Y138D01*
D02*
G04 End of Silk1*
M02*