G04 MADE WITH FRITZING*
G04 WWW.FRITZING.ORG*
G04 DOUBLE SIDED*
G04 HOLES PLATED*
G04 CONTOUR ON CENTER OF CONTOUR VECTOR*
%ASAXBY*%
%FSLAX23Y23*%
%MOIN*%
%OFA0B0*%
%SFA1.0B1.0*%
%ADD10C,0.075000*%
%ADD11C,0.075833*%
%ADD12C,0.059000*%
%ADD13C,0.078000*%
%ADD14R,0.059000X0.059000*%
%ADD15R,0.078000X0.078000*%
%ADD16C,0.024000*%
%LNCOPPER0*%
G90*
G70*
G54D10*
X1877Y2140D03*
X126Y2231D03*
G54D11*
X2049Y2140D03*
X2049Y2040D03*
X2049Y1933D03*
X2049Y1833D03*
X2049Y1733D03*
X2049Y1633D03*
X2049Y1533D03*
X2049Y1433D03*
X2049Y1333D03*
X2049Y1233D03*
X2049Y1063D03*
X2049Y963D03*
X2049Y863D03*
X2049Y763D03*
X2049Y663D03*
X2049Y563D03*
X2049Y463D03*
X2049Y363D03*
X149Y1763D03*
X149Y1663D03*
X149Y1563D03*
X149Y1463D03*
X149Y1363D03*
X149Y1263D03*
X149Y1163D03*
X149Y1063D03*
X149Y863D03*
X149Y763D03*
X149Y663D03*
X149Y563D03*
X149Y463D03*
X149Y363D03*
G54D12*
X1249Y163D03*
X1149Y163D03*
X1049Y163D03*
X1249Y363D03*
X1149Y363D03*
X1049Y363D03*
X1249Y563D03*
X1149Y563D03*
X1049Y563D03*
X1249Y763D03*
X1149Y763D03*
X1049Y763D03*
X1249Y963D03*
X1149Y963D03*
X1049Y963D03*
X1249Y1163D03*
X1149Y1163D03*
X1049Y1163D03*
X1249Y1863D03*
X1149Y1863D03*
X1049Y1863D03*
X1249Y1363D03*
X1149Y1363D03*
X1049Y1363D03*
X1249Y1563D03*
X1149Y1563D03*
X1049Y1563D03*
G54D13*
X1749Y2063D03*
X1749Y1963D03*
X1749Y1863D03*
G54D14*
X1249Y163D03*
X1249Y363D03*
X1249Y563D03*
X1249Y763D03*
X1249Y963D03*
X1249Y1163D03*
X1249Y1863D03*
X1249Y1363D03*
X1249Y1563D03*
G54D15*
X1749Y2063D03*
G54D16*
X1652Y1062D02*
X2021Y1063D01*
D02*
X1652Y1160D02*
X1652Y1062D01*
D02*
X1279Y1163D02*
X1652Y1160D01*
D02*
X1652Y864D02*
X2021Y863D01*
D02*
X1279Y763D02*
X1652Y765D01*
D02*
X1652Y765D02*
X1652Y864D01*
D02*
X1750Y765D02*
X2021Y763D01*
D02*
X1750Y563D02*
X1750Y765D01*
D02*
X1279Y563D02*
X1750Y563D01*
D02*
X1849Y360D02*
X1279Y363D01*
D02*
X1849Y662D02*
X1849Y360D01*
D02*
X2021Y663D02*
X1849Y662D01*
D02*
X1279Y163D02*
X1948Y163D01*
D02*
X1948Y163D02*
X1948Y563D01*
D02*
X1948Y563D02*
X2021Y563D01*
D02*
X1049Y1392D02*
X1049Y1533D01*
D02*
X1049Y1333D02*
X1049Y1192D01*
D02*
X1049Y1133D02*
X1049Y992D01*
D02*
X1049Y933D02*
X1049Y792D01*
D02*
X1049Y733D02*
X1049Y592D01*
D02*
X1049Y533D02*
X1049Y392D01*
D02*
X1049Y333D02*
X1049Y192D01*
D02*
X1149Y333D02*
X1149Y192D01*
D02*
X1149Y533D02*
X1149Y392D01*
D02*
X1149Y733D02*
X1149Y592D01*
D02*
X1149Y933D02*
X1149Y792D01*
D02*
X1149Y1133D02*
X1149Y992D01*
D02*
X1149Y1333D02*
X1149Y1192D01*
D02*
X1149Y1392D02*
X1149Y1533D01*
D02*
X1649Y1963D02*
X1719Y1963D01*
D02*
X1649Y1863D02*
X1649Y1963D01*
D02*
X1279Y1863D02*
X1649Y1863D01*
D02*
X2150Y2261D02*
X1750Y2261D01*
D02*
X1750Y2261D02*
X1749Y2093D01*
D02*
X2150Y1264D02*
X2150Y2261D01*
D02*
X2076Y1241D02*
X2150Y1264D01*
D02*
X1149Y1833D02*
X1149Y192D01*
D02*
X1049Y192D02*
X1049Y1833D01*
D02*
X1019Y1363D02*
X177Y1363D01*
D02*
X1279Y963D02*
X2021Y963D01*
D02*
X1849Y1560D02*
X1279Y1563D01*
D02*
X1849Y1363D02*
X1849Y1560D01*
D02*
X2021Y1337D02*
X1849Y1363D01*
D02*
X1750Y1264D02*
X1750Y1363D01*
D02*
X1750Y1363D02*
X1279Y1363D01*
D02*
X2021Y1236D02*
X1750Y1264D01*
D02*
X1148Y1763D02*
X1149Y1833D01*
D02*
X2022Y1840D02*
X1948Y1861D01*
D02*
X1948Y1763D02*
X1148Y1763D01*
D02*
X1948Y1861D02*
X1948Y1763D01*
G36*
X1794Y2218D02*
X1794Y2134D01*
X1820Y2134D01*
X1820Y1946D01*
X1818Y1946D01*
X1818Y1940D01*
X1816Y1940D01*
X1816Y1934D01*
X1814Y1934D01*
X1814Y1930D01*
X1812Y1930D01*
X1812Y1928D01*
X1810Y1928D01*
X1810Y1924D01*
X1808Y1924D01*
X1808Y1902D01*
X1810Y1902D01*
X1810Y1900D01*
X1812Y1900D01*
X1812Y1896D01*
X1814Y1896D01*
X1814Y1892D01*
X1816Y1892D01*
X1816Y1886D01*
X1818Y1886D01*
X1818Y1880D01*
X1820Y1880D01*
X1820Y1846D01*
X1818Y1846D01*
X1818Y1840D01*
X1816Y1840D01*
X1816Y1834D01*
X1814Y1834D01*
X1814Y1830D01*
X1812Y1830D01*
X1812Y1828D01*
X1810Y1828D01*
X1810Y1824D01*
X1808Y1824D01*
X1808Y1822D01*
X1806Y1822D01*
X1806Y1818D01*
X1804Y1818D01*
X1804Y1816D01*
X1802Y1816D01*
X1802Y1814D01*
X1800Y1814D01*
X1800Y1812D01*
X1798Y1812D01*
X1798Y1810D01*
X1796Y1810D01*
X1796Y1808D01*
X1794Y1808D01*
X1794Y1806D01*
X1790Y1806D01*
X1790Y1804D01*
X1788Y1804D01*
X1788Y1802D01*
X1784Y1802D01*
X1784Y1800D01*
X1782Y1800D01*
X1782Y1798D01*
X1776Y1798D01*
X1776Y1796D01*
X1772Y1796D01*
X1772Y1794D01*
X1764Y1794D01*
X1764Y1792D01*
X1992Y1792D01*
X1992Y1794D01*
X1990Y1794D01*
X1990Y1796D01*
X1988Y1796D01*
X1988Y1800D01*
X1986Y1800D01*
X1986Y1804D01*
X1984Y1804D01*
X1984Y1808D01*
X1982Y1808D01*
X1982Y1814D01*
X1980Y1814D01*
X1980Y1854D01*
X1982Y1854D01*
X1982Y1858D01*
X1984Y1858D01*
X1984Y1864D01*
X1986Y1864D01*
X1986Y1866D01*
X1988Y1866D01*
X1988Y1870D01*
X1990Y1870D01*
X1990Y1874D01*
X1992Y1874D01*
X1992Y1894D01*
X1990Y1894D01*
X1990Y1896D01*
X1988Y1896D01*
X1988Y1900D01*
X1986Y1900D01*
X1986Y1904D01*
X1984Y1904D01*
X1984Y1908D01*
X1982Y1908D01*
X1982Y1914D01*
X1980Y1914D01*
X1980Y1954D01*
X1982Y1954D01*
X1982Y1958D01*
X1984Y1958D01*
X1984Y1964D01*
X1986Y1964D01*
X1986Y1966D01*
X1988Y1966D01*
X1988Y1970D01*
X1990Y1970D01*
X1990Y1974D01*
X1992Y1974D01*
X1992Y1976D01*
X1994Y1976D01*
X1994Y1998D01*
X1992Y1998D01*
X1992Y2000D01*
X1990Y2000D01*
X1990Y2004D01*
X1988Y2004D01*
X1988Y2006D01*
X1986Y2006D01*
X1986Y2010D01*
X1984Y2010D01*
X1984Y2014D01*
X1982Y2014D01*
X1982Y2020D01*
X1980Y2020D01*
X1980Y2060D01*
X1982Y2060D01*
X1982Y2066D01*
X1984Y2066D01*
X1984Y2070D01*
X1986Y2070D01*
X1986Y2074D01*
X1988Y2074D01*
X1988Y2078D01*
X1990Y2078D01*
X1990Y2080D01*
X1992Y2080D01*
X1992Y2100D01*
X1990Y2100D01*
X1990Y2104D01*
X1988Y2104D01*
X1988Y2106D01*
X1986Y2106D01*
X1986Y2110D01*
X1984Y2110D01*
X1984Y2114D01*
X1982Y2114D01*
X1982Y2120D01*
X1980Y2120D01*
X1980Y2160D01*
X1982Y2160D01*
X1982Y2166D01*
X1984Y2166D01*
X1984Y2170D01*
X1986Y2170D01*
X1986Y2174D01*
X1988Y2174D01*
X1988Y2178D01*
X1990Y2178D01*
X1990Y2180D01*
X1992Y2180D01*
X1992Y2182D01*
X1994Y2182D01*
X1994Y2186D01*
X1996Y2186D01*
X1996Y2188D01*
X1998Y2188D01*
X1998Y2190D01*
X2000Y2190D01*
X2000Y2192D01*
X2002Y2192D01*
X2002Y2194D01*
X2006Y2194D01*
X2006Y2196D01*
X2008Y2196D01*
X2008Y2198D01*
X2010Y2198D01*
X2010Y2218D01*
X1794Y2218D01*
G37*
D02*
G36*
X1668Y1822D02*
X1668Y1820D01*
X1310Y1820D01*
X1310Y1802D01*
X1710Y1802D01*
X1710Y1804D01*
X1708Y1804D01*
X1708Y1806D01*
X1704Y1806D01*
X1704Y1808D01*
X1702Y1808D01*
X1702Y1810D01*
X1700Y1810D01*
X1700Y1812D01*
X1698Y1812D01*
X1698Y1814D01*
X1696Y1814D01*
X1696Y1816D01*
X1694Y1816D01*
X1694Y1818D01*
X1692Y1818D01*
X1692Y1822D01*
X1668Y1822D01*
G37*
D02*
G36*
X1094Y1812D02*
X1094Y1802D01*
X1132Y1802D01*
X1132Y1804D01*
X1126Y1804D01*
X1126Y1806D01*
X1122Y1806D01*
X1122Y1808D01*
X1118Y1808D01*
X1118Y1810D01*
X1114Y1810D01*
X1114Y1812D01*
X1094Y1812D01*
G37*
D02*
G36*
X1166Y1804D02*
X1166Y1802D01*
X1188Y1802D01*
X1188Y1804D01*
X1166Y1804D01*
G37*
D02*
G36*
X1094Y1802D02*
X1094Y1800D01*
X1714Y1800D01*
X1714Y1802D01*
X1094Y1802D01*
G37*
D02*
G36*
X1094Y1802D02*
X1094Y1800D01*
X1714Y1800D01*
X1714Y1802D01*
X1094Y1802D01*
G37*
D02*
G36*
X1094Y1802D02*
X1094Y1800D01*
X1714Y1800D01*
X1714Y1802D01*
X1094Y1802D01*
G37*
D02*
G36*
X1094Y1800D02*
X1094Y1792D01*
X1734Y1792D01*
X1734Y1794D01*
X1726Y1794D01*
X1726Y1796D01*
X1722Y1796D01*
X1722Y1798D01*
X1718Y1798D01*
X1718Y1800D01*
X1094Y1800D01*
G37*
D02*
G36*
X1094Y1792D02*
X1094Y1790D01*
X1992Y1790D01*
X1992Y1792D01*
X1094Y1792D01*
G37*
D02*
G36*
X1094Y1792D02*
X1094Y1790D01*
X1992Y1790D01*
X1992Y1792D01*
X1094Y1792D01*
G37*
D02*
G36*
X1094Y1790D02*
X1094Y1624D01*
X1310Y1624D01*
X1310Y1606D01*
X1790Y1606D01*
X1790Y1604D01*
X1868Y1604D01*
X1868Y1602D01*
X1872Y1602D01*
X1872Y1600D01*
X1876Y1600D01*
X1876Y1598D01*
X1878Y1598D01*
X1878Y1596D01*
X1880Y1596D01*
X1880Y1594D01*
X1884Y1594D01*
X1884Y1590D01*
X1886Y1590D01*
X1886Y1588D01*
X1888Y1588D01*
X1888Y1584D01*
X1890Y1584D01*
X1890Y1580D01*
X1892Y1580D01*
X1892Y1568D01*
X1894Y1568D01*
X1894Y1402D01*
X1900Y1402D01*
X1900Y1400D01*
X1914Y1400D01*
X1914Y1398D01*
X1926Y1398D01*
X1926Y1396D01*
X1940Y1396D01*
X1940Y1394D01*
X1954Y1394D01*
X1954Y1392D01*
X1984Y1392D01*
X1984Y1408D01*
X1982Y1408D01*
X1982Y1414D01*
X1980Y1414D01*
X1980Y1454D01*
X1982Y1454D01*
X1982Y1458D01*
X1984Y1458D01*
X1984Y1464D01*
X1986Y1464D01*
X1986Y1466D01*
X1988Y1466D01*
X1988Y1470D01*
X1990Y1470D01*
X1990Y1474D01*
X1992Y1474D01*
X1992Y1494D01*
X1990Y1494D01*
X1990Y1496D01*
X1988Y1496D01*
X1988Y1500D01*
X1986Y1500D01*
X1986Y1504D01*
X1984Y1504D01*
X1984Y1508D01*
X1982Y1508D01*
X1982Y1514D01*
X1980Y1514D01*
X1980Y1554D01*
X1982Y1554D01*
X1982Y1558D01*
X1984Y1558D01*
X1984Y1564D01*
X1986Y1564D01*
X1986Y1566D01*
X1988Y1566D01*
X1988Y1570D01*
X1990Y1570D01*
X1990Y1574D01*
X1992Y1574D01*
X1992Y1594D01*
X1990Y1594D01*
X1990Y1596D01*
X1988Y1596D01*
X1988Y1600D01*
X1986Y1600D01*
X1986Y1604D01*
X1984Y1604D01*
X1984Y1608D01*
X1982Y1608D01*
X1982Y1614D01*
X1980Y1614D01*
X1980Y1654D01*
X1982Y1654D01*
X1982Y1658D01*
X1984Y1658D01*
X1984Y1664D01*
X1986Y1664D01*
X1986Y1666D01*
X1988Y1666D01*
X1988Y1670D01*
X1990Y1670D01*
X1990Y1674D01*
X1992Y1674D01*
X1992Y1694D01*
X1990Y1694D01*
X1990Y1696D01*
X1988Y1696D01*
X1988Y1700D01*
X1986Y1700D01*
X1986Y1704D01*
X1984Y1704D01*
X1984Y1708D01*
X1982Y1708D01*
X1982Y1714D01*
X1980Y1714D01*
X1980Y1754D01*
X1982Y1754D01*
X1982Y1758D01*
X1984Y1758D01*
X1984Y1764D01*
X1986Y1764D01*
X1986Y1766D01*
X1988Y1766D01*
X1988Y1770D01*
X1990Y1770D01*
X1990Y1774D01*
X1992Y1774D01*
X1992Y1790D01*
X1094Y1790D01*
G37*
D02*
G36*
X1094Y1624D02*
X1094Y1614D01*
X1114Y1614D01*
X1114Y1616D01*
X1118Y1616D01*
X1118Y1618D01*
X1120Y1618D01*
X1120Y1620D01*
X1126Y1620D01*
X1126Y1622D01*
X1130Y1622D01*
X1130Y1624D01*
X1094Y1624D01*
G37*
D02*
G36*
X1168Y1624D02*
X1168Y1622D01*
X1188Y1622D01*
X1188Y1624D01*
X1168Y1624D01*
G37*
D02*
G36*
X1310Y1518D02*
X1310Y1502D01*
X1806Y1502D01*
X1806Y1516D01*
X1772Y1516D01*
X1772Y1518D01*
X1310Y1518D01*
G37*
D02*
G36*
X1094Y1512D02*
X1094Y1502D01*
X1132Y1502D01*
X1132Y1504D01*
X1126Y1504D01*
X1126Y1506D01*
X1122Y1506D01*
X1122Y1508D01*
X1118Y1508D01*
X1118Y1510D01*
X1114Y1510D01*
X1114Y1512D01*
X1094Y1512D01*
G37*
D02*
G36*
X1166Y1504D02*
X1166Y1502D01*
X1188Y1502D01*
X1188Y1504D01*
X1166Y1504D01*
G37*
D02*
G36*
X1094Y1502D02*
X1094Y1500D01*
X1806Y1500D01*
X1806Y1502D01*
X1094Y1502D01*
G37*
D02*
G36*
X1094Y1502D02*
X1094Y1500D01*
X1806Y1500D01*
X1806Y1502D01*
X1094Y1502D01*
G37*
D02*
G36*
X1094Y1502D02*
X1094Y1500D01*
X1806Y1500D01*
X1806Y1502D01*
X1094Y1502D01*
G37*
D02*
G36*
X1094Y1500D02*
X1094Y1424D01*
X1310Y1424D01*
X1310Y1408D01*
X1760Y1408D01*
X1760Y1406D01*
X1770Y1406D01*
X1770Y1404D01*
X1774Y1404D01*
X1774Y1402D01*
X1778Y1402D01*
X1778Y1400D01*
X1780Y1400D01*
X1780Y1398D01*
X1782Y1398D01*
X1782Y1396D01*
X1784Y1396D01*
X1784Y1394D01*
X1786Y1394D01*
X1786Y1392D01*
X1806Y1392D01*
X1806Y1500D01*
X1094Y1500D01*
G37*
D02*
G36*
X1094Y1424D02*
X1094Y1414D01*
X1114Y1414D01*
X1114Y1416D01*
X1118Y1416D01*
X1118Y1418D01*
X1120Y1418D01*
X1120Y1420D01*
X1126Y1420D01*
X1126Y1422D01*
X1130Y1422D01*
X1130Y1424D01*
X1094Y1424D01*
G37*
D02*
G36*
X1168Y1424D02*
X1168Y1422D01*
X1188Y1422D01*
X1188Y1424D01*
X1168Y1424D01*
G37*
D02*
G36*
X1310Y1118D02*
X1310Y1102D01*
X1608Y1102D01*
X1608Y1116D01*
X1598Y1116D01*
X1598Y1118D01*
X1310Y1118D01*
G37*
D02*
G36*
X1094Y1112D02*
X1094Y1102D01*
X1132Y1102D01*
X1132Y1104D01*
X1126Y1104D01*
X1126Y1106D01*
X1122Y1106D01*
X1122Y1108D01*
X1118Y1108D01*
X1118Y1110D01*
X1114Y1110D01*
X1114Y1112D01*
X1094Y1112D01*
G37*
D02*
G36*
X1166Y1104D02*
X1166Y1102D01*
X1188Y1102D01*
X1188Y1104D01*
X1166Y1104D01*
G37*
D02*
G36*
X1094Y1102D02*
X1094Y1100D01*
X1608Y1100D01*
X1608Y1102D01*
X1094Y1102D01*
G37*
D02*
G36*
X1094Y1102D02*
X1094Y1100D01*
X1608Y1100D01*
X1608Y1102D01*
X1094Y1102D01*
G37*
D02*
G36*
X1094Y1102D02*
X1094Y1100D01*
X1608Y1100D01*
X1608Y1102D01*
X1094Y1102D01*
G37*
D02*
G36*
X1094Y1100D02*
X1094Y1024D01*
X1310Y1024D01*
X1310Y1008D01*
X1620Y1008D01*
X1620Y1028D01*
X1618Y1028D01*
X1618Y1030D01*
X1616Y1030D01*
X1616Y1032D01*
X1614Y1032D01*
X1614Y1036D01*
X1612Y1036D01*
X1612Y1040D01*
X1610Y1040D01*
X1610Y1044D01*
X1608Y1044D01*
X1608Y1100D01*
X1094Y1100D01*
G37*
D02*
G36*
X1094Y1024D02*
X1094Y1014D01*
X1114Y1014D01*
X1114Y1016D01*
X1118Y1016D01*
X1118Y1018D01*
X1120Y1018D01*
X1120Y1020D01*
X1126Y1020D01*
X1126Y1022D01*
X1130Y1022D01*
X1130Y1024D01*
X1094Y1024D01*
G37*
D02*
G36*
X1168Y1024D02*
X1168Y1022D01*
X1188Y1022D01*
X1188Y1024D01*
X1168Y1024D01*
G37*
D02*
G36*
X1310Y920D02*
X1310Y902D01*
X1622Y902D01*
X1622Y920D01*
X1310Y920D01*
G37*
D02*
G36*
X1094Y912D02*
X1094Y902D01*
X1132Y902D01*
X1132Y904D01*
X1126Y904D01*
X1126Y906D01*
X1122Y906D01*
X1122Y908D01*
X1118Y908D01*
X1118Y910D01*
X1114Y910D01*
X1114Y912D01*
X1094Y912D01*
G37*
D02*
G36*
X1166Y904D02*
X1166Y902D01*
X1188Y902D01*
X1188Y904D01*
X1166Y904D01*
G37*
D02*
G36*
X1094Y902D02*
X1094Y900D01*
X1622Y900D01*
X1622Y902D01*
X1094Y902D01*
G37*
D02*
G36*
X1094Y902D02*
X1094Y900D01*
X1622Y900D01*
X1622Y902D01*
X1094Y902D01*
G37*
D02*
G36*
X1094Y902D02*
X1094Y900D01*
X1622Y900D01*
X1622Y902D01*
X1094Y902D01*
G37*
D02*
G36*
X1094Y900D02*
X1094Y824D01*
X1310Y824D01*
X1310Y808D01*
X1536Y808D01*
X1536Y810D01*
X1608Y810D01*
X1608Y882D01*
X1610Y882D01*
X1610Y888D01*
X1612Y888D01*
X1612Y890D01*
X1614Y890D01*
X1614Y894D01*
X1616Y894D01*
X1616Y896D01*
X1618Y896D01*
X1618Y898D01*
X1620Y898D01*
X1620Y900D01*
X1094Y900D01*
G37*
D02*
G36*
X1094Y824D02*
X1094Y814D01*
X1114Y814D01*
X1114Y816D01*
X1118Y816D01*
X1118Y818D01*
X1120Y818D01*
X1120Y820D01*
X1126Y820D01*
X1126Y822D01*
X1130Y822D01*
X1130Y824D01*
X1094Y824D01*
G37*
D02*
G36*
X1168Y824D02*
X1168Y822D01*
X1188Y822D01*
X1188Y824D01*
X1168Y824D01*
G37*
D02*
G36*
X1686Y736D02*
X1686Y732D01*
X1684Y732D01*
X1684Y730D01*
X1680Y730D01*
X1680Y728D01*
X1678Y728D01*
X1678Y726D01*
X1674Y726D01*
X1674Y724D01*
X1668Y724D01*
X1668Y722D01*
X1552Y722D01*
X1552Y720D01*
X1310Y720D01*
X1310Y702D01*
X1706Y702D01*
X1706Y736D01*
X1686Y736D01*
G37*
D02*
G36*
X1094Y712D02*
X1094Y702D01*
X1132Y702D01*
X1132Y704D01*
X1126Y704D01*
X1126Y706D01*
X1122Y706D01*
X1122Y708D01*
X1118Y708D01*
X1118Y710D01*
X1114Y710D01*
X1114Y712D01*
X1094Y712D01*
G37*
D02*
G36*
X1166Y704D02*
X1166Y702D01*
X1188Y702D01*
X1188Y704D01*
X1166Y704D01*
G37*
D02*
G36*
X1094Y702D02*
X1094Y700D01*
X1706Y700D01*
X1706Y702D01*
X1094Y702D01*
G37*
D02*
G36*
X1094Y702D02*
X1094Y700D01*
X1706Y700D01*
X1706Y702D01*
X1094Y702D01*
G37*
D02*
G36*
X1094Y702D02*
X1094Y700D01*
X1706Y700D01*
X1706Y702D01*
X1094Y702D01*
G37*
D02*
G36*
X1094Y700D02*
X1094Y624D01*
X1310Y624D01*
X1310Y608D01*
X1706Y608D01*
X1706Y700D01*
X1094Y700D01*
G37*
D02*
G36*
X1094Y624D02*
X1094Y614D01*
X1114Y614D01*
X1114Y616D01*
X1118Y616D01*
X1118Y618D01*
X1120Y618D01*
X1120Y620D01*
X1126Y620D01*
X1126Y622D01*
X1130Y622D01*
X1130Y624D01*
X1094Y624D01*
G37*
D02*
G36*
X1168Y624D02*
X1168Y622D01*
X1188Y622D01*
X1188Y624D01*
X1168Y624D01*
G37*
D02*
G36*
X1786Y534D02*
X1786Y532D01*
X1784Y532D01*
X1784Y530D01*
X1782Y530D01*
X1782Y528D01*
X1780Y528D01*
X1780Y526D01*
X1778Y526D01*
X1778Y524D01*
X1774Y524D01*
X1774Y522D01*
X1768Y522D01*
X1768Y520D01*
X1310Y520D01*
X1310Y502D01*
X1806Y502D01*
X1806Y534D01*
X1786Y534D01*
G37*
D02*
G36*
X1094Y512D02*
X1094Y502D01*
X1132Y502D01*
X1132Y504D01*
X1126Y504D01*
X1126Y506D01*
X1122Y506D01*
X1122Y508D01*
X1118Y508D01*
X1118Y510D01*
X1114Y510D01*
X1114Y512D01*
X1094Y512D01*
G37*
D02*
G36*
X1166Y504D02*
X1166Y502D01*
X1188Y502D01*
X1188Y504D01*
X1166Y504D01*
G37*
D02*
G36*
X1094Y502D02*
X1094Y500D01*
X1806Y500D01*
X1806Y502D01*
X1094Y502D01*
G37*
D02*
G36*
X1094Y502D02*
X1094Y500D01*
X1806Y500D01*
X1806Y502D01*
X1094Y502D01*
G37*
D02*
G36*
X1094Y502D02*
X1094Y500D01*
X1806Y500D01*
X1806Y502D01*
X1094Y502D01*
G37*
D02*
G36*
X1094Y500D02*
X1094Y424D01*
X1310Y424D01*
X1310Y406D01*
X1806Y406D01*
X1806Y500D01*
X1094Y500D01*
G37*
D02*
G36*
X1094Y424D02*
X1094Y414D01*
X1114Y414D01*
X1114Y416D01*
X1118Y416D01*
X1118Y418D01*
X1120Y418D01*
X1120Y420D01*
X1126Y420D01*
X1126Y422D01*
X1130Y422D01*
X1130Y424D01*
X1094Y424D01*
G37*
D02*
G36*
X1168Y424D02*
X1168Y422D01*
X1188Y422D01*
X1188Y424D01*
X1168Y424D01*
G37*
D02*
G36*
X1884Y330D02*
X1884Y328D01*
X1882Y328D01*
X1882Y326D01*
X1880Y326D01*
X1880Y324D01*
X1876Y324D01*
X1876Y322D01*
X1874Y322D01*
X1874Y320D01*
X1868Y320D01*
X1868Y318D01*
X1860Y318D01*
X1860Y316D01*
X1904Y316D01*
X1904Y330D01*
X1884Y330D01*
G37*
D02*
G36*
X1310Y318D02*
X1310Y316D01*
X1772Y316D01*
X1772Y318D01*
X1310Y318D01*
G37*
D02*
G36*
X1310Y316D02*
X1310Y314D01*
X1904Y314D01*
X1904Y316D01*
X1310Y316D01*
G37*
D02*
G36*
X1310Y316D02*
X1310Y314D01*
X1904Y314D01*
X1904Y316D01*
X1310Y316D01*
G37*
D02*
G36*
X1310Y314D02*
X1310Y302D01*
X1904Y302D01*
X1904Y314D01*
X1310Y314D01*
G37*
D02*
G36*
X1094Y312D02*
X1094Y302D01*
X1132Y302D01*
X1132Y304D01*
X1126Y304D01*
X1126Y306D01*
X1122Y306D01*
X1122Y308D01*
X1118Y308D01*
X1118Y310D01*
X1114Y310D01*
X1114Y312D01*
X1094Y312D01*
G37*
D02*
G36*
X1166Y304D02*
X1166Y302D01*
X1188Y302D01*
X1188Y304D01*
X1166Y304D01*
G37*
D02*
G36*
X1094Y302D02*
X1094Y300D01*
X1904Y300D01*
X1904Y302D01*
X1094Y302D01*
G37*
D02*
G36*
X1094Y302D02*
X1094Y300D01*
X1904Y300D01*
X1904Y302D01*
X1094Y302D01*
G37*
D02*
G36*
X1094Y302D02*
X1094Y300D01*
X1904Y300D01*
X1904Y302D01*
X1094Y302D01*
G37*
D02*
G36*
X1094Y300D02*
X1094Y224D01*
X1310Y224D01*
X1310Y208D01*
X1904Y208D01*
X1904Y300D01*
X1094Y300D01*
G37*
D02*
G36*
X1094Y224D02*
X1094Y214D01*
X1114Y214D01*
X1114Y216D01*
X1118Y216D01*
X1118Y218D01*
X1120Y218D01*
X1120Y220D01*
X1126Y220D01*
X1126Y222D01*
X1130Y222D01*
X1130Y224D01*
X1094Y224D01*
G37*
D02*
G36*
X1168Y224D02*
X1168Y222D01*
X1188Y222D01*
X1188Y224D01*
X1168Y224D01*
G37*
D02*
G36*
X44Y2344D02*
X44Y2306D01*
X2166Y2306D01*
X2166Y2304D01*
X2172Y2304D01*
X2172Y2302D01*
X2176Y2302D01*
X2176Y2300D01*
X2178Y2300D01*
X2178Y2298D01*
X2182Y2298D01*
X2182Y2296D01*
X2184Y2296D01*
X2184Y2294D01*
X2186Y2294D01*
X2186Y2290D01*
X2188Y2290D01*
X2188Y2288D01*
X2190Y2288D01*
X2190Y2284D01*
X2192Y2284D01*
X2192Y2278D01*
X2194Y2278D01*
X2194Y1248D01*
X2192Y1248D01*
X2192Y1242D01*
X2190Y1242D01*
X2190Y1238D01*
X2188Y1238D01*
X2188Y1236D01*
X2186Y1236D01*
X2186Y1232D01*
X2184Y1232D01*
X2184Y1230D01*
X2180Y1230D01*
X2180Y1228D01*
X2178Y1228D01*
X2178Y1226D01*
X2176Y1226D01*
X2176Y1224D01*
X2170Y1224D01*
X2170Y1222D01*
X2164Y1222D01*
X2164Y1220D01*
X2158Y1220D01*
X2158Y1218D01*
X2152Y1218D01*
X2152Y1216D01*
X2146Y1216D01*
X2146Y1214D01*
X2138Y1214D01*
X2138Y1212D01*
X2132Y1212D01*
X2132Y1210D01*
X2126Y1210D01*
X2126Y1208D01*
X2120Y1208D01*
X2120Y1206D01*
X2114Y1206D01*
X2114Y1204D01*
X2112Y1204D01*
X2112Y1200D01*
X2110Y1200D01*
X2110Y1196D01*
X2108Y1196D01*
X2108Y1194D01*
X2106Y1194D01*
X2106Y1190D01*
X2104Y1190D01*
X2104Y1188D01*
X2102Y1188D01*
X2102Y1186D01*
X2100Y1186D01*
X2100Y1184D01*
X2098Y1184D01*
X2098Y1182D01*
X2096Y1182D01*
X2096Y1180D01*
X2094Y1180D01*
X2094Y1178D01*
X2092Y1178D01*
X2092Y1176D01*
X2088Y1176D01*
X2088Y1174D01*
X2086Y1174D01*
X2086Y1172D01*
X2082Y1172D01*
X2082Y1170D01*
X2078Y1170D01*
X2078Y1168D01*
X2074Y1168D01*
X2074Y1166D01*
X2068Y1166D01*
X2068Y1164D01*
X2254Y1164D01*
X2254Y2344D01*
X44Y2344D01*
G37*
D02*
G36*
X44Y2306D02*
X44Y1924D01*
X1310Y1924D01*
X1310Y1908D01*
X1606Y1908D01*
X1606Y1982D01*
X1608Y1982D01*
X1608Y1986D01*
X1610Y1986D01*
X1610Y1990D01*
X1612Y1990D01*
X1612Y1994D01*
X1614Y1994D01*
X1614Y1996D01*
X1616Y1996D01*
X1616Y1998D01*
X1618Y1998D01*
X1618Y2000D01*
X1622Y2000D01*
X1622Y2002D01*
X1624Y2002D01*
X1624Y2004D01*
X1630Y2004D01*
X1630Y2006D01*
X1638Y2006D01*
X1638Y2008D01*
X1678Y2008D01*
X1678Y2134D01*
X1706Y2134D01*
X1706Y2276D01*
X1708Y2276D01*
X1708Y2284D01*
X1710Y2284D01*
X1710Y2288D01*
X1712Y2288D01*
X1712Y2290D01*
X1714Y2290D01*
X1714Y2292D01*
X1716Y2292D01*
X1716Y2296D01*
X1720Y2296D01*
X1720Y2298D01*
X1722Y2298D01*
X1722Y2300D01*
X1724Y2300D01*
X1724Y2302D01*
X1728Y2302D01*
X1728Y2304D01*
X1734Y2304D01*
X1734Y2306D01*
X44Y2306D01*
G37*
D02*
G36*
X44Y1924D02*
X44Y1834D01*
X158Y1834D01*
X158Y1832D01*
X170Y1832D01*
X170Y1830D01*
X176Y1830D01*
X176Y1828D01*
X180Y1828D01*
X180Y1826D01*
X184Y1826D01*
X184Y1824D01*
X186Y1824D01*
X186Y1822D01*
X190Y1822D01*
X190Y1820D01*
X192Y1820D01*
X192Y1818D01*
X194Y1818D01*
X194Y1816D01*
X196Y1816D01*
X196Y1814D01*
X198Y1814D01*
X198Y1812D01*
X200Y1812D01*
X200Y1810D01*
X202Y1810D01*
X202Y1808D01*
X204Y1808D01*
X204Y1806D01*
X206Y1806D01*
X206Y1804D01*
X208Y1804D01*
X208Y1800D01*
X210Y1800D01*
X210Y1796D01*
X212Y1796D01*
X212Y1794D01*
X214Y1794D01*
X214Y1788D01*
X216Y1788D01*
X216Y1784D01*
X218Y1784D01*
X218Y1744D01*
X216Y1744D01*
X216Y1738D01*
X214Y1738D01*
X214Y1734D01*
X212Y1734D01*
X212Y1730D01*
X210Y1730D01*
X210Y1726D01*
X208Y1726D01*
X208Y1724D01*
X206Y1724D01*
X206Y1704D01*
X208Y1704D01*
X208Y1700D01*
X210Y1700D01*
X210Y1696D01*
X212Y1696D01*
X212Y1694D01*
X214Y1694D01*
X214Y1688D01*
X216Y1688D01*
X216Y1684D01*
X218Y1684D01*
X218Y1644D01*
X216Y1644D01*
X216Y1638D01*
X214Y1638D01*
X214Y1634D01*
X212Y1634D01*
X212Y1630D01*
X210Y1630D01*
X210Y1626D01*
X208Y1626D01*
X208Y1624D01*
X206Y1624D01*
X206Y1604D01*
X208Y1604D01*
X208Y1600D01*
X210Y1600D01*
X210Y1596D01*
X212Y1596D01*
X212Y1594D01*
X214Y1594D01*
X214Y1588D01*
X216Y1588D01*
X216Y1584D01*
X218Y1584D01*
X218Y1544D01*
X216Y1544D01*
X216Y1538D01*
X214Y1538D01*
X214Y1534D01*
X212Y1534D01*
X212Y1530D01*
X210Y1530D01*
X210Y1526D01*
X208Y1526D01*
X208Y1524D01*
X206Y1524D01*
X206Y1504D01*
X208Y1504D01*
X208Y1500D01*
X210Y1500D01*
X210Y1496D01*
X212Y1496D01*
X212Y1494D01*
X214Y1494D01*
X214Y1488D01*
X216Y1488D01*
X216Y1484D01*
X218Y1484D01*
X218Y1444D01*
X216Y1444D01*
X216Y1438D01*
X214Y1438D01*
X214Y1434D01*
X212Y1434D01*
X212Y1430D01*
X210Y1430D01*
X210Y1408D01*
X1006Y1408D01*
X1006Y1520D01*
X1004Y1520D01*
X1004Y1522D01*
X1002Y1522D01*
X1002Y1524D01*
X1000Y1524D01*
X1000Y1526D01*
X998Y1526D01*
X998Y1528D01*
X996Y1528D01*
X996Y1532D01*
X994Y1532D01*
X994Y1536D01*
X992Y1536D01*
X992Y1540D01*
X990Y1540D01*
X990Y1546D01*
X988Y1546D01*
X988Y1580D01*
X990Y1580D01*
X990Y1586D01*
X992Y1586D01*
X992Y1590D01*
X994Y1590D01*
X994Y1594D01*
X996Y1594D01*
X996Y1598D01*
X998Y1598D01*
X998Y1600D01*
X1000Y1600D01*
X1000Y1602D01*
X1002Y1602D01*
X1002Y1604D01*
X1004Y1604D01*
X1004Y1608D01*
X1006Y1608D01*
X1006Y1820D01*
X1004Y1820D01*
X1004Y1822D01*
X1002Y1822D01*
X1002Y1824D01*
X1000Y1824D01*
X1000Y1826D01*
X998Y1826D01*
X998Y1828D01*
X996Y1828D01*
X996Y1832D01*
X994Y1832D01*
X994Y1836D01*
X992Y1836D01*
X992Y1840D01*
X990Y1840D01*
X990Y1846D01*
X988Y1846D01*
X988Y1880D01*
X990Y1880D01*
X990Y1886D01*
X992Y1886D01*
X992Y1890D01*
X994Y1890D01*
X994Y1894D01*
X996Y1894D01*
X996Y1898D01*
X998Y1898D01*
X998Y1900D01*
X1000Y1900D01*
X1000Y1902D01*
X1002Y1902D01*
X1002Y1904D01*
X1004Y1904D01*
X1004Y1908D01*
X1006Y1908D01*
X1006Y1910D01*
X1010Y1910D01*
X1010Y1912D01*
X1012Y1912D01*
X1012Y1914D01*
X1014Y1914D01*
X1014Y1916D01*
X1018Y1916D01*
X1018Y1918D01*
X1020Y1918D01*
X1020Y1920D01*
X1026Y1920D01*
X1026Y1922D01*
X1030Y1922D01*
X1030Y1924D01*
X44Y1924D01*
G37*
D02*
G36*
X1068Y1924D02*
X1068Y1922D01*
X1072Y1922D01*
X1072Y1920D01*
X1078Y1920D01*
X1078Y1918D01*
X1080Y1918D01*
X1080Y1916D01*
X1084Y1916D01*
X1084Y1914D01*
X1086Y1914D01*
X1086Y1912D01*
X1088Y1912D01*
X1088Y1910D01*
X1110Y1910D01*
X1110Y1912D01*
X1112Y1912D01*
X1112Y1914D01*
X1114Y1914D01*
X1114Y1916D01*
X1118Y1916D01*
X1118Y1918D01*
X1120Y1918D01*
X1120Y1920D01*
X1126Y1920D01*
X1126Y1922D01*
X1130Y1922D01*
X1130Y1924D01*
X1068Y1924D01*
G37*
D02*
G36*
X1168Y1924D02*
X1168Y1922D01*
X1188Y1922D01*
X1188Y1924D01*
X1168Y1924D01*
G37*
D02*
G36*
X44Y1834D02*
X44Y994D01*
X130Y994D01*
X130Y996D01*
X124Y996D01*
X124Y998D01*
X120Y998D01*
X120Y1000D01*
X116Y1000D01*
X116Y1002D01*
X112Y1002D01*
X112Y1004D01*
X110Y1004D01*
X110Y1006D01*
X106Y1006D01*
X106Y1008D01*
X104Y1008D01*
X104Y1010D01*
X102Y1010D01*
X102Y1012D01*
X100Y1012D01*
X100Y1014D01*
X98Y1014D01*
X98Y1016D01*
X96Y1016D01*
X96Y1018D01*
X94Y1018D01*
X94Y1020D01*
X92Y1020D01*
X92Y1024D01*
X90Y1024D01*
X90Y1026D01*
X88Y1026D01*
X88Y1030D01*
X86Y1030D01*
X86Y1034D01*
X84Y1034D01*
X84Y1038D01*
X82Y1038D01*
X82Y1044D01*
X80Y1044D01*
X80Y1084D01*
X82Y1084D01*
X82Y1088D01*
X84Y1088D01*
X84Y1094D01*
X86Y1094D01*
X86Y1096D01*
X88Y1096D01*
X88Y1100D01*
X90Y1100D01*
X90Y1104D01*
X92Y1104D01*
X92Y1124D01*
X90Y1124D01*
X90Y1126D01*
X88Y1126D01*
X88Y1130D01*
X86Y1130D01*
X86Y1134D01*
X84Y1134D01*
X84Y1138D01*
X82Y1138D01*
X82Y1144D01*
X80Y1144D01*
X80Y1184D01*
X82Y1184D01*
X82Y1188D01*
X84Y1188D01*
X84Y1194D01*
X86Y1194D01*
X86Y1196D01*
X88Y1196D01*
X88Y1200D01*
X90Y1200D01*
X90Y1204D01*
X92Y1204D01*
X92Y1224D01*
X90Y1224D01*
X90Y1226D01*
X88Y1226D01*
X88Y1230D01*
X86Y1230D01*
X86Y1234D01*
X84Y1234D01*
X84Y1238D01*
X82Y1238D01*
X82Y1244D01*
X80Y1244D01*
X80Y1284D01*
X82Y1284D01*
X82Y1288D01*
X84Y1288D01*
X84Y1294D01*
X86Y1294D01*
X86Y1296D01*
X88Y1296D01*
X88Y1300D01*
X90Y1300D01*
X90Y1304D01*
X92Y1304D01*
X92Y1324D01*
X90Y1324D01*
X90Y1326D01*
X88Y1326D01*
X88Y1330D01*
X86Y1330D01*
X86Y1334D01*
X84Y1334D01*
X84Y1338D01*
X82Y1338D01*
X82Y1344D01*
X80Y1344D01*
X80Y1384D01*
X82Y1384D01*
X82Y1388D01*
X84Y1388D01*
X84Y1394D01*
X86Y1394D01*
X86Y1396D01*
X88Y1396D01*
X88Y1400D01*
X90Y1400D01*
X90Y1404D01*
X92Y1404D01*
X92Y1424D01*
X90Y1424D01*
X90Y1426D01*
X88Y1426D01*
X88Y1430D01*
X86Y1430D01*
X86Y1434D01*
X84Y1434D01*
X84Y1438D01*
X82Y1438D01*
X82Y1444D01*
X80Y1444D01*
X80Y1484D01*
X82Y1484D01*
X82Y1488D01*
X84Y1488D01*
X84Y1494D01*
X86Y1494D01*
X86Y1496D01*
X88Y1496D01*
X88Y1500D01*
X90Y1500D01*
X90Y1504D01*
X92Y1504D01*
X92Y1524D01*
X90Y1524D01*
X90Y1526D01*
X88Y1526D01*
X88Y1530D01*
X86Y1530D01*
X86Y1534D01*
X84Y1534D01*
X84Y1538D01*
X82Y1538D01*
X82Y1544D01*
X80Y1544D01*
X80Y1584D01*
X82Y1584D01*
X82Y1588D01*
X84Y1588D01*
X84Y1594D01*
X86Y1594D01*
X86Y1596D01*
X88Y1596D01*
X88Y1600D01*
X90Y1600D01*
X90Y1604D01*
X92Y1604D01*
X92Y1624D01*
X90Y1624D01*
X90Y1626D01*
X88Y1626D01*
X88Y1630D01*
X86Y1630D01*
X86Y1634D01*
X84Y1634D01*
X84Y1638D01*
X82Y1638D01*
X82Y1644D01*
X80Y1644D01*
X80Y1684D01*
X82Y1684D01*
X82Y1688D01*
X84Y1688D01*
X84Y1694D01*
X86Y1694D01*
X86Y1696D01*
X88Y1696D01*
X88Y1700D01*
X90Y1700D01*
X90Y1704D01*
X92Y1704D01*
X92Y1724D01*
X90Y1724D01*
X90Y1726D01*
X88Y1726D01*
X88Y1730D01*
X86Y1730D01*
X86Y1734D01*
X84Y1734D01*
X84Y1738D01*
X82Y1738D01*
X82Y1744D01*
X80Y1744D01*
X80Y1784D01*
X82Y1784D01*
X82Y1788D01*
X84Y1788D01*
X84Y1794D01*
X86Y1794D01*
X86Y1796D01*
X88Y1796D01*
X88Y1800D01*
X90Y1800D01*
X90Y1804D01*
X92Y1804D01*
X92Y1806D01*
X94Y1806D01*
X94Y1808D01*
X96Y1808D01*
X96Y1810D01*
X98Y1810D01*
X98Y1812D01*
X100Y1812D01*
X100Y1814D01*
X102Y1814D01*
X102Y1816D01*
X104Y1816D01*
X104Y1818D01*
X106Y1818D01*
X106Y1820D01*
X108Y1820D01*
X108Y1822D01*
X112Y1822D01*
X112Y1824D01*
X114Y1824D01*
X114Y1826D01*
X118Y1826D01*
X118Y1828D01*
X122Y1828D01*
X122Y1830D01*
X128Y1830D01*
X128Y1832D01*
X140Y1832D01*
X140Y1834D01*
X44Y1834D01*
G37*
D02*
G36*
X208Y1320D02*
X208Y1300D01*
X210Y1300D01*
X210Y1296D01*
X212Y1296D01*
X212Y1294D01*
X214Y1294D01*
X214Y1288D01*
X216Y1288D01*
X216Y1284D01*
X218Y1284D01*
X218Y1244D01*
X216Y1244D01*
X216Y1238D01*
X214Y1238D01*
X214Y1234D01*
X212Y1234D01*
X212Y1230D01*
X210Y1230D01*
X210Y1226D01*
X208Y1226D01*
X208Y1224D01*
X206Y1224D01*
X206Y1204D01*
X208Y1204D01*
X208Y1200D01*
X210Y1200D01*
X210Y1196D01*
X212Y1196D01*
X212Y1194D01*
X214Y1194D01*
X214Y1188D01*
X216Y1188D01*
X216Y1184D01*
X218Y1184D01*
X218Y1144D01*
X216Y1144D01*
X216Y1138D01*
X214Y1138D01*
X214Y1134D01*
X212Y1134D01*
X212Y1130D01*
X210Y1130D01*
X210Y1126D01*
X208Y1126D01*
X208Y1124D01*
X206Y1124D01*
X206Y1104D01*
X208Y1104D01*
X208Y1100D01*
X210Y1100D01*
X210Y1096D01*
X212Y1096D01*
X212Y1094D01*
X214Y1094D01*
X214Y1088D01*
X216Y1088D01*
X216Y1084D01*
X218Y1084D01*
X218Y1044D01*
X216Y1044D01*
X216Y1038D01*
X214Y1038D01*
X214Y1034D01*
X212Y1034D01*
X212Y1030D01*
X210Y1030D01*
X210Y1026D01*
X208Y1026D01*
X208Y1024D01*
X206Y1024D01*
X206Y1020D01*
X204Y1020D01*
X204Y1018D01*
X202Y1018D01*
X202Y1016D01*
X200Y1016D01*
X200Y1014D01*
X198Y1014D01*
X198Y1012D01*
X196Y1012D01*
X196Y1010D01*
X194Y1010D01*
X194Y1008D01*
X192Y1008D01*
X192Y1006D01*
X188Y1006D01*
X188Y1004D01*
X186Y1004D01*
X186Y1002D01*
X182Y1002D01*
X182Y1000D01*
X178Y1000D01*
X178Y998D01*
X174Y998D01*
X174Y996D01*
X168Y996D01*
X168Y994D01*
X996Y994D01*
X996Y998D01*
X998Y998D01*
X998Y1000D01*
X1000Y1000D01*
X1000Y1002D01*
X1002Y1002D01*
X1002Y1004D01*
X1004Y1004D01*
X1004Y1008D01*
X1006Y1008D01*
X1006Y1120D01*
X1004Y1120D01*
X1004Y1122D01*
X1002Y1122D01*
X1002Y1124D01*
X1000Y1124D01*
X1000Y1126D01*
X998Y1126D01*
X998Y1128D01*
X996Y1128D01*
X996Y1132D01*
X994Y1132D01*
X994Y1136D01*
X992Y1136D01*
X992Y1140D01*
X990Y1140D01*
X990Y1146D01*
X988Y1146D01*
X988Y1180D01*
X990Y1180D01*
X990Y1186D01*
X992Y1186D01*
X992Y1190D01*
X994Y1190D01*
X994Y1194D01*
X996Y1194D01*
X996Y1198D01*
X998Y1198D01*
X998Y1200D01*
X1000Y1200D01*
X1000Y1202D01*
X1002Y1202D01*
X1002Y1204D01*
X1004Y1204D01*
X1004Y1208D01*
X1006Y1208D01*
X1006Y1320D01*
X208Y1320D01*
G37*
D02*
G36*
X1310Y1320D02*
X1310Y1302D01*
X1706Y1302D01*
X1706Y1320D01*
X1310Y1320D01*
G37*
D02*
G36*
X1094Y1312D02*
X1094Y1302D01*
X1132Y1302D01*
X1132Y1304D01*
X1126Y1304D01*
X1126Y1306D01*
X1122Y1306D01*
X1122Y1308D01*
X1118Y1308D01*
X1118Y1310D01*
X1114Y1310D01*
X1114Y1312D01*
X1094Y1312D01*
G37*
D02*
G36*
X1166Y1304D02*
X1166Y1302D01*
X1188Y1302D01*
X1188Y1304D01*
X1166Y1304D01*
G37*
D02*
G36*
X1094Y1302D02*
X1094Y1300D01*
X1706Y1300D01*
X1706Y1302D01*
X1094Y1302D01*
G37*
D02*
G36*
X1094Y1302D02*
X1094Y1300D01*
X1706Y1300D01*
X1706Y1302D01*
X1094Y1302D01*
G37*
D02*
G36*
X1094Y1302D02*
X1094Y1300D01*
X1706Y1300D01*
X1706Y1302D01*
X1094Y1302D01*
G37*
D02*
G36*
X1094Y1300D02*
X1094Y1224D01*
X1310Y1224D01*
X1310Y1206D01*
X1614Y1206D01*
X1614Y1204D01*
X1670Y1204D01*
X1670Y1202D01*
X1674Y1202D01*
X1674Y1200D01*
X1678Y1200D01*
X1678Y1198D01*
X1682Y1198D01*
X1682Y1196D01*
X1684Y1196D01*
X1684Y1194D01*
X1686Y1194D01*
X1686Y1192D01*
X1688Y1192D01*
X1688Y1188D01*
X1690Y1188D01*
X1690Y1186D01*
X1692Y1186D01*
X1692Y1182D01*
X1694Y1182D01*
X1694Y1174D01*
X1696Y1174D01*
X1696Y1164D01*
X2030Y1164D01*
X2030Y1166D01*
X2024Y1166D01*
X2024Y1168D01*
X2020Y1168D01*
X2020Y1170D01*
X2016Y1170D01*
X2016Y1172D01*
X2012Y1172D01*
X2012Y1174D01*
X2010Y1174D01*
X2010Y1176D01*
X2006Y1176D01*
X2006Y1178D01*
X2004Y1178D01*
X2004Y1180D01*
X2002Y1180D01*
X2002Y1182D01*
X2000Y1182D01*
X2000Y1184D01*
X1998Y1184D01*
X1998Y1186D01*
X1996Y1186D01*
X1996Y1188D01*
X1994Y1188D01*
X1994Y1190D01*
X1992Y1190D01*
X1992Y1194D01*
X1984Y1194D01*
X1984Y1196D01*
X1966Y1196D01*
X1966Y1198D01*
X1946Y1198D01*
X1946Y1200D01*
X1928Y1200D01*
X1928Y1202D01*
X1908Y1202D01*
X1908Y1204D01*
X1888Y1204D01*
X1888Y1206D01*
X1870Y1206D01*
X1870Y1208D01*
X1850Y1208D01*
X1850Y1210D01*
X1832Y1210D01*
X1832Y1212D01*
X1812Y1212D01*
X1812Y1214D01*
X1794Y1214D01*
X1794Y1216D01*
X1774Y1216D01*
X1774Y1218D01*
X1754Y1218D01*
X1754Y1220D01*
X1736Y1220D01*
X1736Y1222D01*
X1730Y1222D01*
X1730Y1224D01*
X1726Y1224D01*
X1726Y1226D01*
X1722Y1226D01*
X1722Y1228D01*
X1720Y1228D01*
X1720Y1230D01*
X1718Y1230D01*
X1718Y1232D01*
X1716Y1232D01*
X1716Y1234D01*
X1714Y1234D01*
X1714Y1236D01*
X1712Y1236D01*
X1712Y1240D01*
X1710Y1240D01*
X1710Y1244D01*
X1708Y1244D01*
X1708Y1250D01*
X1706Y1250D01*
X1706Y1300D01*
X1094Y1300D01*
G37*
D02*
G36*
X1094Y1224D02*
X1094Y1214D01*
X1114Y1214D01*
X1114Y1216D01*
X1118Y1216D01*
X1118Y1218D01*
X1120Y1218D01*
X1120Y1220D01*
X1126Y1220D01*
X1126Y1222D01*
X1130Y1222D01*
X1130Y1224D01*
X1094Y1224D01*
G37*
D02*
G36*
X1168Y1224D02*
X1168Y1222D01*
X1188Y1222D01*
X1188Y1224D01*
X1168Y1224D01*
G37*
D02*
G36*
X1696Y1164D02*
X1696Y1162D01*
X2254Y1162D01*
X2254Y1164D01*
X1696Y1164D01*
G37*
D02*
G36*
X1696Y1164D02*
X1696Y1162D01*
X2254Y1162D01*
X2254Y1164D01*
X1696Y1164D01*
G37*
D02*
G36*
X1696Y1162D02*
X1696Y1134D01*
X2058Y1134D01*
X2058Y1132D01*
X2070Y1132D01*
X2070Y1130D01*
X2076Y1130D01*
X2076Y1128D01*
X2080Y1128D01*
X2080Y1126D01*
X2084Y1126D01*
X2084Y1124D01*
X2086Y1124D01*
X2086Y1122D01*
X2090Y1122D01*
X2090Y1120D01*
X2092Y1120D01*
X2092Y1118D01*
X2094Y1118D01*
X2094Y1116D01*
X2096Y1116D01*
X2096Y1114D01*
X2098Y1114D01*
X2098Y1112D01*
X2100Y1112D01*
X2100Y1110D01*
X2102Y1110D01*
X2102Y1108D01*
X2104Y1108D01*
X2104Y1106D01*
X2106Y1106D01*
X2106Y1104D01*
X2108Y1104D01*
X2108Y1100D01*
X2110Y1100D01*
X2110Y1096D01*
X2112Y1096D01*
X2112Y1094D01*
X2114Y1094D01*
X2114Y1088D01*
X2116Y1088D01*
X2116Y1084D01*
X2118Y1084D01*
X2118Y1044D01*
X2116Y1044D01*
X2116Y1038D01*
X2114Y1038D01*
X2114Y1034D01*
X2112Y1034D01*
X2112Y1030D01*
X2110Y1030D01*
X2110Y1026D01*
X2108Y1026D01*
X2108Y1024D01*
X2106Y1024D01*
X2106Y1004D01*
X2108Y1004D01*
X2108Y1000D01*
X2110Y1000D01*
X2110Y996D01*
X2112Y996D01*
X2112Y994D01*
X2114Y994D01*
X2114Y988D01*
X2116Y988D01*
X2116Y984D01*
X2118Y984D01*
X2118Y944D01*
X2116Y944D01*
X2116Y938D01*
X2114Y938D01*
X2114Y934D01*
X2112Y934D01*
X2112Y930D01*
X2110Y930D01*
X2110Y926D01*
X2108Y926D01*
X2108Y924D01*
X2106Y924D01*
X2106Y904D01*
X2108Y904D01*
X2108Y900D01*
X2110Y900D01*
X2110Y896D01*
X2112Y896D01*
X2112Y894D01*
X2114Y894D01*
X2114Y888D01*
X2116Y888D01*
X2116Y884D01*
X2118Y884D01*
X2118Y844D01*
X2116Y844D01*
X2116Y838D01*
X2114Y838D01*
X2114Y834D01*
X2112Y834D01*
X2112Y830D01*
X2110Y830D01*
X2110Y826D01*
X2108Y826D01*
X2108Y824D01*
X2106Y824D01*
X2106Y804D01*
X2108Y804D01*
X2108Y800D01*
X2110Y800D01*
X2110Y796D01*
X2112Y796D01*
X2112Y794D01*
X2114Y794D01*
X2114Y788D01*
X2116Y788D01*
X2116Y784D01*
X2118Y784D01*
X2118Y744D01*
X2116Y744D01*
X2116Y738D01*
X2114Y738D01*
X2114Y734D01*
X2112Y734D01*
X2112Y730D01*
X2110Y730D01*
X2110Y726D01*
X2108Y726D01*
X2108Y724D01*
X2106Y724D01*
X2106Y704D01*
X2108Y704D01*
X2108Y700D01*
X2110Y700D01*
X2110Y696D01*
X2112Y696D01*
X2112Y694D01*
X2114Y694D01*
X2114Y688D01*
X2116Y688D01*
X2116Y684D01*
X2118Y684D01*
X2118Y644D01*
X2116Y644D01*
X2116Y638D01*
X2114Y638D01*
X2114Y634D01*
X2112Y634D01*
X2112Y630D01*
X2110Y630D01*
X2110Y626D01*
X2108Y626D01*
X2108Y624D01*
X2106Y624D01*
X2106Y604D01*
X2108Y604D01*
X2108Y600D01*
X2110Y600D01*
X2110Y596D01*
X2112Y596D01*
X2112Y594D01*
X2114Y594D01*
X2114Y588D01*
X2116Y588D01*
X2116Y584D01*
X2118Y584D01*
X2118Y544D01*
X2116Y544D01*
X2116Y538D01*
X2114Y538D01*
X2114Y534D01*
X2112Y534D01*
X2112Y530D01*
X2110Y530D01*
X2110Y526D01*
X2108Y526D01*
X2108Y524D01*
X2106Y524D01*
X2106Y504D01*
X2108Y504D01*
X2108Y500D01*
X2110Y500D01*
X2110Y496D01*
X2112Y496D01*
X2112Y494D01*
X2114Y494D01*
X2114Y488D01*
X2116Y488D01*
X2116Y484D01*
X2118Y484D01*
X2118Y444D01*
X2116Y444D01*
X2116Y438D01*
X2114Y438D01*
X2114Y434D01*
X2112Y434D01*
X2112Y430D01*
X2110Y430D01*
X2110Y426D01*
X2108Y426D01*
X2108Y424D01*
X2106Y424D01*
X2106Y404D01*
X2108Y404D01*
X2108Y400D01*
X2110Y400D01*
X2110Y396D01*
X2112Y396D01*
X2112Y394D01*
X2114Y394D01*
X2114Y388D01*
X2116Y388D01*
X2116Y384D01*
X2118Y384D01*
X2118Y344D01*
X2116Y344D01*
X2116Y338D01*
X2114Y338D01*
X2114Y334D01*
X2112Y334D01*
X2112Y330D01*
X2110Y330D01*
X2110Y326D01*
X2108Y326D01*
X2108Y324D01*
X2106Y324D01*
X2106Y320D01*
X2104Y320D01*
X2104Y318D01*
X2102Y318D01*
X2102Y316D01*
X2100Y316D01*
X2100Y314D01*
X2098Y314D01*
X2098Y312D01*
X2096Y312D01*
X2096Y310D01*
X2094Y310D01*
X2094Y308D01*
X2092Y308D01*
X2092Y306D01*
X2088Y306D01*
X2088Y304D01*
X2086Y304D01*
X2086Y302D01*
X2082Y302D01*
X2082Y300D01*
X2078Y300D01*
X2078Y298D01*
X2074Y298D01*
X2074Y296D01*
X2068Y296D01*
X2068Y294D01*
X2254Y294D01*
X2254Y1162D01*
X1696Y1162D01*
G37*
D02*
G36*
X1696Y1134D02*
X1696Y1106D01*
X1980Y1106D01*
X1980Y1108D01*
X1996Y1108D01*
X1996Y1110D01*
X1998Y1110D01*
X1998Y1112D01*
X2000Y1112D01*
X2000Y1114D01*
X2002Y1114D01*
X2002Y1116D01*
X2004Y1116D01*
X2004Y1118D01*
X2006Y1118D01*
X2006Y1120D01*
X2008Y1120D01*
X2008Y1122D01*
X2012Y1122D01*
X2012Y1124D01*
X2014Y1124D01*
X2014Y1126D01*
X2018Y1126D01*
X2018Y1128D01*
X2022Y1128D01*
X2022Y1130D01*
X2028Y1130D01*
X2028Y1132D01*
X2040Y1132D01*
X2040Y1134D01*
X1696Y1134D01*
G37*
D02*
G36*
X44Y994D02*
X44Y992D01*
X994Y992D01*
X994Y994D01*
X44Y994D01*
G37*
D02*
G36*
X44Y994D02*
X44Y992D01*
X994Y992D01*
X994Y994D01*
X44Y994D01*
G37*
D02*
G36*
X44Y992D02*
X44Y934D01*
X158Y934D01*
X158Y932D01*
X170Y932D01*
X170Y930D01*
X176Y930D01*
X176Y928D01*
X180Y928D01*
X180Y926D01*
X184Y926D01*
X184Y924D01*
X186Y924D01*
X186Y922D01*
X190Y922D01*
X190Y920D01*
X192Y920D01*
X192Y918D01*
X194Y918D01*
X194Y916D01*
X196Y916D01*
X196Y914D01*
X198Y914D01*
X198Y912D01*
X200Y912D01*
X200Y910D01*
X202Y910D01*
X202Y908D01*
X204Y908D01*
X204Y906D01*
X206Y906D01*
X206Y904D01*
X208Y904D01*
X208Y900D01*
X210Y900D01*
X210Y896D01*
X212Y896D01*
X212Y894D01*
X214Y894D01*
X214Y888D01*
X216Y888D01*
X216Y884D01*
X218Y884D01*
X218Y844D01*
X216Y844D01*
X216Y838D01*
X214Y838D01*
X214Y834D01*
X212Y834D01*
X212Y830D01*
X210Y830D01*
X210Y826D01*
X208Y826D01*
X208Y824D01*
X206Y824D01*
X206Y804D01*
X208Y804D01*
X208Y800D01*
X210Y800D01*
X210Y796D01*
X212Y796D01*
X212Y794D01*
X214Y794D01*
X214Y788D01*
X216Y788D01*
X216Y784D01*
X218Y784D01*
X218Y744D01*
X216Y744D01*
X216Y738D01*
X214Y738D01*
X214Y734D01*
X212Y734D01*
X212Y730D01*
X210Y730D01*
X210Y726D01*
X208Y726D01*
X208Y724D01*
X206Y724D01*
X206Y704D01*
X208Y704D01*
X208Y700D01*
X210Y700D01*
X210Y696D01*
X212Y696D01*
X212Y694D01*
X214Y694D01*
X214Y688D01*
X216Y688D01*
X216Y684D01*
X218Y684D01*
X218Y644D01*
X216Y644D01*
X216Y638D01*
X214Y638D01*
X214Y634D01*
X212Y634D01*
X212Y630D01*
X210Y630D01*
X210Y626D01*
X208Y626D01*
X208Y624D01*
X206Y624D01*
X206Y604D01*
X208Y604D01*
X208Y600D01*
X210Y600D01*
X210Y596D01*
X212Y596D01*
X212Y594D01*
X214Y594D01*
X214Y588D01*
X216Y588D01*
X216Y584D01*
X218Y584D01*
X218Y544D01*
X216Y544D01*
X216Y538D01*
X214Y538D01*
X214Y534D01*
X212Y534D01*
X212Y530D01*
X210Y530D01*
X210Y526D01*
X208Y526D01*
X208Y524D01*
X206Y524D01*
X206Y504D01*
X208Y504D01*
X208Y500D01*
X210Y500D01*
X210Y496D01*
X212Y496D01*
X212Y494D01*
X214Y494D01*
X214Y488D01*
X216Y488D01*
X216Y484D01*
X218Y484D01*
X218Y444D01*
X216Y444D01*
X216Y438D01*
X214Y438D01*
X214Y434D01*
X212Y434D01*
X212Y430D01*
X210Y430D01*
X210Y426D01*
X208Y426D01*
X208Y424D01*
X206Y424D01*
X206Y404D01*
X208Y404D01*
X208Y400D01*
X210Y400D01*
X210Y396D01*
X212Y396D01*
X212Y394D01*
X214Y394D01*
X214Y388D01*
X216Y388D01*
X216Y384D01*
X218Y384D01*
X218Y344D01*
X216Y344D01*
X216Y338D01*
X214Y338D01*
X214Y334D01*
X212Y334D01*
X212Y330D01*
X210Y330D01*
X210Y326D01*
X208Y326D01*
X208Y324D01*
X206Y324D01*
X206Y320D01*
X204Y320D01*
X204Y318D01*
X202Y318D01*
X202Y316D01*
X200Y316D01*
X200Y314D01*
X198Y314D01*
X198Y312D01*
X196Y312D01*
X196Y310D01*
X194Y310D01*
X194Y308D01*
X192Y308D01*
X192Y306D01*
X188Y306D01*
X188Y304D01*
X186Y304D01*
X186Y302D01*
X182Y302D01*
X182Y300D01*
X178Y300D01*
X178Y298D01*
X174Y298D01*
X174Y296D01*
X168Y296D01*
X168Y294D01*
X1006Y294D01*
X1006Y320D01*
X1004Y320D01*
X1004Y322D01*
X1002Y322D01*
X1002Y324D01*
X1000Y324D01*
X1000Y326D01*
X998Y326D01*
X998Y328D01*
X996Y328D01*
X996Y332D01*
X994Y332D01*
X994Y336D01*
X992Y336D01*
X992Y340D01*
X990Y340D01*
X990Y346D01*
X988Y346D01*
X988Y380D01*
X990Y380D01*
X990Y386D01*
X992Y386D01*
X992Y390D01*
X994Y390D01*
X994Y394D01*
X996Y394D01*
X996Y398D01*
X998Y398D01*
X998Y400D01*
X1000Y400D01*
X1000Y402D01*
X1002Y402D01*
X1002Y404D01*
X1004Y404D01*
X1004Y408D01*
X1006Y408D01*
X1006Y520D01*
X1004Y520D01*
X1004Y522D01*
X1002Y522D01*
X1002Y524D01*
X1000Y524D01*
X1000Y526D01*
X998Y526D01*
X998Y528D01*
X996Y528D01*
X996Y532D01*
X994Y532D01*
X994Y536D01*
X992Y536D01*
X992Y540D01*
X990Y540D01*
X990Y546D01*
X988Y546D01*
X988Y580D01*
X990Y580D01*
X990Y586D01*
X992Y586D01*
X992Y590D01*
X994Y590D01*
X994Y594D01*
X996Y594D01*
X996Y598D01*
X998Y598D01*
X998Y600D01*
X1000Y600D01*
X1000Y602D01*
X1002Y602D01*
X1002Y604D01*
X1004Y604D01*
X1004Y608D01*
X1006Y608D01*
X1006Y720D01*
X1004Y720D01*
X1004Y722D01*
X1002Y722D01*
X1002Y724D01*
X1000Y724D01*
X1000Y726D01*
X998Y726D01*
X998Y728D01*
X996Y728D01*
X996Y732D01*
X994Y732D01*
X994Y736D01*
X992Y736D01*
X992Y740D01*
X990Y740D01*
X990Y746D01*
X988Y746D01*
X988Y780D01*
X990Y780D01*
X990Y786D01*
X992Y786D01*
X992Y790D01*
X994Y790D01*
X994Y794D01*
X996Y794D01*
X996Y798D01*
X998Y798D01*
X998Y800D01*
X1000Y800D01*
X1000Y802D01*
X1002Y802D01*
X1002Y804D01*
X1004Y804D01*
X1004Y808D01*
X1006Y808D01*
X1006Y920D01*
X1004Y920D01*
X1004Y922D01*
X1002Y922D01*
X1002Y924D01*
X1000Y924D01*
X1000Y926D01*
X998Y926D01*
X998Y928D01*
X996Y928D01*
X996Y932D01*
X994Y932D01*
X994Y936D01*
X992Y936D01*
X992Y940D01*
X990Y940D01*
X990Y946D01*
X988Y946D01*
X988Y980D01*
X990Y980D01*
X990Y986D01*
X992Y986D01*
X992Y990D01*
X994Y990D01*
X994Y992D01*
X44Y992D01*
G37*
D02*
G36*
X44Y934D02*
X44Y294D01*
X130Y294D01*
X130Y296D01*
X124Y296D01*
X124Y298D01*
X120Y298D01*
X120Y300D01*
X116Y300D01*
X116Y302D01*
X112Y302D01*
X112Y304D01*
X110Y304D01*
X110Y306D01*
X106Y306D01*
X106Y308D01*
X104Y308D01*
X104Y310D01*
X102Y310D01*
X102Y312D01*
X100Y312D01*
X100Y314D01*
X98Y314D01*
X98Y316D01*
X96Y316D01*
X96Y318D01*
X94Y318D01*
X94Y320D01*
X92Y320D01*
X92Y324D01*
X90Y324D01*
X90Y326D01*
X88Y326D01*
X88Y330D01*
X86Y330D01*
X86Y334D01*
X84Y334D01*
X84Y338D01*
X82Y338D01*
X82Y344D01*
X80Y344D01*
X80Y384D01*
X82Y384D01*
X82Y388D01*
X84Y388D01*
X84Y394D01*
X86Y394D01*
X86Y396D01*
X88Y396D01*
X88Y400D01*
X90Y400D01*
X90Y404D01*
X92Y404D01*
X92Y424D01*
X90Y424D01*
X90Y426D01*
X88Y426D01*
X88Y430D01*
X86Y430D01*
X86Y434D01*
X84Y434D01*
X84Y438D01*
X82Y438D01*
X82Y444D01*
X80Y444D01*
X80Y484D01*
X82Y484D01*
X82Y488D01*
X84Y488D01*
X84Y494D01*
X86Y494D01*
X86Y496D01*
X88Y496D01*
X88Y500D01*
X90Y500D01*
X90Y504D01*
X92Y504D01*
X92Y524D01*
X90Y524D01*
X90Y526D01*
X88Y526D01*
X88Y530D01*
X86Y530D01*
X86Y534D01*
X84Y534D01*
X84Y538D01*
X82Y538D01*
X82Y544D01*
X80Y544D01*
X80Y584D01*
X82Y584D01*
X82Y588D01*
X84Y588D01*
X84Y594D01*
X86Y594D01*
X86Y596D01*
X88Y596D01*
X88Y600D01*
X90Y600D01*
X90Y604D01*
X92Y604D01*
X92Y624D01*
X90Y624D01*
X90Y626D01*
X88Y626D01*
X88Y630D01*
X86Y630D01*
X86Y634D01*
X84Y634D01*
X84Y638D01*
X82Y638D01*
X82Y644D01*
X80Y644D01*
X80Y684D01*
X82Y684D01*
X82Y688D01*
X84Y688D01*
X84Y694D01*
X86Y694D01*
X86Y696D01*
X88Y696D01*
X88Y700D01*
X90Y700D01*
X90Y704D01*
X92Y704D01*
X92Y724D01*
X90Y724D01*
X90Y726D01*
X88Y726D01*
X88Y730D01*
X86Y730D01*
X86Y734D01*
X84Y734D01*
X84Y738D01*
X82Y738D01*
X82Y744D01*
X80Y744D01*
X80Y784D01*
X82Y784D01*
X82Y788D01*
X84Y788D01*
X84Y794D01*
X86Y794D01*
X86Y796D01*
X88Y796D01*
X88Y800D01*
X90Y800D01*
X90Y804D01*
X92Y804D01*
X92Y824D01*
X90Y824D01*
X90Y826D01*
X88Y826D01*
X88Y830D01*
X86Y830D01*
X86Y834D01*
X84Y834D01*
X84Y838D01*
X82Y838D01*
X82Y844D01*
X80Y844D01*
X80Y884D01*
X82Y884D01*
X82Y888D01*
X84Y888D01*
X84Y894D01*
X86Y894D01*
X86Y896D01*
X88Y896D01*
X88Y900D01*
X90Y900D01*
X90Y904D01*
X92Y904D01*
X92Y906D01*
X94Y906D01*
X94Y908D01*
X96Y908D01*
X96Y910D01*
X98Y910D01*
X98Y912D01*
X100Y912D01*
X100Y914D01*
X102Y914D01*
X102Y916D01*
X104Y916D01*
X104Y918D01*
X106Y918D01*
X106Y920D01*
X108Y920D01*
X108Y922D01*
X112Y922D01*
X112Y924D01*
X114Y924D01*
X114Y926D01*
X118Y926D01*
X118Y928D01*
X122Y928D01*
X122Y930D01*
X128Y930D01*
X128Y932D01*
X140Y932D01*
X140Y934D01*
X44Y934D01*
G37*
D02*
G36*
X1992Y304D02*
X1992Y294D01*
X2030Y294D01*
X2030Y296D01*
X2024Y296D01*
X2024Y298D01*
X2020Y298D01*
X2020Y300D01*
X2016Y300D01*
X2016Y302D01*
X2012Y302D01*
X2012Y304D01*
X1992Y304D01*
G37*
D02*
G36*
X44Y294D02*
X44Y292D01*
X1006Y292D01*
X1006Y294D01*
X44Y294D01*
G37*
D02*
G36*
X44Y294D02*
X44Y292D01*
X1006Y292D01*
X1006Y294D01*
X44Y294D01*
G37*
D02*
G36*
X1992Y294D02*
X1992Y292D01*
X2254Y292D01*
X2254Y294D01*
X1992Y294D01*
G37*
D02*
G36*
X1992Y294D02*
X1992Y292D01*
X2254Y292D01*
X2254Y294D01*
X1992Y294D01*
G37*
D02*
G36*
X44Y292D02*
X44Y102D01*
X1032Y102D01*
X1032Y104D01*
X1026Y104D01*
X1026Y106D01*
X1022Y106D01*
X1022Y108D01*
X1018Y108D01*
X1018Y110D01*
X1014Y110D01*
X1014Y112D01*
X1012Y112D01*
X1012Y114D01*
X1010Y114D01*
X1010Y116D01*
X1008Y116D01*
X1008Y118D01*
X1006Y118D01*
X1006Y120D01*
X1004Y120D01*
X1004Y122D01*
X1002Y122D01*
X1002Y124D01*
X1000Y124D01*
X1000Y126D01*
X998Y126D01*
X998Y128D01*
X996Y128D01*
X996Y132D01*
X994Y132D01*
X994Y136D01*
X992Y136D01*
X992Y140D01*
X990Y140D01*
X990Y146D01*
X988Y146D01*
X988Y180D01*
X990Y180D01*
X990Y186D01*
X992Y186D01*
X992Y190D01*
X994Y190D01*
X994Y194D01*
X996Y194D01*
X996Y198D01*
X998Y198D01*
X998Y200D01*
X1000Y200D01*
X1000Y202D01*
X1002Y202D01*
X1002Y206D01*
X1004Y206D01*
X1004Y208D01*
X1006Y208D01*
X1006Y292D01*
X44Y292D01*
G37*
D02*
G36*
X1992Y292D02*
X1992Y148D01*
X1990Y148D01*
X1990Y142D01*
X1988Y142D01*
X1988Y138D01*
X1986Y138D01*
X1986Y134D01*
X1984Y134D01*
X1984Y132D01*
X1982Y132D01*
X1982Y130D01*
X1980Y130D01*
X1980Y128D01*
X1978Y128D01*
X1978Y126D01*
X1974Y126D01*
X1974Y124D01*
X1972Y124D01*
X1972Y122D01*
X1966Y122D01*
X1966Y120D01*
X1310Y120D01*
X1310Y102D01*
X2254Y102D01*
X2254Y292D01*
X1992Y292D01*
G37*
D02*
G36*
X1088Y116D02*
X1088Y114D01*
X1086Y114D01*
X1086Y112D01*
X1084Y112D01*
X1084Y110D01*
X1080Y110D01*
X1080Y108D01*
X1076Y108D01*
X1076Y106D01*
X1072Y106D01*
X1072Y104D01*
X1066Y104D01*
X1066Y102D01*
X1132Y102D01*
X1132Y104D01*
X1126Y104D01*
X1126Y106D01*
X1122Y106D01*
X1122Y108D01*
X1118Y108D01*
X1118Y110D01*
X1114Y110D01*
X1114Y112D01*
X1112Y112D01*
X1112Y114D01*
X1110Y114D01*
X1110Y116D01*
X1088Y116D01*
G37*
D02*
G36*
X1166Y104D02*
X1166Y102D01*
X1188Y102D01*
X1188Y104D01*
X1166Y104D01*
G37*
D02*
G36*
X44Y102D02*
X44Y100D01*
X2254Y100D01*
X2254Y102D01*
X44Y102D01*
G37*
D02*
G36*
X44Y102D02*
X44Y100D01*
X2254Y100D01*
X2254Y102D01*
X44Y102D01*
G37*
D02*
G36*
X44Y102D02*
X44Y100D01*
X2254Y100D01*
X2254Y102D01*
X44Y102D01*
G37*
D02*
G36*
X44Y102D02*
X44Y100D01*
X2254Y100D01*
X2254Y102D01*
X44Y102D01*
G37*
D02*
G36*
X44Y100D02*
X44Y42D01*
X2254Y42D01*
X2254Y100D01*
X44Y100D01*
G37*
D02*
G36*
X76Y1283D02*
X130Y1283D01*
X130Y1246D01*
X76Y1246D01*
X76Y1283D01*
G37*
D02*
G36*
X164Y1283D02*
X218Y1283D01*
X218Y1246D01*
X164Y1246D01*
X164Y1283D01*
G37*
D02*
G36*
X76Y1183D02*
X130Y1183D01*
X130Y1146D01*
X76Y1146D01*
X76Y1183D01*
G37*
D02*
G36*
X164Y1183D02*
X218Y1183D01*
X218Y1146D01*
X164Y1146D01*
X164Y1183D01*
G37*
D02*
G36*
X1133Y1928D02*
X1162Y1928D01*
X1162Y1884D01*
X1133Y1884D01*
X1133Y1928D01*
G37*
D02*
G36*
X1133Y148D02*
X1162Y148D01*
X1162Y102D01*
X1133Y102D01*
X1133Y148D01*
G37*
D02*
G04 End of Copper0*
M02*