M48
INCH
T10C0.034167
T11C0.037000
T12C0.038000
%
T10
X001333Y001522
X001333Y002522
X001333Y003522
X001333Y004522
X001333Y005522
X001333Y006522
X001333Y008522
X001333Y009522
X001333Y010522
X001333Y011522
X001333Y012522
X001333Y013522
X001333Y014522
X001333Y015522
X020333Y001522
X020333Y002522
X020333Y003522
X020333Y004522
X020333Y005522
X020333Y006522
X020333Y007522
X020333Y008522
X020333Y010222
X020333Y011222
X020333Y012222
X020333Y013222
X020333Y014222
X020333Y015222
X020333Y016222
X020333Y017222
X020333Y018292
X020333Y019292
T11
X010333Y015522
X011333Y015522
X012333Y015522
X010333Y013522
X011333Y013522
X012333Y013522
X010333Y018522
X011333Y018522
X012333Y018522
X010333Y011522
X011333Y011522
X012333Y011522
X010333Y009522
X011333Y009522
X012333Y009522
X010333Y007522
X011333Y007522
X012333Y007522
X010333Y005522
X011333Y005522
X012333Y005522
X010333Y003522
X011333Y003522
X012333Y003522
X010333Y001522
X011333Y001522
X012333Y001522
T12
X017333Y016522
X017333Y017522
X017333Y018522
T00
M30
