G04 MADE WITH FRITZING*
G04 WWW.FRITZING.ORG*
G04 DOUBLE SIDED*
G04 HOLES PLATED*
G04 CONTOUR ON CENTER OF CONTOUR VECTOR*
%ASAXBY*%
%FSLAX23Y23*%
%MOIN*%
%OFA0B0*%
%SFA1.0B1.0*%
%ADD10C,0.075000*%
%ADD11C,0.075833*%
%ADD12C,0.059000*%
%ADD13C,0.078000*%
%ADD14R,0.059000X0.059000*%
%ADD15R,0.078000X0.078000*%
%ADD16C,0.024000*%
%LNCOPPER0*%
G90*
G70*
G54D10*
X1844Y1930D03*
X1255Y1743D03*
X1355Y1450D03*
X1355Y1250D03*
X1345Y1051D03*
X1214Y2026D03*
X1341Y850D03*
X1329Y655D03*
X1329Y455D03*
X1341Y252D03*
G54D11*
X2033Y1929D03*
X2033Y1829D03*
X2033Y1722D03*
X2033Y1622D03*
X2033Y1522D03*
X2033Y1422D03*
X2033Y1322D03*
X2033Y1222D03*
X2033Y1122D03*
X2033Y1022D03*
X2033Y852D03*
X2033Y752D03*
X2033Y652D03*
X2033Y552D03*
X2033Y452D03*
X2033Y352D03*
X2033Y252D03*
X2033Y152D03*
X133Y1552D03*
X133Y1452D03*
X133Y1352D03*
X133Y1252D03*
X133Y1152D03*
X133Y1052D03*
X133Y952D03*
X133Y852D03*
X133Y652D03*
X133Y552D03*
X133Y452D03*
X133Y352D03*
X133Y252D03*
X133Y152D03*
G54D12*
X1233Y152D03*
X1133Y152D03*
X1033Y152D03*
X1233Y352D03*
X1133Y352D03*
X1033Y352D03*
X1233Y552D03*
X1133Y552D03*
X1033Y552D03*
X1233Y752D03*
X1133Y752D03*
X1033Y752D03*
X1233Y952D03*
X1133Y952D03*
X1033Y952D03*
X1233Y1152D03*
X1133Y1152D03*
X1033Y1152D03*
X1233Y1852D03*
X1133Y1852D03*
X1033Y1852D03*
X1233Y1352D03*
X1133Y1352D03*
X1033Y1352D03*
X1233Y1552D03*
X1133Y1552D03*
X1033Y1552D03*
G54D13*
X1733Y1652D03*
X1733Y1752D03*
X1733Y1852D03*
G54D14*
X1233Y152D03*
X1233Y352D03*
X1233Y552D03*
X1233Y752D03*
X1233Y952D03*
X1233Y1152D03*
X1233Y1852D03*
X1233Y1352D03*
X1233Y1552D03*
G54D15*
X1733Y1652D03*
G54D16*
X1535Y354D02*
X1263Y352D01*
D02*
X1535Y453D02*
X1535Y354D01*
D02*
X2005Y452D02*
X1535Y453D01*
D02*
X1635Y354D02*
X2005Y352D01*
D02*
X1635Y150D02*
X1635Y354D01*
D02*
X1263Y152D02*
X1635Y150D01*
D02*
X1033Y1382D02*
X1033Y1523D01*
D02*
X1033Y1323D02*
X1033Y1182D01*
D02*
X1033Y1123D02*
X1033Y982D01*
D02*
X1033Y923D02*
X1033Y782D01*
D02*
X1033Y723D02*
X1033Y582D01*
D02*
X1033Y523D02*
X1033Y382D01*
D02*
X1033Y323D02*
X1033Y182D01*
D02*
X1133Y323D02*
X1133Y182D01*
D02*
X1133Y523D02*
X1133Y382D01*
D02*
X1133Y723D02*
X1133Y582D01*
D02*
X1133Y923D02*
X1133Y782D01*
D02*
X1133Y1123D02*
X1133Y982D01*
D02*
X1133Y1323D02*
X1133Y1182D01*
D02*
X1133Y1382D02*
X1133Y1523D01*
D02*
X1133Y1823D02*
X1133Y182D01*
D02*
X1033Y182D02*
X1033Y1823D01*
D02*
X1933Y1551D02*
X1535Y1551D01*
D02*
X1535Y1551D02*
X1263Y1552D01*
D02*
X1933Y1452D02*
X1933Y1551D01*
D02*
X1933Y1154D02*
X1933Y1452D01*
D02*
X2006Y1131D02*
X1933Y1154D01*
D02*
X1833Y1054D02*
X1833Y1352D01*
D02*
X1833Y1352D02*
X1263Y1352D01*
D02*
X1933Y1054D02*
X1833Y1054D01*
D02*
X2006Y1031D02*
X1933Y1054D01*
D02*
X1635Y1750D02*
X1635Y1854D01*
D02*
X1635Y1854D02*
X1263Y1852D01*
D02*
X1703Y1751D02*
X1635Y1750D01*
D02*
X1263Y552D02*
X2005Y552D01*
D02*
X1535Y652D02*
X2005Y652D01*
D02*
X1535Y751D02*
X1535Y652D01*
D02*
X1263Y752D02*
X1535Y751D01*
D02*
X1635Y950D02*
X1635Y751D01*
D02*
X1635Y751D02*
X2005Y752D01*
D02*
X1263Y952D02*
X1635Y950D01*
D02*
X1734Y1154D02*
X1734Y850D01*
D02*
X1734Y850D02*
X2005Y852D01*
D02*
X1263Y1152D02*
X1734Y1154D01*
D02*
X1004Y952D02*
X162Y952D01*
D02*
X233Y1954D02*
X233Y1154D01*
D02*
X233Y1154D02*
X162Y1153D01*
D02*
X1136Y1954D02*
X233Y1954D01*
D02*
X1134Y1882D02*
X1136Y1954D01*
D02*
X2134Y2050D02*
X1731Y2050D01*
D02*
X1731Y2050D02*
X1733Y1882D01*
D02*
X2060Y1030D02*
X2134Y1051D01*
D02*
X2134Y1051D02*
X2134Y2050D01*
G36*
X1776Y2006D02*
X1776Y1908D01*
X1780Y1908D01*
X1780Y1906D01*
X1782Y1906D01*
X1782Y1904D01*
X1784Y1904D01*
X1784Y1902D01*
X1786Y1902D01*
X1786Y1900D01*
X1788Y1900D01*
X1788Y1896D01*
X1790Y1896D01*
X1790Y1894D01*
X1792Y1894D01*
X1792Y1892D01*
X1794Y1892D01*
X1794Y1888D01*
X1796Y1888D01*
X1796Y1886D01*
X1798Y1886D01*
X1798Y1882D01*
X1800Y1882D01*
X1800Y1876D01*
X1802Y1876D01*
X1802Y1870D01*
X1804Y1870D01*
X1804Y1834D01*
X1802Y1834D01*
X1802Y1828D01*
X1800Y1828D01*
X1800Y1824D01*
X1798Y1824D01*
X1798Y1820D01*
X1796Y1820D01*
X1796Y1816D01*
X1794Y1816D01*
X1794Y1812D01*
X1792Y1812D01*
X1792Y1792D01*
X1794Y1792D01*
X1794Y1788D01*
X1796Y1788D01*
X1796Y1786D01*
X1798Y1786D01*
X1798Y1782D01*
X1800Y1782D01*
X1800Y1776D01*
X1802Y1776D01*
X1802Y1770D01*
X1804Y1770D01*
X1804Y1594D01*
X1966Y1594D01*
X1966Y1604D01*
X1964Y1604D01*
X1964Y1640D01*
X1966Y1640D01*
X1966Y1648D01*
X1968Y1648D01*
X1968Y1652D01*
X1970Y1652D01*
X1970Y1656D01*
X1972Y1656D01*
X1972Y1658D01*
X1974Y1658D01*
X1974Y1662D01*
X1976Y1662D01*
X1976Y1682D01*
X1974Y1682D01*
X1974Y1686D01*
X1972Y1686D01*
X1972Y1690D01*
X1970Y1690D01*
X1970Y1692D01*
X1968Y1692D01*
X1968Y1698D01*
X1966Y1698D01*
X1966Y1704D01*
X1964Y1704D01*
X1964Y1740D01*
X1966Y1740D01*
X1966Y1748D01*
X1968Y1748D01*
X1968Y1752D01*
X1970Y1752D01*
X1970Y1756D01*
X1972Y1756D01*
X1972Y1758D01*
X1974Y1758D01*
X1974Y1762D01*
X1976Y1762D01*
X1976Y1764D01*
X1978Y1764D01*
X1978Y1788D01*
X1976Y1788D01*
X1976Y1790D01*
X1974Y1790D01*
X1974Y1792D01*
X1972Y1792D01*
X1972Y1796D01*
X1970Y1796D01*
X1970Y1800D01*
X1968Y1800D01*
X1968Y1804D01*
X1966Y1804D01*
X1966Y1810D01*
X1964Y1810D01*
X1964Y1848D01*
X1966Y1848D01*
X1966Y1854D01*
X1968Y1854D01*
X1968Y1858D01*
X1970Y1858D01*
X1970Y1862D01*
X1972Y1862D01*
X1972Y1866D01*
X1974Y1866D01*
X1974Y1868D01*
X1976Y1868D01*
X1976Y1890D01*
X1974Y1890D01*
X1974Y1892D01*
X1972Y1892D01*
X1972Y1896D01*
X1970Y1896D01*
X1970Y1900D01*
X1968Y1900D01*
X1968Y1904D01*
X1966Y1904D01*
X1966Y1910D01*
X1964Y1910D01*
X1964Y1948D01*
X1966Y1948D01*
X1966Y1954D01*
X1968Y1954D01*
X1968Y1958D01*
X1970Y1958D01*
X1970Y1962D01*
X1972Y1962D01*
X1972Y1966D01*
X1974Y1966D01*
X1974Y1968D01*
X1976Y1968D01*
X1976Y1972D01*
X1978Y1972D01*
X1978Y1974D01*
X1980Y1974D01*
X1980Y1976D01*
X1982Y1976D01*
X1982Y1978D01*
X1984Y1978D01*
X1984Y1980D01*
X1986Y1980D01*
X1986Y1982D01*
X1988Y1982D01*
X1988Y1984D01*
X1990Y1984D01*
X1990Y1986D01*
X1994Y1986D01*
X1994Y2006D01*
X1776Y2006D01*
G37*
D02*
G36*
X1406Y1810D02*
X1406Y1808D01*
X1294Y1808D01*
X1294Y1790D01*
X1178Y1790D01*
X1178Y1614D01*
X1294Y1614D01*
X1294Y1596D01*
X1516Y1596D01*
X1516Y1594D01*
X1662Y1594D01*
X1662Y1706D01*
X1618Y1706D01*
X1618Y1708D01*
X1612Y1708D01*
X1612Y1710D01*
X1608Y1710D01*
X1608Y1712D01*
X1606Y1712D01*
X1606Y1714D01*
X1602Y1714D01*
X1602Y1716D01*
X1600Y1716D01*
X1600Y1720D01*
X1598Y1720D01*
X1598Y1722D01*
X1596Y1722D01*
X1596Y1726D01*
X1594Y1726D01*
X1594Y1730D01*
X1592Y1730D01*
X1592Y1738D01*
X1590Y1738D01*
X1590Y1810D01*
X1406Y1810D01*
G37*
D02*
G36*
X1294Y1508D02*
X1294Y1490D01*
X1178Y1490D01*
X1178Y1414D01*
X1294Y1414D01*
X1294Y1396D01*
X1850Y1396D01*
X1850Y1394D01*
X1856Y1394D01*
X1856Y1392D01*
X1860Y1392D01*
X1860Y1390D01*
X1862Y1390D01*
X1862Y1388D01*
X1864Y1388D01*
X1864Y1386D01*
X1866Y1386D01*
X1866Y1384D01*
X1868Y1384D01*
X1868Y1382D01*
X1888Y1382D01*
X1888Y1506D01*
X1498Y1506D01*
X1498Y1508D01*
X1294Y1508D01*
G37*
D02*
G36*
X1294Y1308D02*
X1294Y1290D01*
X1178Y1290D01*
X1178Y1214D01*
X1294Y1214D01*
X1294Y1198D01*
X1748Y1198D01*
X1748Y1196D01*
X1754Y1196D01*
X1754Y1194D01*
X1758Y1194D01*
X1758Y1192D01*
X1762Y1192D01*
X1762Y1190D01*
X1764Y1190D01*
X1764Y1188D01*
X1766Y1188D01*
X1766Y1186D01*
X1768Y1186D01*
X1768Y1184D01*
X1770Y1184D01*
X1770Y1182D01*
X1790Y1182D01*
X1790Y1308D01*
X1294Y1308D01*
G37*
D02*
G36*
X1294Y1198D02*
X1294Y1196D01*
X1530Y1196D01*
X1530Y1198D01*
X1294Y1198D01*
G37*
D02*
G36*
X1548Y1110D02*
X1548Y1108D01*
X1294Y1108D01*
X1294Y1090D01*
X1178Y1090D01*
X1178Y1014D01*
X1294Y1014D01*
X1294Y996D01*
X1424Y996D01*
X1424Y994D01*
X1648Y994D01*
X1648Y992D01*
X1656Y992D01*
X1656Y990D01*
X1660Y990D01*
X1660Y988D01*
X1662Y988D01*
X1662Y986D01*
X1666Y986D01*
X1666Y984D01*
X1668Y984D01*
X1668Y982D01*
X1670Y982D01*
X1670Y980D01*
X1690Y980D01*
X1690Y1110D01*
X1548Y1110D01*
G37*
D02*
G36*
X44Y2150D02*
X44Y2094D01*
X2148Y2094D01*
X2148Y2092D01*
X2154Y2092D01*
X2154Y2090D01*
X2160Y2090D01*
X2160Y2088D01*
X2162Y2088D01*
X2162Y2086D01*
X2164Y2086D01*
X2164Y2084D01*
X2168Y2084D01*
X2168Y2082D01*
X2170Y2082D01*
X2170Y2078D01*
X2172Y2078D01*
X2172Y2076D01*
X2174Y2076D01*
X2174Y2072D01*
X2176Y2072D01*
X2176Y2066D01*
X2178Y2066D01*
X2178Y1036D01*
X2176Y1036D01*
X2176Y1030D01*
X2174Y1030D01*
X2174Y1026D01*
X2172Y1026D01*
X2172Y1022D01*
X2170Y1022D01*
X2170Y1020D01*
X2168Y1020D01*
X2168Y1018D01*
X2166Y1018D01*
X2166Y1016D01*
X2164Y1016D01*
X2164Y1014D01*
X2160Y1014D01*
X2160Y1012D01*
X2158Y1012D01*
X2158Y1010D01*
X2152Y1010D01*
X2152Y1008D01*
X2146Y1008D01*
X2146Y1006D01*
X2138Y1006D01*
X2138Y1004D01*
X2132Y1004D01*
X2132Y1002D01*
X2124Y1002D01*
X2124Y1000D01*
X2118Y1000D01*
X2118Y998D01*
X2110Y998D01*
X2110Y996D01*
X2104Y996D01*
X2104Y994D01*
X2098Y994D01*
X2098Y992D01*
X2096Y992D01*
X2096Y988D01*
X2094Y988D01*
X2094Y984D01*
X2092Y984D01*
X2092Y982D01*
X2090Y982D01*
X2090Y980D01*
X2088Y980D01*
X2088Y976D01*
X2086Y976D01*
X2086Y974D01*
X2084Y974D01*
X2084Y972D01*
X2082Y972D01*
X2082Y970D01*
X2080Y970D01*
X2080Y968D01*
X2076Y968D01*
X2076Y966D01*
X2074Y966D01*
X2074Y964D01*
X2072Y964D01*
X2072Y962D01*
X2068Y962D01*
X2068Y960D01*
X2064Y960D01*
X2064Y958D01*
X2060Y958D01*
X2060Y956D01*
X2056Y956D01*
X2056Y954D01*
X2048Y954D01*
X2048Y952D01*
X2232Y952D01*
X2232Y2150D01*
X44Y2150D01*
G37*
D02*
G36*
X44Y2094D02*
X44Y1998D01*
X1152Y1998D01*
X1152Y1996D01*
X1158Y1996D01*
X1158Y1994D01*
X1162Y1994D01*
X1162Y1992D01*
X1164Y1992D01*
X1164Y1990D01*
X1166Y1990D01*
X1166Y1988D01*
X1170Y1988D01*
X1170Y1984D01*
X1172Y1984D01*
X1172Y1982D01*
X1174Y1982D01*
X1174Y1980D01*
X1176Y1980D01*
X1176Y1976D01*
X1178Y1976D01*
X1178Y1970D01*
X1180Y1970D01*
X1180Y1914D01*
X1294Y1914D01*
X1294Y1898D01*
X1650Y1898D01*
X1650Y1896D01*
X1656Y1896D01*
X1656Y1894D01*
X1676Y1894D01*
X1676Y1896D01*
X1678Y1896D01*
X1678Y1898D01*
X1680Y1898D01*
X1680Y1900D01*
X1682Y1900D01*
X1682Y1902D01*
X1684Y1902D01*
X1684Y1904D01*
X1686Y1904D01*
X1686Y1906D01*
X1688Y1906D01*
X1688Y2024D01*
X1686Y2024D01*
X1686Y2060D01*
X1688Y2060D01*
X1688Y2070D01*
X1690Y2070D01*
X1690Y2074D01*
X1692Y2074D01*
X1692Y2078D01*
X1694Y2078D01*
X1694Y2080D01*
X1696Y2080D01*
X1696Y2082D01*
X1698Y2082D01*
X1698Y2084D01*
X1700Y2084D01*
X1700Y2086D01*
X1702Y2086D01*
X1702Y2088D01*
X1706Y2088D01*
X1706Y2090D01*
X1710Y2090D01*
X1710Y2092D01*
X1716Y2092D01*
X1716Y2094D01*
X44Y2094D01*
G37*
D02*
G36*
X44Y1998D02*
X44Y1622D01*
X150Y1622D01*
X150Y1620D01*
X156Y1620D01*
X156Y1618D01*
X162Y1618D01*
X162Y1616D01*
X166Y1616D01*
X166Y1614D01*
X168Y1614D01*
X168Y1612D01*
X190Y1612D01*
X190Y1972D01*
X192Y1972D01*
X192Y1976D01*
X194Y1976D01*
X194Y1980D01*
X196Y1980D01*
X196Y1984D01*
X198Y1984D01*
X198Y1986D01*
X200Y1986D01*
X200Y1988D01*
X202Y1988D01*
X202Y1990D01*
X204Y1990D01*
X204Y1992D01*
X208Y1992D01*
X208Y1994D01*
X212Y1994D01*
X212Y1996D01*
X218Y1996D01*
X218Y1998D01*
X44Y1998D01*
G37*
D02*
G36*
X278Y1910D02*
X278Y1790D01*
X1022Y1790D01*
X1022Y1792D01*
X1014Y1792D01*
X1014Y1794D01*
X1008Y1794D01*
X1008Y1796D01*
X1004Y1796D01*
X1004Y1798D01*
X1000Y1798D01*
X1000Y1800D01*
X998Y1800D01*
X998Y1802D01*
X996Y1802D01*
X996Y1804D01*
X992Y1804D01*
X992Y1806D01*
X990Y1806D01*
X990Y1808D01*
X988Y1808D01*
X988Y1810D01*
X986Y1810D01*
X986Y1814D01*
X984Y1814D01*
X984Y1816D01*
X982Y1816D01*
X982Y1818D01*
X980Y1818D01*
X980Y1822D01*
X978Y1822D01*
X978Y1826D01*
X976Y1826D01*
X976Y1830D01*
X974Y1830D01*
X974Y1836D01*
X972Y1836D01*
X972Y1868D01*
X974Y1868D01*
X974Y1874D01*
X976Y1874D01*
X976Y1880D01*
X978Y1880D01*
X978Y1882D01*
X980Y1882D01*
X980Y1886D01*
X982Y1886D01*
X982Y1888D01*
X984Y1888D01*
X984Y1910D01*
X278Y1910D01*
G37*
D02*
G36*
X1294Y1898D02*
X1294Y1896D01*
X1388Y1896D01*
X1388Y1898D01*
X1294Y1898D01*
G37*
D02*
G36*
X1068Y1802D02*
X1068Y1800D01*
X1066Y1800D01*
X1066Y1798D01*
X1062Y1798D01*
X1062Y1796D01*
X1058Y1796D01*
X1058Y1794D01*
X1054Y1794D01*
X1054Y1792D01*
X1044Y1792D01*
X1044Y1790D01*
X1090Y1790D01*
X1090Y1802D01*
X1068Y1802D01*
G37*
D02*
G36*
X278Y1790D02*
X278Y1788D01*
X1090Y1788D01*
X1090Y1790D01*
X278Y1790D01*
G37*
D02*
G36*
X278Y1790D02*
X278Y1788D01*
X1090Y1788D01*
X1090Y1790D01*
X278Y1790D01*
G37*
D02*
G36*
X278Y1788D02*
X278Y1614D01*
X1048Y1614D01*
X1048Y1612D01*
X1054Y1612D01*
X1054Y1610D01*
X1060Y1610D01*
X1060Y1608D01*
X1064Y1608D01*
X1064Y1606D01*
X1066Y1606D01*
X1066Y1604D01*
X1070Y1604D01*
X1070Y1602D01*
X1090Y1602D01*
X1090Y1788D01*
X278Y1788D01*
G37*
D02*
G36*
X44Y1622D02*
X44Y782D01*
X118Y782D01*
X118Y784D01*
X110Y784D01*
X110Y786D01*
X106Y786D01*
X106Y788D01*
X102Y788D01*
X102Y790D01*
X98Y790D01*
X98Y792D01*
X96Y792D01*
X96Y794D01*
X92Y794D01*
X92Y796D01*
X90Y796D01*
X90Y798D01*
X88Y798D01*
X88Y800D01*
X86Y800D01*
X86Y802D01*
X84Y802D01*
X84Y804D01*
X82Y804D01*
X82Y806D01*
X80Y806D01*
X80Y808D01*
X78Y808D01*
X78Y810D01*
X76Y810D01*
X76Y812D01*
X74Y812D01*
X74Y816D01*
X72Y816D01*
X72Y820D01*
X70Y820D01*
X70Y822D01*
X68Y822D01*
X68Y828D01*
X66Y828D01*
X66Y834D01*
X64Y834D01*
X64Y870D01*
X66Y870D01*
X66Y876D01*
X68Y876D01*
X68Y882D01*
X70Y882D01*
X70Y886D01*
X72Y886D01*
X72Y888D01*
X74Y888D01*
X74Y892D01*
X76Y892D01*
X76Y912D01*
X74Y912D01*
X74Y916D01*
X72Y916D01*
X72Y920D01*
X70Y920D01*
X70Y922D01*
X68Y922D01*
X68Y928D01*
X66Y928D01*
X66Y934D01*
X64Y934D01*
X64Y970D01*
X66Y970D01*
X66Y978D01*
X68Y978D01*
X68Y982D01*
X70Y982D01*
X70Y986D01*
X72Y986D01*
X72Y988D01*
X74Y988D01*
X74Y992D01*
X76Y992D01*
X76Y1012D01*
X74Y1012D01*
X74Y1016D01*
X72Y1016D01*
X72Y1020D01*
X70Y1020D01*
X70Y1022D01*
X68Y1022D01*
X68Y1028D01*
X66Y1028D01*
X66Y1034D01*
X64Y1034D01*
X64Y1070D01*
X66Y1070D01*
X66Y1078D01*
X68Y1078D01*
X68Y1082D01*
X70Y1082D01*
X70Y1086D01*
X72Y1086D01*
X72Y1088D01*
X74Y1088D01*
X74Y1092D01*
X76Y1092D01*
X76Y1112D01*
X74Y1112D01*
X74Y1116D01*
X72Y1116D01*
X72Y1120D01*
X70Y1120D01*
X70Y1122D01*
X68Y1122D01*
X68Y1128D01*
X66Y1128D01*
X66Y1134D01*
X64Y1134D01*
X64Y1170D01*
X66Y1170D01*
X66Y1178D01*
X68Y1178D01*
X68Y1182D01*
X70Y1182D01*
X70Y1186D01*
X72Y1186D01*
X72Y1188D01*
X74Y1188D01*
X74Y1192D01*
X76Y1192D01*
X76Y1212D01*
X74Y1212D01*
X74Y1216D01*
X72Y1216D01*
X72Y1220D01*
X70Y1220D01*
X70Y1222D01*
X68Y1222D01*
X68Y1228D01*
X66Y1228D01*
X66Y1234D01*
X64Y1234D01*
X64Y1270D01*
X66Y1270D01*
X66Y1276D01*
X68Y1276D01*
X68Y1282D01*
X70Y1282D01*
X70Y1286D01*
X72Y1286D01*
X72Y1288D01*
X74Y1288D01*
X74Y1292D01*
X76Y1292D01*
X76Y1312D01*
X74Y1312D01*
X74Y1316D01*
X72Y1316D01*
X72Y1320D01*
X70Y1320D01*
X70Y1322D01*
X68Y1322D01*
X68Y1328D01*
X66Y1328D01*
X66Y1334D01*
X64Y1334D01*
X64Y1370D01*
X66Y1370D01*
X66Y1376D01*
X68Y1376D01*
X68Y1382D01*
X70Y1382D01*
X70Y1386D01*
X72Y1386D01*
X72Y1388D01*
X74Y1388D01*
X74Y1392D01*
X76Y1392D01*
X76Y1412D01*
X74Y1412D01*
X74Y1416D01*
X72Y1416D01*
X72Y1420D01*
X70Y1420D01*
X70Y1422D01*
X68Y1422D01*
X68Y1428D01*
X66Y1428D01*
X66Y1434D01*
X64Y1434D01*
X64Y1470D01*
X66Y1470D01*
X66Y1478D01*
X68Y1478D01*
X68Y1482D01*
X70Y1482D01*
X70Y1486D01*
X72Y1486D01*
X72Y1488D01*
X74Y1488D01*
X74Y1492D01*
X76Y1492D01*
X76Y1512D01*
X74Y1512D01*
X74Y1516D01*
X72Y1516D01*
X72Y1520D01*
X70Y1520D01*
X70Y1522D01*
X68Y1522D01*
X68Y1528D01*
X66Y1528D01*
X66Y1534D01*
X64Y1534D01*
X64Y1570D01*
X66Y1570D01*
X66Y1578D01*
X68Y1578D01*
X68Y1582D01*
X70Y1582D01*
X70Y1586D01*
X72Y1586D01*
X72Y1588D01*
X74Y1588D01*
X74Y1592D01*
X76Y1592D01*
X76Y1594D01*
X78Y1594D01*
X78Y1596D01*
X80Y1596D01*
X80Y1600D01*
X82Y1600D01*
X82Y1602D01*
X84Y1602D01*
X84Y1604D01*
X88Y1604D01*
X88Y1606D01*
X90Y1606D01*
X90Y1608D01*
X92Y1608D01*
X92Y1610D01*
X94Y1610D01*
X94Y1612D01*
X98Y1612D01*
X98Y1614D01*
X102Y1614D01*
X102Y1616D01*
X106Y1616D01*
X106Y1618D01*
X110Y1618D01*
X110Y1620D01*
X116Y1620D01*
X116Y1622D01*
X44Y1622D01*
G37*
D02*
G36*
X278Y1614D02*
X278Y1490D01*
X1022Y1490D01*
X1022Y1492D01*
X1014Y1492D01*
X1014Y1494D01*
X1008Y1494D01*
X1008Y1496D01*
X1004Y1496D01*
X1004Y1498D01*
X1000Y1498D01*
X1000Y1500D01*
X998Y1500D01*
X998Y1502D01*
X996Y1502D01*
X996Y1504D01*
X992Y1504D01*
X992Y1506D01*
X990Y1506D01*
X990Y1508D01*
X988Y1508D01*
X988Y1510D01*
X986Y1510D01*
X986Y1514D01*
X984Y1514D01*
X984Y1516D01*
X982Y1516D01*
X982Y1518D01*
X980Y1518D01*
X980Y1522D01*
X978Y1522D01*
X978Y1526D01*
X976Y1526D01*
X976Y1530D01*
X974Y1530D01*
X974Y1536D01*
X972Y1536D01*
X972Y1568D01*
X974Y1568D01*
X974Y1574D01*
X976Y1574D01*
X976Y1580D01*
X978Y1580D01*
X978Y1582D01*
X980Y1582D01*
X980Y1586D01*
X982Y1586D01*
X982Y1588D01*
X984Y1588D01*
X984Y1592D01*
X986Y1592D01*
X986Y1594D01*
X988Y1594D01*
X988Y1596D01*
X990Y1596D01*
X990Y1598D01*
X992Y1598D01*
X992Y1600D01*
X994Y1600D01*
X994Y1602D01*
X998Y1602D01*
X998Y1604D01*
X1000Y1604D01*
X1000Y1606D01*
X1004Y1606D01*
X1004Y1608D01*
X1008Y1608D01*
X1008Y1610D01*
X1012Y1610D01*
X1012Y1612D01*
X1020Y1612D01*
X1020Y1614D01*
X278Y1614D01*
G37*
D02*
G36*
X1068Y1502D02*
X1068Y1500D01*
X1066Y1500D01*
X1066Y1498D01*
X1062Y1498D01*
X1062Y1496D01*
X1058Y1496D01*
X1058Y1494D01*
X1054Y1494D01*
X1054Y1492D01*
X1044Y1492D01*
X1044Y1490D01*
X1090Y1490D01*
X1090Y1502D01*
X1068Y1502D01*
G37*
D02*
G36*
X278Y1490D02*
X278Y1488D01*
X1090Y1488D01*
X1090Y1490D01*
X278Y1490D01*
G37*
D02*
G36*
X278Y1490D02*
X278Y1488D01*
X1090Y1488D01*
X1090Y1490D01*
X278Y1490D01*
G37*
D02*
G36*
X278Y1488D02*
X278Y1414D01*
X1048Y1414D01*
X1048Y1412D01*
X1054Y1412D01*
X1054Y1410D01*
X1060Y1410D01*
X1060Y1408D01*
X1064Y1408D01*
X1064Y1406D01*
X1066Y1406D01*
X1066Y1404D01*
X1070Y1404D01*
X1070Y1402D01*
X1090Y1402D01*
X1090Y1488D01*
X278Y1488D01*
G37*
D02*
G36*
X278Y1414D02*
X278Y1290D01*
X1022Y1290D01*
X1022Y1292D01*
X1014Y1292D01*
X1014Y1294D01*
X1008Y1294D01*
X1008Y1296D01*
X1004Y1296D01*
X1004Y1298D01*
X1000Y1298D01*
X1000Y1300D01*
X998Y1300D01*
X998Y1302D01*
X996Y1302D01*
X996Y1304D01*
X992Y1304D01*
X992Y1306D01*
X990Y1306D01*
X990Y1308D01*
X988Y1308D01*
X988Y1310D01*
X986Y1310D01*
X986Y1314D01*
X984Y1314D01*
X984Y1316D01*
X982Y1316D01*
X982Y1318D01*
X980Y1318D01*
X980Y1322D01*
X978Y1322D01*
X978Y1326D01*
X976Y1326D01*
X976Y1330D01*
X974Y1330D01*
X974Y1336D01*
X972Y1336D01*
X972Y1368D01*
X974Y1368D01*
X974Y1374D01*
X976Y1374D01*
X976Y1380D01*
X978Y1380D01*
X978Y1382D01*
X980Y1382D01*
X980Y1386D01*
X982Y1386D01*
X982Y1388D01*
X984Y1388D01*
X984Y1392D01*
X986Y1392D01*
X986Y1394D01*
X988Y1394D01*
X988Y1396D01*
X990Y1396D01*
X990Y1398D01*
X992Y1398D01*
X992Y1400D01*
X994Y1400D01*
X994Y1402D01*
X998Y1402D01*
X998Y1404D01*
X1000Y1404D01*
X1000Y1406D01*
X1004Y1406D01*
X1004Y1408D01*
X1008Y1408D01*
X1008Y1410D01*
X1012Y1410D01*
X1012Y1412D01*
X1020Y1412D01*
X1020Y1414D01*
X278Y1414D01*
G37*
D02*
G36*
X1068Y1302D02*
X1068Y1300D01*
X1066Y1300D01*
X1066Y1298D01*
X1062Y1298D01*
X1062Y1296D01*
X1058Y1296D01*
X1058Y1294D01*
X1054Y1294D01*
X1054Y1292D01*
X1044Y1292D01*
X1044Y1290D01*
X1090Y1290D01*
X1090Y1302D01*
X1068Y1302D01*
G37*
D02*
G36*
X278Y1290D02*
X278Y1288D01*
X1090Y1288D01*
X1090Y1290D01*
X278Y1290D01*
G37*
D02*
G36*
X278Y1290D02*
X278Y1288D01*
X1090Y1288D01*
X1090Y1290D01*
X278Y1290D01*
G37*
D02*
G36*
X278Y1288D02*
X278Y1214D01*
X1048Y1214D01*
X1048Y1212D01*
X1054Y1212D01*
X1054Y1210D01*
X1060Y1210D01*
X1060Y1208D01*
X1064Y1208D01*
X1064Y1206D01*
X1066Y1206D01*
X1066Y1204D01*
X1070Y1204D01*
X1070Y1202D01*
X1090Y1202D01*
X1090Y1288D01*
X278Y1288D01*
G37*
D02*
G36*
X278Y1214D02*
X278Y1142D01*
X276Y1142D01*
X276Y1134D01*
X274Y1134D01*
X274Y1130D01*
X272Y1130D01*
X272Y1126D01*
X270Y1126D01*
X270Y1124D01*
X268Y1124D01*
X268Y1122D01*
X266Y1122D01*
X266Y1120D01*
X264Y1120D01*
X264Y1118D01*
X262Y1118D01*
X262Y1116D01*
X260Y1116D01*
X260Y1114D01*
X256Y1114D01*
X256Y1112D01*
X250Y1112D01*
X250Y1110D01*
X192Y1110D01*
X192Y1090D01*
X1022Y1090D01*
X1022Y1092D01*
X1014Y1092D01*
X1014Y1094D01*
X1008Y1094D01*
X1008Y1096D01*
X1004Y1096D01*
X1004Y1098D01*
X1000Y1098D01*
X1000Y1100D01*
X998Y1100D01*
X998Y1102D01*
X996Y1102D01*
X996Y1104D01*
X992Y1104D01*
X992Y1106D01*
X990Y1106D01*
X990Y1108D01*
X988Y1108D01*
X988Y1110D01*
X986Y1110D01*
X986Y1114D01*
X984Y1114D01*
X984Y1116D01*
X982Y1116D01*
X982Y1118D01*
X980Y1118D01*
X980Y1122D01*
X978Y1122D01*
X978Y1126D01*
X976Y1126D01*
X976Y1130D01*
X974Y1130D01*
X974Y1136D01*
X972Y1136D01*
X972Y1168D01*
X974Y1168D01*
X974Y1174D01*
X976Y1174D01*
X976Y1180D01*
X978Y1180D01*
X978Y1182D01*
X980Y1182D01*
X980Y1186D01*
X982Y1186D01*
X982Y1188D01*
X984Y1188D01*
X984Y1192D01*
X986Y1192D01*
X986Y1194D01*
X988Y1194D01*
X988Y1196D01*
X990Y1196D01*
X990Y1198D01*
X992Y1198D01*
X992Y1200D01*
X994Y1200D01*
X994Y1202D01*
X998Y1202D01*
X998Y1204D01*
X1000Y1204D01*
X1000Y1206D01*
X1004Y1206D01*
X1004Y1208D01*
X1008Y1208D01*
X1008Y1210D01*
X1012Y1210D01*
X1012Y1212D01*
X1020Y1212D01*
X1020Y1214D01*
X278Y1214D01*
G37*
D02*
G36*
X1068Y1102D02*
X1068Y1100D01*
X1066Y1100D01*
X1066Y1098D01*
X1062Y1098D01*
X1062Y1096D01*
X1058Y1096D01*
X1058Y1094D01*
X1054Y1094D01*
X1054Y1092D01*
X1044Y1092D01*
X1044Y1090D01*
X1090Y1090D01*
X1090Y1102D01*
X1068Y1102D01*
G37*
D02*
G36*
X194Y1090D02*
X194Y1088D01*
X1090Y1088D01*
X1090Y1090D01*
X194Y1090D01*
G37*
D02*
G36*
X194Y1090D02*
X194Y1088D01*
X1090Y1088D01*
X1090Y1090D01*
X194Y1090D01*
G37*
D02*
G36*
X194Y1088D02*
X194Y1086D01*
X196Y1086D01*
X196Y1082D01*
X198Y1082D01*
X198Y1078D01*
X200Y1078D01*
X200Y1074D01*
X202Y1074D01*
X202Y1064D01*
X204Y1064D01*
X204Y1040D01*
X202Y1040D01*
X202Y1032D01*
X200Y1032D01*
X200Y1026D01*
X198Y1026D01*
X198Y1022D01*
X196Y1022D01*
X196Y1018D01*
X194Y1018D01*
X194Y1014D01*
X1048Y1014D01*
X1048Y1012D01*
X1054Y1012D01*
X1054Y1010D01*
X1060Y1010D01*
X1060Y1008D01*
X1064Y1008D01*
X1064Y1006D01*
X1066Y1006D01*
X1066Y1004D01*
X1070Y1004D01*
X1070Y1002D01*
X1090Y1002D01*
X1090Y1088D01*
X194Y1088D01*
G37*
D02*
G36*
X1778Y1024D02*
X1778Y952D01*
X2018Y952D01*
X2018Y954D01*
X2012Y954D01*
X2012Y956D01*
X2006Y956D01*
X2006Y958D01*
X2002Y958D01*
X2002Y960D01*
X1998Y960D01*
X1998Y962D01*
X1996Y962D01*
X1996Y964D01*
X1992Y964D01*
X1992Y966D01*
X1990Y966D01*
X1990Y968D01*
X1988Y968D01*
X1988Y970D01*
X1986Y970D01*
X1986Y972D01*
X1984Y972D01*
X1984Y974D01*
X1982Y974D01*
X1982Y976D01*
X1980Y976D01*
X1980Y978D01*
X1978Y978D01*
X1978Y980D01*
X1976Y980D01*
X1976Y982D01*
X1974Y982D01*
X1974Y986D01*
X1972Y986D01*
X1972Y990D01*
X1970Y990D01*
X1970Y992D01*
X1968Y992D01*
X1968Y996D01*
X1962Y996D01*
X1962Y998D01*
X1956Y998D01*
X1956Y1000D01*
X1948Y1000D01*
X1948Y1002D01*
X1942Y1002D01*
X1942Y1004D01*
X1936Y1004D01*
X1936Y1006D01*
X1930Y1006D01*
X1930Y1008D01*
X1924Y1008D01*
X1924Y1010D01*
X1818Y1010D01*
X1818Y1012D01*
X1812Y1012D01*
X1812Y1014D01*
X1808Y1014D01*
X1808Y1016D01*
X1804Y1016D01*
X1804Y1018D01*
X1802Y1018D01*
X1802Y1020D01*
X1800Y1020D01*
X1800Y1022D01*
X1798Y1022D01*
X1798Y1024D01*
X1778Y1024D01*
G37*
D02*
G36*
X192Y1014D02*
X192Y1012D01*
X190Y1012D01*
X190Y992D01*
X192Y992D01*
X192Y990D01*
X194Y990D01*
X194Y986D01*
X196Y986D01*
X196Y982D01*
X198Y982D01*
X198Y978D01*
X200Y978D01*
X200Y974D01*
X202Y974D01*
X202Y964D01*
X204Y964D01*
X204Y940D01*
X202Y940D01*
X202Y932D01*
X200Y932D01*
X200Y926D01*
X198Y926D01*
X198Y922D01*
X196Y922D01*
X196Y918D01*
X194Y918D01*
X194Y914D01*
X192Y914D01*
X192Y912D01*
X190Y912D01*
X190Y892D01*
X192Y892D01*
X192Y890D01*
X1022Y890D01*
X1022Y892D01*
X1014Y892D01*
X1014Y894D01*
X1008Y894D01*
X1008Y896D01*
X1004Y896D01*
X1004Y898D01*
X1000Y898D01*
X1000Y900D01*
X998Y900D01*
X998Y902D01*
X996Y902D01*
X996Y904D01*
X992Y904D01*
X992Y906D01*
X990Y906D01*
X990Y908D01*
X988Y908D01*
X988Y910D01*
X986Y910D01*
X986Y914D01*
X984Y914D01*
X984Y916D01*
X982Y916D01*
X982Y918D01*
X980Y918D01*
X980Y922D01*
X978Y922D01*
X978Y926D01*
X976Y926D01*
X976Y930D01*
X974Y930D01*
X974Y936D01*
X972Y936D01*
X972Y968D01*
X974Y968D01*
X974Y974D01*
X976Y974D01*
X976Y980D01*
X978Y980D01*
X978Y982D01*
X980Y982D01*
X980Y986D01*
X982Y986D01*
X982Y988D01*
X984Y988D01*
X984Y992D01*
X986Y992D01*
X986Y994D01*
X988Y994D01*
X988Y996D01*
X990Y996D01*
X990Y998D01*
X992Y998D01*
X992Y1000D01*
X994Y1000D01*
X994Y1002D01*
X998Y1002D01*
X998Y1004D01*
X1000Y1004D01*
X1000Y1006D01*
X1004Y1006D01*
X1004Y1008D01*
X1008Y1008D01*
X1008Y1010D01*
X1012Y1010D01*
X1012Y1012D01*
X1020Y1012D01*
X1020Y1014D01*
X192Y1014D01*
G37*
D02*
G36*
X1778Y952D02*
X1778Y950D01*
X2232Y950D01*
X2232Y952D01*
X1778Y952D01*
G37*
D02*
G36*
X1778Y952D02*
X1778Y950D01*
X2232Y950D01*
X2232Y952D01*
X1778Y952D01*
G37*
D02*
G36*
X1778Y950D02*
X1778Y922D01*
X2050Y922D01*
X2050Y920D01*
X2056Y920D01*
X2056Y918D01*
X2062Y918D01*
X2062Y916D01*
X2066Y916D01*
X2066Y914D01*
X2070Y914D01*
X2070Y912D01*
X2072Y912D01*
X2072Y910D01*
X2074Y910D01*
X2074Y908D01*
X2078Y908D01*
X2078Y906D01*
X2080Y906D01*
X2080Y904D01*
X2082Y904D01*
X2082Y902D01*
X2084Y902D01*
X2084Y900D01*
X2086Y900D01*
X2086Y898D01*
X2088Y898D01*
X2088Y896D01*
X2090Y896D01*
X2090Y892D01*
X2092Y892D01*
X2092Y890D01*
X2094Y890D01*
X2094Y886D01*
X2096Y886D01*
X2096Y882D01*
X2098Y882D01*
X2098Y878D01*
X2100Y878D01*
X2100Y874D01*
X2102Y874D01*
X2102Y864D01*
X2104Y864D01*
X2104Y840D01*
X2102Y840D01*
X2102Y832D01*
X2100Y832D01*
X2100Y826D01*
X2098Y826D01*
X2098Y822D01*
X2096Y822D01*
X2096Y818D01*
X2094Y818D01*
X2094Y814D01*
X2092Y814D01*
X2092Y812D01*
X2090Y812D01*
X2090Y792D01*
X2092Y792D01*
X2092Y790D01*
X2094Y790D01*
X2094Y786D01*
X2096Y786D01*
X2096Y782D01*
X2098Y782D01*
X2098Y778D01*
X2100Y778D01*
X2100Y774D01*
X2102Y774D01*
X2102Y764D01*
X2104Y764D01*
X2104Y740D01*
X2102Y740D01*
X2102Y732D01*
X2100Y732D01*
X2100Y726D01*
X2098Y726D01*
X2098Y722D01*
X2096Y722D01*
X2096Y718D01*
X2094Y718D01*
X2094Y714D01*
X2092Y714D01*
X2092Y712D01*
X2090Y712D01*
X2090Y692D01*
X2092Y692D01*
X2092Y690D01*
X2094Y690D01*
X2094Y686D01*
X2096Y686D01*
X2096Y682D01*
X2098Y682D01*
X2098Y678D01*
X2100Y678D01*
X2100Y674D01*
X2102Y674D01*
X2102Y664D01*
X2104Y664D01*
X2104Y640D01*
X2102Y640D01*
X2102Y632D01*
X2100Y632D01*
X2100Y626D01*
X2098Y626D01*
X2098Y622D01*
X2096Y622D01*
X2096Y618D01*
X2094Y618D01*
X2094Y614D01*
X2092Y614D01*
X2092Y612D01*
X2090Y612D01*
X2090Y592D01*
X2092Y592D01*
X2092Y590D01*
X2094Y590D01*
X2094Y586D01*
X2096Y586D01*
X2096Y582D01*
X2098Y582D01*
X2098Y578D01*
X2100Y578D01*
X2100Y574D01*
X2102Y574D01*
X2102Y564D01*
X2104Y564D01*
X2104Y540D01*
X2102Y540D01*
X2102Y532D01*
X2100Y532D01*
X2100Y526D01*
X2098Y526D01*
X2098Y522D01*
X2096Y522D01*
X2096Y518D01*
X2094Y518D01*
X2094Y514D01*
X2092Y514D01*
X2092Y512D01*
X2090Y512D01*
X2090Y492D01*
X2092Y492D01*
X2092Y490D01*
X2094Y490D01*
X2094Y486D01*
X2096Y486D01*
X2096Y482D01*
X2098Y482D01*
X2098Y478D01*
X2100Y478D01*
X2100Y474D01*
X2102Y474D01*
X2102Y464D01*
X2104Y464D01*
X2104Y440D01*
X2102Y440D01*
X2102Y432D01*
X2100Y432D01*
X2100Y426D01*
X2098Y426D01*
X2098Y422D01*
X2096Y422D01*
X2096Y418D01*
X2094Y418D01*
X2094Y414D01*
X2092Y414D01*
X2092Y412D01*
X2090Y412D01*
X2090Y392D01*
X2092Y392D01*
X2092Y390D01*
X2094Y390D01*
X2094Y386D01*
X2096Y386D01*
X2096Y382D01*
X2098Y382D01*
X2098Y378D01*
X2100Y378D01*
X2100Y374D01*
X2102Y374D01*
X2102Y364D01*
X2104Y364D01*
X2104Y340D01*
X2102Y340D01*
X2102Y332D01*
X2100Y332D01*
X2100Y326D01*
X2098Y326D01*
X2098Y322D01*
X2096Y322D01*
X2096Y318D01*
X2094Y318D01*
X2094Y314D01*
X2092Y314D01*
X2092Y312D01*
X2090Y312D01*
X2090Y292D01*
X2092Y292D01*
X2092Y290D01*
X2094Y290D01*
X2094Y286D01*
X2096Y286D01*
X2096Y282D01*
X2098Y282D01*
X2098Y278D01*
X2100Y278D01*
X2100Y274D01*
X2102Y274D01*
X2102Y264D01*
X2104Y264D01*
X2104Y240D01*
X2102Y240D01*
X2102Y232D01*
X2100Y232D01*
X2100Y226D01*
X2098Y226D01*
X2098Y222D01*
X2096Y222D01*
X2096Y218D01*
X2094Y218D01*
X2094Y214D01*
X2092Y214D01*
X2092Y212D01*
X2090Y212D01*
X2090Y192D01*
X2092Y192D01*
X2092Y190D01*
X2094Y190D01*
X2094Y186D01*
X2096Y186D01*
X2096Y182D01*
X2098Y182D01*
X2098Y178D01*
X2100Y178D01*
X2100Y174D01*
X2102Y174D01*
X2102Y164D01*
X2104Y164D01*
X2104Y140D01*
X2102Y140D01*
X2102Y132D01*
X2100Y132D01*
X2100Y126D01*
X2098Y126D01*
X2098Y122D01*
X2096Y122D01*
X2096Y118D01*
X2094Y118D01*
X2094Y114D01*
X2092Y114D01*
X2092Y112D01*
X2090Y112D01*
X2090Y110D01*
X2088Y110D01*
X2088Y106D01*
X2086Y106D01*
X2086Y104D01*
X2084Y104D01*
X2084Y102D01*
X2082Y102D01*
X2082Y100D01*
X2080Y100D01*
X2080Y98D01*
X2076Y98D01*
X2076Y96D01*
X2074Y96D01*
X2074Y94D01*
X2072Y94D01*
X2072Y92D01*
X2068Y92D01*
X2068Y90D01*
X2064Y90D01*
X2064Y88D01*
X2060Y88D01*
X2060Y86D01*
X2056Y86D01*
X2056Y84D01*
X2048Y84D01*
X2048Y82D01*
X2232Y82D01*
X2232Y950D01*
X1778Y950D01*
G37*
D02*
G36*
X1778Y922D02*
X1778Y894D01*
X1842Y894D01*
X1842Y896D01*
X1980Y896D01*
X1980Y900D01*
X1982Y900D01*
X1982Y902D01*
X1984Y902D01*
X1984Y904D01*
X1988Y904D01*
X1988Y906D01*
X1990Y906D01*
X1990Y908D01*
X1992Y908D01*
X1992Y910D01*
X1994Y910D01*
X1994Y912D01*
X1998Y912D01*
X1998Y914D01*
X2002Y914D01*
X2002Y916D01*
X2006Y916D01*
X2006Y918D01*
X2010Y918D01*
X2010Y920D01*
X2016Y920D01*
X2016Y922D01*
X1778Y922D01*
G37*
D02*
G36*
X1068Y902D02*
X1068Y900D01*
X1066Y900D01*
X1066Y898D01*
X1062Y898D01*
X1062Y896D01*
X1058Y896D01*
X1058Y894D01*
X1054Y894D01*
X1054Y892D01*
X1044Y892D01*
X1044Y890D01*
X1090Y890D01*
X1090Y902D01*
X1068Y902D01*
G37*
D02*
G36*
X194Y890D02*
X194Y888D01*
X1090Y888D01*
X1090Y890D01*
X194Y890D01*
G37*
D02*
G36*
X194Y890D02*
X194Y888D01*
X1090Y888D01*
X1090Y890D01*
X194Y890D01*
G37*
D02*
G36*
X194Y888D02*
X194Y886D01*
X196Y886D01*
X196Y882D01*
X198Y882D01*
X198Y878D01*
X200Y878D01*
X200Y874D01*
X202Y874D01*
X202Y864D01*
X204Y864D01*
X204Y840D01*
X202Y840D01*
X202Y832D01*
X200Y832D01*
X200Y826D01*
X198Y826D01*
X198Y822D01*
X196Y822D01*
X196Y818D01*
X194Y818D01*
X194Y814D01*
X1048Y814D01*
X1048Y812D01*
X1054Y812D01*
X1054Y810D01*
X1060Y810D01*
X1060Y808D01*
X1064Y808D01*
X1064Y806D01*
X1066Y806D01*
X1066Y804D01*
X1070Y804D01*
X1070Y802D01*
X1090Y802D01*
X1090Y888D01*
X194Y888D01*
G37*
D02*
G36*
X192Y814D02*
X192Y812D01*
X190Y812D01*
X190Y810D01*
X188Y810D01*
X188Y806D01*
X186Y806D01*
X186Y804D01*
X184Y804D01*
X184Y802D01*
X182Y802D01*
X182Y800D01*
X180Y800D01*
X180Y798D01*
X176Y798D01*
X176Y796D01*
X174Y796D01*
X174Y794D01*
X172Y794D01*
X172Y792D01*
X168Y792D01*
X168Y790D01*
X164Y790D01*
X164Y788D01*
X160Y788D01*
X160Y786D01*
X156Y786D01*
X156Y784D01*
X148Y784D01*
X148Y782D01*
X980Y782D01*
X980Y786D01*
X982Y786D01*
X982Y788D01*
X984Y788D01*
X984Y792D01*
X986Y792D01*
X986Y794D01*
X988Y794D01*
X988Y796D01*
X990Y796D01*
X990Y798D01*
X992Y798D01*
X992Y800D01*
X994Y800D01*
X994Y802D01*
X998Y802D01*
X998Y804D01*
X1000Y804D01*
X1000Y806D01*
X1004Y806D01*
X1004Y808D01*
X1008Y808D01*
X1008Y810D01*
X1012Y810D01*
X1012Y812D01*
X1020Y812D01*
X1020Y814D01*
X192Y814D01*
G37*
D02*
G36*
X44Y782D02*
X44Y780D01*
X978Y780D01*
X978Y782D01*
X44Y782D01*
G37*
D02*
G36*
X44Y782D02*
X44Y780D01*
X978Y780D01*
X978Y782D01*
X44Y782D01*
G37*
D02*
G36*
X44Y780D02*
X44Y722D01*
X150Y722D01*
X150Y720D01*
X156Y720D01*
X156Y718D01*
X162Y718D01*
X162Y716D01*
X166Y716D01*
X166Y714D01*
X168Y714D01*
X168Y712D01*
X172Y712D01*
X172Y710D01*
X174Y710D01*
X174Y708D01*
X178Y708D01*
X178Y706D01*
X180Y706D01*
X180Y704D01*
X182Y704D01*
X182Y702D01*
X184Y702D01*
X184Y700D01*
X186Y700D01*
X186Y698D01*
X188Y698D01*
X188Y696D01*
X190Y696D01*
X190Y692D01*
X192Y692D01*
X192Y690D01*
X1022Y690D01*
X1022Y692D01*
X1014Y692D01*
X1014Y694D01*
X1008Y694D01*
X1008Y696D01*
X1004Y696D01*
X1004Y698D01*
X1000Y698D01*
X1000Y700D01*
X998Y700D01*
X998Y702D01*
X996Y702D01*
X996Y704D01*
X992Y704D01*
X992Y706D01*
X990Y706D01*
X990Y708D01*
X988Y708D01*
X988Y710D01*
X986Y710D01*
X986Y714D01*
X984Y714D01*
X984Y716D01*
X982Y716D01*
X982Y718D01*
X980Y718D01*
X980Y722D01*
X978Y722D01*
X978Y726D01*
X976Y726D01*
X976Y730D01*
X974Y730D01*
X974Y736D01*
X972Y736D01*
X972Y768D01*
X974Y768D01*
X974Y774D01*
X976Y774D01*
X976Y780D01*
X44Y780D01*
G37*
D02*
G36*
X44Y722D02*
X44Y82D01*
X118Y82D01*
X118Y84D01*
X110Y84D01*
X110Y86D01*
X106Y86D01*
X106Y88D01*
X102Y88D01*
X102Y90D01*
X98Y90D01*
X98Y92D01*
X96Y92D01*
X96Y94D01*
X92Y94D01*
X92Y96D01*
X90Y96D01*
X90Y98D01*
X88Y98D01*
X88Y100D01*
X86Y100D01*
X86Y102D01*
X84Y102D01*
X84Y104D01*
X82Y104D01*
X82Y106D01*
X80Y106D01*
X80Y108D01*
X78Y108D01*
X78Y110D01*
X76Y110D01*
X76Y112D01*
X74Y112D01*
X74Y116D01*
X72Y116D01*
X72Y120D01*
X70Y120D01*
X70Y122D01*
X68Y122D01*
X68Y128D01*
X66Y128D01*
X66Y134D01*
X64Y134D01*
X64Y170D01*
X66Y170D01*
X66Y178D01*
X68Y178D01*
X68Y182D01*
X70Y182D01*
X70Y186D01*
X72Y186D01*
X72Y188D01*
X74Y188D01*
X74Y192D01*
X76Y192D01*
X76Y212D01*
X74Y212D01*
X74Y216D01*
X72Y216D01*
X72Y220D01*
X70Y220D01*
X70Y222D01*
X68Y222D01*
X68Y228D01*
X66Y228D01*
X66Y234D01*
X64Y234D01*
X64Y270D01*
X66Y270D01*
X66Y276D01*
X68Y276D01*
X68Y282D01*
X70Y282D01*
X70Y286D01*
X72Y286D01*
X72Y288D01*
X74Y288D01*
X74Y292D01*
X76Y292D01*
X76Y312D01*
X74Y312D01*
X74Y316D01*
X72Y316D01*
X72Y320D01*
X70Y320D01*
X70Y322D01*
X68Y322D01*
X68Y328D01*
X66Y328D01*
X66Y334D01*
X64Y334D01*
X64Y370D01*
X66Y370D01*
X66Y376D01*
X68Y376D01*
X68Y382D01*
X70Y382D01*
X70Y386D01*
X72Y386D01*
X72Y388D01*
X74Y388D01*
X74Y392D01*
X76Y392D01*
X76Y412D01*
X74Y412D01*
X74Y416D01*
X72Y416D01*
X72Y420D01*
X70Y420D01*
X70Y422D01*
X68Y422D01*
X68Y428D01*
X66Y428D01*
X66Y434D01*
X64Y434D01*
X64Y470D01*
X66Y470D01*
X66Y478D01*
X68Y478D01*
X68Y482D01*
X70Y482D01*
X70Y486D01*
X72Y486D01*
X72Y488D01*
X74Y488D01*
X74Y492D01*
X76Y492D01*
X76Y512D01*
X74Y512D01*
X74Y516D01*
X72Y516D01*
X72Y520D01*
X70Y520D01*
X70Y522D01*
X68Y522D01*
X68Y528D01*
X66Y528D01*
X66Y534D01*
X64Y534D01*
X64Y570D01*
X66Y570D01*
X66Y578D01*
X68Y578D01*
X68Y582D01*
X70Y582D01*
X70Y586D01*
X72Y586D01*
X72Y588D01*
X74Y588D01*
X74Y592D01*
X76Y592D01*
X76Y612D01*
X74Y612D01*
X74Y616D01*
X72Y616D01*
X72Y620D01*
X70Y620D01*
X70Y622D01*
X68Y622D01*
X68Y628D01*
X66Y628D01*
X66Y634D01*
X64Y634D01*
X64Y670D01*
X66Y670D01*
X66Y678D01*
X68Y678D01*
X68Y682D01*
X70Y682D01*
X70Y686D01*
X72Y686D01*
X72Y688D01*
X74Y688D01*
X74Y692D01*
X76Y692D01*
X76Y694D01*
X78Y694D01*
X78Y696D01*
X80Y696D01*
X80Y700D01*
X82Y700D01*
X82Y702D01*
X84Y702D01*
X84Y704D01*
X88Y704D01*
X88Y706D01*
X90Y706D01*
X90Y708D01*
X92Y708D01*
X92Y710D01*
X94Y710D01*
X94Y712D01*
X98Y712D01*
X98Y714D01*
X102Y714D01*
X102Y716D01*
X106Y716D01*
X106Y718D01*
X110Y718D01*
X110Y720D01*
X116Y720D01*
X116Y722D01*
X44Y722D01*
G37*
D02*
G36*
X1068Y702D02*
X1068Y700D01*
X1066Y700D01*
X1066Y698D01*
X1062Y698D01*
X1062Y696D01*
X1058Y696D01*
X1058Y694D01*
X1054Y694D01*
X1054Y692D01*
X1044Y692D01*
X1044Y690D01*
X1090Y690D01*
X1090Y702D01*
X1068Y702D01*
G37*
D02*
G36*
X194Y690D02*
X194Y688D01*
X1090Y688D01*
X1090Y690D01*
X194Y690D01*
G37*
D02*
G36*
X194Y690D02*
X194Y688D01*
X1090Y688D01*
X1090Y690D01*
X194Y690D01*
G37*
D02*
G36*
X194Y688D02*
X194Y686D01*
X196Y686D01*
X196Y682D01*
X198Y682D01*
X198Y678D01*
X200Y678D01*
X200Y674D01*
X202Y674D01*
X202Y664D01*
X204Y664D01*
X204Y640D01*
X202Y640D01*
X202Y632D01*
X200Y632D01*
X200Y626D01*
X198Y626D01*
X198Y622D01*
X196Y622D01*
X196Y618D01*
X194Y618D01*
X194Y614D01*
X1048Y614D01*
X1048Y612D01*
X1054Y612D01*
X1054Y610D01*
X1060Y610D01*
X1060Y608D01*
X1064Y608D01*
X1064Y606D01*
X1066Y606D01*
X1066Y604D01*
X1070Y604D01*
X1070Y602D01*
X1090Y602D01*
X1090Y688D01*
X194Y688D01*
G37*
D02*
G36*
X192Y614D02*
X192Y612D01*
X190Y612D01*
X190Y592D01*
X192Y592D01*
X192Y590D01*
X194Y590D01*
X194Y586D01*
X196Y586D01*
X196Y582D01*
X198Y582D01*
X198Y578D01*
X200Y578D01*
X200Y574D01*
X202Y574D01*
X202Y564D01*
X204Y564D01*
X204Y540D01*
X202Y540D01*
X202Y532D01*
X200Y532D01*
X200Y526D01*
X198Y526D01*
X198Y522D01*
X196Y522D01*
X196Y518D01*
X194Y518D01*
X194Y514D01*
X192Y514D01*
X192Y512D01*
X190Y512D01*
X190Y492D01*
X192Y492D01*
X192Y490D01*
X1022Y490D01*
X1022Y492D01*
X1014Y492D01*
X1014Y494D01*
X1008Y494D01*
X1008Y496D01*
X1004Y496D01*
X1004Y498D01*
X1000Y498D01*
X1000Y500D01*
X998Y500D01*
X998Y502D01*
X996Y502D01*
X996Y504D01*
X992Y504D01*
X992Y506D01*
X990Y506D01*
X990Y508D01*
X988Y508D01*
X988Y510D01*
X986Y510D01*
X986Y514D01*
X984Y514D01*
X984Y516D01*
X982Y516D01*
X982Y518D01*
X980Y518D01*
X980Y522D01*
X978Y522D01*
X978Y526D01*
X976Y526D01*
X976Y530D01*
X974Y530D01*
X974Y536D01*
X972Y536D01*
X972Y568D01*
X974Y568D01*
X974Y574D01*
X976Y574D01*
X976Y580D01*
X978Y580D01*
X978Y582D01*
X980Y582D01*
X980Y586D01*
X982Y586D01*
X982Y588D01*
X984Y588D01*
X984Y592D01*
X986Y592D01*
X986Y594D01*
X988Y594D01*
X988Y596D01*
X990Y596D01*
X990Y598D01*
X992Y598D01*
X992Y600D01*
X994Y600D01*
X994Y602D01*
X998Y602D01*
X998Y604D01*
X1000Y604D01*
X1000Y606D01*
X1004Y606D01*
X1004Y608D01*
X1008Y608D01*
X1008Y610D01*
X1012Y610D01*
X1012Y612D01*
X1020Y612D01*
X1020Y614D01*
X192Y614D01*
G37*
D02*
G36*
X1068Y502D02*
X1068Y500D01*
X1066Y500D01*
X1066Y498D01*
X1062Y498D01*
X1062Y496D01*
X1058Y496D01*
X1058Y494D01*
X1054Y494D01*
X1054Y492D01*
X1044Y492D01*
X1044Y490D01*
X1090Y490D01*
X1090Y502D01*
X1068Y502D01*
G37*
D02*
G36*
X194Y490D02*
X194Y488D01*
X1090Y488D01*
X1090Y490D01*
X194Y490D01*
G37*
D02*
G36*
X194Y490D02*
X194Y488D01*
X1090Y488D01*
X1090Y490D01*
X194Y490D01*
G37*
D02*
G36*
X194Y488D02*
X194Y486D01*
X196Y486D01*
X196Y482D01*
X198Y482D01*
X198Y478D01*
X200Y478D01*
X200Y474D01*
X202Y474D01*
X202Y464D01*
X204Y464D01*
X204Y440D01*
X202Y440D01*
X202Y432D01*
X200Y432D01*
X200Y426D01*
X198Y426D01*
X198Y422D01*
X196Y422D01*
X196Y418D01*
X194Y418D01*
X194Y414D01*
X1048Y414D01*
X1048Y412D01*
X1054Y412D01*
X1054Y410D01*
X1060Y410D01*
X1060Y408D01*
X1064Y408D01*
X1064Y406D01*
X1066Y406D01*
X1066Y404D01*
X1070Y404D01*
X1070Y402D01*
X1090Y402D01*
X1090Y488D01*
X194Y488D01*
G37*
D02*
G36*
X192Y414D02*
X192Y412D01*
X190Y412D01*
X190Y392D01*
X192Y392D01*
X192Y390D01*
X194Y390D01*
X194Y386D01*
X196Y386D01*
X196Y382D01*
X198Y382D01*
X198Y378D01*
X200Y378D01*
X200Y374D01*
X202Y374D01*
X202Y364D01*
X204Y364D01*
X204Y340D01*
X202Y340D01*
X202Y332D01*
X200Y332D01*
X200Y326D01*
X198Y326D01*
X198Y322D01*
X196Y322D01*
X196Y318D01*
X194Y318D01*
X194Y314D01*
X192Y314D01*
X192Y312D01*
X190Y312D01*
X190Y292D01*
X192Y292D01*
X192Y290D01*
X1022Y290D01*
X1022Y292D01*
X1014Y292D01*
X1014Y294D01*
X1008Y294D01*
X1008Y296D01*
X1004Y296D01*
X1004Y298D01*
X1000Y298D01*
X1000Y300D01*
X998Y300D01*
X998Y302D01*
X996Y302D01*
X996Y304D01*
X992Y304D01*
X992Y306D01*
X990Y306D01*
X990Y308D01*
X988Y308D01*
X988Y310D01*
X986Y310D01*
X986Y314D01*
X984Y314D01*
X984Y316D01*
X982Y316D01*
X982Y318D01*
X980Y318D01*
X980Y322D01*
X978Y322D01*
X978Y326D01*
X976Y326D01*
X976Y330D01*
X974Y330D01*
X974Y336D01*
X972Y336D01*
X972Y368D01*
X974Y368D01*
X974Y374D01*
X976Y374D01*
X976Y380D01*
X978Y380D01*
X978Y382D01*
X980Y382D01*
X980Y386D01*
X982Y386D01*
X982Y388D01*
X984Y388D01*
X984Y392D01*
X986Y392D01*
X986Y394D01*
X988Y394D01*
X988Y396D01*
X990Y396D01*
X990Y398D01*
X992Y398D01*
X992Y400D01*
X994Y400D01*
X994Y402D01*
X998Y402D01*
X998Y404D01*
X1000Y404D01*
X1000Y406D01*
X1004Y406D01*
X1004Y408D01*
X1008Y408D01*
X1008Y410D01*
X1012Y410D01*
X1012Y412D01*
X1020Y412D01*
X1020Y414D01*
X192Y414D01*
G37*
D02*
G36*
X1678Y310D02*
X1678Y132D01*
X1676Y132D01*
X1676Y126D01*
X1674Y126D01*
X1674Y122D01*
X1672Y122D01*
X1672Y120D01*
X1670Y120D01*
X1670Y118D01*
X1668Y118D01*
X1668Y116D01*
X1666Y116D01*
X1666Y114D01*
X1664Y114D01*
X1664Y112D01*
X1660Y112D01*
X1660Y110D01*
X1658Y110D01*
X1658Y108D01*
X1652Y108D01*
X1652Y106D01*
X1980Y106D01*
X1980Y108D01*
X1978Y108D01*
X1978Y110D01*
X1976Y110D01*
X1976Y112D01*
X1974Y112D01*
X1974Y116D01*
X1972Y116D01*
X1972Y120D01*
X1970Y120D01*
X1970Y122D01*
X1968Y122D01*
X1968Y128D01*
X1966Y128D01*
X1966Y134D01*
X1964Y134D01*
X1964Y170D01*
X1966Y170D01*
X1966Y178D01*
X1968Y178D01*
X1968Y182D01*
X1970Y182D01*
X1970Y186D01*
X1972Y186D01*
X1972Y188D01*
X1974Y188D01*
X1974Y192D01*
X1976Y192D01*
X1976Y212D01*
X1974Y212D01*
X1974Y216D01*
X1972Y216D01*
X1972Y220D01*
X1970Y220D01*
X1970Y222D01*
X1968Y222D01*
X1968Y228D01*
X1966Y228D01*
X1966Y234D01*
X1964Y234D01*
X1964Y270D01*
X1966Y270D01*
X1966Y276D01*
X1968Y276D01*
X1968Y282D01*
X1970Y282D01*
X1970Y286D01*
X1972Y286D01*
X1972Y288D01*
X1974Y288D01*
X1974Y308D01*
X1778Y308D01*
X1778Y310D01*
X1678Y310D01*
G37*
D02*
G36*
X1068Y302D02*
X1068Y300D01*
X1066Y300D01*
X1066Y298D01*
X1062Y298D01*
X1062Y296D01*
X1058Y296D01*
X1058Y294D01*
X1054Y294D01*
X1054Y292D01*
X1044Y292D01*
X1044Y290D01*
X1090Y290D01*
X1090Y302D01*
X1068Y302D01*
G37*
D02*
G36*
X194Y290D02*
X194Y288D01*
X1090Y288D01*
X1090Y290D01*
X194Y290D01*
G37*
D02*
G36*
X194Y290D02*
X194Y288D01*
X1090Y288D01*
X1090Y290D01*
X194Y290D01*
G37*
D02*
G36*
X194Y288D02*
X194Y286D01*
X196Y286D01*
X196Y282D01*
X198Y282D01*
X198Y278D01*
X200Y278D01*
X200Y274D01*
X202Y274D01*
X202Y264D01*
X204Y264D01*
X204Y240D01*
X202Y240D01*
X202Y232D01*
X200Y232D01*
X200Y226D01*
X198Y226D01*
X198Y222D01*
X196Y222D01*
X196Y218D01*
X194Y218D01*
X194Y214D01*
X1048Y214D01*
X1048Y212D01*
X1054Y212D01*
X1054Y210D01*
X1060Y210D01*
X1060Y208D01*
X1064Y208D01*
X1064Y206D01*
X1066Y206D01*
X1066Y204D01*
X1070Y204D01*
X1070Y202D01*
X1090Y202D01*
X1090Y288D01*
X194Y288D01*
G37*
D02*
G36*
X192Y214D02*
X192Y212D01*
X190Y212D01*
X190Y192D01*
X192Y192D01*
X192Y190D01*
X194Y190D01*
X194Y186D01*
X196Y186D01*
X196Y182D01*
X198Y182D01*
X198Y178D01*
X200Y178D01*
X200Y174D01*
X202Y174D01*
X202Y164D01*
X204Y164D01*
X204Y140D01*
X202Y140D01*
X202Y132D01*
X200Y132D01*
X200Y126D01*
X198Y126D01*
X198Y122D01*
X196Y122D01*
X196Y118D01*
X194Y118D01*
X194Y114D01*
X192Y114D01*
X192Y112D01*
X190Y112D01*
X190Y110D01*
X188Y110D01*
X188Y106D01*
X186Y106D01*
X186Y104D01*
X184Y104D01*
X184Y102D01*
X182Y102D01*
X182Y100D01*
X180Y100D01*
X180Y98D01*
X176Y98D01*
X176Y96D01*
X174Y96D01*
X174Y94D01*
X172Y94D01*
X172Y92D01*
X168Y92D01*
X168Y90D01*
X1022Y90D01*
X1022Y92D01*
X1014Y92D01*
X1014Y94D01*
X1008Y94D01*
X1008Y96D01*
X1004Y96D01*
X1004Y98D01*
X1000Y98D01*
X1000Y100D01*
X998Y100D01*
X998Y102D01*
X996Y102D01*
X996Y104D01*
X992Y104D01*
X992Y106D01*
X990Y106D01*
X990Y108D01*
X988Y108D01*
X988Y110D01*
X986Y110D01*
X986Y114D01*
X984Y114D01*
X984Y116D01*
X982Y116D01*
X982Y118D01*
X980Y118D01*
X980Y122D01*
X978Y122D01*
X978Y126D01*
X976Y126D01*
X976Y130D01*
X974Y130D01*
X974Y136D01*
X972Y136D01*
X972Y168D01*
X974Y168D01*
X974Y174D01*
X976Y174D01*
X976Y180D01*
X978Y180D01*
X978Y182D01*
X980Y182D01*
X980Y186D01*
X982Y186D01*
X982Y188D01*
X984Y188D01*
X984Y192D01*
X986Y192D01*
X986Y194D01*
X988Y194D01*
X988Y196D01*
X990Y196D01*
X990Y198D01*
X992Y198D01*
X992Y200D01*
X994Y200D01*
X994Y202D01*
X998Y202D01*
X998Y204D01*
X1000Y204D01*
X1000Y206D01*
X1004Y206D01*
X1004Y208D01*
X1008Y208D01*
X1008Y210D01*
X1012Y210D01*
X1012Y212D01*
X1020Y212D01*
X1020Y214D01*
X192Y214D01*
G37*
D02*
G36*
X1294Y108D02*
X1294Y106D01*
X1408Y106D01*
X1408Y108D01*
X1294Y108D01*
G37*
D02*
G36*
X1294Y106D02*
X1294Y104D01*
X1982Y104D01*
X1982Y106D01*
X1294Y106D01*
G37*
D02*
G36*
X1294Y106D02*
X1294Y104D01*
X1982Y104D01*
X1982Y106D01*
X1294Y106D01*
G37*
D02*
G36*
X1072Y104D02*
X1072Y102D01*
X1068Y102D01*
X1068Y100D01*
X1066Y100D01*
X1066Y98D01*
X1062Y98D01*
X1062Y96D01*
X1058Y96D01*
X1058Y94D01*
X1054Y94D01*
X1054Y92D01*
X1044Y92D01*
X1044Y90D01*
X1122Y90D01*
X1122Y92D01*
X1114Y92D01*
X1114Y94D01*
X1108Y94D01*
X1108Y96D01*
X1104Y96D01*
X1104Y98D01*
X1100Y98D01*
X1100Y100D01*
X1098Y100D01*
X1098Y102D01*
X1096Y102D01*
X1096Y104D01*
X1072Y104D01*
G37*
D02*
G36*
X1294Y104D02*
X1294Y90D01*
X1998Y90D01*
X1998Y92D01*
X1996Y92D01*
X1996Y94D01*
X1992Y94D01*
X1992Y96D01*
X1990Y96D01*
X1990Y98D01*
X1988Y98D01*
X1988Y100D01*
X1986Y100D01*
X1986Y102D01*
X1984Y102D01*
X1984Y104D01*
X1294Y104D01*
G37*
D02*
G36*
X1144Y92D02*
X1144Y90D01*
X1172Y90D01*
X1172Y92D01*
X1144Y92D01*
G37*
D02*
G36*
X164Y90D02*
X164Y88D01*
X2002Y88D01*
X2002Y90D01*
X164Y90D01*
G37*
D02*
G36*
X164Y90D02*
X164Y88D01*
X2002Y88D01*
X2002Y90D01*
X164Y90D01*
G37*
D02*
G36*
X164Y90D02*
X164Y88D01*
X2002Y88D01*
X2002Y90D01*
X164Y90D01*
G37*
D02*
G36*
X164Y90D02*
X164Y88D01*
X2002Y88D01*
X2002Y90D01*
X164Y90D01*
G37*
D02*
G36*
X160Y88D02*
X160Y86D01*
X156Y86D01*
X156Y84D01*
X148Y84D01*
X148Y82D01*
X2018Y82D01*
X2018Y84D01*
X2010Y84D01*
X2010Y86D01*
X2006Y86D01*
X2006Y88D01*
X160Y88D01*
G37*
D02*
G36*
X44Y82D02*
X44Y80D01*
X2232Y80D01*
X2232Y82D01*
X44Y82D01*
G37*
D02*
G36*
X44Y82D02*
X44Y80D01*
X2232Y80D01*
X2232Y82D01*
X44Y82D01*
G37*
D02*
G36*
X44Y82D02*
X44Y80D01*
X2232Y80D01*
X2232Y82D01*
X44Y82D01*
G37*
D02*
G36*
X44Y80D02*
X44Y40D01*
X2232Y40D01*
X2232Y80D01*
X44Y80D01*
G37*
D02*
G36*
X1294Y908D02*
X1294Y890D01*
X1178Y890D01*
X1178Y814D01*
X1294Y814D01*
X1294Y796D01*
X1516Y796D01*
X1516Y794D01*
X1554Y794D01*
X1554Y792D01*
X1558Y792D01*
X1558Y790D01*
X1562Y790D01*
X1562Y788D01*
X1566Y788D01*
X1566Y786D01*
X1568Y786D01*
X1568Y784D01*
X1570Y784D01*
X1570Y782D01*
X1590Y782D01*
X1590Y906D01*
X1408Y906D01*
X1408Y908D01*
X1294Y908D01*
G37*
D02*
G36*
X1294Y708D02*
X1294Y690D01*
X1178Y690D01*
X1178Y614D01*
X1294Y614D01*
X1294Y596D01*
X1506Y596D01*
X1506Y616D01*
X1504Y616D01*
X1504Y618D01*
X1502Y618D01*
X1502Y620D01*
X1500Y620D01*
X1500Y622D01*
X1498Y622D01*
X1498Y624D01*
X1496Y624D01*
X1496Y628D01*
X1494Y628D01*
X1494Y634D01*
X1492Y634D01*
X1492Y708D01*
X1294Y708D01*
G37*
D02*
G36*
X1294Y508D02*
X1294Y490D01*
X1178Y490D01*
X1178Y414D01*
X1294Y414D01*
X1294Y396D01*
X1410Y396D01*
X1410Y398D01*
X1492Y398D01*
X1492Y472D01*
X1494Y472D01*
X1494Y476D01*
X1496Y476D01*
X1496Y480D01*
X1498Y480D01*
X1498Y482D01*
X1500Y482D01*
X1500Y484D01*
X1502Y484D01*
X1502Y486D01*
X1504Y486D01*
X1504Y488D01*
X1506Y488D01*
X1506Y508D01*
X1294Y508D01*
G37*
D02*
G36*
X1570Y324D02*
X1570Y320D01*
X1566Y320D01*
X1566Y318D01*
X1564Y318D01*
X1564Y316D01*
X1562Y316D01*
X1562Y314D01*
X1558Y314D01*
X1558Y312D01*
X1552Y312D01*
X1552Y310D01*
X1428Y310D01*
X1428Y308D01*
X1294Y308D01*
X1294Y290D01*
X1178Y290D01*
X1178Y214D01*
X1294Y214D01*
X1294Y196D01*
X1424Y196D01*
X1424Y194D01*
X1590Y194D01*
X1590Y324D01*
X1570Y324D01*
G37*
D02*
G36*
X1960Y1643D02*
X2012Y1643D01*
X2012Y1606D01*
X1960Y1606D01*
X1960Y1643D01*
G37*
D02*
G36*
X60Y1073D02*
X114Y1073D01*
X114Y1036D01*
X60Y1036D01*
X60Y1073D01*
G37*
D02*
G36*
X148Y1073D02*
X204Y1073D01*
X204Y1036D01*
X148Y1036D01*
X148Y1073D01*
G37*
D02*
G36*
X60Y973D02*
X114Y973D01*
X114Y936D01*
X60Y936D01*
X60Y973D01*
G37*
D02*
G36*
X968Y1169D02*
X1012Y1169D01*
X1012Y1140D01*
X968Y1140D01*
X968Y1169D01*
G37*
D02*
G36*
X968Y769D02*
X1012Y769D01*
X1012Y740D01*
X968Y740D01*
X968Y769D01*
G37*
D02*
G36*
X968Y1369D02*
X1012Y1369D01*
X1012Y1340D01*
X968Y1340D01*
X968Y1369D01*
G37*
D02*
G36*
X968Y569D02*
X1012Y569D01*
X1012Y540D01*
X968Y540D01*
X968Y569D01*
G37*
D02*
G36*
X968Y1869D02*
X1012Y1869D01*
X1012Y1840D01*
X968Y1840D01*
X968Y1869D01*
G37*
D02*
G36*
X968Y1569D02*
X1012Y1569D01*
X1012Y1540D01*
X968Y1540D01*
X968Y1569D01*
G37*
D02*
G36*
X968Y369D02*
X1012Y369D01*
X1012Y340D01*
X968Y340D01*
X968Y369D01*
G37*
D02*
G36*
X1017Y136D02*
X1046Y136D01*
X1046Y90D01*
X1017Y90D01*
X1017Y136D01*
G37*
D02*
G36*
X968Y169D02*
X1012Y169D01*
X1012Y140D01*
X968Y140D01*
X968Y169D01*
G37*
D02*
G04 End of Copper0*
M02*