G04 MADE WITH FRITZING*
G04 WWW.FRITZING.ORG*
G04 DOUBLE SIDED*
G04 HOLES PLATED*
G04 CONTOUR ON CENTER OF CONTOUR VECTOR*
%ASAXBY*%
%FSLAX23Y23*%
%MOIN*%
%OFA0B0*%
%SFA1.0B1.0*%
%ADD10C,0.085833*%
%ADD11C,0.069000*%
%ADD12C,0.088000*%
%ADD13R,0.069000X0.069000*%
%ADD14R,0.088000X0.088000*%
%LNMASK1*%
G90*
G70*
G54D10*
X2033Y1929D03*
X2033Y1829D03*
X2033Y1722D03*
X2033Y1622D03*
X2033Y1522D03*
X2033Y1422D03*
X2033Y1322D03*
X2033Y1222D03*
X2033Y1122D03*
X2033Y1022D03*
X2033Y852D03*
X2033Y752D03*
X2033Y652D03*
X2033Y552D03*
X2033Y452D03*
X2033Y352D03*
X2033Y252D03*
X2033Y152D03*
X133Y1552D03*
X133Y1452D03*
X133Y1352D03*
X133Y1252D03*
X133Y1152D03*
X133Y1052D03*
X133Y952D03*
X133Y852D03*
X133Y652D03*
X133Y552D03*
X133Y452D03*
X133Y352D03*
X133Y252D03*
X133Y152D03*
G54D11*
X1233Y152D03*
X1133Y152D03*
X1033Y152D03*
X1233Y352D03*
X1133Y352D03*
X1033Y352D03*
X1233Y552D03*
X1133Y552D03*
X1033Y552D03*
X1233Y752D03*
X1133Y752D03*
X1033Y752D03*
X1233Y952D03*
X1133Y952D03*
X1033Y952D03*
X1233Y1152D03*
X1133Y1152D03*
X1033Y1152D03*
X1233Y1852D03*
X1133Y1852D03*
X1033Y1852D03*
X1233Y1352D03*
X1133Y1352D03*
X1033Y1352D03*
X1233Y1552D03*
X1133Y1552D03*
X1033Y1552D03*
G54D12*
X1733Y1652D03*
X1733Y1752D03*
X1733Y1852D03*
G54D13*
X1233Y152D03*
X1233Y352D03*
X1233Y552D03*
X1233Y752D03*
X1233Y952D03*
X1233Y1152D03*
X1233Y1852D03*
X1233Y1352D03*
X1233Y1552D03*
G54D14*
X1733Y1652D03*
G04 End of Mask1*
M02*