M48
INCH
T10C0.034167
T11C0.037000
T12C0.038000
%
T10
X001490Y003627
X001490Y004627
X001490Y005627
X001490Y006627
X001490Y007627
X001490Y008627
X001490Y010627
X001490Y011627
X001490Y012627
X001490Y013627
X001490Y014627
X001490Y015627
X001490Y016627
X001490Y017627
X020490Y003627
X020490Y004627
X020490Y005627
X020490Y006627
X020490Y007627
X020490Y008627
X020490Y009627
X020490Y010627
X020490Y012327
X020490Y013327
X020490Y014327
X020490Y015327
X020490Y016327
X020490Y017327
X020490Y018327
X020490Y019327
X020490Y020397
X020490Y021397
T11
X010490Y015627
X011490Y015627
X012490Y015627
X010490Y013627
X011490Y013627
X012490Y013627
X010490Y018627
X011490Y018627
X012490Y018627
X010490Y011627
X011490Y011627
X012490Y011627
X010490Y009627
X011490Y009627
X012490Y009627
X010490Y007627
X011490Y007627
X012490Y007627
X010490Y005627
X011490Y005627
X012490Y005627
X010490Y003627
X011490Y003627
X012490Y003627
X010490Y001627
X011490Y001627
X012490Y001627
T12
X017490Y018627
X017490Y019627
X017490Y020627
T00
M30
