G04 MADE WITH FRITZING*
G04 WWW.FRITZING.ORG*
G04 DOUBLE SIDED*
G04 HOLES PLATED*
G04 CONTOUR ON CENTER OF CONTOUR VECTOR*
%ASAXBY*%
%FSLAX23Y23*%
%MOIN*%
%OFA0B0*%
%SFA1.0B1.0*%
%ADD10C,0.075000*%
%ADD11C,0.075833*%
%ADD12C,0.059000*%
%ADD13C,0.078000*%
%ADD14R,0.059000X0.059000*%
%ADD15R,0.078000X0.078000*%
%LNCOPPER1*%
G90*
G70*
G54D10*
X2182Y2189D03*
G54D11*
X2049Y2140D03*
X2049Y2040D03*
X2049Y1933D03*
X2049Y1833D03*
X2049Y1733D03*
X2049Y1633D03*
X2049Y1533D03*
X2049Y1433D03*
X2049Y1333D03*
X2049Y1233D03*
X2049Y1063D03*
X2049Y963D03*
X2049Y863D03*
X2049Y763D03*
X2049Y663D03*
X2049Y563D03*
X2049Y463D03*
X2049Y363D03*
X149Y1763D03*
X149Y1663D03*
X149Y1563D03*
X149Y1463D03*
X149Y1363D03*
X149Y1263D03*
X149Y1163D03*
X149Y1063D03*
X149Y863D03*
X149Y763D03*
X149Y663D03*
X149Y563D03*
X149Y463D03*
X149Y363D03*
G54D12*
X1249Y563D03*
X1149Y563D03*
X1049Y563D03*
X1249Y763D03*
X1149Y763D03*
X1049Y763D03*
X1249Y963D03*
X1149Y963D03*
X1049Y963D03*
X1249Y1163D03*
X1149Y1163D03*
X1049Y1163D03*
X1249Y1363D03*
X1149Y1363D03*
X1049Y1363D03*
X1249Y1563D03*
X1149Y1563D03*
X1049Y1563D03*
X1249Y263D03*
X1149Y263D03*
X1049Y263D03*
X1249Y1763D03*
X1149Y1763D03*
X1049Y1763D03*
X1249Y1963D03*
X1149Y1963D03*
X1049Y1963D03*
G54D13*
X1749Y463D03*
X1749Y363D03*
X1749Y263D03*
G54D14*
X1249Y563D03*
X1249Y763D03*
X1249Y963D03*
X1249Y1163D03*
X1249Y1363D03*
X1249Y1563D03*
X1249Y263D03*
X1249Y1763D03*
X1249Y1963D03*
G54D15*
X1749Y463D03*
G36*
X44Y2269D02*
X44Y2209D01*
X2066Y2209D01*
X2066Y2207D01*
X2072Y2207D01*
X2072Y2205D01*
X2078Y2205D01*
X2078Y2203D01*
X2082Y2203D01*
X2082Y2201D01*
X2084Y2201D01*
X2084Y2199D01*
X2088Y2199D01*
X2088Y2197D01*
X2090Y2197D01*
X2090Y2195D01*
X2094Y2195D01*
X2094Y2193D01*
X2096Y2193D01*
X2096Y2191D01*
X2098Y2191D01*
X2098Y2189D01*
X2100Y2189D01*
X2100Y2187D01*
X2102Y2187D01*
X2102Y2185D01*
X2104Y2185D01*
X2104Y2181D01*
X2106Y2181D01*
X2106Y2179D01*
X2108Y2179D01*
X2108Y2177D01*
X2110Y2177D01*
X2110Y2173D01*
X2112Y2173D01*
X2112Y2169D01*
X2114Y2169D01*
X2114Y2165D01*
X2116Y2165D01*
X2116Y2159D01*
X2118Y2159D01*
X2118Y2119D01*
X2116Y2119D01*
X2116Y2113D01*
X2114Y2113D01*
X2114Y2109D01*
X2112Y2109D01*
X2112Y2105D01*
X2110Y2105D01*
X2110Y2103D01*
X2108Y2103D01*
X2108Y2099D01*
X2106Y2099D01*
X2106Y2079D01*
X2108Y2079D01*
X2108Y2077D01*
X2110Y2077D01*
X2110Y2073D01*
X2112Y2073D01*
X2112Y2069D01*
X2114Y2069D01*
X2114Y2065D01*
X2116Y2065D01*
X2116Y2059D01*
X2118Y2059D01*
X2118Y2019D01*
X2116Y2019D01*
X2116Y2013D01*
X2114Y2013D01*
X2114Y2009D01*
X2112Y2009D01*
X2112Y2005D01*
X2110Y2005D01*
X2110Y2003D01*
X2108Y2003D01*
X2108Y1999D01*
X2106Y1999D01*
X2106Y1997D01*
X2104Y1997D01*
X2104Y1975D01*
X2106Y1975D01*
X2106Y1973D01*
X2108Y1973D01*
X2108Y1969D01*
X2110Y1969D01*
X2110Y1967D01*
X2112Y1967D01*
X2112Y1963D01*
X2114Y1963D01*
X2114Y1957D01*
X2116Y1957D01*
X2116Y1953D01*
X2118Y1953D01*
X2118Y1913D01*
X2116Y1913D01*
X2116Y1907D01*
X2114Y1907D01*
X2114Y1903D01*
X2112Y1903D01*
X2112Y1899D01*
X2110Y1899D01*
X2110Y1895D01*
X2108Y1895D01*
X2108Y1893D01*
X2106Y1893D01*
X2106Y1873D01*
X2108Y1873D01*
X2108Y1869D01*
X2110Y1869D01*
X2110Y1867D01*
X2112Y1867D01*
X2112Y1863D01*
X2114Y1863D01*
X2114Y1857D01*
X2116Y1857D01*
X2116Y1853D01*
X2118Y1853D01*
X2118Y1813D01*
X2116Y1813D01*
X2116Y1807D01*
X2114Y1807D01*
X2114Y1803D01*
X2112Y1803D01*
X2112Y1799D01*
X2110Y1799D01*
X2110Y1795D01*
X2108Y1795D01*
X2108Y1793D01*
X2106Y1793D01*
X2106Y1773D01*
X2108Y1773D01*
X2108Y1769D01*
X2110Y1769D01*
X2110Y1767D01*
X2112Y1767D01*
X2112Y1763D01*
X2114Y1763D01*
X2114Y1757D01*
X2116Y1757D01*
X2116Y1753D01*
X2118Y1753D01*
X2118Y1713D01*
X2116Y1713D01*
X2116Y1707D01*
X2114Y1707D01*
X2114Y1703D01*
X2112Y1703D01*
X2112Y1699D01*
X2110Y1699D01*
X2110Y1695D01*
X2108Y1695D01*
X2108Y1693D01*
X2106Y1693D01*
X2106Y1673D01*
X2108Y1673D01*
X2108Y1669D01*
X2110Y1669D01*
X2110Y1665D01*
X2112Y1665D01*
X2112Y1663D01*
X2114Y1663D01*
X2114Y1657D01*
X2116Y1657D01*
X2116Y1653D01*
X2118Y1653D01*
X2118Y1613D01*
X2116Y1613D01*
X2116Y1607D01*
X2114Y1607D01*
X2114Y1603D01*
X2112Y1603D01*
X2112Y1599D01*
X2110Y1599D01*
X2110Y1595D01*
X2108Y1595D01*
X2108Y1593D01*
X2106Y1593D01*
X2106Y1573D01*
X2108Y1573D01*
X2108Y1569D01*
X2110Y1569D01*
X2110Y1565D01*
X2112Y1565D01*
X2112Y1563D01*
X2114Y1563D01*
X2114Y1557D01*
X2116Y1557D01*
X2116Y1553D01*
X2118Y1553D01*
X2118Y1513D01*
X2116Y1513D01*
X2116Y1507D01*
X2114Y1507D01*
X2114Y1503D01*
X2112Y1503D01*
X2112Y1499D01*
X2110Y1499D01*
X2110Y1495D01*
X2108Y1495D01*
X2108Y1493D01*
X2106Y1493D01*
X2106Y1473D01*
X2108Y1473D01*
X2108Y1469D01*
X2110Y1469D01*
X2110Y1467D01*
X2112Y1467D01*
X2112Y1463D01*
X2114Y1463D01*
X2114Y1457D01*
X2116Y1457D01*
X2116Y1453D01*
X2118Y1453D01*
X2118Y1413D01*
X2116Y1413D01*
X2116Y1407D01*
X2114Y1407D01*
X2114Y1403D01*
X2112Y1403D01*
X2112Y1399D01*
X2110Y1399D01*
X2110Y1395D01*
X2108Y1395D01*
X2108Y1393D01*
X2106Y1393D01*
X2106Y1373D01*
X2108Y1373D01*
X2108Y1369D01*
X2110Y1369D01*
X2110Y1367D01*
X2112Y1367D01*
X2112Y1363D01*
X2114Y1363D01*
X2114Y1357D01*
X2116Y1357D01*
X2116Y1353D01*
X2118Y1353D01*
X2118Y1313D01*
X2116Y1313D01*
X2116Y1307D01*
X2114Y1307D01*
X2114Y1303D01*
X2112Y1303D01*
X2112Y1299D01*
X2110Y1299D01*
X2110Y1295D01*
X2108Y1295D01*
X2108Y1293D01*
X2106Y1293D01*
X2106Y1273D01*
X2108Y1273D01*
X2108Y1269D01*
X2110Y1269D01*
X2110Y1267D01*
X2112Y1267D01*
X2112Y1263D01*
X2114Y1263D01*
X2114Y1257D01*
X2116Y1257D01*
X2116Y1253D01*
X2118Y1253D01*
X2118Y1213D01*
X2116Y1213D01*
X2116Y1207D01*
X2114Y1207D01*
X2114Y1203D01*
X2112Y1203D01*
X2112Y1199D01*
X2110Y1199D01*
X2110Y1195D01*
X2108Y1195D01*
X2108Y1193D01*
X2106Y1193D01*
X2106Y1189D01*
X2104Y1189D01*
X2104Y1187D01*
X2102Y1187D01*
X2102Y1185D01*
X2100Y1185D01*
X2100Y1183D01*
X2098Y1183D01*
X2098Y1181D01*
X2096Y1181D01*
X2096Y1179D01*
X2094Y1179D01*
X2094Y1177D01*
X2092Y1177D01*
X2092Y1175D01*
X2088Y1175D01*
X2088Y1173D01*
X2086Y1173D01*
X2086Y1171D01*
X2082Y1171D01*
X2082Y1169D01*
X2078Y1169D01*
X2078Y1167D01*
X2074Y1167D01*
X2074Y1165D01*
X2068Y1165D01*
X2068Y1163D01*
X2264Y1163D01*
X2264Y2269D01*
X44Y2269D01*
G37*
D02*
G36*
X44Y2209D02*
X44Y2023D01*
X1310Y2023D01*
X1310Y1901D01*
X1986Y1901D01*
X1986Y1903D01*
X1984Y1903D01*
X1984Y1907D01*
X1982Y1907D01*
X1982Y1913D01*
X1980Y1913D01*
X1980Y1953D01*
X1982Y1953D01*
X1982Y1957D01*
X1984Y1957D01*
X1984Y1963D01*
X1986Y1963D01*
X1986Y1965D01*
X1988Y1965D01*
X1988Y1969D01*
X1990Y1969D01*
X1990Y1973D01*
X1992Y1973D01*
X1992Y1975D01*
X1994Y1975D01*
X1994Y1997D01*
X1992Y1997D01*
X1992Y1999D01*
X1990Y1999D01*
X1990Y2003D01*
X1988Y2003D01*
X1988Y2005D01*
X1986Y2005D01*
X1986Y2009D01*
X1984Y2009D01*
X1984Y2013D01*
X1982Y2013D01*
X1982Y2019D01*
X1980Y2019D01*
X1980Y2059D01*
X1982Y2059D01*
X1982Y2065D01*
X1984Y2065D01*
X1984Y2069D01*
X1986Y2069D01*
X1986Y2073D01*
X1988Y2073D01*
X1988Y2077D01*
X1990Y2077D01*
X1990Y2079D01*
X1992Y2079D01*
X1992Y2099D01*
X1990Y2099D01*
X1990Y2103D01*
X1988Y2103D01*
X1988Y2105D01*
X1986Y2105D01*
X1986Y2109D01*
X1984Y2109D01*
X1984Y2113D01*
X1982Y2113D01*
X1982Y2119D01*
X1980Y2119D01*
X1980Y2159D01*
X1982Y2159D01*
X1982Y2165D01*
X1984Y2165D01*
X1984Y2169D01*
X1986Y2169D01*
X1986Y2173D01*
X1988Y2173D01*
X1988Y2177D01*
X1990Y2177D01*
X1990Y2179D01*
X1992Y2179D01*
X1992Y2181D01*
X1994Y2181D01*
X1994Y2185D01*
X1996Y2185D01*
X1996Y2187D01*
X1998Y2187D01*
X1998Y2189D01*
X2000Y2189D01*
X2000Y2191D01*
X2002Y2191D01*
X2002Y2193D01*
X2004Y2193D01*
X2004Y2195D01*
X2008Y2195D01*
X2008Y2197D01*
X2010Y2197D01*
X2010Y2199D01*
X2014Y2199D01*
X2014Y2201D01*
X2016Y2201D01*
X2016Y2203D01*
X2020Y2203D01*
X2020Y2205D01*
X2026Y2205D01*
X2026Y2207D01*
X2032Y2207D01*
X2032Y2209D01*
X44Y2209D01*
G37*
D02*
G36*
X44Y2023D02*
X44Y1901D01*
X1032Y1901D01*
X1032Y1903D01*
X1026Y1903D01*
X1026Y1905D01*
X1022Y1905D01*
X1022Y1907D01*
X1018Y1907D01*
X1018Y1909D01*
X1016Y1909D01*
X1016Y1911D01*
X1012Y1911D01*
X1012Y1913D01*
X1010Y1913D01*
X1010Y1915D01*
X1008Y1915D01*
X1008Y1917D01*
X1006Y1917D01*
X1006Y1919D01*
X1004Y1919D01*
X1004Y1921D01*
X1002Y1921D01*
X1002Y1923D01*
X1000Y1923D01*
X1000Y1925D01*
X998Y1925D01*
X998Y1927D01*
X996Y1927D01*
X996Y1931D01*
X994Y1931D01*
X994Y1935D01*
X992Y1935D01*
X992Y1939D01*
X990Y1939D01*
X990Y1945D01*
X988Y1945D01*
X988Y1979D01*
X990Y1979D01*
X990Y1985D01*
X992Y1985D01*
X992Y1989D01*
X994Y1989D01*
X994Y1993D01*
X996Y1993D01*
X996Y1997D01*
X998Y1997D01*
X998Y1999D01*
X1000Y1999D01*
X1000Y2001D01*
X1002Y2001D01*
X1002Y2005D01*
X1004Y2005D01*
X1004Y2007D01*
X1006Y2007D01*
X1006Y2009D01*
X1010Y2009D01*
X1010Y2011D01*
X1012Y2011D01*
X1012Y2013D01*
X1014Y2013D01*
X1014Y2015D01*
X1018Y2015D01*
X1018Y2017D01*
X1020Y2017D01*
X1020Y2019D01*
X1024Y2019D01*
X1024Y2021D01*
X1030Y2021D01*
X1030Y2023D01*
X44Y2023D01*
G37*
D02*
G36*
X1068Y2023D02*
X1068Y2021D01*
X1072Y2021D01*
X1072Y2019D01*
X1078Y2019D01*
X1078Y2017D01*
X1080Y2017D01*
X1080Y2015D01*
X1084Y2015D01*
X1084Y2013D01*
X1086Y2013D01*
X1086Y2011D01*
X1088Y2011D01*
X1088Y2009D01*
X1110Y2009D01*
X1110Y2011D01*
X1112Y2011D01*
X1112Y2013D01*
X1114Y2013D01*
X1114Y2015D01*
X1118Y2015D01*
X1118Y2017D01*
X1120Y2017D01*
X1120Y2019D01*
X1124Y2019D01*
X1124Y2021D01*
X1130Y2021D01*
X1130Y2023D01*
X1068Y2023D01*
G37*
D02*
G36*
X1168Y2023D02*
X1168Y2021D01*
X1188Y2021D01*
X1188Y2023D01*
X1168Y2023D01*
G37*
D02*
G36*
X1088Y1915D02*
X1088Y1913D01*
X1086Y1913D01*
X1086Y1911D01*
X1082Y1911D01*
X1082Y1909D01*
X1080Y1909D01*
X1080Y1907D01*
X1076Y1907D01*
X1076Y1905D01*
X1072Y1905D01*
X1072Y1903D01*
X1066Y1903D01*
X1066Y1901D01*
X1132Y1901D01*
X1132Y1903D01*
X1126Y1903D01*
X1126Y1905D01*
X1122Y1905D01*
X1122Y1907D01*
X1118Y1907D01*
X1118Y1909D01*
X1116Y1909D01*
X1116Y1911D01*
X1112Y1911D01*
X1112Y1913D01*
X1110Y1913D01*
X1110Y1915D01*
X1088Y1915D01*
G37*
D02*
G36*
X1166Y1903D02*
X1166Y1901D01*
X1188Y1901D01*
X1188Y1903D01*
X1166Y1903D01*
G37*
D02*
G36*
X44Y1901D02*
X44Y1899D01*
X1986Y1899D01*
X1986Y1901D01*
X44Y1901D01*
G37*
D02*
G36*
X44Y1901D02*
X44Y1899D01*
X1986Y1899D01*
X1986Y1901D01*
X44Y1901D01*
G37*
D02*
G36*
X44Y1901D02*
X44Y1899D01*
X1986Y1899D01*
X1986Y1901D01*
X44Y1901D01*
G37*
D02*
G36*
X44Y1901D02*
X44Y1899D01*
X1986Y1899D01*
X1986Y1901D01*
X44Y1901D01*
G37*
D02*
G36*
X44Y1899D02*
X44Y1833D01*
X160Y1833D01*
X160Y1831D01*
X170Y1831D01*
X170Y1829D01*
X176Y1829D01*
X176Y1827D01*
X180Y1827D01*
X180Y1825D01*
X184Y1825D01*
X184Y1823D01*
X1310Y1823D01*
X1310Y1701D01*
X1986Y1701D01*
X1986Y1703D01*
X1984Y1703D01*
X1984Y1707D01*
X1982Y1707D01*
X1982Y1713D01*
X1980Y1713D01*
X1980Y1753D01*
X1982Y1753D01*
X1982Y1757D01*
X1984Y1757D01*
X1984Y1763D01*
X1986Y1763D01*
X1986Y1765D01*
X1988Y1765D01*
X1988Y1769D01*
X1990Y1769D01*
X1990Y1773D01*
X1992Y1773D01*
X1992Y1793D01*
X1990Y1793D01*
X1990Y1795D01*
X1988Y1795D01*
X1988Y1799D01*
X1986Y1799D01*
X1986Y1803D01*
X1984Y1803D01*
X1984Y1807D01*
X1982Y1807D01*
X1982Y1813D01*
X1980Y1813D01*
X1980Y1853D01*
X1982Y1853D01*
X1982Y1857D01*
X1984Y1857D01*
X1984Y1863D01*
X1986Y1863D01*
X1986Y1865D01*
X1988Y1865D01*
X1988Y1869D01*
X1990Y1869D01*
X1990Y1873D01*
X1992Y1873D01*
X1992Y1893D01*
X1990Y1893D01*
X1990Y1895D01*
X1988Y1895D01*
X1988Y1899D01*
X44Y1899D01*
G37*
D02*
G36*
X44Y1833D02*
X44Y993D01*
X130Y993D01*
X130Y995D01*
X124Y995D01*
X124Y997D01*
X120Y997D01*
X120Y999D01*
X116Y999D01*
X116Y1001D01*
X112Y1001D01*
X112Y1003D01*
X110Y1003D01*
X110Y1005D01*
X106Y1005D01*
X106Y1007D01*
X104Y1007D01*
X104Y1009D01*
X102Y1009D01*
X102Y1011D01*
X100Y1011D01*
X100Y1013D01*
X98Y1013D01*
X98Y1015D01*
X96Y1015D01*
X96Y1017D01*
X94Y1017D01*
X94Y1019D01*
X92Y1019D01*
X92Y1023D01*
X90Y1023D01*
X90Y1025D01*
X88Y1025D01*
X88Y1029D01*
X86Y1029D01*
X86Y1033D01*
X84Y1033D01*
X84Y1037D01*
X82Y1037D01*
X82Y1043D01*
X80Y1043D01*
X80Y1083D01*
X82Y1083D01*
X82Y1087D01*
X84Y1087D01*
X84Y1093D01*
X86Y1093D01*
X86Y1095D01*
X88Y1095D01*
X88Y1099D01*
X90Y1099D01*
X90Y1103D01*
X92Y1103D01*
X92Y1123D01*
X90Y1123D01*
X90Y1125D01*
X88Y1125D01*
X88Y1129D01*
X86Y1129D01*
X86Y1133D01*
X84Y1133D01*
X84Y1137D01*
X82Y1137D01*
X82Y1143D01*
X80Y1143D01*
X80Y1183D01*
X82Y1183D01*
X82Y1187D01*
X84Y1187D01*
X84Y1193D01*
X86Y1193D01*
X86Y1195D01*
X88Y1195D01*
X88Y1199D01*
X90Y1199D01*
X90Y1203D01*
X92Y1203D01*
X92Y1223D01*
X90Y1223D01*
X90Y1225D01*
X88Y1225D01*
X88Y1229D01*
X86Y1229D01*
X86Y1233D01*
X84Y1233D01*
X84Y1237D01*
X82Y1237D01*
X82Y1243D01*
X80Y1243D01*
X80Y1283D01*
X82Y1283D01*
X82Y1287D01*
X84Y1287D01*
X84Y1293D01*
X86Y1293D01*
X86Y1295D01*
X88Y1295D01*
X88Y1299D01*
X90Y1299D01*
X90Y1303D01*
X92Y1303D01*
X92Y1323D01*
X90Y1323D01*
X90Y1325D01*
X88Y1325D01*
X88Y1329D01*
X86Y1329D01*
X86Y1333D01*
X84Y1333D01*
X84Y1337D01*
X82Y1337D01*
X82Y1343D01*
X80Y1343D01*
X80Y1383D01*
X82Y1383D01*
X82Y1387D01*
X84Y1387D01*
X84Y1393D01*
X86Y1393D01*
X86Y1395D01*
X88Y1395D01*
X88Y1399D01*
X90Y1399D01*
X90Y1403D01*
X92Y1403D01*
X92Y1423D01*
X90Y1423D01*
X90Y1425D01*
X88Y1425D01*
X88Y1429D01*
X86Y1429D01*
X86Y1433D01*
X84Y1433D01*
X84Y1437D01*
X82Y1437D01*
X82Y1443D01*
X80Y1443D01*
X80Y1483D01*
X82Y1483D01*
X82Y1487D01*
X84Y1487D01*
X84Y1493D01*
X86Y1493D01*
X86Y1495D01*
X88Y1495D01*
X88Y1499D01*
X90Y1499D01*
X90Y1503D01*
X92Y1503D01*
X92Y1523D01*
X90Y1523D01*
X90Y1525D01*
X88Y1525D01*
X88Y1529D01*
X86Y1529D01*
X86Y1533D01*
X84Y1533D01*
X84Y1537D01*
X82Y1537D01*
X82Y1543D01*
X80Y1543D01*
X80Y1583D01*
X82Y1583D01*
X82Y1587D01*
X84Y1587D01*
X84Y1593D01*
X86Y1593D01*
X86Y1595D01*
X88Y1595D01*
X88Y1599D01*
X90Y1599D01*
X90Y1603D01*
X92Y1603D01*
X92Y1623D01*
X90Y1623D01*
X90Y1625D01*
X88Y1625D01*
X88Y1629D01*
X86Y1629D01*
X86Y1633D01*
X84Y1633D01*
X84Y1637D01*
X82Y1637D01*
X82Y1643D01*
X80Y1643D01*
X80Y1683D01*
X82Y1683D01*
X82Y1687D01*
X84Y1687D01*
X84Y1693D01*
X86Y1693D01*
X86Y1695D01*
X88Y1695D01*
X88Y1699D01*
X90Y1699D01*
X90Y1703D01*
X92Y1703D01*
X92Y1723D01*
X90Y1723D01*
X90Y1725D01*
X88Y1725D01*
X88Y1729D01*
X86Y1729D01*
X86Y1733D01*
X84Y1733D01*
X84Y1737D01*
X82Y1737D01*
X82Y1743D01*
X80Y1743D01*
X80Y1783D01*
X82Y1783D01*
X82Y1787D01*
X84Y1787D01*
X84Y1793D01*
X86Y1793D01*
X86Y1795D01*
X88Y1795D01*
X88Y1799D01*
X90Y1799D01*
X90Y1803D01*
X92Y1803D01*
X92Y1805D01*
X94Y1805D01*
X94Y1807D01*
X96Y1807D01*
X96Y1809D01*
X98Y1809D01*
X98Y1811D01*
X100Y1811D01*
X100Y1813D01*
X102Y1813D01*
X102Y1815D01*
X104Y1815D01*
X104Y1817D01*
X106Y1817D01*
X106Y1819D01*
X108Y1819D01*
X108Y1821D01*
X112Y1821D01*
X112Y1823D01*
X114Y1823D01*
X114Y1825D01*
X118Y1825D01*
X118Y1827D01*
X122Y1827D01*
X122Y1829D01*
X128Y1829D01*
X128Y1831D01*
X138Y1831D01*
X138Y1833D01*
X44Y1833D01*
G37*
D02*
G36*
X186Y1823D02*
X186Y1821D01*
X190Y1821D01*
X190Y1819D01*
X192Y1819D01*
X192Y1817D01*
X194Y1817D01*
X194Y1815D01*
X196Y1815D01*
X196Y1813D01*
X198Y1813D01*
X198Y1811D01*
X200Y1811D01*
X200Y1809D01*
X202Y1809D01*
X202Y1807D01*
X204Y1807D01*
X204Y1805D01*
X206Y1805D01*
X206Y1803D01*
X208Y1803D01*
X208Y1799D01*
X210Y1799D01*
X210Y1795D01*
X212Y1795D01*
X212Y1793D01*
X214Y1793D01*
X214Y1787D01*
X216Y1787D01*
X216Y1783D01*
X218Y1783D01*
X218Y1743D01*
X216Y1743D01*
X216Y1737D01*
X214Y1737D01*
X214Y1733D01*
X212Y1733D01*
X212Y1729D01*
X210Y1729D01*
X210Y1725D01*
X208Y1725D01*
X208Y1723D01*
X206Y1723D01*
X206Y1703D01*
X208Y1703D01*
X208Y1701D01*
X1032Y1701D01*
X1032Y1703D01*
X1026Y1703D01*
X1026Y1705D01*
X1022Y1705D01*
X1022Y1707D01*
X1018Y1707D01*
X1018Y1709D01*
X1016Y1709D01*
X1016Y1711D01*
X1012Y1711D01*
X1012Y1713D01*
X1010Y1713D01*
X1010Y1715D01*
X1008Y1715D01*
X1008Y1717D01*
X1006Y1717D01*
X1006Y1719D01*
X1004Y1719D01*
X1004Y1721D01*
X1002Y1721D01*
X1002Y1723D01*
X1000Y1723D01*
X1000Y1725D01*
X998Y1725D01*
X998Y1727D01*
X996Y1727D01*
X996Y1731D01*
X994Y1731D01*
X994Y1735D01*
X992Y1735D01*
X992Y1739D01*
X990Y1739D01*
X990Y1745D01*
X988Y1745D01*
X988Y1779D01*
X990Y1779D01*
X990Y1785D01*
X992Y1785D01*
X992Y1789D01*
X994Y1789D01*
X994Y1793D01*
X996Y1793D01*
X996Y1797D01*
X998Y1797D01*
X998Y1799D01*
X1000Y1799D01*
X1000Y1801D01*
X1002Y1801D01*
X1002Y1805D01*
X1004Y1805D01*
X1004Y1807D01*
X1006Y1807D01*
X1006Y1809D01*
X1010Y1809D01*
X1010Y1811D01*
X1012Y1811D01*
X1012Y1813D01*
X1014Y1813D01*
X1014Y1815D01*
X1018Y1815D01*
X1018Y1817D01*
X1020Y1817D01*
X1020Y1819D01*
X1024Y1819D01*
X1024Y1821D01*
X1030Y1821D01*
X1030Y1823D01*
X186Y1823D01*
G37*
D02*
G36*
X1068Y1823D02*
X1068Y1821D01*
X1072Y1821D01*
X1072Y1819D01*
X1078Y1819D01*
X1078Y1817D01*
X1080Y1817D01*
X1080Y1815D01*
X1084Y1815D01*
X1084Y1813D01*
X1086Y1813D01*
X1086Y1811D01*
X1088Y1811D01*
X1088Y1809D01*
X1110Y1809D01*
X1110Y1811D01*
X1112Y1811D01*
X1112Y1813D01*
X1114Y1813D01*
X1114Y1815D01*
X1118Y1815D01*
X1118Y1817D01*
X1120Y1817D01*
X1120Y1819D01*
X1124Y1819D01*
X1124Y1821D01*
X1130Y1821D01*
X1130Y1823D01*
X1068Y1823D01*
G37*
D02*
G36*
X1168Y1823D02*
X1168Y1821D01*
X1188Y1821D01*
X1188Y1823D01*
X1168Y1823D01*
G37*
D02*
G36*
X1088Y1715D02*
X1088Y1713D01*
X1086Y1713D01*
X1086Y1711D01*
X1082Y1711D01*
X1082Y1709D01*
X1080Y1709D01*
X1080Y1707D01*
X1076Y1707D01*
X1076Y1705D01*
X1072Y1705D01*
X1072Y1703D01*
X1066Y1703D01*
X1066Y1701D01*
X1132Y1701D01*
X1132Y1703D01*
X1126Y1703D01*
X1126Y1705D01*
X1122Y1705D01*
X1122Y1707D01*
X1118Y1707D01*
X1118Y1709D01*
X1116Y1709D01*
X1116Y1711D01*
X1112Y1711D01*
X1112Y1713D01*
X1110Y1713D01*
X1110Y1715D01*
X1088Y1715D01*
G37*
D02*
G36*
X1166Y1703D02*
X1166Y1701D01*
X1188Y1701D01*
X1188Y1703D01*
X1166Y1703D01*
G37*
D02*
G36*
X208Y1701D02*
X208Y1699D01*
X1986Y1699D01*
X1986Y1701D01*
X208Y1701D01*
G37*
D02*
G36*
X208Y1701D02*
X208Y1699D01*
X1986Y1699D01*
X1986Y1701D01*
X208Y1701D01*
G37*
D02*
G36*
X208Y1701D02*
X208Y1699D01*
X1986Y1699D01*
X1986Y1701D01*
X208Y1701D01*
G37*
D02*
G36*
X208Y1701D02*
X208Y1699D01*
X1986Y1699D01*
X1986Y1701D01*
X208Y1701D01*
G37*
D02*
G36*
X210Y1699D02*
X210Y1695D01*
X212Y1695D01*
X212Y1693D01*
X214Y1693D01*
X214Y1687D01*
X216Y1687D01*
X216Y1683D01*
X218Y1683D01*
X218Y1643D01*
X216Y1643D01*
X216Y1637D01*
X214Y1637D01*
X214Y1633D01*
X212Y1633D01*
X212Y1629D01*
X210Y1629D01*
X210Y1625D01*
X208Y1625D01*
X208Y1623D01*
X1310Y1623D01*
X1310Y1501D01*
X1986Y1501D01*
X1986Y1503D01*
X1984Y1503D01*
X1984Y1507D01*
X1982Y1507D01*
X1982Y1513D01*
X1980Y1513D01*
X1980Y1553D01*
X1982Y1553D01*
X1982Y1557D01*
X1984Y1557D01*
X1984Y1563D01*
X1986Y1563D01*
X1986Y1565D01*
X1988Y1565D01*
X1988Y1569D01*
X1990Y1569D01*
X1990Y1573D01*
X1992Y1573D01*
X1992Y1593D01*
X1990Y1593D01*
X1990Y1595D01*
X1988Y1595D01*
X1988Y1599D01*
X1986Y1599D01*
X1986Y1603D01*
X1984Y1603D01*
X1984Y1607D01*
X1982Y1607D01*
X1982Y1613D01*
X1980Y1613D01*
X1980Y1653D01*
X1982Y1653D01*
X1982Y1657D01*
X1984Y1657D01*
X1984Y1663D01*
X1986Y1663D01*
X1986Y1665D01*
X1988Y1665D01*
X1988Y1669D01*
X1990Y1669D01*
X1990Y1673D01*
X1992Y1673D01*
X1992Y1693D01*
X1990Y1693D01*
X1990Y1695D01*
X1988Y1695D01*
X1988Y1699D01*
X210Y1699D01*
G37*
D02*
G36*
X206Y1623D02*
X206Y1603D01*
X208Y1603D01*
X208Y1599D01*
X210Y1599D01*
X210Y1595D01*
X212Y1595D01*
X212Y1593D01*
X214Y1593D01*
X214Y1587D01*
X216Y1587D01*
X216Y1583D01*
X218Y1583D01*
X218Y1543D01*
X216Y1543D01*
X216Y1537D01*
X214Y1537D01*
X214Y1533D01*
X212Y1533D01*
X212Y1529D01*
X210Y1529D01*
X210Y1525D01*
X208Y1525D01*
X208Y1523D01*
X206Y1523D01*
X206Y1503D01*
X208Y1503D01*
X208Y1501D01*
X1032Y1501D01*
X1032Y1503D01*
X1026Y1503D01*
X1026Y1505D01*
X1022Y1505D01*
X1022Y1507D01*
X1018Y1507D01*
X1018Y1509D01*
X1016Y1509D01*
X1016Y1511D01*
X1012Y1511D01*
X1012Y1513D01*
X1010Y1513D01*
X1010Y1515D01*
X1008Y1515D01*
X1008Y1517D01*
X1006Y1517D01*
X1006Y1519D01*
X1004Y1519D01*
X1004Y1521D01*
X1002Y1521D01*
X1002Y1523D01*
X1000Y1523D01*
X1000Y1525D01*
X998Y1525D01*
X998Y1527D01*
X996Y1527D01*
X996Y1531D01*
X994Y1531D01*
X994Y1535D01*
X992Y1535D01*
X992Y1539D01*
X990Y1539D01*
X990Y1545D01*
X988Y1545D01*
X988Y1579D01*
X990Y1579D01*
X990Y1585D01*
X992Y1585D01*
X992Y1589D01*
X994Y1589D01*
X994Y1593D01*
X996Y1593D01*
X996Y1597D01*
X998Y1597D01*
X998Y1599D01*
X1000Y1599D01*
X1000Y1601D01*
X1002Y1601D01*
X1002Y1605D01*
X1004Y1605D01*
X1004Y1607D01*
X1006Y1607D01*
X1006Y1609D01*
X1010Y1609D01*
X1010Y1611D01*
X1012Y1611D01*
X1012Y1613D01*
X1014Y1613D01*
X1014Y1615D01*
X1018Y1615D01*
X1018Y1617D01*
X1020Y1617D01*
X1020Y1619D01*
X1024Y1619D01*
X1024Y1621D01*
X1030Y1621D01*
X1030Y1623D01*
X206Y1623D01*
G37*
D02*
G36*
X1068Y1623D02*
X1068Y1621D01*
X1072Y1621D01*
X1072Y1619D01*
X1078Y1619D01*
X1078Y1617D01*
X1080Y1617D01*
X1080Y1615D01*
X1084Y1615D01*
X1084Y1613D01*
X1086Y1613D01*
X1086Y1611D01*
X1088Y1611D01*
X1088Y1609D01*
X1110Y1609D01*
X1110Y1611D01*
X1112Y1611D01*
X1112Y1613D01*
X1114Y1613D01*
X1114Y1615D01*
X1118Y1615D01*
X1118Y1617D01*
X1120Y1617D01*
X1120Y1619D01*
X1124Y1619D01*
X1124Y1621D01*
X1130Y1621D01*
X1130Y1623D01*
X1068Y1623D01*
G37*
D02*
G36*
X1168Y1623D02*
X1168Y1621D01*
X1188Y1621D01*
X1188Y1623D01*
X1168Y1623D01*
G37*
D02*
G36*
X1088Y1515D02*
X1088Y1513D01*
X1086Y1513D01*
X1086Y1511D01*
X1082Y1511D01*
X1082Y1509D01*
X1080Y1509D01*
X1080Y1507D01*
X1076Y1507D01*
X1076Y1505D01*
X1072Y1505D01*
X1072Y1503D01*
X1066Y1503D01*
X1066Y1501D01*
X1132Y1501D01*
X1132Y1503D01*
X1126Y1503D01*
X1126Y1505D01*
X1122Y1505D01*
X1122Y1507D01*
X1118Y1507D01*
X1118Y1509D01*
X1116Y1509D01*
X1116Y1511D01*
X1112Y1511D01*
X1112Y1513D01*
X1110Y1513D01*
X1110Y1515D01*
X1088Y1515D01*
G37*
D02*
G36*
X1166Y1503D02*
X1166Y1501D01*
X1188Y1501D01*
X1188Y1503D01*
X1166Y1503D01*
G37*
D02*
G36*
X208Y1501D02*
X208Y1499D01*
X1986Y1499D01*
X1986Y1501D01*
X208Y1501D01*
G37*
D02*
G36*
X208Y1501D02*
X208Y1499D01*
X1986Y1499D01*
X1986Y1501D01*
X208Y1501D01*
G37*
D02*
G36*
X208Y1501D02*
X208Y1499D01*
X1986Y1499D01*
X1986Y1501D01*
X208Y1501D01*
G37*
D02*
G36*
X208Y1501D02*
X208Y1499D01*
X1986Y1499D01*
X1986Y1501D01*
X208Y1501D01*
G37*
D02*
G36*
X210Y1499D02*
X210Y1495D01*
X212Y1495D01*
X212Y1493D01*
X214Y1493D01*
X214Y1487D01*
X216Y1487D01*
X216Y1483D01*
X218Y1483D01*
X218Y1443D01*
X216Y1443D01*
X216Y1437D01*
X214Y1437D01*
X214Y1433D01*
X212Y1433D01*
X212Y1429D01*
X210Y1429D01*
X210Y1425D01*
X208Y1425D01*
X208Y1423D01*
X1310Y1423D01*
X1310Y1301D01*
X1986Y1301D01*
X1986Y1303D01*
X1984Y1303D01*
X1984Y1307D01*
X1982Y1307D01*
X1982Y1313D01*
X1980Y1313D01*
X1980Y1353D01*
X1982Y1353D01*
X1982Y1357D01*
X1984Y1357D01*
X1984Y1363D01*
X1986Y1363D01*
X1986Y1365D01*
X1988Y1365D01*
X1988Y1369D01*
X1990Y1369D01*
X1990Y1373D01*
X1992Y1373D01*
X1992Y1393D01*
X1990Y1393D01*
X1990Y1395D01*
X1988Y1395D01*
X1988Y1399D01*
X1986Y1399D01*
X1986Y1403D01*
X1984Y1403D01*
X1984Y1407D01*
X1982Y1407D01*
X1982Y1413D01*
X1980Y1413D01*
X1980Y1453D01*
X1982Y1453D01*
X1982Y1457D01*
X1984Y1457D01*
X1984Y1463D01*
X1986Y1463D01*
X1986Y1465D01*
X1988Y1465D01*
X1988Y1469D01*
X1990Y1469D01*
X1990Y1473D01*
X1992Y1473D01*
X1992Y1493D01*
X1990Y1493D01*
X1990Y1495D01*
X1988Y1495D01*
X1988Y1499D01*
X210Y1499D01*
G37*
D02*
G36*
X206Y1423D02*
X206Y1403D01*
X208Y1403D01*
X208Y1399D01*
X210Y1399D01*
X210Y1395D01*
X212Y1395D01*
X212Y1393D01*
X214Y1393D01*
X214Y1387D01*
X216Y1387D01*
X216Y1383D01*
X218Y1383D01*
X218Y1343D01*
X216Y1343D01*
X216Y1337D01*
X214Y1337D01*
X214Y1333D01*
X212Y1333D01*
X212Y1329D01*
X210Y1329D01*
X210Y1325D01*
X208Y1325D01*
X208Y1323D01*
X206Y1323D01*
X206Y1303D01*
X208Y1303D01*
X208Y1301D01*
X1032Y1301D01*
X1032Y1303D01*
X1026Y1303D01*
X1026Y1305D01*
X1022Y1305D01*
X1022Y1307D01*
X1018Y1307D01*
X1018Y1309D01*
X1016Y1309D01*
X1016Y1311D01*
X1012Y1311D01*
X1012Y1313D01*
X1010Y1313D01*
X1010Y1315D01*
X1008Y1315D01*
X1008Y1317D01*
X1006Y1317D01*
X1006Y1319D01*
X1004Y1319D01*
X1004Y1321D01*
X1002Y1321D01*
X1002Y1323D01*
X1000Y1323D01*
X1000Y1325D01*
X998Y1325D01*
X998Y1327D01*
X996Y1327D01*
X996Y1331D01*
X994Y1331D01*
X994Y1335D01*
X992Y1335D01*
X992Y1339D01*
X990Y1339D01*
X990Y1345D01*
X988Y1345D01*
X988Y1379D01*
X990Y1379D01*
X990Y1385D01*
X992Y1385D01*
X992Y1389D01*
X994Y1389D01*
X994Y1393D01*
X996Y1393D01*
X996Y1397D01*
X998Y1397D01*
X998Y1399D01*
X1000Y1399D01*
X1000Y1401D01*
X1002Y1401D01*
X1002Y1405D01*
X1004Y1405D01*
X1004Y1407D01*
X1006Y1407D01*
X1006Y1409D01*
X1010Y1409D01*
X1010Y1411D01*
X1012Y1411D01*
X1012Y1413D01*
X1014Y1413D01*
X1014Y1415D01*
X1018Y1415D01*
X1018Y1417D01*
X1020Y1417D01*
X1020Y1419D01*
X1024Y1419D01*
X1024Y1421D01*
X1030Y1421D01*
X1030Y1423D01*
X206Y1423D01*
G37*
D02*
G36*
X1068Y1423D02*
X1068Y1421D01*
X1072Y1421D01*
X1072Y1419D01*
X1078Y1419D01*
X1078Y1417D01*
X1080Y1417D01*
X1080Y1415D01*
X1084Y1415D01*
X1084Y1413D01*
X1086Y1413D01*
X1086Y1411D01*
X1088Y1411D01*
X1088Y1409D01*
X1110Y1409D01*
X1110Y1411D01*
X1112Y1411D01*
X1112Y1413D01*
X1114Y1413D01*
X1114Y1415D01*
X1118Y1415D01*
X1118Y1417D01*
X1120Y1417D01*
X1120Y1419D01*
X1124Y1419D01*
X1124Y1421D01*
X1130Y1421D01*
X1130Y1423D01*
X1068Y1423D01*
G37*
D02*
G36*
X1168Y1423D02*
X1168Y1421D01*
X1188Y1421D01*
X1188Y1423D01*
X1168Y1423D01*
G37*
D02*
G36*
X1088Y1315D02*
X1088Y1313D01*
X1086Y1313D01*
X1086Y1311D01*
X1082Y1311D01*
X1082Y1309D01*
X1080Y1309D01*
X1080Y1307D01*
X1076Y1307D01*
X1076Y1305D01*
X1072Y1305D01*
X1072Y1303D01*
X1066Y1303D01*
X1066Y1301D01*
X1132Y1301D01*
X1132Y1303D01*
X1126Y1303D01*
X1126Y1305D01*
X1122Y1305D01*
X1122Y1307D01*
X1118Y1307D01*
X1118Y1309D01*
X1116Y1309D01*
X1116Y1311D01*
X1112Y1311D01*
X1112Y1313D01*
X1110Y1313D01*
X1110Y1315D01*
X1088Y1315D01*
G37*
D02*
G36*
X1166Y1303D02*
X1166Y1301D01*
X1188Y1301D01*
X1188Y1303D01*
X1166Y1303D01*
G37*
D02*
G36*
X208Y1301D02*
X208Y1299D01*
X1986Y1299D01*
X1986Y1301D01*
X208Y1301D01*
G37*
D02*
G36*
X208Y1301D02*
X208Y1299D01*
X1986Y1299D01*
X1986Y1301D01*
X208Y1301D01*
G37*
D02*
G36*
X208Y1301D02*
X208Y1299D01*
X1986Y1299D01*
X1986Y1301D01*
X208Y1301D01*
G37*
D02*
G36*
X208Y1301D02*
X208Y1299D01*
X1986Y1299D01*
X1986Y1301D01*
X208Y1301D01*
G37*
D02*
G36*
X210Y1299D02*
X210Y1295D01*
X212Y1295D01*
X212Y1293D01*
X214Y1293D01*
X214Y1287D01*
X216Y1287D01*
X216Y1283D01*
X218Y1283D01*
X218Y1243D01*
X216Y1243D01*
X216Y1237D01*
X214Y1237D01*
X214Y1233D01*
X212Y1233D01*
X212Y1229D01*
X210Y1229D01*
X210Y1225D01*
X208Y1225D01*
X208Y1223D01*
X1310Y1223D01*
X1310Y1163D01*
X2030Y1163D01*
X2030Y1165D01*
X2024Y1165D01*
X2024Y1167D01*
X2020Y1167D01*
X2020Y1169D01*
X2016Y1169D01*
X2016Y1171D01*
X2012Y1171D01*
X2012Y1173D01*
X2010Y1173D01*
X2010Y1175D01*
X2006Y1175D01*
X2006Y1177D01*
X2004Y1177D01*
X2004Y1179D01*
X2002Y1179D01*
X2002Y1181D01*
X2000Y1181D01*
X2000Y1183D01*
X1998Y1183D01*
X1998Y1185D01*
X1996Y1185D01*
X1996Y1187D01*
X1994Y1187D01*
X1994Y1189D01*
X1992Y1189D01*
X1992Y1193D01*
X1990Y1193D01*
X1990Y1195D01*
X1988Y1195D01*
X1988Y1199D01*
X1986Y1199D01*
X1986Y1203D01*
X1984Y1203D01*
X1984Y1207D01*
X1982Y1207D01*
X1982Y1213D01*
X1980Y1213D01*
X1980Y1253D01*
X1982Y1253D01*
X1982Y1257D01*
X1984Y1257D01*
X1984Y1263D01*
X1986Y1263D01*
X1986Y1265D01*
X1988Y1265D01*
X1988Y1269D01*
X1990Y1269D01*
X1990Y1273D01*
X1992Y1273D01*
X1992Y1293D01*
X1990Y1293D01*
X1990Y1295D01*
X1988Y1295D01*
X1988Y1299D01*
X210Y1299D01*
G37*
D02*
G36*
X206Y1223D02*
X206Y1203D01*
X208Y1203D01*
X208Y1199D01*
X210Y1199D01*
X210Y1195D01*
X212Y1195D01*
X212Y1193D01*
X214Y1193D01*
X214Y1187D01*
X216Y1187D01*
X216Y1183D01*
X218Y1183D01*
X218Y1143D01*
X216Y1143D01*
X216Y1137D01*
X214Y1137D01*
X214Y1133D01*
X212Y1133D01*
X212Y1129D01*
X210Y1129D01*
X210Y1125D01*
X208Y1125D01*
X208Y1123D01*
X206Y1123D01*
X206Y1103D01*
X208Y1103D01*
X208Y1101D01*
X1032Y1101D01*
X1032Y1103D01*
X1026Y1103D01*
X1026Y1105D01*
X1022Y1105D01*
X1022Y1107D01*
X1018Y1107D01*
X1018Y1109D01*
X1016Y1109D01*
X1016Y1111D01*
X1012Y1111D01*
X1012Y1113D01*
X1010Y1113D01*
X1010Y1115D01*
X1008Y1115D01*
X1008Y1117D01*
X1006Y1117D01*
X1006Y1119D01*
X1004Y1119D01*
X1004Y1121D01*
X1002Y1121D01*
X1002Y1123D01*
X1000Y1123D01*
X1000Y1125D01*
X998Y1125D01*
X998Y1127D01*
X996Y1127D01*
X996Y1131D01*
X994Y1131D01*
X994Y1135D01*
X992Y1135D01*
X992Y1139D01*
X990Y1139D01*
X990Y1145D01*
X988Y1145D01*
X988Y1179D01*
X990Y1179D01*
X990Y1185D01*
X992Y1185D01*
X992Y1189D01*
X994Y1189D01*
X994Y1193D01*
X996Y1193D01*
X996Y1197D01*
X998Y1197D01*
X998Y1199D01*
X1000Y1199D01*
X1000Y1201D01*
X1002Y1201D01*
X1002Y1205D01*
X1004Y1205D01*
X1004Y1207D01*
X1006Y1207D01*
X1006Y1209D01*
X1010Y1209D01*
X1010Y1211D01*
X1012Y1211D01*
X1012Y1213D01*
X1014Y1213D01*
X1014Y1215D01*
X1018Y1215D01*
X1018Y1217D01*
X1020Y1217D01*
X1020Y1219D01*
X1024Y1219D01*
X1024Y1221D01*
X1030Y1221D01*
X1030Y1223D01*
X206Y1223D01*
G37*
D02*
G36*
X1068Y1223D02*
X1068Y1221D01*
X1072Y1221D01*
X1072Y1219D01*
X1078Y1219D01*
X1078Y1217D01*
X1080Y1217D01*
X1080Y1215D01*
X1084Y1215D01*
X1084Y1213D01*
X1086Y1213D01*
X1086Y1211D01*
X1088Y1211D01*
X1088Y1209D01*
X1110Y1209D01*
X1110Y1211D01*
X1112Y1211D01*
X1112Y1213D01*
X1114Y1213D01*
X1114Y1215D01*
X1118Y1215D01*
X1118Y1217D01*
X1120Y1217D01*
X1120Y1219D01*
X1124Y1219D01*
X1124Y1221D01*
X1130Y1221D01*
X1130Y1223D01*
X1068Y1223D01*
G37*
D02*
G36*
X1168Y1223D02*
X1168Y1221D01*
X1188Y1221D01*
X1188Y1223D01*
X1168Y1223D01*
G37*
D02*
G36*
X1310Y1163D02*
X1310Y1161D01*
X2264Y1161D01*
X2264Y1163D01*
X1310Y1163D01*
G37*
D02*
G36*
X1310Y1163D02*
X1310Y1161D01*
X2264Y1161D01*
X2264Y1163D01*
X1310Y1163D01*
G37*
D02*
G36*
X1310Y1161D02*
X1310Y1133D01*
X2060Y1133D01*
X2060Y1131D01*
X2070Y1131D01*
X2070Y1129D01*
X2076Y1129D01*
X2076Y1127D01*
X2080Y1127D01*
X2080Y1125D01*
X2084Y1125D01*
X2084Y1123D01*
X2086Y1123D01*
X2086Y1121D01*
X2090Y1121D01*
X2090Y1119D01*
X2092Y1119D01*
X2092Y1117D01*
X2094Y1117D01*
X2094Y1115D01*
X2096Y1115D01*
X2096Y1113D01*
X2098Y1113D01*
X2098Y1111D01*
X2100Y1111D01*
X2100Y1109D01*
X2102Y1109D01*
X2102Y1107D01*
X2104Y1107D01*
X2104Y1105D01*
X2106Y1105D01*
X2106Y1103D01*
X2108Y1103D01*
X2108Y1099D01*
X2110Y1099D01*
X2110Y1095D01*
X2112Y1095D01*
X2112Y1093D01*
X2114Y1093D01*
X2114Y1087D01*
X2116Y1087D01*
X2116Y1083D01*
X2118Y1083D01*
X2118Y1043D01*
X2116Y1043D01*
X2116Y1037D01*
X2114Y1037D01*
X2114Y1033D01*
X2112Y1033D01*
X2112Y1029D01*
X2110Y1029D01*
X2110Y1025D01*
X2108Y1025D01*
X2108Y1023D01*
X2106Y1023D01*
X2106Y1003D01*
X2108Y1003D01*
X2108Y999D01*
X2110Y999D01*
X2110Y995D01*
X2112Y995D01*
X2112Y993D01*
X2114Y993D01*
X2114Y987D01*
X2116Y987D01*
X2116Y983D01*
X2118Y983D01*
X2118Y943D01*
X2116Y943D01*
X2116Y937D01*
X2114Y937D01*
X2114Y933D01*
X2112Y933D01*
X2112Y929D01*
X2110Y929D01*
X2110Y925D01*
X2108Y925D01*
X2108Y923D01*
X2106Y923D01*
X2106Y903D01*
X2108Y903D01*
X2108Y899D01*
X2110Y899D01*
X2110Y897D01*
X2112Y897D01*
X2112Y893D01*
X2114Y893D01*
X2114Y887D01*
X2116Y887D01*
X2116Y883D01*
X2118Y883D01*
X2118Y843D01*
X2116Y843D01*
X2116Y837D01*
X2114Y837D01*
X2114Y833D01*
X2112Y833D01*
X2112Y829D01*
X2110Y829D01*
X2110Y825D01*
X2108Y825D01*
X2108Y823D01*
X2106Y823D01*
X2106Y803D01*
X2108Y803D01*
X2108Y799D01*
X2110Y799D01*
X2110Y797D01*
X2112Y797D01*
X2112Y793D01*
X2114Y793D01*
X2114Y787D01*
X2116Y787D01*
X2116Y783D01*
X2118Y783D01*
X2118Y743D01*
X2116Y743D01*
X2116Y737D01*
X2114Y737D01*
X2114Y733D01*
X2112Y733D01*
X2112Y729D01*
X2110Y729D01*
X2110Y725D01*
X2108Y725D01*
X2108Y723D01*
X2106Y723D01*
X2106Y703D01*
X2108Y703D01*
X2108Y699D01*
X2110Y699D01*
X2110Y697D01*
X2112Y697D01*
X2112Y693D01*
X2114Y693D01*
X2114Y687D01*
X2116Y687D01*
X2116Y683D01*
X2118Y683D01*
X2118Y643D01*
X2116Y643D01*
X2116Y637D01*
X2114Y637D01*
X2114Y633D01*
X2112Y633D01*
X2112Y629D01*
X2110Y629D01*
X2110Y625D01*
X2108Y625D01*
X2108Y623D01*
X2106Y623D01*
X2106Y603D01*
X2108Y603D01*
X2108Y599D01*
X2110Y599D01*
X2110Y595D01*
X2112Y595D01*
X2112Y593D01*
X2114Y593D01*
X2114Y587D01*
X2116Y587D01*
X2116Y583D01*
X2118Y583D01*
X2118Y543D01*
X2116Y543D01*
X2116Y537D01*
X2114Y537D01*
X2114Y533D01*
X2112Y533D01*
X2112Y529D01*
X2110Y529D01*
X2110Y525D01*
X2108Y525D01*
X2108Y523D01*
X2106Y523D01*
X2106Y503D01*
X2108Y503D01*
X2108Y499D01*
X2110Y499D01*
X2110Y495D01*
X2112Y495D01*
X2112Y493D01*
X2114Y493D01*
X2114Y487D01*
X2116Y487D01*
X2116Y483D01*
X2118Y483D01*
X2118Y443D01*
X2116Y443D01*
X2116Y437D01*
X2114Y437D01*
X2114Y433D01*
X2112Y433D01*
X2112Y429D01*
X2110Y429D01*
X2110Y425D01*
X2108Y425D01*
X2108Y423D01*
X2106Y423D01*
X2106Y403D01*
X2108Y403D01*
X2108Y399D01*
X2110Y399D01*
X2110Y397D01*
X2112Y397D01*
X2112Y393D01*
X2114Y393D01*
X2114Y387D01*
X2116Y387D01*
X2116Y383D01*
X2118Y383D01*
X2118Y343D01*
X2116Y343D01*
X2116Y337D01*
X2114Y337D01*
X2114Y333D01*
X2112Y333D01*
X2112Y329D01*
X2110Y329D01*
X2110Y325D01*
X2108Y325D01*
X2108Y323D01*
X2106Y323D01*
X2106Y319D01*
X2104Y319D01*
X2104Y317D01*
X2102Y317D01*
X2102Y315D01*
X2100Y315D01*
X2100Y313D01*
X2098Y313D01*
X2098Y311D01*
X2096Y311D01*
X2096Y309D01*
X2094Y309D01*
X2094Y307D01*
X2092Y307D01*
X2092Y305D01*
X2088Y305D01*
X2088Y303D01*
X2086Y303D01*
X2086Y301D01*
X2082Y301D01*
X2082Y299D01*
X2078Y299D01*
X2078Y297D01*
X2074Y297D01*
X2074Y295D01*
X2068Y295D01*
X2068Y293D01*
X2264Y293D01*
X2264Y1161D01*
X1310Y1161D01*
G37*
D02*
G36*
X1310Y1133D02*
X1310Y1101D01*
X1990Y1101D01*
X1990Y1103D01*
X1992Y1103D01*
X1992Y1105D01*
X1994Y1105D01*
X1994Y1107D01*
X1996Y1107D01*
X1996Y1109D01*
X1998Y1109D01*
X1998Y1111D01*
X2000Y1111D01*
X2000Y1113D01*
X2002Y1113D01*
X2002Y1115D01*
X2004Y1115D01*
X2004Y1117D01*
X2006Y1117D01*
X2006Y1119D01*
X2008Y1119D01*
X2008Y1121D01*
X2012Y1121D01*
X2012Y1123D01*
X2014Y1123D01*
X2014Y1125D01*
X2018Y1125D01*
X2018Y1127D01*
X2022Y1127D01*
X2022Y1129D01*
X2028Y1129D01*
X2028Y1131D01*
X2038Y1131D01*
X2038Y1133D01*
X1310Y1133D01*
G37*
D02*
G36*
X1088Y1115D02*
X1088Y1113D01*
X1086Y1113D01*
X1086Y1111D01*
X1082Y1111D01*
X1082Y1109D01*
X1080Y1109D01*
X1080Y1107D01*
X1076Y1107D01*
X1076Y1105D01*
X1072Y1105D01*
X1072Y1103D01*
X1066Y1103D01*
X1066Y1101D01*
X1132Y1101D01*
X1132Y1103D01*
X1126Y1103D01*
X1126Y1105D01*
X1122Y1105D01*
X1122Y1107D01*
X1118Y1107D01*
X1118Y1109D01*
X1116Y1109D01*
X1116Y1111D01*
X1112Y1111D01*
X1112Y1113D01*
X1110Y1113D01*
X1110Y1115D01*
X1088Y1115D01*
G37*
D02*
G36*
X1166Y1103D02*
X1166Y1101D01*
X1188Y1101D01*
X1188Y1103D01*
X1166Y1103D01*
G37*
D02*
G36*
X208Y1101D02*
X208Y1099D01*
X1990Y1099D01*
X1990Y1101D01*
X208Y1101D01*
G37*
D02*
G36*
X208Y1101D02*
X208Y1099D01*
X1990Y1099D01*
X1990Y1101D01*
X208Y1101D01*
G37*
D02*
G36*
X208Y1101D02*
X208Y1099D01*
X1990Y1099D01*
X1990Y1101D01*
X208Y1101D01*
G37*
D02*
G36*
X208Y1101D02*
X208Y1099D01*
X1990Y1099D01*
X1990Y1101D01*
X208Y1101D01*
G37*
D02*
G36*
X210Y1099D02*
X210Y1095D01*
X212Y1095D01*
X212Y1093D01*
X214Y1093D01*
X214Y1087D01*
X216Y1087D01*
X216Y1083D01*
X218Y1083D01*
X218Y1043D01*
X216Y1043D01*
X216Y1037D01*
X214Y1037D01*
X214Y1033D01*
X212Y1033D01*
X212Y1029D01*
X210Y1029D01*
X210Y1025D01*
X208Y1025D01*
X208Y1023D01*
X1310Y1023D01*
X1310Y901D01*
X1990Y901D01*
X1990Y903D01*
X1992Y903D01*
X1992Y923D01*
X1990Y923D01*
X1990Y925D01*
X1988Y925D01*
X1988Y929D01*
X1986Y929D01*
X1986Y933D01*
X1984Y933D01*
X1984Y937D01*
X1982Y937D01*
X1982Y943D01*
X1980Y943D01*
X1980Y983D01*
X1982Y983D01*
X1982Y987D01*
X1984Y987D01*
X1984Y993D01*
X1986Y993D01*
X1986Y995D01*
X1988Y995D01*
X1988Y999D01*
X1990Y999D01*
X1990Y1003D01*
X1992Y1003D01*
X1992Y1023D01*
X1990Y1023D01*
X1990Y1025D01*
X1988Y1025D01*
X1988Y1029D01*
X1986Y1029D01*
X1986Y1033D01*
X1984Y1033D01*
X1984Y1037D01*
X1982Y1037D01*
X1982Y1043D01*
X1980Y1043D01*
X1980Y1083D01*
X1982Y1083D01*
X1982Y1087D01*
X1984Y1087D01*
X1984Y1093D01*
X1986Y1093D01*
X1986Y1095D01*
X1988Y1095D01*
X1988Y1099D01*
X210Y1099D01*
G37*
D02*
G36*
X206Y1023D02*
X206Y1019D01*
X204Y1019D01*
X204Y1017D01*
X202Y1017D01*
X202Y1015D01*
X200Y1015D01*
X200Y1013D01*
X198Y1013D01*
X198Y1011D01*
X196Y1011D01*
X196Y1009D01*
X194Y1009D01*
X194Y1007D01*
X192Y1007D01*
X192Y1005D01*
X188Y1005D01*
X188Y1003D01*
X186Y1003D01*
X186Y1001D01*
X182Y1001D01*
X182Y999D01*
X178Y999D01*
X178Y997D01*
X174Y997D01*
X174Y995D01*
X168Y995D01*
X168Y993D01*
X996Y993D01*
X996Y997D01*
X998Y997D01*
X998Y999D01*
X1000Y999D01*
X1000Y1001D01*
X1002Y1001D01*
X1002Y1005D01*
X1004Y1005D01*
X1004Y1007D01*
X1006Y1007D01*
X1006Y1009D01*
X1010Y1009D01*
X1010Y1011D01*
X1012Y1011D01*
X1012Y1013D01*
X1014Y1013D01*
X1014Y1015D01*
X1018Y1015D01*
X1018Y1017D01*
X1020Y1017D01*
X1020Y1019D01*
X1024Y1019D01*
X1024Y1021D01*
X1030Y1021D01*
X1030Y1023D01*
X206Y1023D01*
G37*
D02*
G36*
X1068Y1023D02*
X1068Y1021D01*
X1072Y1021D01*
X1072Y1019D01*
X1078Y1019D01*
X1078Y1017D01*
X1080Y1017D01*
X1080Y1015D01*
X1084Y1015D01*
X1084Y1013D01*
X1086Y1013D01*
X1086Y1011D01*
X1088Y1011D01*
X1088Y1009D01*
X1110Y1009D01*
X1110Y1011D01*
X1112Y1011D01*
X1112Y1013D01*
X1114Y1013D01*
X1114Y1015D01*
X1118Y1015D01*
X1118Y1017D01*
X1120Y1017D01*
X1120Y1019D01*
X1124Y1019D01*
X1124Y1021D01*
X1130Y1021D01*
X1130Y1023D01*
X1068Y1023D01*
G37*
D02*
G36*
X1168Y1023D02*
X1168Y1021D01*
X1188Y1021D01*
X1188Y1023D01*
X1168Y1023D01*
G37*
D02*
G36*
X44Y993D02*
X44Y991D01*
X994Y991D01*
X994Y993D01*
X44Y993D01*
G37*
D02*
G36*
X44Y993D02*
X44Y991D01*
X994Y991D01*
X994Y993D01*
X44Y993D01*
G37*
D02*
G36*
X44Y991D02*
X44Y933D01*
X160Y933D01*
X160Y931D01*
X170Y931D01*
X170Y929D01*
X176Y929D01*
X176Y927D01*
X180Y927D01*
X180Y925D01*
X184Y925D01*
X184Y923D01*
X186Y923D01*
X186Y921D01*
X190Y921D01*
X190Y919D01*
X192Y919D01*
X192Y917D01*
X194Y917D01*
X194Y915D01*
X196Y915D01*
X196Y913D01*
X198Y913D01*
X198Y911D01*
X200Y911D01*
X200Y909D01*
X202Y909D01*
X202Y907D01*
X204Y907D01*
X204Y905D01*
X206Y905D01*
X206Y903D01*
X208Y903D01*
X208Y901D01*
X1032Y901D01*
X1032Y903D01*
X1026Y903D01*
X1026Y905D01*
X1022Y905D01*
X1022Y907D01*
X1018Y907D01*
X1018Y909D01*
X1016Y909D01*
X1016Y911D01*
X1012Y911D01*
X1012Y913D01*
X1010Y913D01*
X1010Y915D01*
X1008Y915D01*
X1008Y917D01*
X1006Y917D01*
X1006Y919D01*
X1004Y919D01*
X1004Y921D01*
X1002Y921D01*
X1002Y923D01*
X1000Y923D01*
X1000Y925D01*
X998Y925D01*
X998Y927D01*
X996Y927D01*
X996Y931D01*
X994Y931D01*
X994Y935D01*
X992Y935D01*
X992Y939D01*
X990Y939D01*
X990Y945D01*
X988Y945D01*
X988Y979D01*
X990Y979D01*
X990Y985D01*
X992Y985D01*
X992Y989D01*
X994Y989D01*
X994Y991D01*
X44Y991D01*
G37*
D02*
G36*
X44Y933D02*
X44Y293D01*
X130Y293D01*
X130Y295D01*
X124Y295D01*
X124Y297D01*
X120Y297D01*
X120Y299D01*
X116Y299D01*
X116Y301D01*
X112Y301D01*
X112Y303D01*
X110Y303D01*
X110Y305D01*
X106Y305D01*
X106Y307D01*
X104Y307D01*
X104Y309D01*
X102Y309D01*
X102Y311D01*
X100Y311D01*
X100Y313D01*
X98Y313D01*
X98Y315D01*
X96Y315D01*
X96Y317D01*
X94Y317D01*
X94Y319D01*
X92Y319D01*
X92Y323D01*
X90Y323D01*
X90Y325D01*
X88Y325D01*
X88Y329D01*
X86Y329D01*
X86Y333D01*
X84Y333D01*
X84Y337D01*
X82Y337D01*
X82Y343D01*
X80Y343D01*
X80Y383D01*
X82Y383D01*
X82Y387D01*
X84Y387D01*
X84Y393D01*
X86Y393D01*
X86Y395D01*
X88Y395D01*
X88Y399D01*
X90Y399D01*
X90Y403D01*
X92Y403D01*
X92Y423D01*
X90Y423D01*
X90Y425D01*
X88Y425D01*
X88Y429D01*
X86Y429D01*
X86Y433D01*
X84Y433D01*
X84Y437D01*
X82Y437D01*
X82Y443D01*
X80Y443D01*
X80Y483D01*
X82Y483D01*
X82Y487D01*
X84Y487D01*
X84Y493D01*
X86Y493D01*
X86Y495D01*
X88Y495D01*
X88Y499D01*
X90Y499D01*
X90Y503D01*
X92Y503D01*
X92Y523D01*
X90Y523D01*
X90Y525D01*
X88Y525D01*
X88Y529D01*
X86Y529D01*
X86Y533D01*
X84Y533D01*
X84Y537D01*
X82Y537D01*
X82Y543D01*
X80Y543D01*
X80Y583D01*
X82Y583D01*
X82Y587D01*
X84Y587D01*
X84Y593D01*
X86Y593D01*
X86Y595D01*
X88Y595D01*
X88Y599D01*
X90Y599D01*
X90Y603D01*
X92Y603D01*
X92Y623D01*
X90Y623D01*
X90Y625D01*
X88Y625D01*
X88Y629D01*
X86Y629D01*
X86Y633D01*
X84Y633D01*
X84Y637D01*
X82Y637D01*
X82Y643D01*
X80Y643D01*
X80Y683D01*
X82Y683D01*
X82Y687D01*
X84Y687D01*
X84Y693D01*
X86Y693D01*
X86Y695D01*
X88Y695D01*
X88Y699D01*
X90Y699D01*
X90Y703D01*
X92Y703D01*
X92Y723D01*
X90Y723D01*
X90Y725D01*
X88Y725D01*
X88Y729D01*
X86Y729D01*
X86Y733D01*
X84Y733D01*
X84Y737D01*
X82Y737D01*
X82Y743D01*
X80Y743D01*
X80Y783D01*
X82Y783D01*
X82Y787D01*
X84Y787D01*
X84Y793D01*
X86Y793D01*
X86Y795D01*
X88Y795D01*
X88Y799D01*
X90Y799D01*
X90Y803D01*
X92Y803D01*
X92Y823D01*
X90Y823D01*
X90Y825D01*
X88Y825D01*
X88Y829D01*
X86Y829D01*
X86Y833D01*
X84Y833D01*
X84Y837D01*
X82Y837D01*
X82Y843D01*
X80Y843D01*
X80Y883D01*
X82Y883D01*
X82Y887D01*
X84Y887D01*
X84Y893D01*
X86Y893D01*
X86Y895D01*
X88Y895D01*
X88Y899D01*
X90Y899D01*
X90Y903D01*
X92Y903D01*
X92Y905D01*
X94Y905D01*
X94Y907D01*
X96Y907D01*
X96Y909D01*
X98Y909D01*
X98Y911D01*
X100Y911D01*
X100Y913D01*
X102Y913D01*
X102Y915D01*
X104Y915D01*
X104Y917D01*
X106Y917D01*
X106Y919D01*
X108Y919D01*
X108Y921D01*
X112Y921D01*
X112Y923D01*
X114Y923D01*
X114Y925D01*
X118Y925D01*
X118Y927D01*
X122Y927D01*
X122Y929D01*
X128Y929D01*
X128Y931D01*
X138Y931D01*
X138Y933D01*
X44Y933D01*
G37*
D02*
G36*
X1088Y915D02*
X1088Y913D01*
X1086Y913D01*
X1086Y911D01*
X1082Y911D01*
X1082Y909D01*
X1080Y909D01*
X1080Y907D01*
X1076Y907D01*
X1076Y905D01*
X1072Y905D01*
X1072Y903D01*
X1066Y903D01*
X1066Y901D01*
X1132Y901D01*
X1132Y903D01*
X1126Y903D01*
X1126Y905D01*
X1122Y905D01*
X1122Y907D01*
X1118Y907D01*
X1118Y909D01*
X1116Y909D01*
X1116Y911D01*
X1112Y911D01*
X1112Y913D01*
X1110Y913D01*
X1110Y915D01*
X1088Y915D01*
G37*
D02*
G36*
X1166Y903D02*
X1166Y901D01*
X1188Y901D01*
X1188Y903D01*
X1166Y903D01*
G37*
D02*
G36*
X208Y901D02*
X208Y899D01*
X1990Y899D01*
X1990Y901D01*
X208Y901D01*
G37*
D02*
G36*
X208Y901D02*
X208Y899D01*
X1990Y899D01*
X1990Y901D01*
X208Y901D01*
G37*
D02*
G36*
X208Y901D02*
X208Y899D01*
X1990Y899D01*
X1990Y901D01*
X208Y901D01*
G37*
D02*
G36*
X208Y901D02*
X208Y899D01*
X1990Y899D01*
X1990Y901D01*
X208Y901D01*
G37*
D02*
G36*
X210Y899D02*
X210Y895D01*
X212Y895D01*
X212Y893D01*
X214Y893D01*
X214Y887D01*
X216Y887D01*
X216Y883D01*
X218Y883D01*
X218Y843D01*
X216Y843D01*
X216Y837D01*
X214Y837D01*
X214Y833D01*
X212Y833D01*
X212Y829D01*
X210Y829D01*
X210Y825D01*
X208Y825D01*
X208Y823D01*
X1310Y823D01*
X1310Y701D01*
X1990Y701D01*
X1990Y703D01*
X1992Y703D01*
X1992Y723D01*
X1990Y723D01*
X1990Y725D01*
X1988Y725D01*
X1988Y729D01*
X1986Y729D01*
X1986Y733D01*
X1984Y733D01*
X1984Y737D01*
X1982Y737D01*
X1982Y743D01*
X1980Y743D01*
X1980Y783D01*
X1982Y783D01*
X1982Y787D01*
X1984Y787D01*
X1984Y793D01*
X1986Y793D01*
X1986Y795D01*
X1988Y795D01*
X1988Y799D01*
X1990Y799D01*
X1990Y803D01*
X1992Y803D01*
X1992Y823D01*
X1990Y823D01*
X1990Y825D01*
X1988Y825D01*
X1988Y829D01*
X1986Y829D01*
X1986Y833D01*
X1984Y833D01*
X1984Y837D01*
X1982Y837D01*
X1982Y843D01*
X1980Y843D01*
X1980Y883D01*
X1982Y883D01*
X1982Y887D01*
X1984Y887D01*
X1984Y893D01*
X1986Y893D01*
X1986Y895D01*
X1988Y895D01*
X1988Y899D01*
X210Y899D01*
G37*
D02*
G36*
X206Y823D02*
X206Y803D01*
X208Y803D01*
X208Y799D01*
X210Y799D01*
X210Y795D01*
X212Y795D01*
X212Y793D01*
X214Y793D01*
X214Y787D01*
X216Y787D01*
X216Y783D01*
X218Y783D01*
X218Y743D01*
X216Y743D01*
X216Y737D01*
X214Y737D01*
X214Y733D01*
X212Y733D01*
X212Y729D01*
X210Y729D01*
X210Y725D01*
X208Y725D01*
X208Y723D01*
X206Y723D01*
X206Y703D01*
X208Y703D01*
X208Y701D01*
X1032Y701D01*
X1032Y703D01*
X1026Y703D01*
X1026Y705D01*
X1022Y705D01*
X1022Y707D01*
X1018Y707D01*
X1018Y709D01*
X1016Y709D01*
X1016Y711D01*
X1012Y711D01*
X1012Y713D01*
X1010Y713D01*
X1010Y715D01*
X1008Y715D01*
X1008Y717D01*
X1006Y717D01*
X1006Y719D01*
X1004Y719D01*
X1004Y721D01*
X1002Y721D01*
X1002Y723D01*
X1000Y723D01*
X1000Y725D01*
X998Y725D01*
X998Y727D01*
X996Y727D01*
X996Y731D01*
X994Y731D01*
X994Y735D01*
X992Y735D01*
X992Y739D01*
X990Y739D01*
X990Y745D01*
X988Y745D01*
X988Y779D01*
X990Y779D01*
X990Y785D01*
X992Y785D01*
X992Y789D01*
X994Y789D01*
X994Y793D01*
X996Y793D01*
X996Y797D01*
X998Y797D01*
X998Y799D01*
X1000Y799D01*
X1000Y801D01*
X1002Y801D01*
X1002Y805D01*
X1004Y805D01*
X1004Y807D01*
X1006Y807D01*
X1006Y809D01*
X1010Y809D01*
X1010Y811D01*
X1012Y811D01*
X1012Y813D01*
X1014Y813D01*
X1014Y815D01*
X1018Y815D01*
X1018Y817D01*
X1020Y817D01*
X1020Y819D01*
X1024Y819D01*
X1024Y821D01*
X1030Y821D01*
X1030Y823D01*
X206Y823D01*
G37*
D02*
G36*
X1068Y823D02*
X1068Y821D01*
X1072Y821D01*
X1072Y819D01*
X1078Y819D01*
X1078Y817D01*
X1080Y817D01*
X1080Y815D01*
X1084Y815D01*
X1084Y813D01*
X1086Y813D01*
X1086Y811D01*
X1088Y811D01*
X1088Y809D01*
X1110Y809D01*
X1110Y811D01*
X1112Y811D01*
X1112Y813D01*
X1114Y813D01*
X1114Y815D01*
X1118Y815D01*
X1118Y817D01*
X1120Y817D01*
X1120Y819D01*
X1124Y819D01*
X1124Y821D01*
X1130Y821D01*
X1130Y823D01*
X1068Y823D01*
G37*
D02*
G36*
X1168Y823D02*
X1168Y821D01*
X1188Y821D01*
X1188Y823D01*
X1168Y823D01*
G37*
D02*
G36*
X1088Y715D02*
X1088Y713D01*
X1086Y713D01*
X1086Y711D01*
X1082Y711D01*
X1082Y709D01*
X1080Y709D01*
X1080Y707D01*
X1076Y707D01*
X1076Y705D01*
X1072Y705D01*
X1072Y703D01*
X1066Y703D01*
X1066Y701D01*
X1132Y701D01*
X1132Y703D01*
X1126Y703D01*
X1126Y705D01*
X1122Y705D01*
X1122Y707D01*
X1118Y707D01*
X1118Y709D01*
X1116Y709D01*
X1116Y711D01*
X1112Y711D01*
X1112Y713D01*
X1110Y713D01*
X1110Y715D01*
X1088Y715D01*
G37*
D02*
G36*
X1166Y703D02*
X1166Y701D01*
X1188Y701D01*
X1188Y703D01*
X1166Y703D01*
G37*
D02*
G36*
X208Y701D02*
X208Y699D01*
X1990Y699D01*
X1990Y701D01*
X208Y701D01*
G37*
D02*
G36*
X208Y701D02*
X208Y699D01*
X1990Y699D01*
X1990Y701D01*
X208Y701D01*
G37*
D02*
G36*
X208Y701D02*
X208Y699D01*
X1990Y699D01*
X1990Y701D01*
X208Y701D01*
G37*
D02*
G36*
X208Y701D02*
X208Y699D01*
X1990Y699D01*
X1990Y701D01*
X208Y701D01*
G37*
D02*
G36*
X210Y699D02*
X210Y695D01*
X212Y695D01*
X212Y693D01*
X214Y693D01*
X214Y687D01*
X216Y687D01*
X216Y683D01*
X218Y683D01*
X218Y643D01*
X216Y643D01*
X216Y637D01*
X214Y637D01*
X214Y633D01*
X212Y633D01*
X212Y629D01*
X210Y629D01*
X210Y625D01*
X208Y625D01*
X208Y623D01*
X1310Y623D01*
X1310Y533D01*
X1820Y533D01*
X1820Y345D01*
X1818Y345D01*
X1818Y339D01*
X1816Y339D01*
X1816Y333D01*
X1814Y333D01*
X1814Y329D01*
X1812Y329D01*
X1812Y327D01*
X1810Y327D01*
X1810Y323D01*
X1808Y323D01*
X1808Y301D01*
X1810Y301D01*
X1810Y299D01*
X1812Y299D01*
X1812Y295D01*
X1814Y295D01*
X1814Y293D01*
X2030Y293D01*
X2030Y295D01*
X2024Y295D01*
X2024Y297D01*
X2020Y297D01*
X2020Y299D01*
X2016Y299D01*
X2016Y301D01*
X2012Y301D01*
X2012Y303D01*
X2010Y303D01*
X2010Y305D01*
X2006Y305D01*
X2006Y307D01*
X2004Y307D01*
X2004Y309D01*
X2002Y309D01*
X2002Y311D01*
X2000Y311D01*
X2000Y313D01*
X1998Y313D01*
X1998Y315D01*
X1996Y315D01*
X1996Y317D01*
X1994Y317D01*
X1994Y319D01*
X1992Y319D01*
X1992Y323D01*
X1990Y323D01*
X1990Y325D01*
X1988Y325D01*
X1988Y329D01*
X1986Y329D01*
X1986Y333D01*
X1984Y333D01*
X1984Y337D01*
X1982Y337D01*
X1982Y343D01*
X1980Y343D01*
X1980Y383D01*
X1982Y383D01*
X1982Y387D01*
X1984Y387D01*
X1984Y393D01*
X1986Y393D01*
X1986Y395D01*
X1988Y395D01*
X1988Y399D01*
X1990Y399D01*
X1990Y403D01*
X1992Y403D01*
X1992Y423D01*
X1990Y423D01*
X1990Y425D01*
X1988Y425D01*
X1988Y429D01*
X1986Y429D01*
X1986Y433D01*
X1984Y433D01*
X1984Y437D01*
X1982Y437D01*
X1982Y443D01*
X1980Y443D01*
X1980Y483D01*
X1982Y483D01*
X1982Y487D01*
X1984Y487D01*
X1984Y493D01*
X1986Y493D01*
X1986Y495D01*
X1988Y495D01*
X1988Y499D01*
X1990Y499D01*
X1990Y503D01*
X1992Y503D01*
X1992Y523D01*
X1990Y523D01*
X1990Y525D01*
X1988Y525D01*
X1988Y529D01*
X1986Y529D01*
X1986Y533D01*
X1984Y533D01*
X1984Y537D01*
X1982Y537D01*
X1982Y543D01*
X1980Y543D01*
X1980Y583D01*
X1982Y583D01*
X1982Y587D01*
X1984Y587D01*
X1984Y593D01*
X1986Y593D01*
X1986Y595D01*
X1988Y595D01*
X1988Y599D01*
X1990Y599D01*
X1990Y603D01*
X1992Y603D01*
X1992Y623D01*
X1990Y623D01*
X1990Y625D01*
X1988Y625D01*
X1988Y629D01*
X1986Y629D01*
X1986Y633D01*
X1984Y633D01*
X1984Y637D01*
X1982Y637D01*
X1982Y643D01*
X1980Y643D01*
X1980Y683D01*
X1982Y683D01*
X1982Y687D01*
X1984Y687D01*
X1984Y693D01*
X1986Y693D01*
X1986Y695D01*
X1988Y695D01*
X1988Y699D01*
X210Y699D01*
G37*
D02*
G36*
X206Y623D02*
X206Y603D01*
X208Y603D01*
X208Y599D01*
X210Y599D01*
X210Y595D01*
X212Y595D01*
X212Y593D01*
X214Y593D01*
X214Y587D01*
X216Y587D01*
X216Y583D01*
X218Y583D01*
X218Y543D01*
X216Y543D01*
X216Y537D01*
X214Y537D01*
X214Y533D01*
X212Y533D01*
X212Y529D01*
X210Y529D01*
X210Y525D01*
X208Y525D01*
X208Y523D01*
X206Y523D01*
X206Y503D01*
X208Y503D01*
X208Y501D01*
X1032Y501D01*
X1032Y503D01*
X1026Y503D01*
X1026Y505D01*
X1022Y505D01*
X1022Y507D01*
X1018Y507D01*
X1018Y509D01*
X1016Y509D01*
X1016Y511D01*
X1012Y511D01*
X1012Y513D01*
X1010Y513D01*
X1010Y515D01*
X1008Y515D01*
X1008Y517D01*
X1006Y517D01*
X1006Y519D01*
X1004Y519D01*
X1004Y521D01*
X1002Y521D01*
X1002Y523D01*
X1000Y523D01*
X1000Y525D01*
X998Y525D01*
X998Y527D01*
X996Y527D01*
X996Y531D01*
X994Y531D01*
X994Y535D01*
X992Y535D01*
X992Y539D01*
X990Y539D01*
X990Y545D01*
X988Y545D01*
X988Y579D01*
X990Y579D01*
X990Y585D01*
X992Y585D01*
X992Y589D01*
X994Y589D01*
X994Y593D01*
X996Y593D01*
X996Y597D01*
X998Y597D01*
X998Y599D01*
X1000Y599D01*
X1000Y601D01*
X1002Y601D01*
X1002Y605D01*
X1004Y605D01*
X1004Y607D01*
X1006Y607D01*
X1006Y609D01*
X1010Y609D01*
X1010Y611D01*
X1012Y611D01*
X1012Y613D01*
X1014Y613D01*
X1014Y615D01*
X1018Y615D01*
X1018Y617D01*
X1020Y617D01*
X1020Y619D01*
X1024Y619D01*
X1024Y621D01*
X1030Y621D01*
X1030Y623D01*
X206Y623D01*
G37*
D02*
G36*
X1068Y623D02*
X1068Y621D01*
X1072Y621D01*
X1072Y619D01*
X1078Y619D01*
X1078Y617D01*
X1080Y617D01*
X1080Y615D01*
X1084Y615D01*
X1084Y613D01*
X1086Y613D01*
X1086Y611D01*
X1088Y611D01*
X1088Y609D01*
X1110Y609D01*
X1110Y611D01*
X1112Y611D01*
X1112Y613D01*
X1114Y613D01*
X1114Y615D01*
X1118Y615D01*
X1118Y617D01*
X1120Y617D01*
X1120Y619D01*
X1124Y619D01*
X1124Y621D01*
X1130Y621D01*
X1130Y623D01*
X1068Y623D01*
G37*
D02*
G36*
X1168Y623D02*
X1168Y621D01*
X1188Y621D01*
X1188Y623D01*
X1168Y623D01*
G37*
D02*
G36*
X1310Y533D02*
X1310Y501D01*
X1678Y501D01*
X1678Y533D01*
X1310Y533D01*
G37*
D02*
G36*
X1088Y515D02*
X1088Y513D01*
X1086Y513D01*
X1086Y511D01*
X1082Y511D01*
X1082Y509D01*
X1080Y509D01*
X1080Y507D01*
X1076Y507D01*
X1076Y505D01*
X1072Y505D01*
X1072Y503D01*
X1066Y503D01*
X1066Y501D01*
X1132Y501D01*
X1132Y503D01*
X1126Y503D01*
X1126Y505D01*
X1122Y505D01*
X1122Y507D01*
X1118Y507D01*
X1118Y509D01*
X1116Y509D01*
X1116Y511D01*
X1112Y511D01*
X1112Y513D01*
X1110Y513D01*
X1110Y515D01*
X1088Y515D01*
G37*
D02*
G36*
X1166Y503D02*
X1166Y501D01*
X1188Y501D01*
X1188Y503D01*
X1166Y503D01*
G37*
D02*
G36*
X208Y501D02*
X208Y499D01*
X1678Y499D01*
X1678Y501D01*
X208Y501D01*
G37*
D02*
G36*
X208Y501D02*
X208Y499D01*
X1678Y499D01*
X1678Y501D01*
X208Y501D01*
G37*
D02*
G36*
X208Y501D02*
X208Y499D01*
X1678Y499D01*
X1678Y501D01*
X208Y501D01*
G37*
D02*
G36*
X208Y501D02*
X208Y499D01*
X1678Y499D01*
X1678Y501D01*
X208Y501D01*
G37*
D02*
G36*
X210Y499D02*
X210Y495D01*
X212Y495D01*
X212Y493D01*
X214Y493D01*
X214Y487D01*
X216Y487D01*
X216Y483D01*
X218Y483D01*
X218Y443D01*
X216Y443D01*
X216Y437D01*
X214Y437D01*
X214Y433D01*
X212Y433D01*
X212Y429D01*
X210Y429D01*
X210Y425D01*
X208Y425D01*
X208Y423D01*
X206Y423D01*
X206Y403D01*
X208Y403D01*
X208Y399D01*
X210Y399D01*
X210Y395D01*
X212Y395D01*
X212Y393D01*
X214Y393D01*
X214Y387D01*
X216Y387D01*
X216Y383D01*
X218Y383D01*
X218Y343D01*
X216Y343D01*
X216Y337D01*
X214Y337D01*
X214Y333D01*
X212Y333D01*
X212Y329D01*
X210Y329D01*
X210Y325D01*
X208Y325D01*
X208Y323D01*
X1310Y323D01*
X1310Y201D01*
X1710Y201D01*
X1710Y203D01*
X1708Y203D01*
X1708Y205D01*
X1706Y205D01*
X1706Y207D01*
X1702Y207D01*
X1702Y209D01*
X1700Y209D01*
X1700Y211D01*
X1698Y211D01*
X1698Y213D01*
X1696Y213D01*
X1696Y215D01*
X1694Y215D01*
X1694Y217D01*
X1692Y217D01*
X1692Y221D01*
X1690Y221D01*
X1690Y223D01*
X1688Y223D01*
X1688Y227D01*
X1686Y227D01*
X1686Y229D01*
X1684Y229D01*
X1684Y233D01*
X1682Y233D01*
X1682Y239D01*
X1680Y239D01*
X1680Y245D01*
X1678Y245D01*
X1678Y279D01*
X1680Y279D01*
X1680Y285D01*
X1682Y285D01*
X1682Y291D01*
X1684Y291D01*
X1684Y295D01*
X1686Y295D01*
X1686Y299D01*
X1688Y299D01*
X1688Y301D01*
X1690Y301D01*
X1690Y323D01*
X1688Y323D01*
X1688Y327D01*
X1686Y327D01*
X1686Y329D01*
X1684Y329D01*
X1684Y333D01*
X1682Y333D01*
X1682Y339D01*
X1680Y339D01*
X1680Y345D01*
X1678Y345D01*
X1678Y499D01*
X210Y499D01*
G37*
D02*
G36*
X206Y323D02*
X206Y319D01*
X204Y319D01*
X204Y317D01*
X202Y317D01*
X202Y315D01*
X200Y315D01*
X200Y313D01*
X198Y313D01*
X198Y311D01*
X196Y311D01*
X196Y309D01*
X194Y309D01*
X194Y307D01*
X192Y307D01*
X192Y305D01*
X188Y305D01*
X188Y303D01*
X186Y303D01*
X186Y301D01*
X182Y301D01*
X182Y299D01*
X178Y299D01*
X178Y297D01*
X174Y297D01*
X174Y295D01*
X168Y295D01*
X168Y293D01*
X996Y293D01*
X996Y297D01*
X998Y297D01*
X998Y299D01*
X1000Y299D01*
X1000Y301D01*
X1002Y301D01*
X1002Y305D01*
X1004Y305D01*
X1004Y307D01*
X1006Y307D01*
X1006Y309D01*
X1010Y309D01*
X1010Y311D01*
X1012Y311D01*
X1012Y313D01*
X1014Y313D01*
X1014Y315D01*
X1018Y315D01*
X1018Y317D01*
X1020Y317D01*
X1020Y319D01*
X1026Y319D01*
X1026Y321D01*
X1030Y321D01*
X1030Y323D01*
X206Y323D01*
G37*
D02*
G36*
X1068Y323D02*
X1068Y321D01*
X1072Y321D01*
X1072Y319D01*
X1078Y319D01*
X1078Y317D01*
X1080Y317D01*
X1080Y315D01*
X1084Y315D01*
X1084Y313D01*
X1086Y313D01*
X1086Y311D01*
X1088Y311D01*
X1088Y309D01*
X1110Y309D01*
X1110Y311D01*
X1112Y311D01*
X1112Y313D01*
X1114Y313D01*
X1114Y315D01*
X1118Y315D01*
X1118Y317D01*
X1120Y317D01*
X1120Y319D01*
X1126Y319D01*
X1126Y321D01*
X1130Y321D01*
X1130Y323D01*
X1068Y323D01*
G37*
D02*
G36*
X1168Y323D02*
X1168Y321D01*
X1188Y321D01*
X1188Y323D01*
X1168Y323D01*
G37*
D02*
G36*
X44Y293D02*
X44Y291D01*
X994Y291D01*
X994Y293D01*
X44Y293D01*
G37*
D02*
G36*
X44Y293D02*
X44Y291D01*
X994Y291D01*
X994Y293D01*
X44Y293D01*
G37*
D02*
G36*
X1814Y293D02*
X1814Y291D01*
X2264Y291D01*
X2264Y293D01*
X1814Y293D01*
G37*
D02*
G36*
X1814Y293D02*
X1814Y291D01*
X2264Y291D01*
X2264Y293D01*
X1814Y293D01*
G37*
D02*
G36*
X44Y291D02*
X44Y201D01*
X1032Y201D01*
X1032Y203D01*
X1026Y203D01*
X1026Y205D01*
X1022Y205D01*
X1022Y207D01*
X1018Y207D01*
X1018Y209D01*
X1016Y209D01*
X1016Y211D01*
X1012Y211D01*
X1012Y213D01*
X1010Y213D01*
X1010Y215D01*
X1008Y215D01*
X1008Y217D01*
X1006Y217D01*
X1006Y219D01*
X1004Y219D01*
X1004Y221D01*
X1002Y221D01*
X1002Y223D01*
X1000Y223D01*
X1000Y225D01*
X998Y225D01*
X998Y227D01*
X996Y227D01*
X996Y231D01*
X994Y231D01*
X994Y235D01*
X992Y235D01*
X992Y239D01*
X990Y239D01*
X990Y245D01*
X988Y245D01*
X988Y279D01*
X990Y279D01*
X990Y285D01*
X992Y285D01*
X992Y289D01*
X994Y289D01*
X994Y291D01*
X44Y291D01*
G37*
D02*
G36*
X1816Y291D02*
X1816Y285D01*
X1818Y285D01*
X1818Y279D01*
X1820Y279D01*
X1820Y245D01*
X1818Y245D01*
X1818Y239D01*
X1816Y239D01*
X1816Y233D01*
X1814Y233D01*
X1814Y229D01*
X1812Y229D01*
X1812Y227D01*
X1810Y227D01*
X1810Y223D01*
X1808Y223D01*
X1808Y221D01*
X1806Y221D01*
X1806Y217D01*
X1804Y217D01*
X1804Y215D01*
X1802Y215D01*
X1802Y213D01*
X1800Y213D01*
X1800Y211D01*
X1798Y211D01*
X1798Y209D01*
X1796Y209D01*
X1796Y207D01*
X1792Y207D01*
X1792Y205D01*
X1790Y205D01*
X1790Y203D01*
X1788Y203D01*
X1788Y201D01*
X1784Y201D01*
X1784Y199D01*
X1780Y199D01*
X1780Y197D01*
X1776Y197D01*
X1776Y195D01*
X1772Y195D01*
X1772Y193D01*
X1764Y193D01*
X1764Y191D01*
X2264Y191D01*
X2264Y291D01*
X1816Y291D01*
G37*
D02*
G36*
X1088Y215D02*
X1088Y213D01*
X1086Y213D01*
X1086Y211D01*
X1082Y211D01*
X1082Y209D01*
X1080Y209D01*
X1080Y207D01*
X1076Y207D01*
X1076Y205D01*
X1072Y205D01*
X1072Y203D01*
X1066Y203D01*
X1066Y201D01*
X1132Y201D01*
X1132Y203D01*
X1126Y203D01*
X1126Y205D01*
X1122Y205D01*
X1122Y207D01*
X1118Y207D01*
X1118Y209D01*
X1116Y209D01*
X1116Y211D01*
X1112Y211D01*
X1112Y213D01*
X1110Y213D01*
X1110Y215D01*
X1088Y215D01*
G37*
D02*
G36*
X1166Y203D02*
X1166Y201D01*
X1188Y201D01*
X1188Y203D01*
X1166Y203D01*
G37*
D02*
G36*
X44Y201D02*
X44Y199D01*
X1714Y199D01*
X1714Y201D01*
X44Y201D01*
G37*
D02*
G36*
X44Y201D02*
X44Y199D01*
X1714Y199D01*
X1714Y201D01*
X44Y201D01*
G37*
D02*
G36*
X44Y201D02*
X44Y199D01*
X1714Y199D01*
X1714Y201D01*
X44Y201D01*
G37*
D02*
G36*
X44Y201D02*
X44Y199D01*
X1714Y199D01*
X1714Y201D01*
X44Y201D01*
G37*
D02*
G36*
X44Y199D02*
X44Y191D01*
X1734Y191D01*
X1734Y193D01*
X1726Y193D01*
X1726Y195D01*
X1722Y195D01*
X1722Y197D01*
X1718Y197D01*
X1718Y199D01*
X44Y199D01*
G37*
D02*
G36*
X44Y191D02*
X44Y189D01*
X2264Y189D01*
X2264Y191D01*
X44Y191D01*
G37*
D02*
G36*
X44Y191D02*
X44Y189D01*
X2264Y189D01*
X2264Y191D01*
X44Y191D01*
G37*
D02*
G36*
X44Y189D02*
X44Y41D01*
X2264Y41D01*
X2264Y189D01*
X44Y189D01*
G37*
D02*
G36*
X1976Y1852D02*
X2030Y1852D01*
X2030Y1815D01*
X1976Y1815D01*
X1976Y1852D01*
G37*
D02*
G36*
X2064Y1852D02*
X2118Y1852D01*
X2118Y1815D01*
X2064Y1815D01*
X2064Y1852D01*
G37*
D02*
G36*
X76Y1282D02*
X130Y1282D01*
X130Y1245D01*
X76Y1245D01*
X76Y1282D01*
G37*
D02*
G36*
X164Y1282D02*
X218Y1282D01*
X218Y1245D01*
X164Y1245D01*
X164Y1282D01*
G37*
D02*
G36*
X76Y1182D02*
X130Y1182D01*
X130Y1145D01*
X76Y1145D01*
X76Y1182D01*
G37*
D02*
G36*
X164Y1182D02*
X218Y1182D01*
X218Y1145D01*
X164Y1145D01*
X164Y1182D01*
G37*
D02*
G36*
X1033Y1227D02*
X1062Y1227D01*
X1062Y1183D01*
X1033Y1183D01*
X1033Y1227D01*
G37*
D02*
G36*
X1033Y1145D02*
X1062Y1145D01*
X1062Y1101D01*
X1033Y1101D01*
X1033Y1145D01*
G37*
D02*
G36*
X984Y1178D02*
X1028Y1178D01*
X1028Y1149D01*
X984Y1149D01*
X984Y1178D01*
G37*
D02*
G36*
X1033Y1427D02*
X1062Y1427D01*
X1062Y1383D01*
X1033Y1383D01*
X1033Y1427D01*
G37*
D02*
G36*
X1033Y1345D02*
X1062Y1345D01*
X1062Y1301D01*
X1033Y1301D01*
X1033Y1345D01*
G37*
D02*
G36*
X984Y1378D02*
X1028Y1378D01*
X1028Y1349D01*
X984Y1349D01*
X984Y1378D01*
G37*
D02*
G36*
X1033Y1027D02*
X1062Y1027D01*
X1062Y985D01*
X1033Y985D01*
X1033Y1027D01*
G37*
D02*
G36*
X1033Y947D02*
X1062Y947D01*
X1062Y901D01*
X1033Y901D01*
X1033Y947D01*
G37*
D02*
G36*
X984Y980D02*
X1028Y980D01*
X1028Y951D01*
X984Y951D01*
X984Y980D01*
G37*
D02*
G36*
X1033Y1627D02*
X1062Y1627D01*
X1062Y1583D01*
X1033Y1583D01*
X1033Y1627D01*
G37*
D02*
G36*
X1033Y1545D02*
X1062Y1545D01*
X1062Y1501D01*
X1033Y1501D01*
X1033Y1545D01*
G37*
D02*
G36*
X984Y1578D02*
X1028Y1578D01*
X1028Y1549D01*
X984Y1549D01*
X984Y1578D01*
G37*
D02*
G36*
X1033Y827D02*
X1062Y827D01*
X1062Y785D01*
X1033Y785D01*
X1033Y827D01*
G37*
D02*
G36*
X1033Y747D02*
X1062Y747D01*
X1062Y701D01*
X1033Y701D01*
X1033Y747D01*
G37*
D02*
G36*
X984Y780D02*
X1028Y780D01*
X1028Y751D01*
X984Y751D01*
X984Y780D01*
G37*
D02*
G36*
X1033Y1827D02*
X1062Y1827D01*
X1062Y1783D01*
X1033Y1783D01*
X1033Y1827D01*
G37*
D02*
G36*
X1033Y1745D02*
X1062Y1745D01*
X1062Y1701D01*
X1033Y1701D01*
X1033Y1745D01*
G37*
D02*
G36*
X984Y1778D02*
X1028Y1778D01*
X1028Y1749D01*
X984Y1749D01*
X984Y1778D01*
G37*
D02*
G36*
X1033Y627D02*
X1062Y627D01*
X1062Y585D01*
X1033Y585D01*
X1033Y627D01*
G37*
D02*
G36*
X1033Y547D02*
X1062Y547D01*
X1062Y501D01*
X1033Y501D01*
X1033Y547D01*
G37*
D02*
G36*
X984Y580D02*
X1028Y580D01*
X1028Y551D01*
X984Y551D01*
X984Y580D01*
G37*
D02*
G36*
X1033Y2027D02*
X1062Y2027D01*
X1062Y1983D01*
X1033Y1983D01*
X1033Y2027D01*
G37*
D02*
G36*
X1033Y1945D02*
X1062Y1945D01*
X1062Y1901D01*
X1033Y1901D01*
X1033Y1945D01*
G37*
D02*
G36*
X984Y1978D02*
X1028Y1978D01*
X1028Y1949D01*
X984Y1949D01*
X984Y1978D01*
G37*
D02*
G36*
X1033Y327D02*
X1062Y327D01*
X1062Y285D01*
X1033Y285D01*
X1033Y327D01*
G37*
D02*
G36*
X1033Y247D02*
X1062Y247D01*
X1062Y201D01*
X1033Y201D01*
X1033Y247D01*
G37*
D02*
G36*
X984Y280D02*
X1028Y280D01*
X1028Y251D01*
X984Y251D01*
X984Y280D01*
G37*
D02*
G04 End of Copper1*
M02*