G04 MADE WITH FRITZING*
G04 WWW.FRITZING.ORG*
G04 DOUBLE SIDED*
G04 HOLES PLATED*
G04 CONTOUR ON CENTER OF CONTOUR VECTOR*
%ASAXBY*%
%FSLAX23Y23*%
%MOIN*%
%OFA0B0*%
%SFA1.0B1.0*%
%ADD10C,0.020000*%
%ADD11C,0.010000*%
%ADD12R,0.001000X0.001000*%
%LNSILK1*%
G90*
G70*
G54D10*
X1299Y613D02*
X999Y613D01*
D02*
X999Y613D02*
X999Y513D01*
D02*
X999Y513D02*
X1299Y513D01*
D02*
X1299Y513D02*
X1299Y613D01*
G54D11*
D02*
X1199Y613D02*
X1199Y513D01*
G54D10*
D02*
X1299Y813D02*
X999Y813D01*
D02*
X999Y813D02*
X999Y713D01*
D02*
X999Y713D02*
X1299Y713D01*
D02*
X1299Y713D02*
X1299Y813D01*
G54D11*
D02*
X1199Y813D02*
X1199Y713D01*
G54D10*
D02*
X1299Y1013D02*
X999Y1013D01*
D02*
X999Y1013D02*
X999Y913D01*
D02*
X999Y913D02*
X1299Y913D01*
D02*
X1299Y913D02*
X1299Y1013D01*
G54D11*
D02*
X1199Y1013D02*
X1199Y913D01*
G54D10*
D02*
X1299Y1213D02*
X999Y1213D01*
D02*
X999Y1213D02*
X999Y1113D01*
D02*
X999Y1113D02*
X1299Y1113D01*
D02*
X1299Y1113D02*
X1299Y1213D01*
G54D11*
D02*
X1199Y1213D02*
X1199Y1113D01*
G54D10*
D02*
X1299Y1413D02*
X999Y1413D01*
D02*
X999Y1413D02*
X999Y1313D01*
D02*
X999Y1313D02*
X1299Y1313D01*
D02*
X1299Y1313D02*
X1299Y1413D01*
G54D11*
D02*
X1199Y1413D02*
X1199Y1313D01*
G54D10*
D02*
X1299Y1613D02*
X999Y1613D01*
D02*
X999Y1613D02*
X999Y1513D01*
D02*
X999Y1513D02*
X1299Y1513D01*
D02*
X1299Y1513D02*
X1299Y1613D01*
G54D11*
D02*
X1199Y1613D02*
X1199Y1513D01*
G54D10*
D02*
X1299Y313D02*
X999Y313D01*
D02*
X999Y313D02*
X999Y213D01*
D02*
X999Y213D02*
X1299Y213D01*
D02*
X1299Y213D02*
X1299Y313D01*
G54D11*
D02*
X1199Y313D02*
X1199Y213D01*
G54D10*
D02*
X1299Y1813D02*
X999Y1813D01*
D02*
X999Y1813D02*
X999Y1713D01*
D02*
X999Y1713D02*
X1299Y1713D01*
D02*
X1299Y1713D02*
X1299Y1813D01*
G54D11*
D02*
X1199Y1813D02*
X1199Y1713D01*
G54D10*
D02*
X1299Y2013D02*
X999Y2013D01*
D02*
X999Y2013D02*
X999Y1913D01*
D02*
X999Y1913D02*
X1299Y1913D01*
D02*
X1299Y1913D02*
X1299Y2013D01*
G54D11*
D02*
X1199Y2013D02*
X1199Y1913D01*
D02*
X1699Y513D02*
X1699Y213D01*
D02*
X1699Y213D02*
X1799Y213D01*
D02*
X1799Y213D02*
X1799Y513D01*
D02*
X1799Y513D02*
X1699Y513D01*
G54D12*
X814Y2001D02*
X831Y2001D01*
X851Y2001D02*
X853Y2001D01*
X907Y2001D02*
X924Y2001D01*
X811Y2000D02*
X832Y2000D01*
X850Y2000D02*
X854Y2000D01*
X906Y2000D02*
X925Y2000D01*
X810Y1999D02*
X832Y1999D01*
X849Y1999D02*
X855Y1999D01*
X906Y1999D02*
X925Y1999D01*
X809Y1998D02*
X833Y1998D01*
X849Y1998D02*
X855Y1998D01*
X906Y1998D02*
X926Y1998D01*
X808Y1997D02*
X832Y1997D01*
X849Y1997D02*
X855Y1997D01*
X906Y1997D02*
X926Y1997D01*
X808Y1996D02*
X832Y1996D01*
X849Y1996D02*
X855Y1996D01*
X906Y1996D02*
X926Y1996D01*
X807Y1995D02*
X831Y1995D01*
X849Y1995D02*
X855Y1995D01*
X906Y1995D02*
X926Y1995D01*
X807Y1994D02*
X814Y1994D01*
X849Y1994D02*
X855Y1994D01*
X906Y1994D02*
X912Y1994D01*
X920Y1994D02*
X926Y1994D01*
X806Y1993D02*
X813Y1993D01*
X849Y1993D02*
X855Y1993D01*
X906Y1993D02*
X912Y1993D01*
X920Y1993D02*
X926Y1993D01*
X806Y1992D02*
X813Y1992D01*
X849Y1992D02*
X855Y1992D01*
X906Y1992D02*
X912Y1992D01*
X920Y1992D02*
X926Y1992D01*
X805Y1991D02*
X812Y1991D01*
X849Y1991D02*
X855Y1991D01*
X906Y1991D02*
X912Y1991D01*
X920Y1991D02*
X926Y1991D01*
X805Y1990D02*
X812Y1990D01*
X849Y1990D02*
X855Y1990D01*
X906Y1990D02*
X912Y1990D01*
X920Y1990D02*
X926Y1990D01*
X804Y1989D02*
X811Y1989D01*
X849Y1989D02*
X855Y1989D01*
X906Y1989D02*
X912Y1989D01*
X920Y1989D02*
X926Y1989D01*
X804Y1988D02*
X811Y1988D01*
X849Y1988D02*
X855Y1988D01*
X906Y1988D02*
X912Y1988D01*
X920Y1988D02*
X926Y1988D01*
X803Y1987D02*
X810Y1987D01*
X849Y1987D02*
X855Y1987D01*
X906Y1987D02*
X912Y1987D01*
X920Y1987D02*
X926Y1987D01*
X803Y1986D02*
X810Y1986D01*
X849Y1986D02*
X855Y1986D01*
X864Y1986D02*
X876Y1986D01*
X906Y1986D02*
X912Y1986D01*
X920Y1986D02*
X926Y1986D01*
X802Y1985D02*
X809Y1985D01*
X849Y1985D02*
X855Y1985D01*
X862Y1985D02*
X878Y1985D01*
X906Y1985D02*
X912Y1985D01*
X920Y1985D02*
X926Y1985D01*
X802Y1984D02*
X809Y1984D01*
X849Y1984D02*
X855Y1984D01*
X861Y1984D02*
X879Y1984D01*
X906Y1984D02*
X912Y1984D01*
X920Y1984D02*
X926Y1984D01*
X801Y1983D02*
X808Y1983D01*
X849Y1983D02*
X855Y1983D01*
X859Y1983D02*
X880Y1983D01*
X906Y1983D02*
X912Y1983D01*
X920Y1983D02*
X926Y1983D01*
X801Y1982D02*
X808Y1982D01*
X849Y1982D02*
X855Y1982D01*
X858Y1982D02*
X880Y1982D01*
X906Y1982D02*
X912Y1982D01*
X920Y1982D02*
X926Y1982D01*
X800Y1981D02*
X807Y1981D01*
X849Y1981D02*
X881Y1981D01*
X906Y1981D02*
X912Y1981D01*
X920Y1981D02*
X926Y1981D01*
X800Y1980D02*
X807Y1980D01*
X849Y1980D02*
X881Y1980D01*
X906Y1980D02*
X912Y1980D01*
X920Y1980D02*
X926Y1980D01*
X800Y1979D02*
X806Y1979D01*
X849Y1979D02*
X865Y1979D01*
X875Y1979D02*
X882Y1979D01*
X906Y1979D02*
X912Y1979D01*
X920Y1979D02*
X926Y1979D01*
X799Y1978D02*
X806Y1978D01*
X849Y1978D02*
X863Y1978D01*
X876Y1978D02*
X882Y1978D01*
X905Y1978D02*
X926Y1978D01*
X799Y1977D02*
X805Y1977D01*
X849Y1977D02*
X862Y1977D01*
X876Y1977D02*
X882Y1977D01*
X902Y1977D02*
X929Y1977D01*
X799Y1976D02*
X805Y1976D01*
X849Y1976D02*
X860Y1976D01*
X876Y1976D02*
X882Y1976D01*
X901Y1976D02*
X930Y1976D01*
X799Y1975D02*
X805Y1975D01*
X849Y1975D02*
X859Y1975D01*
X876Y1975D02*
X882Y1975D01*
X900Y1975D02*
X931Y1975D01*
X799Y1974D02*
X805Y1974D01*
X849Y1974D02*
X857Y1974D01*
X876Y1974D02*
X882Y1974D01*
X900Y1974D02*
X932Y1974D01*
X799Y1973D02*
X805Y1973D01*
X849Y1973D02*
X856Y1973D01*
X876Y1973D02*
X882Y1973D01*
X899Y1973D02*
X932Y1973D01*
X799Y1972D02*
X805Y1972D01*
X849Y1972D02*
X855Y1972D01*
X876Y1972D02*
X882Y1972D01*
X899Y1972D02*
X932Y1972D01*
X799Y1971D02*
X806Y1971D01*
X849Y1971D02*
X855Y1971D01*
X876Y1971D02*
X882Y1971D01*
X899Y1971D02*
X905Y1971D01*
X926Y1971D02*
X933Y1971D01*
X800Y1970D02*
X806Y1970D01*
X849Y1970D02*
X855Y1970D01*
X876Y1970D02*
X882Y1970D01*
X899Y1970D02*
X905Y1970D01*
X927Y1970D02*
X933Y1970D01*
X800Y1969D02*
X807Y1969D01*
X849Y1969D02*
X855Y1969D01*
X876Y1969D02*
X882Y1969D01*
X899Y1969D02*
X905Y1969D01*
X927Y1969D02*
X933Y1969D01*
X800Y1968D02*
X807Y1968D01*
X849Y1968D02*
X855Y1968D01*
X876Y1968D02*
X882Y1968D01*
X899Y1968D02*
X905Y1968D01*
X927Y1968D02*
X933Y1968D01*
X801Y1967D02*
X808Y1967D01*
X849Y1967D02*
X855Y1967D01*
X876Y1967D02*
X882Y1967D01*
X899Y1967D02*
X905Y1967D01*
X927Y1967D02*
X933Y1967D01*
X801Y1966D02*
X808Y1966D01*
X849Y1966D02*
X855Y1966D01*
X876Y1966D02*
X882Y1966D01*
X899Y1966D02*
X905Y1966D01*
X927Y1966D02*
X933Y1966D01*
X802Y1965D02*
X809Y1965D01*
X849Y1965D02*
X855Y1965D01*
X876Y1965D02*
X882Y1965D01*
X899Y1965D02*
X905Y1965D01*
X927Y1965D02*
X933Y1965D01*
X802Y1964D02*
X809Y1964D01*
X849Y1964D02*
X855Y1964D01*
X876Y1964D02*
X882Y1964D01*
X899Y1964D02*
X905Y1964D01*
X927Y1964D02*
X933Y1964D01*
X803Y1963D02*
X810Y1963D01*
X849Y1963D02*
X855Y1963D01*
X876Y1963D02*
X882Y1963D01*
X899Y1963D02*
X905Y1963D01*
X927Y1963D02*
X933Y1963D01*
X803Y1962D02*
X810Y1962D01*
X849Y1962D02*
X855Y1962D01*
X876Y1962D02*
X882Y1962D01*
X899Y1962D02*
X905Y1962D01*
X927Y1962D02*
X933Y1962D01*
X804Y1961D02*
X811Y1961D01*
X849Y1961D02*
X855Y1961D01*
X876Y1961D02*
X882Y1961D01*
X899Y1961D02*
X905Y1961D01*
X927Y1961D02*
X933Y1961D01*
X804Y1960D02*
X811Y1960D01*
X849Y1960D02*
X855Y1960D01*
X876Y1960D02*
X882Y1960D01*
X899Y1960D02*
X905Y1960D01*
X927Y1960D02*
X933Y1960D01*
X805Y1959D02*
X812Y1959D01*
X849Y1959D02*
X855Y1959D01*
X876Y1959D02*
X882Y1959D01*
X899Y1959D02*
X905Y1959D01*
X927Y1959D02*
X933Y1959D01*
X805Y1958D02*
X812Y1958D01*
X849Y1958D02*
X855Y1958D01*
X876Y1958D02*
X882Y1958D01*
X899Y1958D02*
X905Y1958D01*
X927Y1958D02*
X933Y1958D01*
X806Y1957D02*
X813Y1957D01*
X849Y1957D02*
X855Y1957D01*
X876Y1957D02*
X882Y1957D01*
X899Y1957D02*
X905Y1957D01*
X927Y1957D02*
X933Y1957D01*
X806Y1956D02*
X813Y1956D01*
X849Y1956D02*
X855Y1956D01*
X876Y1956D02*
X882Y1956D01*
X899Y1956D02*
X905Y1956D01*
X927Y1956D02*
X933Y1956D01*
X807Y1955D02*
X814Y1955D01*
X849Y1955D02*
X855Y1955D01*
X876Y1955D02*
X882Y1955D01*
X899Y1955D02*
X905Y1955D01*
X927Y1955D02*
X933Y1955D01*
X807Y1954D02*
X831Y1954D01*
X849Y1954D02*
X855Y1954D01*
X876Y1954D02*
X882Y1954D01*
X899Y1954D02*
X933Y1954D01*
X808Y1953D02*
X832Y1953D01*
X849Y1953D02*
X855Y1953D01*
X876Y1953D02*
X882Y1953D01*
X899Y1953D02*
X932Y1953D01*
X808Y1952D02*
X832Y1952D01*
X849Y1952D02*
X855Y1952D01*
X876Y1952D02*
X882Y1952D01*
X899Y1952D02*
X932Y1952D01*
X809Y1951D02*
X833Y1951D01*
X849Y1951D02*
X855Y1951D01*
X876Y1951D02*
X882Y1951D01*
X900Y1951D02*
X932Y1951D01*
X810Y1950D02*
X832Y1950D01*
X849Y1950D02*
X855Y1950D01*
X876Y1950D02*
X882Y1950D01*
X901Y1950D02*
X931Y1950D01*
X812Y1949D02*
X832Y1949D01*
X850Y1949D02*
X854Y1949D01*
X877Y1949D02*
X881Y1949D01*
X902Y1949D02*
X930Y1949D01*
X814Y1948D02*
X831Y1948D01*
X851Y1948D02*
X853Y1948D01*
X878Y1948D02*
X880Y1948D01*
X903Y1948D02*
X928Y1948D01*
X813Y1801D02*
X831Y1801D01*
X850Y1801D02*
X853Y1801D01*
X900Y1801D02*
X933Y1801D01*
X811Y1800D02*
X832Y1800D01*
X850Y1800D02*
X854Y1800D01*
X900Y1800D02*
X933Y1800D01*
X810Y1799D02*
X832Y1799D01*
X849Y1799D02*
X855Y1799D01*
X899Y1799D02*
X933Y1799D01*
X809Y1798D02*
X833Y1798D01*
X849Y1798D02*
X855Y1798D01*
X899Y1798D02*
X933Y1798D01*
X808Y1797D02*
X832Y1797D01*
X849Y1797D02*
X855Y1797D01*
X899Y1797D02*
X933Y1797D01*
X808Y1796D02*
X832Y1796D01*
X849Y1796D02*
X855Y1796D01*
X899Y1796D02*
X933Y1796D01*
X807Y1795D02*
X831Y1795D01*
X849Y1795D02*
X855Y1795D01*
X899Y1795D02*
X933Y1795D01*
X807Y1794D02*
X814Y1794D01*
X849Y1794D02*
X855Y1794D01*
X899Y1794D02*
X905Y1794D01*
X927Y1794D02*
X933Y1794D01*
X806Y1793D02*
X813Y1793D01*
X849Y1793D02*
X855Y1793D01*
X900Y1793D02*
X904Y1793D01*
X927Y1793D02*
X933Y1793D01*
X806Y1792D02*
X813Y1792D01*
X849Y1792D02*
X855Y1792D01*
X901Y1792D02*
X903Y1792D01*
X927Y1792D02*
X933Y1792D01*
X805Y1791D02*
X812Y1791D01*
X849Y1791D02*
X855Y1791D01*
X927Y1791D02*
X933Y1791D01*
X805Y1790D02*
X812Y1790D01*
X849Y1790D02*
X855Y1790D01*
X927Y1790D02*
X933Y1790D01*
X804Y1789D02*
X811Y1789D01*
X849Y1789D02*
X855Y1789D01*
X927Y1789D02*
X933Y1789D01*
X804Y1788D02*
X811Y1788D01*
X849Y1788D02*
X855Y1788D01*
X927Y1788D02*
X933Y1788D01*
X803Y1787D02*
X810Y1787D01*
X849Y1787D02*
X855Y1787D01*
X927Y1787D02*
X933Y1787D01*
X803Y1786D02*
X810Y1786D01*
X849Y1786D02*
X855Y1786D01*
X864Y1786D02*
X876Y1786D01*
X927Y1786D02*
X933Y1786D01*
X802Y1785D02*
X809Y1785D01*
X849Y1785D02*
X855Y1785D01*
X862Y1785D02*
X878Y1785D01*
X927Y1785D02*
X933Y1785D01*
X802Y1784D02*
X809Y1784D01*
X849Y1784D02*
X855Y1784D01*
X861Y1784D02*
X879Y1784D01*
X927Y1784D02*
X933Y1784D01*
X801Y1783D02*
X808Y1783D01*
X849Y1783D02*
X855Y1783D01*
X859Y1783D02*
X880Y1783D01*
X927Y1783D02*
X933Y1783D01*
X801Y1782D02*
X808Y1782D01*
X849Y1782D02*
X855Y1782D01*
X858Y1782D02*
X880Y1782D01*
X926Y1782D02*
X933Y1782D01*
X800Y1781D02*
X807Y1781D01*
X849Y1781D02*
X881Y1781D01*
X925Y1781D02*
X933Y1781D01*
X800Y1780D02*
X807Y1780D01*
X849Y1780D02*
X881Y1780D01*
X924Y1780D02*
X932Y1780D01*
X800Y1779D02*
X806Y1779D01*
X849Y1779D02*
X865Y1779D01*
X875Y1779D02*
X882Y1779D01*
X923Y1779D02*
X932Y1779D01*
X799Y1778D02*
X806Y1778D01*
X849Y1778D02*
X863Y1778D01*
X876Y1778D02*
X882Y1778D01*
X922Y1778D02*
X932Y1778D01*
X799Y1777D02*
X805Y1777D01*
X849Y1777D02*
X862Y1777D01*
X876Y1777D02*
X882Y1777D01*
X921Y1777D02*
X930Y1777D01*
X799Y1776D02*
X805Y1776D01*
X849Y1776D02*
X860Y1776D01*
X876Y1776D02*
X882Y1776D01*
X919Y1776D02*
X929Y1776D01*
X799Y1775D02*
X805Y1775D01*
X849Y1775D02*
X859Y1775D01*
X876Y1775D02*
X882Y1775D01*
X918Y1775D02*
X928Y1775D01*
X799Y1774D02*
X805Y1774D01*
X849Y1774D02*
X857Y1774D01*
X876Y1774D02*
X882Y1774D01*
X917Y1774D02*
X927Y1774D01*
X799Y1773D02*
X805Y1773D01*
X849Y1773D02*
X856Y1773D01*
X876Y1773D02*
X882Y1773D01*
X916Y1773D02*
X926Y1773D01*
X799Y1772D02*
X805Y1772D01*
X849Y1772D02*
X855Y1772D01*
X876Y1772D02*
X882Y1772D01*
X915Y1772D02*
X925Y1772D01*
X799Y1771D02*
X806Y1771D01*
X849Y1771D02*
X855Y1771D01*
X876Y1771D02*
X882Y1771D01*
X914Y1771D02*
X923Y1771D01*
X800Y1770D02*
X806Y1770D01*
X849Y1770D02*
X855Y1770D01*
X876Y1770D02*
X882Y1770D01*
X913Y1770D02*
X922Y1770D01*
X800Y1769D02*
X807Y1769D01*
X849Y1769D02*
X855Y1769D01*
X876Y1769D02*
X882Y1769D01*
X913Y1769D02*
X921Y1769D01*
X800Y1768D02*
X807Y1768D01*
X849Y1768D02*
X855Y1768D01*
X876Y1768D02*
X882Y1768D01*
X913Y1768D02*
X920Y1768D01*
X801Y1767D02*
X808Y1767D01*
X849Y1767D02*
X855Y1767D01*
X876Y1767D02*
X882Y1767D01*
X913Y1767D02*
X919Y1767D01*
X801Y1766D02*
X808Y1766D01*
X849Y1766D02*
X855Y1766D01*
X876Y1766D02*
X882Y1766D01*
X913Y1766D02*
X919Y1766D01*
X802Y1765D02*
X809Y1765D01*
X849Y1765D02*
X855Y1765D01*
X876Y1765D02*
X882Y1765D01*
X913Y1765D02*
X919Y1765D01*
X802Y1764D02*
X809Y1764D01*
X849Y1764D02*
X855Y1764D01*
X876Y1764D02*
X882Y1764D01*
X913Y1764D02*
X919Y1764D01*
X803Y1763D02*
X810Y1763D01*
X849Y1763D02*
X855Y1763D01*
X876Y1763D02*
X882Y1763D01*
X913Y1763D02*
X919Y1763D01*
X803Y1762D02*
X810Y1762D01*
X849Y1762D02*
X855Y1762D01*
X876Y1762D02*
X882Y1762D01*
X913Y1762D02*
X919Y1762D01*
X804Y1761D02*
X811Y1761D01*
X849Y1761D02*
X855Y1761D01*
X876Y1761D02*
X882Y1761D01*
X913Y1761D02*
X919Y1761D01*
X804Y1760D02*
X811Y1760D01*
X849Y1760D02*
X855Y1760D01*
X876Y1760D02*
X882Y1760D01*
X913Y1760D02*
X919Y1760D01*
X805Y1759D02*
X812Y1759D01*
X849Y1759D02*
X855Y1759D01*
X876Y1759D02*
X882Y1759D01*
X913Y1759D02*
X919Y1759D01*
X805Y1758D02*
X812Y1758D01*
X849Y1758D02*
X855Y1758D01*
X876Y1758D02*
X882Y1758D01*
X913Y1758D02*
X919Y1758D01*
X806Y1757D02*
X813Y1757D01*
X849Y1757D02*
X855Y1757D01*
X876Y1757D02*
X882Y1757D01*
X913Y1757D02*
X919Y1757D01*
X806Y1756D02*
X813Y1756D01*
X849Y1756D02*
X855Y1756D01*
X876Y1756D02*
X882Y1756D01*
X913Y1756D02*
X919Y1756D01*
X807Y1755D02*
X814Y1755D01*
X849Y1755D02*
X855Y1755D01*
X876Y1755D02*
X882Y1755D01*
X913Y1755D02*
X919Y1755D01*
X807Y1754D02*
X831Y1754D01*
X849Y1754D02*
X855Y1754D01*
X876Y1754D02*
X882Y1754D01*
X913Y1754D02*
X919Y1754D01*
X808Y1753D02*
X832Y1753D01*
X849Y1753D02*
X855Y1753D01*
X876Y1753D02*
X882Y1753D01*
X913Y1753D02*
X919Y1753D01*
X808Y1752D02*
X832Y1752D01*
X849Y1752D02*
X855Y1752D01*
X876Y1752D02*
X882Y1752D01*
X913Y1752D02*
X919Y1752D01*
X809Y1751D02*
X833Y1751D01*
X849Y1751D02*
X855Y1751D01*
X876Y1751D02*
X882Y1751D01*
X913Y1751D02*
X919Y1751D01*
X810Y1750D02*
X832Y1750D01*
X849Y1750D02*
X855Y1750D01*
X876Y1750D02*
X882Y1750D01*
X913Y1750D02*
X919Y1750D01*
X812Y1749D02*
X832Y1749D01*
X850Y1749D02*
X854Y1749D01*
X877Y1749D02*
X881Y1749D01*
X913Y1749D02*
X918Y1749D01*
X814Y1748D02*
X831Y1748D01*
X851Y1748D02*
X853Y1748D01*
X878Y1748D02*
X880Y1748D01*
X914Y1748D02*
X917Y1748D01*
X802Y1601D02*
X820Y1601D01*
X839Y1601D02*
X842Y1601D01*
X889Y1601D02*
X896Y1601D01*
X800Y1600D02*
X821Y1600D01*
X838Y1600D02*
X843Y1600D01*
X888Y1600D02*
X897Y1600D01*
X799Y1599D02*
X821Y1599D01*
X838Y1599D02*
X844Y1599D01*
X888Y1599D02*
X897Y1599D01*
X798Y1598D02*
X821Y1598D01*
X838Y1598D02*
X844Y1598D01*
X888Y1598D02*
X897Y1598D01*
X797Y1597D02*
X821Y1597D01*
X838Y1597D02*
X844Y1597D01*
X888Y1597D02*
X897Y1597D01*
X797Y1596D02*
X821Y1596D01*
X838Y1596D02*
X844Y1596D01*
X888Y1596D02*
X896Y1596D01*
X796Y1595D02*
X819Y1595D01*
X838Y1595D02*
X844Y1595D01*
X888Y1595D02*
X895Y1595D01*
X796Y1594D02*
X803Y1594D01*
X838Y1594D02*
X844Y1594D01*
X888Y1594D02*
X894Y1594D01*
X795Y1593D02*
X802Y1593D01*
X838Y1593D02*
X844Y1593D01*
X888Y1593D02*
X894Y1593D01*
X795Y1592D02*
X802Y1592D01*
X838Y1592D02*
X844Y1592D01*
X888Y1592D02*
X894Y1592D01*
X794Y1591D02*
X801Y1591D01*
X838Y1591D02*
X844Y1591D01*
X888Y1591D02*
X894Y1591D01*
X794Y1590D02*
X801Y1590D01*
X838Y1590D02*
X844Y1590D01*
X888Y1590D02*
X894Y1590D01*
X793Y1589D02*
X800Y1589D01*
X838Y1589D02*
X844Y1589D01*
X888Y1589D02*
X894Y1589D01*
X793Y1588D02*
X800Y1588D01*
X838Y1588D02*
X844Y1588D01*
X888Y1588D02*
X894Y1588D01*
X792Y1587D02*
X799Y1587D01*
X838Y1587D02*
X844Y1587D01*
X888Y1587D02*
X894Y1587D01*
X792Y1586D02*
X799Y1586D01*
X838Y1586D02*
X844Y1586D01*
X853Y1586D02*
X865Y1586D01*
X888Y1586D02*
X894Y1586D01*
X791Y1585D02*
X798Y1585D01*
X838Y1585D02*
X844Y1585D01*
X851Y1585D02*
X867Y1585D01*
X888Y1585D02*
X894Y1585D01*
X791Y1584D02*
X798Y1584D01*
X838Y1584D02*
X844Y1584D01*
X850Y1584D02*
X868Y1584D01*
X888Y1584D02*
X894Y1584D01*
X790Y1583D02*
X797Y1583D01*
X838Y1583D02*
X844Y1583D01*
X848Y1583D02*
X869Y1583D01*
X888Y1583D02*
X894Y1583D01*
X790Y1582D02*
X796Y1582D01*
X838Y1582D02*
X844Y1582D01*
X846Y1582D02*
X869Y1582D01*
X888Y1582D02*
X894Y1582D01*
X789Y1581D02*
X796Y1581D01*
X838Y1581D02*
X870Y1581D01*
X888Y1581D02*
X894Y1581D01*
X789Y1580D02*
X795Y1580D01*
X838Y1580D02*
X870Y1580D01*
X888Y1580D02*
X894Y1580D01*
X788Y1579D02*
X795Y1579D01*
X838Y1579D02*
X854Y1579D01*
X864Y1579D02*
X871Y1579D01*
X888Y1579D02*
X894Y1579D01*
X788Y1578D02*
X795Y1578D01*
X838Y1578D02*
X852Y1578D01*
X864Y1578D02*
X871Y1578D01*
X888Y1578D02*
X894Y1578D01*
X788Y1577D02*
X794Y1577D01*
X838Y1577D02*
X851Y1577D01*
X865Y1577D02*
X871Y1577D01*
X888Y1577D02*
X894Y1577D01*
X788Y1576D02*
X794Y1576D01*
X838Y1576D02*
X849Y1576D01*
X865Y1576D02*
X871Y1576D01*
X888Y1576D02*
X894Y1576D01*
X788Y1575D02*
X794Y1575D01*
X838Y1575D02*
X848Y1575D01*
X865Y1575D02*
X871Y1575D01*
X888Y1575D02*
X894Y1575D01*
X788Y1574D02*
X794Y1574D01*
X838Y1574D02*
X846Y1574D01*
X865Y1574D02*
X871Y1574D01*
X888Y1574D02*
X894Y1574D01*
X788Y1573D02*
X794Y1573D01*
X838Y1573D02*
X844Y1573D01*
X865Y1573D02*
X871Y1573D01*
X888Y1573D02*
X894Y1573D01*
X788Y1572D02*
X794Y1572D01*
X838Y1572D02*
X844Y1572D01*
X865Y1572D02*
X871Y1572D01*
X888Y1572D02*
X919Y1572D01*
X788Y1571D02*
X795Y1571D01*
X838Y1571D02*
X844Y1571D01*
X865Y1571D02*
X871Y1571D01*
X888Y1571D02*
X921Y1571D01*
X789Y1570D02*
X795Y1570D01*
X838Y1570D02*
X844Y1570D01*
X865Y1570D02*
X871Y1570D01*
X888Y1570D02*
X921Y1570D01*
X789Y1569D02*
X796Y1569D01*
X838Y1569D02*
X844Y1569D01*
X865Y1569D02*
X871Y1569D01*
X888Y1569D02*
X921Y1569D01*
X789Y1568D02*
X796Y1568D01*
X838Y1568D02*
X844Y1568D01*
X865Y1568D02*
X871Y1568D01*
X888Y1568D02*
X921Y1568D01*
X790Y1567D02*
X797Y1567D01*
X838Y1567D02*
X844Y1567D01*
X865Y1567D02*
X871Y1567D01*
X888Y1567D02*
X921Y1567D01*
X790Y1566D02*
X797Y1566D01*
X838Y1566D02*
X844Y1566D01*
X865Y1566D02*
X871Y1566D01*
X888Y1566D02*
X921Y1566D01*
X791Y1565D02*
X798Y1565D01*
X838Y1565D02*
X844Y1565D01*
X865Y1565D02*
X871Y1565D01*
X888Y1565D02*
X894Y1565D01*
X915Y1565D02*
X921Y1565D01*
X791Y1564D02*
X798Y1564D01*
X838Y1564D02*
X844Y1564D01*
X865Y1564D02*
X871Y1564D01*
X888Y1564D02*
X894Y1564D01*
X915Y1564D02*
X921Y1564D01*
X792Y1563D02*
X799Y1563D01*
X838Y1563D02*
X844Y1563D01*
X865Y1563D02*
X871Y1563D01*
X888Y1563D02*
X894Y1563D01*
X915Y1563D02*
X921Y1563D01*
X792Y1562D02*
X799Y1562D01*
X838Y1562D02*
X844Y1562D01*
X865Y1562D02*
X871Y1562D01*
X888Y1562D02*
X894Y1562D01*
X915Y1562D02*
X921Y1562D01*
X793Y1561D02*
X800Y1561D01*
X838Y1561D02*
X844Y1561D01*
X865Y1561D02*
X871Y1561D01*
X888Y1561D02*
X894Y1561D01*
X915Y1561D02*
X921Y1561D01*
X793Y1560D02*
X800Y1560D01*
X838Y1560D02*
X844Y1560D01*
X865Y1560D02*
X871Y1560D01*
X888Y1560D02*
X894Y1560D01*
X915Y1560D02*
X921Y1560D01*
X794Y1559D02*
X801Y1559D01*
X838Y1559D02*
X844Y1559D01*
X865Y1559D02*
X871Y1559D01*
X888Y1559D02*
X894Y1559D01*
X915Y1559D02*
X921Y1559D01*
X794Y1558D02*
X801Y1558D01*
X838Y1558D02*
X844Y1558D01*
X865Y1558D02*
X871Y1558D01*
X888Y1558D02*
X894Y1558D01*
X915Y1558D02*
X921Y1558D01*
X795Y1557D02*
X802Y1557D01*
X838Y1557D02*
X844Y1557D01*
X865Y1557D02*
X871Y1557D01*
X888Y1557D02*
X894Y1557D01*
X915Y1557D02*
X921Y1557D01*
X795Y1556D02*
X802Y1556D01*
X838Y1556D02*
X844Y1556D01*
X865Y1556D02*
X871Y1556D01*
X888Y1556D02*
X894Y1556D01*
X915Y1556D02*
X921Y1556D01*
X796Y1555D02*
X803Y1555D01*
X838Y1555D02*
X844Y1555D01*
X865Y1555D02*
X871Y1555D01*
X888Y1555D02*
X894Y1555D01*
X915Y1555D02*
X921Y1555D01*
X796Y1554D02*
X820Y1554D01*
X838Y1554D02*
X844Y1554D01*
X865Y1554D02*
X871Y1554D01*
X888Y1554D02*
X921Y1554D01*
X797Y1553D02*
X821Y1553D01*
X838Y1553D02*
X844Y1553D01*
X865Y1553D02*
X871Y1553D01*
X888Y1553D02*
X921Y1553D01*
X797Y1552D02*
X821Y1552D01*
X838Y1552D02*
X844Y1552D01*
X865Y1552D02*
X871Y1552D01*
X888Y1552D02*
X921Y1552D01*
X798Y1551D02*
X821Y1551D01*
X838Y1551D02*
X844Y1551D01*
X865Y1551D02*
X871Y1551D01*
X888Y1551D02*
X921Y1551D01*
X799Y1550D02*
X821Y1550D01*
X838Y1550D02*
X844Y1550D01*
X865Y1550D02*
X871Y1550D01*
X888Y1550D02*
X921Y1550D01*
X801Y1549D02*
X821Y1549D01*
X838Y1549D02*
X843Y1549D01*
X866Y1549D02*
X870Y1549D01*
X888Y1549D02*
X921Y1549D01*
X803Y1548D02*
X820Y1548D01*
X840Y1548D02*
X842Y1548D01*
X867Y1548D02*
X869Y1548D01*
X890Y1548D02*
X920Y1548D01*
X802Y1401D02*
X820Y1401D01*
X839Y1401D02*
X842Y1401D01*
X895Y1401D02*
X920Y1401D01*
X800Y1400D02*
X821Y1400D01*
X838Y1400D02*
X843Y1400D01*
X895Y1400D02*
X921Y1400D01*
X799Y1399D02*
X821Y1399D01*
X838Y1399D02*
X844Y1399D01*
X895Y1399D02*
X921Y1399D01*
X798Y1398D02*
X821Y1398D01*
X838Y1398D02*
X844Y1398D01*
X895Y1398D02*
X921Y1398D01*
X797Y1397D02*
X821Y1397D01*
X838Y1397D02*
X844Y1397D01*
X895Y1397D02*
X921Y1397D01*
X797Y1396D02*
X821Y1396D01*
X838Y1396D02*
X844Y1396D01*
X895Y1396D02*
X921Y1396D01*
X796Y1395D02*
X819Y1395D01*
X838Y1395D02*
X844Y1395D01*
X895Y1395D02*
X919Y1395D01*
X796Y1394D02*
X803Y1394D01*
X838Y1394D02*
X844Y1394D01*
X895Y1394D02*
X901Y1394D01*
X795Y1393D02*
X802Y1393D01*
X838Y1393D02*
X844Y1393D01*
X895Y1393D02*
X901Y1393D01*
X795Y1392D02*
X802Y1392D01*
X838Y1392D02*
X844Y1392D01*
X895Y1392D02*
X901Y1392D01*
X794Y1391D02*
X801Y1391D01*
X838Y1391D02*
X844Y1391D01*
X895Y1391D02*
X901Y1391D01*
X794Y1390D02*
X801Y1390D01*
X838Y1390D02*
X844Y1390D01*
X895Y1390D02*
X901Y1390D01*
X793Y1389D02*
X800Y1389D01*
X838Y1389D02*
X844Y1389D01*
X895Y1389D02*
X901Y1389D01*
X793Y1388D02*
X800Y1388D01*
X838Y1388D02*
X844Y1388D01*
X895Y1388D02*
X901Y1388D01*
X792Y1387D02*
X799Y1387D01*
X838Y1387D02*
X844Y1387D01*
X895Y1387D02*
X901Y1387D01*
X792Y1386D02*
X799Y1386D01*
X838Y1386D02*
X844Y1386D01*
X853Y1386D02*
X865Y1386D01*
X895Y1386D02*
X901Y1386D01*
X791Y1385D02*
X798Y1385D01*
X838Y1385D02*
X844Y1385D01*
X851Y1385D02*
X867Y1385D01*
X895Y1385D02*
X901Y1385D01*
X791Y1384D02*
X797Y1384D01*
X838Y1384D02*
X844Y1384D01*
X850Y1384D02*
X868Y1384D01*
X895Y1384D02*
X901Y1384D01*
X790Y1383D02*
X797Y1383D01*
X838Y1383D02*
X844Y1383D01*
X848Y1383D02*
X869Y1383D01*
X895Y1383D02*
X901Y1383D01*
X790Y1382D02*
X796Y1382D01*
X838Y1382D02*
X844Y1382D01*
X846Y1382D02*
X869Y1382D01*
X895Y1382D02*
X901Y1382D01*
X789Y1381D02*
X796Y1381D01*
X838Y1381D02*
X870Y1381D01*
X895Y1381D02*
X901Y1381D01*
X789Y1380D02*
X795Y1380D01*
X838Y1380D02*
X870Y1380D01*
X895Y1380D02*
X901Y1380D01*
X788Y1379D02*
X795Y1379D01*
X838Y1379D02*
X854Y1379D01*
X864Y1379D02*
X871Y1379D01*
X895Y1379D02*
X901Y1379D01*
X788Y1378D02*
X794Y1378D01*
X838Y1378D02*
X852Y1378D01*
X865Y1378D02*
X871Y1378D01*
X895Y1378D02*
X916Y1378D01*
X788Y1377D02*
X794Y1377D01*
X838Y1377D02*
X851Y1377D01*
X865Y1377D02*
X871Y1377D01*
X895Y1377D02*
X918Y1377D01*
X788Y1376D02*
X794Y1376D01*
X838Y1376D02*
X849Y1376D01*
X865Y1376D02*
X871Y1376D01*
X895Y1376D02*
X919Y1376D01*
X788Y1375D02*
X794Y1375D01*
X838Y1375D02*
X847Y1375D01*
X865Y1375D02*
X871Y1375D01*
X895Y1375D02*
X920Y1375D01*
X788Y1374D02*
X794Y1374D01*
X838Y1374D02*
X846Y1374D01*
X865Y1374D02*
X871Y1374D01*
X895Y1374D02*
X921Y1374D01*
X788Y1373D02*
X794Y1373D01*
X838Y1373D02*
X844Y1373D01*
X865Y1373D02*
X871Y1373D01*
X895Y1373D02*
X921Y1373D01*
X788Y1372D02*
X794Y1372D01*
X838Y1372D02*
X844Y1372D01*
X865Y1372D02*
X871Y1372D01*
X895Y1372D02*
X921Y1372D01*
X788Y1371D02*
X795Y1371D01*
X838Y1371D02*
X844Y1371D01*
X865Y1371D02*
X871Y1371D01*
X915Y1371D02*
X921Y1371D01*
X789Y1370D02*
X795Y1370D01*
X838Y1370D02*
X844Y1370D01*
X865Y1370D02*
X871Y1370D01*
X915Y1370D02*
X921Y1370D01*
X789Y1369D02*
X796Y1369D01*
X838Y1369D02*
X844Y1369D01*
X865Y1369D02*
X871Y1369D01*
X915Y1369D02*
X921Y1369D01*
X789Y1368D02*
X796Y1368D01*
X838Y1368D02*
X844Y1368D01*
X865Y1368D02*
X871Y1368D01*
X915Y1368D02*
X921Y1368D01*
X790Y1367D02*
X797Y1367D01*
X838Y1367D02*
X844Y1367D01*
X865Y1367D02*
X871Y1367D01*
X915Y1367D02*
X921Y1367D01*
X790Y1366D02*
X797Y1366D01*
X838Y1366D02*
X844Y1366D01*
X865Y1366D02*
X871Y1366D01*
X915Y1366D02*
X921Y1366D01*
X791Y1365D02*
X798Y1365D01*
X838Y1365D02*
X844Y1365D01*
X865Y1365D02*
X871Y1365D01*
X915Y1365D02*
X921Y1365D01*
X791Y1364D02*
X798Y1364D01*
X838Y1364D02*
X844Y1364D01*
X865Y1364D02*
X871Y1364D01*
X915Y1364D02*
X921Y1364D01*
X792Y1363D02*
X799Y1363D01*
X838Y1363D02*
X844Y1363D01*
X865Y1363D02*
X871Y1363D01*
X915Y1363D02*
X921Y1363D01*
X792Y1362D02*
X799Y1362D01*
X838Y1362D02*
X844Y1362D01*
X865Y1362D02*
X871Y1362D01*
X915Y1362D02*
X921Y1362D01*
X793Y1361D02*
X800Y1361D01*
X838Y1361D02*
X844Y1361D01*
X865Y1361D02*
X871Y1361D01*
X915Y1361D02*
X921Y1361D01*
X793Y1360D02*
X800Y1360D01*
X838Y1360D02*
X844Y1360D01*
X865Y1360D02*
X871Y1360D01*
X915Y1360D02*
X921Y1360D01*
X794Y1359D02*
X801Y1359D01*
X838Y1359D02*
X844Y1359D01*
X865Y1359D02*
X871Y1359D01*
X915Y1359D02*
X921Y1359D01*
X794Y1358D02*
X801Y1358D01*
X838Y1358D02*
X844Y1358D01*
X865Y1358D02*
X871Y1358D01*
X915Y1358D02*
X921Y1358D01*
X795Y1357D02*
X802Y1357D01*
X838Y1357D02*
X844Y1357D01*
X865Y1357D02*
X871Y1357D01*
X890Y1357D02*
X892Y1357D01*
X915Y1357D02*
X921Y1357D01*
X795Y1356D02*
X802Y1356D01*
X838Y1356D02*
X844Y1356D01*
X865Y1356D02*
X871Y1356D01*
X888Y1356D02*
X895Y1356D01*
X915Y1356D02*
X921Y1356D01*
X796Y1355D02*
X803Y1355D01*
X838Y1355D02*
X844Y1355D01*
X865Y1355D02*
X871Y1355D01*
X888Y1355D02*
X897Y1355D01*
X915Y1355D02*
X921Y1355D01*
X796Y1354D02*
X820Y1354D01*
X838Y1354D02*
X844Y1354D01*
X865Y1354D02*
X871Y1354D01*
X888Y1354D02*
X921Y1354D01*
X797Y1353D02*
X821Y1353D01*
X838Y1353D02*
X844Y1353D01*
X865Y1353D02*
X871Y1353D01*
X888Y1353D02*
X921Y1353D01*
X797Y1352D02*
X821Y1352D01*
X838Y1352D02*
X844Y1352D01*
X865Y1352D02*
X871Y1352D01*
X888Y1352D02*
X921Y1352D01*
X798Y1351D02*
X821Y1351D01*
X838Y1351D02*
X844Y1351D01*
X865Y1351D02*
X871Y1351D01*
X889Y1351D02*
X920Y1351D01*
X799Y1350D02*
X821Y1350D01*
X838Y1350D02*
X844Y1350D01*
X865Y1350D02*
X871Y1350D01*
X891Y1350D02*
X920Y1350D01*
X801Y1349D02*
X821Y1349D01*
X839Y1349D02*
X843Y1349D01*
X866Y1349D02*
X870Y1349D01*
X894Y1349D02*
X919Y1349D01*
X803Y1348D02*
X820Y1348D01*
X840Y1348D02*
X842Y1348D01*
X867Y1348D02*
X869Y1348D01*
X896Y1348D02*
X917Y1348D01*
X802Y1201D02*
X820Y1201D01*
X839Y1201D02*
X842Y1201D01*
X891Y1201D02*
X894Y1201D01*
X800Y1200D02*
X821Y1200D01*
X838Y1200D02*
X843Y1200D01*
X890Y1200D02*
X895Y1200D01*
X799Y1199D02*
X821Y1199D01*
X838Y1199D02*
X844Y1199D01*
X890Y1199D02*
X895Y1199D01*
X798Y1198D02*
X821Y1198D01*
X838Y1198D02*
X844Y1198D01*
X889Y1198D02*
X896Y1198D01*
X797Y1197D02*
X821Y1197D01*
X838Y1197D02*
X844Y1197D01*
X889Y1197D02*
X896Y1197D01*
X797Y1196D02*
X821Y1196D01*
X838Y1196D02*
X844Y1196D01*
X889Y1196D02*
X896Y1196D01*
X796Y1195D02*
X819Y1195D01*
X838Y1195D02*
X844Y1195D01*
X889Y1195D02*
X896Y1195D01*
X911Y1195D02*
X915Y1195D01*
X796Y1194D02*
X803Y1194D01*
X838Y1194D02*
X844Y1194D01*
X889Y1194D02*
X896Y1194D01*
X911Y1194D02*
X916Y1194D01*
X795Y1193D02*
X802Y1193D01*
X838Y1193D02*
X844Y1193D01*
X889Y1193D02*
X896Y1193D01*
X910Y1193D02*
X916Y1193D01*
X795Y1192D02*
X802Y1192D01*
X838Y1192D02*
X844Y1192D01*
X889Y1192D02*
X896Y1192D01*
X910Y1192D02*
X916Y1192D01*
X794Y1191D02*
X801Y1191D01*
X838Y1191D02*
X844Y1191D01*
X889Y1191D02*
X896Y1191D01*
X910Y1191D02*
X916Y1191D01*
X794Y1190D02*
X801Y1190D01*
X838Y1190D02*
X844Y1190D01*
X889Y1190D02*
X896Y1190D01*
X910Y1190D02*
X916Y1190D01*
X793Y1189D02*
X800Y1189D01*
X838Y1189D02*
X844Y1189D01*
X889Y1189D02*
X896Y1189D01*
X910Y1189D02*
X916Y1189D01*
X793Y1188D02*
X799Y1188D01*
X838Y1188D02*
X844Y1188D01*
X889Y1188D02*
X896Y1188D01*
X910Y1188D02*
X916Y1188D01*
X792Y1187D02*
X799Y1187D01*
X838Y1187D02*
X844Y1187D01*
X857Y1187D02*
X861Y1187D01*
X889Y1187D02*
X896Y1187D01*
X910Y1187D02*
X916Y1187D01*
X792Y1186D02*
X798Y1186D01*
X838Y1186D02*
X844Y1186D01*
X853Y1186D02*
X865Y1186D01*
X889Y1186D02*
X896Y1186D01*
X910Y1186D02*
X916Y1186D01*
X791Y1185D02*
X798Y1185D01*
X838Y1185D02*
X844Y1185D01*
X851Y1185D02*
X867Y1185D01*
X889Y1185D02*
X896Y1185D01*
X910Y1185D02*
X916Y1185D01*
X791Y1184D02*
X797Y1184D01*
X838Y1184D02*
X844Y1184D01*
X849Y1184D02*
X868Y1184D01*
X889Y1184D02*
X896Y1184D01*
X910Y1184D02*
X916Y1184D01*
X790Y1183D02*
X797Y1183D01*
X838Y1183D02*
X844Y1183D01*
X848Y1183D02*
X869Y1183D01*
X889Y1183D02*
X896Y1183D01*
X910Y1183D02*
X916Y1183D01*
X790Y1182D02*
X796Y1182D01*
X838Y1182D02*
X844Y1182D01*
X846Y1182D02*
X869Y1182D01*
X889Y1182D02*
X896Y1182D01*
X910Y1182D02*
X916Y1182D01*
X789Y1181D02*
X796Y1181D01*
X838Y1181D02*
X870Y1181D01*
X889Y1181D02*
X896Y1181D01*
X910Y1181D02*
X916Y1181D01*
X789Y1180D02*
X795Y1180D01*
X838Y1180D02*
X870Y1180D01*
X889Y1180D02*
X896Y1180D01*
X910Y1180D02*
X916Y1180D01*
X788Y1179D02*
X795Y1179D01*
X838Y1179D02*
X854Y1179D01*
X864Y1179D02*
X871Y1179D01*
X889Y1179D02*
X896Y1179D01*
X910Y1179D02*
X916Y1179D01*
X788Y1178D02*
X794Y1178D01*
X838Y1178D02*
X852Y1178D01*
X865Y1178D02*
X871Y1178D01*
X889Y1178D02*
X896Y1178D01*
X910Y1178D02*
X916Y1178D01*
X788Y1177D02*
X794Y1177D01*
X838Y1177D02*
X851Y1177D01*
X865Y1177D02*
X871Y1177D01*
X889Y1177D02*
X896Y1177D01*
X910Y1177D02*
X916Y1177D01*
X788Y1176D02*
X794Y1176D01*
X838Y1176D02*
X849Y1176D01*
X865Y1176D02*
X871Y1176D01*
X889Y1176D02*
X896Y1176D01*
X910Y1176D02*
X916Y1176D01*
X788Y1175D02*
X794Y1175D01*
X838Y1175D02*
X847Y1175D01*
X865Y1175D02*
X871Y1175D01*
X889Y1175D02*
X896Y1175D01*
X910Y1175D02*
X916Y1175D01*
X788Y1174D02*
X794Y1174D01*
X838Y1174D02*
X846Y1174D01*
X865Y1174D02*
X871Y1174D01*
X889Y1174D02*
X896Y1174D01*
X910Y1174D02*
X916Y1174D01*
X788Y1173D02*
X794Y1173D01*
X838Y1173D02*
X844Y1173D01*
X865Y1173D02*
X871Y1173D01*
X889Y1173D02*
X896Y1173D01*
X910Y1173D02*
X916Y1173D01*
X788Y1172D02*
X794Y1172D01*
X838Y1172D02*
X844Y1172D01*
X865Y1172D02*
X871Y1172D01*
X889Y1172D02*
X918Y1172D01*
X788Y1171D02*
X795Y1171D01*
X838Y1171D02*
X844Y1171D01*
X865Y1171D02*
X871Y1171D01*
X889Y1171D02*
X919Y1171D01*
X789Y1170D02*
X795Y1170D01*
X838Y1170D02*
X844Y1170D01*
X865Y1170D02*
X871Y1170D01*
X889Y1170D02*
X919Y1170D01*
X789Y1169D02*
X796Y1169D01*
X838Y1169D02*
X844Y1169D01*
X865Y1169D02*
X871Y1169D01*
X889Y1169D02*
X920Y1169D01*
X789Y1168D02*
X796Y1168D01*
X838Y1168D02*
X844Y1168D01*
X865Y1168D02*
X871Y1168D01*
X889Y1168D02*
X920Y1168D01*
X790Y1167D02*
X797Y1167D01*
X838Y1167D02*
X844Y1167D01*
X865Y1167D02*
X871Y1167D01*
X889Y1167D02*
X919Y1167D01*
X790Y1166D02*
X797Y1166D01*
X838Y1166D02*
X844Y1166D01*
X865Y1166D02*
X871Y1166D01*
X889Y1166D02*
X918Y1166D01*
X791Y1165D02*
X798Y1165D01*
X838Y1165D02*
X844Y1165D01*
X865Y1165D02*
X871Y1165D01*
X910Y1165D02*
X916Y1165D01*
X791Y1164D02*
X798Y1164D01*
X838Y1164D02*
X844Y1164D01*
X865Y1164D02*
X871Y1164D01*
X910Y1164D02*
X916Y1164D01*
X792Y1163D02*
X799Y1163D01*
X838Y1163D02*
X844Y1163D01*
X865Y1163D02*
X871Y1163D01*
X910Y1163D02*
X916Y1163D01*
X792Y1162D02*
X799Y1162D01*
X838Y1162D02*
X844Y1162D01*
X865Y1162D02*
X871Y1162D01*
X910Y1162D02*
X916Y1162D01*
X793Y1161D02*
X800Y1161D01*
X838Y1161D02*
X844Y1161D01*
X865Y1161D02*
X871Y1161D01*
X910Y1161D02*
X916Y1161D01*
X793Y1160D02*
X800Y1160D01*
X838Y1160D02*
X844Y1160D01*
X865Y1160D02*
X871Y1160D01*
X910Y1160D02*
X916Y1160D01*
X794Y1159D02*
X801Y1159D01*
X838Y1159D02*
X844Y1159D01*
X865Y1159D02*
X871Y1159D01*
X910Y1159D02*
X916Y1159D01*
X794Y1158D02*
X801Y1158D01*
X838Y1158D02*
X844Y1158D01*
X865Y1158D02*
X871Y1158D01*
X910Y1158D02*
X916Y1158D01*
X795Y1157D02*
X802Y1157D01*
X838Y1157D02*
X844Y1157D01*
X865Y1157D02*
X871Y1157D01*
X910Y1157D02*
X916Y1157D01*
X795Y1156D02*
X802Y1156D01*
X838Y1156D02*
X844Y1156D01*
X865Y1156D02*
X871Y1156D01*
X910Y1156D02*
X916Y1156D01*
X796Y1155D02*
X803Y1155D01*
X838Y1155D02*
X844Y1155D01*
X865Y1155D02*
X871Y1155D01*
X910Y1155D02*
X916Y1155D01*
X796Y1154D02*
X820Y1154D01*
X838Y1154D02*
X844Y1154D01*
X865Y1154D02*
X871Y1154D01*
X910Y1154D02*
X916Y1154D01*
X797Y1153D02*
X821Y1153D01*
X838Y1153D02*
X844Y1153D01*
X865Y1153D02*
X871Y1153D01*
X910Y1153D02*
X916Y1153D01*
X797Y1152D02*
X821Y1152D01*
X838Y1152D02*
X844Y1152D01*
X865Y1152D02*
X871Y1152D01*
X910Y1152D02*
X916Y1152D01*
X798Y1151D02*
X821Y1151D01*
X838Y1151D02*
X844Y1151D01*
X865Y1151D02*
X871Y1151D01*
X910Y1151D02*
X916Y1151D01*
X799Y1150D02*
X821Y1150D01*
X838Y1150D02*
X844Y1150D01*
X865Y1150D02*
X871Y1150D01*
X910Y1150D02*
X916Y1150D01*
X801Y1149D02*
X821Y1149D01*
X839Y1149D02*
X843Y1149D01*
X866Y1149D02*
X870Y1149D01*
X911Y1149D02*
X915Y1149D01*
X803Y1148D02*
X820Y1148D01*
X840Y1148D02*
X842Y1148D01*
X867Y1148D02*
X869Y1148D01*
X912Y1148D02*
X914Y1148D01*
X796Y1001D02*
X815Y1001D01*
X834Y1001D02*
X837Y1001D01*
X884Y1001D02*
X912Y1001D01*
X794Y1000D02*
X815Y1000D01*
X833Y1000D02*
X838Y1000D01*
X883Y1000D02*
X913Y1000D01*
X793Y999D02*
X816Y999D01*
X832Y999D02*
X838Y999D01*
X882Y999D02*
X914Y999D01*
X792Y998D02*
X816Y998D01*
X832Y998D02*
X838Y998D01*
X882Y998D02*
X915Y998D01*
X791Y997D02*
X816Y997D01*
X832Y997D02*
X838Y997D01*
X883Y997D02*
X915Y997D01*
X791Y996D02*
X815Y996D01*
X832Y996D02*
X838Y996D01*
X883Y996D02*
X916Y996D01*
X790Y995D02*
X814Y995D01*
X832Y995D02*
X838Y995D01*
X885Y995D02*
X916Y995D01*
X790Y994D02*
X797Y994D01*
X832Y994D02*
X838Y994D01*
X910Y994D02*
X916Y994D01*
X789Y993D02*
X796Y993D01*
X832Y993D02*
X838Y993D01*
X910Y993D02*
X916Y993D01*
X789Y992D02*
X796Y992D01*
X832Y992D02*
X838Y992D01*
X910Y992D02*
X916Y992D01*
X788Y991D02*
X795Y991D01*
X832Y991D02*
X838Y991D01*
X910Y991D02*
X916Y991D01*
X788Y990D02*
X795Y990D01*
X832Y990D02*
X838Y990D01*
X910Y990D02*
X916Y990D01*
X787Y989D02*
X794Y989D01*
X832Y989D02*
X838Y989D01*
X910Y989D02*
X916Y989D01*
X787Y988D02*
X794Y988D01*
X832Y988D02*
X838Y988D01*
X910Y988D02*
X916Y988D01*
X787Y987D02*
X793Y987D01*
X832Y987D02*
X838Y987D01*
X851Y987D02*
X856Y987D01*
X910Y987D02*
X916Y987D01*
X786Y986D02*
X793Y986D01*
X832Y986D02*
X838Y986D01*
X847Y986D02*
X860Y986D01*
X910Y986D02*
X916Y986D01*
X786Y985D02*
X792Y985D01*
X832Y985D02*
X838Y985D01*
X845Y985D02*
X861Y985D01*
X910Y985D02*
X916Y985D01*
X785Y984D02*
X792Y984D01*
X832Y984D02*
X838Y984D01*
X844Y984D02*
X862Y984D01*
X910Y984D02*
X916Y984D01*
X785Y983D02*
X791Y983D01*
X832Y983D02*
X838Y983D01*
X842Y983D02*
X863Y983D01*
X910Y983D02*
X916Y983D01*
X784Y982D02*
X791Y982D01*
X832Y982D02*
X838Y982D01*
X841Y982D02*
X864Y982D01*
X910Y982D02*
X916Y982D01*
X784Y981D02*
X790Y981D01*
X832Y981D02*
X864Y981D01*
X910Y981D02*
X916Y981D01*
X783Y980D02*
X790Y980D01*
X832Y980D02*
X850Y980D01*
X856Y980D02*
X865Y980D01*
X909Y980D02*
X916Y980D01*
X783Y979D02*
X789Y979D01*
X832Y979D02*
X848Y979D01*
X858Y979D02*
X865Y979D01*
X908Y979D02*
X916Y979D01*
X783Y978D02*
X789Y978D01*
X832Y978D02*
X846Y978D01*
X859Y978D02*
X865Y978D01*
X891Y978D02*
X915Y978D01*
X782Y977D02*
X789Y977D01*
X832Y977D02*
X845Y977D01*
X859Y977D02*
X865Y977D01*
X890Y977D02*
X915Y977D01*
X782Y976D02*
X788Y976D01*
X832Y976D02*
X843Y976D01*
X859Y976D02*
X865Y976D01*
X889Y976D02*
X914Y976D01*
X782Y975D02*
X788Y975D01*
X832Y975D02*
X842Y975D01*
X859Y975D02*
X865Y975D01*
X889Y975D02*
X913Y975D01*
X782Y974D02*
X788Y974D01*
X832Y974D02*
X840Y974D01*
X859Y974D02*
X865Y974D01*
X889Y974D02*
X914Y974D01*
X782Y973D02*
X788Y973D01*
X832Y973D02*
X839Y973D01*
X859Y973D02*
X865Y973D01*
X890Y973D02*
X914Y973D01*
X783Y972D02*
X789Y972D01*
X832Y972D02*
X838Y972D01*
X859Y972D02*
X865Y972D01*
X890Y972D02*
X915Y972D01*
X783Y971D02*
X789Y971D01*
X832Y971D02*
X838Y971D01*
X859Y971D02*
X865Y971D01*
X907Y971D02*
X915Y971D01*
X783Y970D02*
X790Y970D01*
X832Y970D02*
X838Y970D01*
X859Y970D02*
X865Y970D01*
X909Y970D02*
X916Y970D01*
X783Y969D02*
X790Y969D01*
X832Y969D02*
X838Y969D01*
X859Y969D02*
X865Y969D01*
X910Y969D02*
X916Y969D01*
X784Y968D02*
X791Y968D01*
X832Y968D02*
X838Y968D01*
X859Y968D02*
X865Y968D01*
X910Y968D02*
X916Y968D01*
X784Y967D02*
X791Y967D01*
X832Y967D02*
X838Y967D01*
X859Y967D02*
X865Y967D01*
X910Y967D02*
X916Y967D01*
X785Y966D02*
X792Y966D01*
X832Y966D02*
X838Y966D01*
X859Y966D02*
X865Y966D01*
X910Y966D02*
X916Y966D01*
X785Y965D02*
X792Y965D01*
X832Y965D02*
X838Y965D01*
X859Y965D02*
X865Y965D01*
X910Y965D02*
X916Y965D01*
X786Y964D02*
X793Y964D01*
X832Y964D02*
X838Y964D01*
X859Y964D02*
X865Y964D01*
X910Y964D02*
X916Y964D01*
X786Y963D02*
X793Y963D01*
X832Y963D02*
X838Y963D01*
X859Y963D02*
X865Y963D01*
X910Y963D02*
X916Y963D01*
X787Y962D02*
X794Y962D01*
X832Y962D02*
X838Y962D01*
X859Y962D02*
X865Y962D01*
X910Y962D02*
X916Y962D01*
X787Y961D02*
X794Y961D01*
X832Y961D02*
X838Y961D01*
X859Y961D02*
X865Y961D01*
X910Y961D02*
X916Y961D01*
X788Y960D02*
X795Y960D01*
X832Y960D02*
X838Y960D01*
X859Y960D02*
X865Y960D01*
X910Y960D02*
X916Y960D01*
X788Y959D02*
X795Y959D01*
X832Y959D02*
X838Y959D01*
X859Y959D02*
X865Y959D01*
X910Y959D02*
X916Y959D01*
X789Y958D02*
X796Y958D01*
X832Y958D02*
X838Y958D01*
X859Y958D02*
X865Y958D01*
X910Y958D02*
X916Y958D01*
X789Y957D02*
X796Y957D01*
X832Y957D02*
X838Y957D01*
X859Y957D02*
X865Y957D01*
X910Y957D02*
X916Y957D01*
X790Y956D02*
X797Y956D01*
X832Y956D02*
X838Y956D01*
X859Y956D02*
X865Y956D01*
X910Y956D02*
X916Y956D01*
X790Y955D02*
X798Y955D01*
X832Y955D02*
X838Y955D01*
X859Y955D02*
X865Y955D01*
X910Y955D02*
X916Y955D01*
X791Y954D02*
X814Y954D01*
X832Y954D02*
X838Y954D01*
X859Y954D02*
X865Y954D01*
X884Y954D02*
X916Y954D01*
X791Y953D02*
X815Y953D01*
X832Y953D02*
X838Y953D01*
X859Y953D02*
X865Y953D01*
X883Y953D02*
X916Y953D01*
X792Y952D02*
X816Y952D01*
X832Y952D02*
X838Y952D01*
X859Y952D02*
X865Y952D01*
X882Y952D02*
X915Y952D01*
X793Y951D02*
X816Y951D01*
X832Y951D02*
X838Y951D01*
X859Y951D02*
X865Y951D01*
X882Y951D02*
X915Y951D01*
X794Y950D02*
X816Y950D01*
X832Y950D02*
X838Y950D01*
X860Y950D02*
X865Y950D01*
X882Y950D02*
X914Y950D01*
X795Y949D02*
X815Y949D01*
X833Y949D02*
X838Y949D01*
X860Y949D02*
X865Y949D01*
X883Y949D02*
X913Y949D01*
X798Y948D02*
X814Y948D01*
X834Y948D02*
X836Y948D01*
X861Y948D02*
X863Y948D01*
X884Y948D02*
X911Y948D01*
X798Y796D02*
X814Y796D01*
X834Y796D02*
X836Y796D01*
X884Y796D02*
X911Y796D01*
X795Y795D02*
X815Y795D01*
X833Y795D02*
X837Y795D01*
X883Y795D02*
X913Y795D01*
X794Y794D02*
X816Y794D01*
X833Y794D02*
X838Y794D01*
X882Y794D02*
X914Y794D01*
X793Y793D02*
X816Y793D01*
X832Y793D02*
X838Y793D01*
X882Y793D02*
X915Y793D01*
X792Y792D02*
X816Y792D01*
X832Y792D02*
X838Y792D01*
X882Y792D02*
X915Y792D01*
X791Y791D02*
X815Y791D01*
X832Y791D02*
X838Y791D01*
X883Y791D02*
X916Y791D01*
X791Y790D02*
X814Y790D01*
X832Y790D02*
X838Y790D01*
X884Y790D02*
X916Y790D01*
X790Y789D02*
X798Y789D01*
X832Y789D02*
X838Y789D01*
X910Y789D02*
X916Y789D01*
X790Y788D02*
X797Y788D01*
X832Y788D02*
X838Y788D01*
X910Y788D02*
X916Y788D01*
X789Y787D02*
X796Y787D01*
X832Y787D02*
X838Y787D01*
X910Y787D02*
X916Y787D01*
X789Y786D02*
X796Y786D01*
X832Y786D02*
X838Y786D01*
X910Y786D02*
X916Y786D01*
X788Y785D02*
X795Y785D01*
X832Y785D02*
X838Y785D01*
X910Y785D02*
X916Y785D01*
X788Y784D02*
X795Y784D01*
X832Y784D02*
X838Y784D01*
X910Y784D02*
X916Y784D01*
X787Y783D02*
X794Y783D01*
X832Y783D02*
X838Y783D01*
X910Y783D02*
X916Y783D01*
X787Y782D02*
X794Y782D01*
X832Y782D02*
X838Y782D01*
X910Y782D02*
X916Y782D01*
X786Y781D02*
X793Y781D01*
X832Y781D02*
X838Y781D01*
X848Y781D02*
X858Y781D01*
X910Y781D02*
X916Y781D01*
X786Y780D02*
X793Y780D01*
X832Y780D02*
X838Y780D01*
X846Y780D02*
X860Y780D01*
X910Y780D02*
X916Y780D01*
X785Y779D02*
X792Y779D01*
X832Y779D02*
X838Y779D01*
X845Y779D02*
X862Y779D01*
X910Y779D02*
X916Y779D01*
X785Y778D02*
X792Y778D01*
X832Y778D02*
X838Y778D01*
X843Y778D02*
X863Y778D01*
X910Y778D02*
X916Y778D01*
X784Y777D02*
X791Y777D01*
X832Y777D02*
X838Y777D01*
X841Y777D02*
X864Y777D01*
X910Y777D02*
X916Y777D01*
X784Y776D02*
X791Y776D01*
X832Y776D02*
X864Y776D01*
X910Y776D02*
X916Y776D01*
X783Y775D02*
X790Y775D01*
X832Y775D02*
X865Y775D01*
X910Y775D02*
X916Y775D01*
X783Y774D02*
X790Y774D01*
X832Y774D02*
X849Y774D01*
X858Y774D02*
X865Y774D01*
X910Y774D02*
X916Y774D01*
X783Y773D02*
X789Y773D01*
X832Y773D02*
X847Y773D01*
X859Y773D02*
X865Y773D01*
X910Y773D02*
X916Y773D01*
X783Y772D02*
X789Y772D01*
X832Y772D02*
X846Y772D01*
X859Y772D02*
X865Y772D01*
X886Y772D02*
X916Y772D01*
X782Y771D02*
X788Y771D01*
X832Y771D02*
X844Y771D01*
X859Y771D02*
X865Y771D01*
X885Y771D02*
X916Y771D01*
X782Y770D02*
X788Y770D01*
X832Y770D02*
X843Y770D01*
X859Y770D02*
X865Y770D01*
X884Y770D02*
X915Y770D01*
X782Y769D02*
X788Y769D01*
X832Y769D02*
X841Y769D01*
X859Y769D02*
X865Y769D01*
X883Y769D02*
X915Y769D01*
X782Y768D02*
X788Y768D01*
X832Y768D02*
X839Y768D01*
X859Y768D02*
X865Y768D01*
X883Y768D02*
X914Y768D01*
X782Y767D02*
X789Y767D01*
X832Y767D02*
X838Y767D01*
X859Y767D02*
X865Y767D01*
X882Y767D02*
X913Y767D01*
X783Y766D02*
X789Y766D01*
X832Y766D02*
X838Y766D01*
X859Y766D02*
X865Y766D01*
X882Y766D02*
X911Y766D01*
X783Y765D02*
X789Y765D01*
X832Y765D02*
X838Y765D01*
X859Y765D02*
X865Y765D01*
X882Y765D02*
X888Y765D01*
X783Y764D02*
X790Y764D01*
X832Y764D02*
X838Y764D01*
X859Y764D02*
X865Y764D01*
X882Y764D02*
X888Y764D01*
X784Y763D02*
X790Y763D01*
X832Y763D02*
X838Y763D01*
X859Y763D02*
X865Y763D01*
X882Y763D02*
X888Y763D01*
X784Y762D02*
X791Y762D01*
X832Y762D02*
X838Y762D01*
X859Y762D02*
X865Y762D01*
X882Y762D02*
X888Y762D01*
X784Y761D02*
X791Y761D01*
X832Y761D02*
X838Y761D01*
X859Y761D02*
X865Y761D01*
X882Y761D02*
X888Y761D01*
X785Y760D02*
X792Y760D01*
X832Y760D02*
X838Y760D01*
X859Y760D02*
X865Y760D01*
X882Y760D02*
X888Y760D01*
X785Y759D02*
X792Y759D01*
X832Y759D02*
X838Y759D01*
X859Y759D02*
X865Y759D01*
X882Y759D02*
X888Y759D01*
X786Y758D02*
X793Y758D01*
X832Y758D02*
X838Y758D01*
X859Y758D02*
X865Y758D01*
X882Y758D02*
X888Y758D01*
X786Y757D02*
X793Y757D01*
X832Y757D02*
X838Y757D01*
X859Y757D02*
X865Y757D01*
X882Y757D02*
X888Y757D01*
X787Y756D02*
X794Y756D01*
X832Y756D02*
X838Y756D01*
X859Y756D02*
X865Y756D01*
X882Y756D02*
X888Y756D01*
X787Y755D02*
X794Y755D01*
X832Y755D02*
X838Y755D01*
X859Y755D02*
X865Y755D01*
X882Y755D02*
X888Y755D01*
X788Y754D02*
X795Y754D01*
X832Y754D02*
X838Y754D01*
X859Y754D02*
X865Y754D01*
X882Y754D02*
X888Y754D01*
X788Y753D02*
X795Y753D01*
X832Y753D02*
X838Y753D01*
X859Y753D02*
X865Y753D01*
X882Y753D02*
X888Y753D01*
X789Y752D02*
X796Y752D01*
X832Y752D02*
X838Y752D01*
X859Y752D02*
X865Y752D01*
X882Y752D02*
X888Y752D01*
X789Y751D02*
X796Y751D01*
X832Y751D02*
X838Y751D01*
X859Y751D02*
X865Y751D01*
X882Y751D02*
X888Y751D01*
X790Y750D02*
X797Y750D01*
X832Y750D02*
X838Y750D01*
X859Y750D02*
X865Y750D01*
X882Y750D02*
X888Y750D01*
X790Y749D02*
X813Y749D01*
X832Y749D02*
X838Y749D01*
X859Y749D02*
X865Y749D01*
X882Y749D02*
X913Y749D01*
X791Y748D02*
X815Y748D01*
X832Y748D02*
X838Y748D01*
X859Y748D02*
X865Y748D01*
X882Y748D02*
X915Y748D01*
X792Y747D02*
X816Y747D01*
X832Y747D02*
X838Y747D01*
X859Y747D02*
X865Y747D01*
X882Y747D02*
X916Y747D01*
X792Y746D02*
X816Y746D01*
X832Y746D02*
X838Y746D01*
X859Y746D02*
X865Y746D01*
X882Y746D02*
X916Y746D01*
X793Y745D02*
X816Y745D01*
X832Y745D02*
X838Y745D01*
X859Y745D02*
X865Y745D01*
X882Y745D02*
X916Y745D01*
X795Y744D02*
X815Y744D01*
X833Y744D02*
X838Y744D01*
X860Y744D02*
X865Y744D01*
X882Y744D02*
X915Y744D01*
X796Y743D02*
X815Y743D01*
X833Y743D02*
X837Y743D01*
X861Y743D02*
X864Y743D01*
X882Y743D02*
X915Y743D01*
X1622Y639D02*
X1636Y639D01*
X1653Y639D02*
X1655Y639D01*
X1677Y639D02*
X1679Y639D01*
X1763Y639D02*
X1765Y639D01*
X1781Y639D02*
X1803Y639D01*
X1826Y639D02*
X1827Y639D01*
X1849Y639D02*
X1851Y639D01*
X1867Y639D02*
X1874Y639D01*
X1889Y639D02*
X1896Y639D01*
X1620Y638D02*
X1637Y638D01*
X1652Y638D02*
X1656Y638D01*
X1676Y638D02*
X1680Y638D01*
X1762Y638D02*
X1766Y638D01*
X1781Y638D02*
X1805Y638D01*
X1825Y638D02*
X1828Y638D01*
X1848Y638D02*
X1852Y638D01*
X1867Y638D02*
X1874Y638D01*
X1888Y638D02*
X1896Y638D01*
X1618Y637D02*
X1637Y637D01*
X1652Y637D02*
X1657Y637D01*
X1676Y637D02*
X1680Y637D01*
X1761Y637D02*
X1766Y637D01*
X1781Y637D02*
X1807Y637D01*
X1824Y637D02*
X1829Y637D01*
X1848Y637D02*
X1853Y637D01*
X1867Y637D02*
X1875Y637D01*
X1888Y637D02*
X1896Y637D01*
X1617Y636D02*
X1637Y636D01*
X1652Y636D02*
X1657Y636D01*
X1675Y636D02*
X1680Y636D01*
X1761Y636D02*
X1767Y636D01*
X1781Y636D02*
X1808Y636D01*
X1824Y636D02*
X1829Y636D01*
X1848Y636D02*
X1853Y636D01*
X1867Y636D02*
X1876Y636D01*
X1887Y636D02*
X1896Y636D01*
X1616Y635D02*
X1637Y635D01*
X1652Y635D02*
X1657Y635D01*
X1675Y635D02*
X1680Y635D01*
X1760Y635D02*
X1766Y635D01*
X1781Y635D02*
X1808Y635D01*
X1824Y635D02*
X1829Y635D01*
X1848Y635D02*
X1853Y635D01*
X1867Y635D02*
X1877Y635D01*
X1886Y635D02*
X1896Y635D01*
X1616Y634D02*
X1636Y634D01*
X1652Y634D02*
X1657Y634D01*
X1675Y634D02*
X1680Y634D01*
X1760Y634D02*
X1766Y634D01*
X1781Y634D02*
X1809Y634D01*
X1824Y634D02*
X1829Y634D01*
X1848Y634D02*
X1853Y634D01*
X1867Y634D02*
X1877Y634D01*
X1886Y634D02*
X1896Y634D01*
X1615Y633D02*
X1622Y633D01*
X1652Y633D02*
X1657Y633D01*
X1675Y633D02*
X1680Y633D01*
X1759Y633D02*
X1765Y633D01*
X1781Y633D02*
X1786Y633D01*
X1803Y633D02*
X1809Y633D01*
X1824Y633D02*
X1829Y633D01*
X1848Y633D02*
X1853Y633D01*
X1867Y633D02*
X1878Y633D01*
X1885Y633D02*
X1896Y633D01*
X1615Y632D02*
X1621Y632D01*
X1652Y632D02*
X1657Y632D01*
X1675Y632D02*
X1680Y632D01*
X1759Y632D02*
X1765Y632D01*
X1781Y632D02*
X1786Y632D01*
X1804Y632D02*
X1810Y632D01*
X1824Y632D02*
X1829Y632D01*
X1848Y632D02*
X1853Y632D01*
X1867Y632D02*
X1879Y632D01*
X1884Y632D02*
X1896Y632D01*
X1614Y631D02*
X1620Y631D01*
X1652Y631D02*
X1657Y631D01*
X1675Y631D02*
X1680Y631D01*
X1758Y631D02*
X1764Y631D01*
X1781Y631D02*
X1786Y631D01*
X1804Y631D02*
X1810Y631D01*
X1824Y631D02*
X1829Y631D01*
X1848Y631D02*
X1853Y631D01*
X1867Y631D02*
X1879Y631D01*
X1883Y631D02*
X1896Y631D01*
X1614Y630D02*
X1620Y630D01*
X1652Y630D02*
X1657Y630D01*
X1675Y630D02*
X1680Y630D01*
X1757Y630D02*
X1763Y630D01*
X1781Y630D02*
X1786Y630D01*
X1805Y630D02*
X1810Y630D01*
X1824Y630D02*
X1829Y630D01*
X1848Y630D02*
X1853Y630D01*
X1867Y630D02*
X1872Y630D01*
X1874Y630D02*
X1880Y630D01*
X1883Y630D02*
X1889Y630D01*
X1891Y630D02*
X1896Y630D01*
X1613Y629D02*
X1619Y629D01*
X1652Y629D02*
X1657Y629D01*
X1675Y629D02*
X1680Y629D01*
X1757Y629D02*
X1763Y629D01*
X1781Y629D02*
X1786Y629D01*
X1805Y629D02*
X1810Y629D01*
X1824Y629D02*
X1829Y629D01*
X1848Y629D02*
X1853Y629D01*
X1867Y629D02*
X1872Y629D01*
X1874Y629D02*
X1888Y629D01*
X1891Y629D02*
X1896Y629D01*
X1613Y628D02*
X1619Y628D01*
X1652Y628D02*
X1657Y628D01*
X1675Y628D02*
X1680Y628D01*
X1756Y628D02*
X1762Y628D01*
X1781Y628D02*
X1786Y628D01*
X1805Y628D02*
X1810Y628D01*
X1824Y628D02*
X1829Y628D01*
X1848Y628D02*
X1853Y628D01*
X1867Y628D02*
X1872Y628D01*
X1875Y628D02*
X1888Y628D01*
X1891Y628D02*
X1896Y628D01*
X1612Y627D02*
X1618Y627D01*
X1652Y627D02*
X1657Y627D01*
X1675Y627D02*
X1680Y627D01*
X1756Y627D02*
X1762Y627D01*
X1781Y627D02*
X1786Y627D01*
X1805Y627D02*
X1810Y627D01*
X1824Y627D02*
X1829Y627D01*
X1848Y627D02*
X1853Y627D01*
X1867Y627D02*
X1872Y627D01*
X1876Y627D02*
X1887Y627D01*
X1891Y627D02*
X1896Y627D01*
X1612Y626D02*
X1618Y626D01*
X1652Y626D02*
X1657Y626D01*
X1675Y626D02*
X1680Y626D01*
X1700Y626D02*
X1718Y626D01*
X1755Y626D02*
X1761Y626D01*
X1781Y626D02*
X1786Y626D01*
X1805Y626D02*
X1810Y626D01*
X1824Y626D02*
X1829Y626D01*
X1848Y626D02*
X1853Y626D01*
X1867Y626D02*
X1872Y626D01*
X1876Y626D02*
X1886Y626D01*
X1891Y626D02*
X1896Y626D01*
X1611Y625D02*
X1617Y625D01*
X1652Y625D02*
X1657Y625D01*
X1675Y625D02*
X1680Y625D01*
X1698Y625D02*
X1720Y625D01*
X1754Y625D02*
X1761Y625D01*
X1781Y625D02*
X1786Y625D01*
X1805Y625D02*
X1810Y625D01*
X1824Y625D02*
X1829Y625D01*
X1848Y625D02*
X1853Y625D01*
X1867Y625D02*
X1872Y625D01*
X1877Y625D02*
X1886Y625D01*
X1891Y625D02*
X1896Y625D01*
X1611Y624D02*
X1617Y624D01*
X1652Y624D02*
X1657Y624D01*
X1675Y624D02*
X1680Y624D01*
X1697Y624D02*
X1721Y624D01*
X1754Y624D02*
X1760Y624D01*
X1781Y624D02*
X1786Y624D01*
X1805Y624D02*
X1810Y624D01*
X1824Y624D02*
X1829Y624D01*
X1848Y624D02*
X1853Y624D01*
X1867Y624D02*
X1872Y624D01*
X1878Y624D02*
X1885Y624D01*
X1891Y624D02*
X1896Y624D01*
X1610Y623D02*
X1616Y623D01*
X1652Y623D02*
X1657Y623D01*
X1675Y623D02*
X1680Y623D01*
X1697Y623D02*
X1722Y623D01*
X1753Y623D02*
X1759Y623D01*
X1781Y623D02*
X1786Y623D01*
X1805Y623D02*
X1810Y623D01*
X1824Y623D02*
X1829Y623D01*
X1837Y623D02*
X1840Y623D01*
X1848Y623D02*
X1853Y623D01*
X1867Y623D02*
X1872Y623D01*
X1879Y623D02*
X1884Y623D01*
X1891Y623D02*
X1896Y623D01*
X1610Y622D02*
X1616Y622D01*
X1652Y622D02*
X1657Y622D01*
X1675Y622D02*
X1680Y622D01*
X1696Y622D02*
X1723Y622D01*
X1753Y622D02*
X1759Y622D01*
X1781Y622D02*
X1786Y622D01*
X1805Y622D02*
X1810Y622D01*
X1824Y622D02*
X1829Y622D01*
X1836Y622D02*
X1841Y622D01*
X1848Y622D02*
X1853Y622D01*
X1867Y622D02*
X1872Y622D01*
X1879Y622D02*
X1884Y622D01*
X1891Y622D02*
X1896Y622D01*
X1610Y621D02*
X1615Y621D01*
X1652Y621D02*
X1657Y621D01*
X1675Y621D02*
X1680Y621D01*
X1696Y621D02*
X1723Y621D01*
X1752Y621D02*
X1758Y621D01*
X1781Y621D02*
X1786Y621D01*
X1805Y621D02*
X1810Y621D01*
X1824Y621D02*
X1829Y621D01*
X1836Y621D02*
X1841Y621D01*
X1848Y621D02*
X1853Y621D01*
X1867Y621D02*
X1872Y621D01*
X1879Y621D02*
X1884Y621D01*
X1891Y621D02*
X1896Y621D01*
X1609Y620D02*
X1615Y620D01*
X1652Y620D02*
X1657Y620D01*
X1675Y620D02*
X1680Y620D01*
X1696Y620D02*
X1701Y620D01*
X1717Y620D02*
X1723Y620D01*
X1752Y620D02*
X1758Y620D01*
X1781Y620D02*
X1786Y620D01*
X1805Y620D02*
X1810Y620D01*
X1824Y620D02*
X1829Y620D01*
X1836Y620D02*
X1841Y620D01*
X1848Y620D02*
X1853Y620D01*
X1867Y620D02*
X1872Y620D01*
X1879Y620D02*
X1884Y620D01*
X1891Y620D02*
X1896Y620D01*
X1609Y619D02*
X1614Y619D01*
X1652Y619D02*
X1657Y619D01*
X1675Y619D02*
X1680Y619D01*
X1695Y619D02*
X1700Y619D01*
X1719Y619D02*
X1722Y619D01*
X1751Y619D02*
X1757Y619D01*
X1781Y619D02*
X1786Y619D01*
X1805Y619D02*
X1810Y619D01*
X1824Y619D02*
X1829Y619D01*
X1836Y619D02*
X1841Y619D01*
X1848Y619D02*
X1853Y619D01*
X1867Y619D02*
X1872Y619D01*
X1880Y619D02*
X1883Y619D01*
X1891Y619D02*
X1896Y619D01*
X1609Y618D02*
X1614Y618D01*
X1652Y618D02*
X1680Y618D01*
X1696Y618D02*
X1701Y618D01*
X1750Y618D02*
X1756Y618D01*
X1781Y618D02*
X1786Y618D01*
X1804Y618D02*
X1810Y618D01*
X1824Y618D02*
X1829Y618D01*
X1836Y618D02*
X1841Y618D01*
X1848Y618D02*
X1853Y618D01*
X1867Y618D02*
X1872Y618D01*
X1891Y618D02*
X1896Y618D01*
X1609Y617D02*
X1614Y617D01*
X1652Y617D02*
X1680Y617D01*
X1696Y617D02*
X1702Y617D01*
X1750Y617D02*
X1756Y617D01*
X1781Y617D02*
X1786Y617D01*
X1803Y617D02*
X1809Y617D01*
X1824Y617D02*
X1829Y617D01*
X1836Y617D02*
X1841Y617D01*
X1848Y617D02*
X1853Y617D01*
X1867Y617D02*
X1872Y617D01*
X1891Y617D02*
X1896Y617D01*
X1609Y616D02*
X1614Y616D01*
X1652Y616D02*
X1680Y616D01*
X1696Y616D02*
X1705Y616D01*
X1749Y616D02*
X1755Y616D01*
X1781Y616D02*
X1809Y616D01*
X1824Y616D02*
X1829Y616D01*
X1836Y616D02*
X1841Y616D01*
X1848Y616D02*
X1853Y616D01*
X1867Y616D02*
X1872Y616D01*
X1891Y616D02*
X1896Y616D01*
X1609Y615D02*
X1614Y615D01*
X1652Y615D02*
X1680Y615D01*
X1697Y615D02*
X1707Y615D01*
X1749Y615D02*
X1755Y615D01*
X1781Y615D02*
X1808Y615D01*
X1824Y615D02*
X1829Y615D01*
X1836Y615D02*
X1841Y615D01*
X1848Y615D02*
X1853Y615D01*
X1867Y615D02*
X1872Y615D01*
X1891Y615D02*
X1896Y615D01*
X1609Y614D02*
X1614Y614D01*
X1652Y614D02*
X1680Y614D01*
X1697Y614D02*
X1709Y614D01*
X1748Y614D02*
X1754Y614D01*
X1781Y614D02*
X1808Y614D01*
X1824Y614D02*
X1829Y614D01*
X1836Y614D02*
X1841Y614D01*
X1848Y614D02*
X1853Y614D01*
X1867Y614D02*
X1872Y614D01*
X1891Y614D02*
X1896Y614D01*
X1609Y613D02*
X1614Y613D01*
X1652Y613D02*
X1680Y613D01*
X1698Y613D02*
X1711Y613D01*
X1747Y613D02*
X1753Y613D01*
X1781Y613D02*
X1807Y613D01*
X1824Y613D02*
X1829Y613D01*
X1836Y613D02*
X1841Y613D01*
X1848Y613D02*
X1853Y613D01*
X1867Y613D02*
X1872Y613D01*
X1891Y613D02*
X1896Y613D01*
X1609Y612D02*
X1615Y612D01*
X1652Y612D02*
X1657Y612D01*
X1675Y612D02*
X1680Y612D01*
X1700Y612D02*
X1714Y612D01*
X1747Y612D02*
X1753Y612D01*
X1781Y612D02*
X1806Y612D01*
X1824Y612D02*
X1829Y612D01*
X1836Y612D02*
X1841Y612D01*
X1848Y612D02*
X1853Y612D01*
X1867Y612D02*
X1872Y612D01*
X1891Y612D02*
X1896Y612D01*
X1610Y611D02*
X1615Y611D01*
X1652Y611D02*
X1657Y611D01*
X1675Y611D02*
X1680Y611D01*
X1702Y611D02*
X1716Y611D01*
X1746Y611D02*
X1752Y611D01*
X1781Y611D02*
X1804Y611D01*
X1824Y611D02*
X1829Y611D01*
X1836Y611D02*
X1841Y611D01*
X1848Y611D02*
X1853Y611D01*
X1867Y611D02*
X1872Y611D01*
X1891Y611D02*
X1896Y611D01*
X1610Y610D02*
X1616Y610D01*
X1652Y610D02*
X1657Y610D01*
X1675Y610D02*
X1680Y610D01*
X1704Y610D02*
X1718Y610D01*
X1746Y610D02*
X1752Y610D01*
X1781Y610D02*
X1786Y610D01*
X1824Y610D02*
X1829Y610D01*
X1836Y610D02*
X1841Y610D01*
X1848Y610D02*
X1853Y610D01*
X1867Y610D02*
X1872Y610D01*
X1891Y610D02*
X1896Y610D01*
X1610Y609D02*
X1616Y609D01*
X1652Y609D02*
X1657Y609D01*
X1675Y609D02*
X1680Y609D01*
X1707Y609D02*
X1720Y609D01*
X1745Y609D02*
X1751Y609D01*
X1781Y609D02*
X1786Y609D01*
X1824Y609D02*
X1829Y609D01*
X1836Y609D02*
X1841Y609D01*
X1848Y609D02*
X1853Y609D01*
X1867Y609D02*
X1872Y609D01*
X1891Y609D02*
X1896Y609D01*
X1611Y608D02*
X1617Y608D01*
X1652Y608D02*
X1657Y608D01*
X1675Y608D02*
X1680Y608D01*
X1709Y608D02*
X1721Y608D01*
X1745Y608D02*
X1751Y608D01*
X1781Y608D02*
X1786Y608D01*
X1824Y608D02*
X1829Y608D01*
X1836Y608D02*
X1841Y608D01*
X1848Y608D02*
X1853Y608D01*
X1867Y608D02*
X1872Y608D01*
X1891Y608D02*
X1896Y608D01*
X1611Y607D02*
X1617Y607D01*
X1652Y607D02*
X1657Y607D01*
X1675Y607D02*
X1680Y607D01*
X1711Y607D02*
X1722Y607D01*
X1744Y607D02*
X1750Y607D01*
X1781Y607D02*
X1786Y607D01*
X1824Y607D02*
X1829Y607D01*
X1836Y607D02*
X1841Y607D01*
X1848Y607D02*
X1853Y607D01*
X1867Y607D02*
X1872Y607D01*
X1891Y607D02*
X1896Y607D01*
X1612Y606D02*
X1618Y606D01*
X1652Y606D02*
X1657Y606D01*
X1675Y606D02*
X1680Y606D01*
X1714Y606D02*
X1722Y606D01*
X1743Y606D02*
X1749Y606D01*
X1781Y606D02*
X1786Y606D01*
X1824Y606D02*
X1829Y606D01*
X1836Y606D02*
X1841Y606D01*
X1848Y606D02*
X1853Y606D01*
X1867Y606D02*
X1872Y606D01*
X1891Y606D02*
X1896Y606D01*
X1612Y605D02*
X1618Y605D01*
X1652Y605D02*
X1657Y605D01*
X1675Y605D02*
X1680Y605D01*
X1716Y605D02*
X1723Y605D01*
X1743Y605D02*
X1749Y605D01*
X1781Y605D02*
X1786Y605D01*
X1824Y605D02*
X1829Y605D01*
X1836Y605D02*
X1841Y605D01*
X1848Y605D02*
X1853Y605D01*
X1867Y605D02*
X1872Y605D01*
X1891Y605D02*
X1896Y605D01*
X1613Y604D02*
X1619Y604D01*
X1652Y604D02*
X1657Y604D01*
X1675Y604D02*
X1680Y604D01*
X1718Y604D02*
X1723Y604D01*
X1742Y604D02*
X1748Y604D01*
X1781Y604D02*
X1786Y604D01*
X1824Y604D02*
X1829Y604D01*
X1836Y604D02*
X1841Y604D01*
X1848Y604D02*
X1853Y604D01*
X1867Y604D02*
X1872Y604D01*
X1891Y604D02*
X1896Y604D01*
X1613Y603D02*
X1619Y603D01*
X1652Y603D02*
X1657Y603D01*
X1675Y603D02*
X1680Y603D01*
X1718Y603D02*
X1723Y603D01*
X1742Y603D02*
X1748Y603D01*
X1781Y603D02*
X1786Y603D01*
X1824Y603D02*
X1829Y603D01*
X1836Y603D02*
X1841Y603D01*
X1848Y603D02*
X1853Y603D01*
X1867Y603D02*
X1872Y603D01*
X1891Y603D02*
X1896Y603D01*
X1614Y602D02*
X1620Y602D01*
X1652Y602D02*
X1657Y602D01*
X1675Y602D02*
X1680Y602D01*
X1718Y602D02*
X1723Y602D01*
X1741Y602D02*
X1747Y602D01*
X1781Y602D02*
X1786Y602D01*
X1824Y602D02*
X1829Y602D01*
X1836Y602D02*
X1841Y602D01*
X1848Y602D02*
X1853Y602D01*
X1867Y602D02*
X1872Y602D01*
X1891Y602D02*
X1896Y602D01*
X796Y601D02*
X815Y601D01*
X834Y601D02*
X837Y601D01*
X884Y601D02*
X902Y601D01*
X1614Y601D02*
X1620Y601D01*
X1652Y601D02*
X1657Y601D01*
X1675Y601D02*
X1680Y601D01*
X1697Y601D02*
X1698Y601D01*
X1718Y601D02*
X1723Y601D01*
X1740Y601D02*
X1746Y601D01*
X1781Y601D02*
X1786Y601D01*
X1824Y601D02*
X1829Y601D01*
X1835Y601D02*
X1841Y601D01*
X1847Y601D02*
X1853Y601D01*
X1867Y601D02*
X1872Y601D01*
X1891Y601D02*
X1896Y601D01*
X794Y600D02*
X815Y600D01*
X833Y600D02*
X838Y600D01*
X883Y600D02*
X902Y600D01*
X1615Y600D02*
X1621Y600D01*
X1652Y600D02*
X1657Y600D01*
X1675Y600D02*
X1680Y600D01*
X1695Y600D02*
X1699Y600D01*
X1718Y600D02*
X1723Y600D01*
X1740Y600D02*
X1746Y600D01*
X1781Y600D02*
X1786Y600D01*
X1824Y600D02*
X1830Y600D01*
X1835Y600D02*
X1842Y600D01*
X1847Y600D02*
X1853Y600D01*
X1867Y600D02*
X1872Y600D01*
X1891Y600D02*
X1896Y600D01*
X793Y599D02*
X816Y599D01*
X832Y599D02*
X838Y599D01*
X882Y599D02*
X902Y599D01*
X1615Y599D02*
X1622Y599D01*
X1652Y599D02*
X1657Y599D01*
X1675Y599D02*
X1680Y599D01*
X1695Y599D02*
X1701Y599D01*
X1717Y599D02*
X1723Y599D01*
X1739Y599D02*
X1745Y599D01*
X1781Y599D02*
X1786Y599D01*
X1824Y599D02*
X1831Y599D01*
X1834Y599D02*
X1842Y599D01*
X1846Y599D02*
X1852Y599D01*
X1867Y599D02*
X1872Y599D01*
X1891Y599D02*
X1896Y599D01*
X792Y598D02*
X816Y598D01*
X832Y598D02*
X838Y598D01*
X882Y598D02*
X902Y598D01*
X1616Y598D02*
X1636Y598D01*
X1652Y598D02*
X1657Y598D01*
X1675Y598D02*
X1680Y598D01*
X1695Y598D02*
X1723Y598D01*
X1739Y598D02*
X1745Y598D01*
X1781Y598D02*
X1786Y598D01*
X1825Y598D02*
X1852Y598D01*
X1867Y598D02*
X1872Y598D01*
X1891Y598D02*
X1896Y598D01*
X791Y597D02*
X816Y597D01*
X832Y597D02*
X838Y597D01*
X883Y597D02*
X902Y597D01*
X1616Y597D02*
X1637Y597D01*
X1652Y597D02*
X1657Y597D01*
X1675Y597D02*
X1680Y597D01*
X1695Y597D02*
X1722Y597D01*
X1738Y597D02*
X1744Y597D01*
X1781Y597D02*
X1786Y597D01*
X1826Y597D02*
X1851Y597D01*
X1867Y597D02*
X1872Y597D01*
X1891Y597D02*
X1896Y597D01*
X791Y596D02*
X815Y596D01*
X832Y596D02*
X838Y596D01*
X883Y596D02*
X902Y596D01*
X1617Y596D02*
X1637Y596D01*
X1652Y596D02*
X1657Y596D01*
X1675Y596D02*
X1680Y596D01*
X1696Y596D02*
X1721Y596D01*
X1738Y596D02*
X1744Y596D01*
X1781Y596D02*
X1786Y596D01*
X1826Y596D02*
X1850Y596D01*
X1867Y596D02*
X1872Y596D01*
X1891Y596D02*
X1896Y596D01*
X790Y595D02*
X813Y595D01*
X832Y595D02*
X838Y595D01*
X885Y595D02*
X902Y595D01*
X1618Y595D02*
X1637Y595D01*
X1652Y595D02*
X1657Y595D01*
X1675Y595D02*
X1680Y595D01*
X1697Y595D02*
X1720Y595D01*
X1738Y595D02*
X1743Y595D01*
X1781Y595D02*
X1786Y595D01*
X1827Y595D02*
X1850Y595D01*
X1867Y595D02*
X1872Y595D01*
X1891Y595D02*
X1896Y595D01*
X790Y594D02*
X797Y594D01*
X832Y594D02*
X838Y594D01*
X896Y594D02*
X902Y594D01*
X1619Y594D02*
X1637Y594D01*
X1652Y594D02*
X1656Y594D01*
X1676Y594D02*
X1680Y594D01*
X1698Y594D02*
X1719Y594D01*
X1738Y594D02*
X1742Y594D01*
X1781Y594D02*
X1785Y594D01*
X1827Y594D02*
X1837Y594D01*
X1839Y594D02*
X1849Y594D01*
X1868Y594D02*
X1872Y594D01*
X1891Y594D02*
X1895Y594D01*
X789Y593D02*
X796Y593D01*
X832Y593D02*
X838Y593D01*
X896Y593D02*
X902Y593D01*
X1622Y593D02*
X1636Y593D01*
X1653Y593D02*
X1655Y593D01*
X1677Y593D02*
X1679Y593D01*
X1701Y593D02*
X1717Y593D01*
X1739Y593D02*
X1741Y593D01*
X1782Y593D02*
X1784Y593D01*
X1828Y593D02*
X1836Y593D01*
X1840Y593D02*
X1848Y593D01*
X1869Y593D02*
X1870Y593D01*
X1892Y593D02*
X1894Y593D01*
X789Y592D02*
X796Y592D01*
X832Y592D02*
X838Y592D01*
X896Y592D02*
X902Y592D01*
X788Y591D02*
X795Y591D01*
X832Y591D02*
X838Y591D01*
X896Y591D02*
X902Y591D01*
X788Y590D02*
X795Y590D01*
X832Y590D02*
X838Y590D01*
X896Y590D02*
X902Y590D01*
X787Y589D02*
X794Y589D01*
X832Y589D02*
X838Y589D01*
X896Y589D02*
X902Y589D01*
X787Y588D02*
X794Y588D01*
X832Y588D02*
X838Y588D01*
X896Y588D02*
X902Y588D01*
X786Y587D02*
X793Y587D01*
X832Y587D02*
X838Y587D01*
X850Y587D02*
X857Y587D01*
X896Y587D02*
X902Y587D01*
X786Y586D02*
X793Y586D01*
X832Y586D02*
X838Y586D01*
X847Y586D02*
X860Y586D01*
X896Y586D02*
X902Y586D01*
X785Y585D02*
X792Y585D01*
X832Y585D02*
X838Y585D01*
X845Y585D02*
X861Y585D01*
X896Y585D02*
X902Y585D01*
X785Y584D02*
X792Y584D01*
X832Y584D02*
X838Y584D01*
X844Y584D02*
X862Y584D01*
X896Y584D02*
X902Y584D01*
X784Y583D02*
X791Y583D01*
X832Y583D02*
X838Y583D01*
X842Y583D02*
X863Y583D01*
X896Y583D02*
X902Y583D01*
X784Y582D02*
X791Y582D01*
X832Y582D02*
X838Y582D01*
X841Y582D02*
X864Y582D01*
X896Y582D02*
X902Y582D01*
X784Y581D02*
X790Y581D01*
X832Y581D02*
X865Y581D01*
X896Y581D02*
X902Y581D01*
X783Y580D02*
X790Y580D01*
X832Y580D02*
X850Y580D01*
X857Y580D02*
X865Y580D01*
X896Y580D02*
X902Y580D01*
X783Y579D02*
X789Y579D01*
X832Y579D02*
X848Y579D01*
X858Y579D02*
X865Y579D01*
X896Y579D02*
X902Y579D01*
X783Y578D02*
X789Y578D01*
X832Y578D02*
X846Y578D01*
X859Y578D02*
X865Y578D01*
X896Y578D02*
X902Y578D01*
X782Y577D02*
X789Y577D01*
X832Y577D02*
X845Y577D01*
X859Y577D02*
X865Y577D01*
X896Y577D02*
X902Y577D01*
X782Y576D02*
X788Y576D01*
X832Y576D02*
X843Y576D01*
X859Y576D02*
X865Y576D01*
X896Y576D02*
X902Y576D01*
X782Y575D02*
X788Y575D01*
X832Y575D02*
X842Y575D01*
X859Y575D02*
X865Y575D01*
X896Y575D02*
X902Y575D01*
X782Y574D02*
X788Y574D01*
X832Y574D02*
X840Y574D01*
X859Y574D02*
X865Y574D01*
X896Y574D02*
X902Y574D01*
X782Y573D02*
X788Y573D01*
X832Y573D02*
X839Y573D01*
X859Y573D02*
X865Y573D01*
X896Y573D02*
X902Y573D01*
X783Y572D02*
X789Y572D01*
X832Y572D02*
X838Y572D01*
X859Y572D02*
X865Y572D01*
X896Y572D02*
X902Y572D01*
X912Y572D02*
X914Y572D01*
X783Y571D02*
X789Y571D01*
X832Y571D02*
X838Y571D01*
X859Y571D02*
X865Y571D01*
X896Y571D02*
X902Y571D01*
X911Y571D02*
X915Y571D01*
X783Y570D02*
X790Y570D01*
X832Y570D02*
X838Y570D01*
X859Y570D02*
X865Y570D01*
X896Y570D02*
X902Y570D01*
X910Y570D02*
X916Y570D01*
X783Y569D02*
X790Y569D01*
X832Y569D02*
X838Y569D01*
X859Y569D02*
X865Y569D01*
X896Y569D02*
X902Y569D01*
X910Y569D02*
X916Y569D01*
X784Y568D02*
X791Y568D01*
X832Y568D02*
X838Y568D01*
X859Y568D02*
X865Y568D01*
X896Y568D02*
X902Y568D01*
X910Y568D02*
X916Y568D01*
X784Y567D02*
X791Y567D01*
X832Y567D02*
X838Y567D01*
X859Y567D02*
X865Y567D01*
X896Y567D02*
X902Y567D01*
X910Y567D02*
X916Y567D01*
X785Y566D02*
X792Y566D01*
X832Y566D02*
X838Y566D01*
X859Y566D02*
X865Y566D01*
X896Y566D02*
X902Y566D01*
X910Y566D02*
X916Y566D01*
X785Y565D02*
X792Y565D01*
X832Y565D02*
X838Y565D01*
X859Y565D02*
X865Y565D01*
X896Y565D02*
X902Y565D01*
X910Y565D02*
X916Y565D01*
X786Y564D02*
X793Y564D01*
X832Y564D02*
X838Y564D01*
X859Y564D02*
X865Y564D01*
X896Y564D02*
X902Y564D01*
X910Y564D02*
X916Y564D01*
X786Y563D02*
X793Y563D01*
X832Y563D02*
X838Y563D01*
X859Y563D02*
X865Y563D01*
X896Y563D02*
X902Y563D01*
X910Y563D02*
X916Y563D01*
X787Y562D02*
X794Y562D01*
X832Y562D02*
X838Y562D01*
X859Y562D02*
X865Y562D01*
X896Y562D02*
X902Y562D01*
X910Y562D02*
X916Y562D01*
X787Y561D02*
X794Y561D01*
X832Y561D02*
X838Y561D01*
X859Y561D02*
X865Y561D01*
X896Y561D02*
X902Y561D01*
X910Y561D02*
X916Y561D01*
X788Y560D02*
X795Y560D01*
X832Y560D02*
X838Y560D01*
X859Y560D02*
X865Y560D01*
X896Y560D02*
X902Y560D01*
X910Y560D02*
X916Y560D01*
X788Y559D02*
X795Y559D01*
X832Y559D02*
X838Y559D01*
X859Y559D02*
X865Y559D01*
X896Y559D02*
X902Y559D01*
X910Y559D02*
X916Y559D01*
X789Y558D02*
X796Y558D01*
X832Y558D02*
X838Y558D01*
X859Y558D02*
X865Y558D01*
X896Y558D02*
X902Y558D01*
X910Y558D02*
X916Y558D01*
X789Y557D02*
X796Y557D01*
X832Y557D02*
X838Y557D01*
X859Y557D02*
X865Y557D01*
X896Y557D02*
X902Y557D01*
X910Y557D02*
X916Y557D01*
X790Y556D02*
X797Y556D01*
X832Y556D02*
X838Y556D01*
X859Y556D02*
X865Y556D01*
X896Y556D02*
X902Y556D01*
X910Y556D02*
X916Y556D01*
X790Y555D02*
X798Y555D01*
X832Y555D02*
X838Y555D01*
X859Y555D02*
X865Y555D01*
X896Y555D02*
X902Y555D01*
X910Y555D02*
X916Y555D01*
X791Y554D02*
X814Y554D01*
X832Y554D02*
X838Y554D01*
X859Y554D02*
X865Y554D01*
X884Y554D02*
X916Y554D01*
X791Y553D02*
X815Y553D01*
X832Y553D02*
X838Y553D01*
X859Y553D02*
X865Y553D01*
X883Y553D02*
X916Y553D01*
X792Y552D02*
X816Y552D01*
X832Y552D02*
X838Y552D01*
X859Y552D02*
X865Y552D01*
X882Y552D02*
X916Y552D01*
X793Y551D02*
X816Y551D01*
X832Y551D02*
X838Y551D01*
X859Y551D02*
X865Y551D01*
X882Y551D02*
X916Y551D01*
X794Y550D02*
X816Y550D01*
X833Y550D02*
X838Y550D01*
X860Y550D02*
X865Y550D01*
X882Y550D02*
X916Y550D01*
X795Y549D02*
X815Y549D01*
X833Y549D02*
X837Y549D01*
X860Y549D02*
X865Y549D01*
X883Y549D02*
X915Y549D01*
X798Y548D02*
X814Y548D01*
X834Y548D02*
X836Y548D01*
X861Y548D02*
X863Y548D01*
X884Y548D02*
X914Y548D01*
X1731Y514D02*
X1732Y514D01*
X1730Y513D02*
X1733Y513D01*
X1729Y512D02*
X1734Y512D01*
X1728Y511D02*
X1734Y511D01*
X1727Y510D02*
X1733Y510D01*
X1726Y509D02*
X1732Y509D01*
X1725Y508D02*
X1731Y508D01*
X1704Y487D02*
X1704Y487D01*
X1703Y486D02*
X1704Y486D01*
X1702Y485D02*
X1704Y485D01*
X1701Y484D02*
X1704Y484D01*
X1700Y483D02*
X1704Y483D01*
X1699Y482D02*
X1704Y482D01*
X1698Y481D02*
X1704Y481D01*
X1697Y480D02*
X1703Y480D01*
X1698Y479D02*
X1702Y479D01*
X1699Y478D02*
X1701Y478D01*
X1700Y477D02*
X1700Y477D01*
X777Y301D02*
X801Y301D01*
X842Y301D02*
X845Y301D01*
X877Y301D02*
X910Y301D01*
X777Y300D02*
X803Y300D01*
X841Y300D02*
X846Y300D01*
X877Y300D02*
X910Y300D01*
X777Y299D02*
X805Y299D01*
X840Y299D02*
X846Y299D01*
X877Y299D02*
X910Y299D01*
X777Y298D02*
X806Y298D01*
X840Y298D02*
X847Y298D01*
X877Y298D02*
X910Y298D01*
X777Y297D02*
X807Y297D01*
X840Y297D02*
X847Y297D01*
X877Y297D02*
X910Y297D01*
X777Y296D02*
X808Y296D01*
X840Y296D02*
X847Y296D01*
X877Y296D02*
X910Y296D01*
X777Y295D02*
X808Y295D01*
X839Y295D02*
X848Y295D01*
X877Y295D02*
X910Y295D01*
X777Y294D02*
X783Y294D01*
X801Y294D02*
X809Y294D01*
X839Y294D02*
X848Y294D01*
X877Y294D02*
X883Y294D01*
X890Y294D02*
X896Y294D01*
X904Y294D02*
X910Y294D01*
X777Y293D02*
X783Y293D01*
X802Y293D02*
X809Y293D01*
X839Y293D02*
X848Y293D01*
X877Y293D02*
X883Y293D01*
X890Y293D02*
X896Y293D01*
X904Y293D02*
X910Y293D01*
X777Y292D02*
X783Y292D01*
X803Y292D02*
X810Y292D01*
X838Y292D02*
X849Y292D01*
X877Y292D02*
X883Y292D01*
X890Y292D02*
X896Y292D01*
X904Y292D02*
X910Y292D01*
X777Y291D02*
X783Y291D01*
X804Y291D02*
X810Y291D01*
X838Y291D02*
X849Y291D01*
X877Y291D02*
X882Y291D01*
X890Y291D02*
X896Y291D01*
X905Y291D02*
X910Y291D01*
X777Y290D02*
X783Y290D01*
X804Y290D02*
X810Y290D01*
X838Y290D02*
X849Y290D01*
X878Y290D02*
X882Y290D01*
X890Y290D02*
X896Y290D01*
X905Y290D02*
X909Y290D01*
X777Y289D02*
X783Y289D01*
X804Y289D02*
X810Y289D01*
X838Y289D02*
X849Y289D01*
X890Y289D02*
X896Y289D01*
X777Y288D02*
X783Y288D01*
X804Y288D02*
X810Y288D01*
X837Y288D02*
X850Y288D01*
X890Y288D02*
X896Y288D01*
X777Y287D02*
X783Y287D01*
X804Y287D02*
X810Y287D01*
X837Y287D02*
X850Y287D01*
X890Y287D02*
X896Y287D01*
X777Y286D02*
X783Y286D01*
X804Y286D02*
X810Y286D01*
X837Y286D02*
X850Y286D01*
X890Y286D02*
X896Y286D01*
X777Y285D02*
X783Y285D01*
X804Y285D02*
X810Y285D01*
X836Y285D02*
X851Y285D01*
X890Y285D02*
X896Y285D01*
X777Y284D02*
X783Y284D01*
X804Y284D02*
X810Y284D01*
X836Y284D02*
X842Y284D01*
X845Y284D02*
X851Y284D01*
X890Y284D02*
X896Y284D01*
X777Y283D02*
X783Y283D01*
X804Y283D02*
X810Y283D01*
X836Y283D02*
X842Y283D01*
X845Y283D02*
X851Y283D01*
X890Y283D02*
X896Y283D01*
X777Y282D02*
X783Y282D01*
X803Y282D02*
X810Y282D01*
X836Y282D02*
X842Y282D01*
X845Y282D02*
X851Y282D01*
X890Y282D02*
X896Y282D01*
X777Y281D02*
X783Y281D01*
X803Y281D02*
X810Y281D01*
X835Y281D02*
X842Y281D01*
X845Y281D02*
X852Y281D01*
X890Y281D02*
X896Y281D01*
X777Y280D02*
X783Y280D01*
X802Y280D02*
X809Y280D01*
X835Y280D02*
X841Y280D01*
X846Y280D02*
X852Y280D01*
X890Y280D02*
X896Y280D01*
X777Y279D02*
X783Y279D01*
X800Y279D02*
X809Y279D01*
X835Y279D02*
X841Y279D01*
X846Y279D02*
X852Y279D01*
X890Y279D02*
X896Y279D01*
X777Y278D02*
X808Y278D01*
X834Y278D02*
X841Y278D01*
X846Y278D02*
X853Y278D01*
X890Y278D02*
X896Y278D01*
X777Y277D02*
X807Y277D01*
X834Y277D02*
X840Y277D01*
X847Y277D02*
X853Y277D01*
X890Y277D02*
X896Y277D01*
X777Y276D02*
X807Y276D01*
X834Y276D02*
X840Y276D01*
X847Y276D02*
X853Y276D01*
X890Y276D02*
X896Y276D01*
X777Y275D02*
X806Y275D01*
X833Y275D02*
X840Y275D01*
X847Y275D02*
X853Y275D01*
X890Y275D02*
X896Y275D01*
X777Y274D02*
X806Y274D01*
X833Y274D02*
X839Y274D01*
X847Y274D02*
X854Y274D01*
X890Y274D02*
X896Y274D01*
X777Y273D02*
X807Y273D01*
X833Y273D02*
X839Y273D01*
X848Y273D02*
X854Y273D01*
X890Y273D02*
X896Y273D01*
X777Y272D02*
X808Y272D01*
X833Y272D02*
X839Y272D01*
X848Y272D02*
X854Y272D01*
X890Y272D02*
X896Y272D01*
X777Y271D02*
X783Y271D01*
X800Y271D02*
X809Y271D01*
X832Y271D02*
X839Y271D01*
X848Y271D02*
X855Y271D01*
X890Y271D02*
X896Y271D01*
X777Y270D02*
X783Y270D01*
X801Y270D02*
X809Y270D01*
X832Y270D02*
X838Y270D01*
X849Y270D02*
X855Y270D01*
X890Y270D02*
X896Y270D01*
X777Y269D02*
X783Y269D01*
X802Y269D02*
X810Y269D01*
X832Y269D02*
X838Y269D01*
X849Y269D02*
X855Y269D01*
X890Y269D02*
X896Y269D01*
X777Y268D02*
X783Y268D01*
X803Y268D02*
X810Y268D01*
X831Y268D02*
X838Y268D01*
X849Y268D02*
X856Y268D01*
X890Y268D02*
X896Y268D01*
X777Y267D02*
X783Y267D01*
X804Y267D02*
X810Y267D01*
X831Y267D02*
X838Y267D01*
X849Y267D02*
X856Y267D01*
X890Y267D02*
X896Y267D01*
X777Y266D02*
X783Y266D01*
X804Y266D02*
X810Y266D01*
X831Y266D02*
X856Y266D01*
X890Y266D02*
X896Y266D01*
X777Y265D02*
X783Y265D01*
X804Y265D02*
X810Y265D01*
X831Y265D02*
X856Y265D01*
X890Y265D02*
X896Y265D01*
X777Y264D02*
X783Y264D01*
X804Y264D02*
X810Y264D01*
X830Y264D02*
X857Y264D01*
X890Y264D02*
X896Y264D01*
X777Y263D02*
X783Y263D01*
X804Y263D02*
X810Y263D01*
X830Y263D02*
X857Y263D01*
X890Y263D02*
X896Y263D01*
X777Y262D02*
X783Y262D01*
X804Y262D02*
X810Y262D01*
X830Y262D02*
X857Y262D01*
X890Y262D02*
X896Y262D01*
X777Y261D02*
X783Y261D01*
X804Y261D02*
X810Y261D01*
X829Y261D02*
X858Y261D01*
X890Y261D02*
X896Y261D01*
X777Y260D02*
X783Y260D01*
X804Y260D02*
X810Y260D01*
X829Y260D02*
X858Y260D01*
X890Y260D02*
X896Y260D01*
X777Y259D02*
X783Y259D01*
X804Y259D02*
X810Y259D01*
X829Y259D02*
X835Y259D01*
X852Y259D02*
X858Y259D01*
X890Y259D02*
X896Y259D01*
X777Y258D02*
X783Y258D01*
X803Y258D02*
X810Y258D01*
X828Y258D02*
X835Y258D01*
X852Y258D02*
X858Y258D01*
X890Y258D02*
X896Y258D01*
X777Y257D02*
X783Y257D01*
X802Y257D02*
X809Y257D01*
X828Y257D02*
X835Y257D01*
X852Y257D02*
X859Y257D01*
X890Y257D02*
X896Y257D01*
X777Y256D02*
X783Y256D01*
X801Y256D02*
X809Y256D01*
X828Y256D02*
X834Y256D01*
X853Y256D02*
X859Y256D01*
X890Y256D02*
X896Y256D01*
X777Y255D02*
X783Y255D01*
X799Y255D02*
X809Y255D01*
X828Y255D02*
X834Y255D01*
X853Y255D02*
X859Y255D01*
X890Y255D02*
X896Y255D01*
X777Y254D02*
X808Y254D01*
X827Y254D02*
X834Y254D01*
X853Y254D02*
X860Y254D01*
X890Y254D02*
X896Y254D01*
X777Y253D02*
X807Y253D01*
X827Y253D02*
X833Y253D01*
X854Y253D02*
X860Y253D01*
X890Y253D02*
X896Y253D01*
X777Y252D02*
X806Y252D01*
X827Y252D02*
X833Y252D01*
X854Y252D02*
X860Y252D01*
X890Y252D02*
X896Y252D01*
X777Y251D02*
X805Y251D01*
X827Y251D02*
X833Y251D01*
X854Y251D02*
X860Y251D01*
X890Y251D02*
X896Y251D01*
X777Y250D02*
X804Y250D01*
X827Y250D02*
X832Y250D01*
X855Y250D02*
X860Y250D01*
X891Y250D02*
X896Y250D01*
X777Y249D02*
X802Y249D01*
X827Y249D02*
X832Y249D01*
X855Y249D02*
X859Y249D01*
X891Y249D02*
X896Y249D01*
X777Y248D02*
X799Y248D01*
X829Y248D02*
X830Y248D01*
X857Y248D02*
X858Y248D01*
X893Y248D02*
X894Y248D01*
X1599Y139D02*
X1619Y139D01*
X1656Y139D02*
X1658Y139D01*
X1685Y139D02*
X1714Y139D01*
X1754Y139D02*
X1756Y139D01*
X1772Y139D02*
X1794Y139D01*
X1815Y139D02*
X1837Y139D01*
X1858Y139D02*
X1864Y139D01*
X1880Y139D02*
X1886Y139D01*
X1599Y138D02*
X1621Y138D01*
X1655Y138D02*
X1659Y138D01*
X1685Y138D02*
X1714Y138D01*
X1753Y138D02*
X1757Y138D01*
X1771Y138D02*
X1796Y138D01*
X1815Y138D02*
X1839Y138D01*
X1858Y138D02*
X1865Y138D01*
X1879Y138D02*
X1886Y138D01*
X1599Y137D02*
X1623Y137D01*
X1654Y137D02*
X1659Y137D01*
X1685Y137D02*
X1714Y137D01*
X1752Y137D02*
X1757Y137D01*
X1771Y137D02*
X1797Y137D01*
X1815Y137D02*
X1840Y137D01*
X1858Y137D02*
X1866Y137D01*
X1878Y137D02*
X1886Y137D01*
X1599Y136D02*
X1624Y136D01*
X1654Y136D02*
X1659Y136D01*
X1685Y136D02*
X1714Y136D01*
X1751Y136D02*
X1757Y136D01*
X1771Y136D02*
X1798Y136D01*
X1815Y136D02*
X1841Y136D01*
X1858Y136D02*
X1867Y136D01*
X1877Y136D02*
X1886Y136D01*
X1599Y135D02*
X1625Y135D01*
X1654Y135D02*
X1660Y135D01*
X1685Y135D02*
X1714Y135D01*
X1751Y135D02*
X1757Y135D01*
X1771Y135D02*
X1799Y135D01*
X1815Y135D02*
X1842Y135D01*
X1858Y135D02*
X1867Y135D01*
X1877Y135D02*
X1886Y135D01*
X1599Y134D02*
X1626Y134D01*
X1653Y134D02*
X1660Y134D01*
X1685Y134D02*
X1714Y134D01*
X1750Y134D02*
X1756Y134D01*
X1771Y134D02*
X1799Y134D01*
X1815Y134D02*
X1843Y134D01*
X1858Y134D02*
X1868Y134D01*
X1876Y134D02*
X1886Y134D01*
X1599Y133D02*
X1604Y133D01*
X1619Y133D02*
X1627Y133D01*
X1653Y133D02*
X1660Y133D01*
X1685Y133D02*
X1690Y133D01*
X1697Y133D02*
X1702Y133D01*
X1709Y133D02*
X1714Y133D01*
X1750Y133D02*
X1756Y133D01*
X1771Y133D02*
X1777Y133D01*
X1793Y133D02*
X1800Y133D01*
X1815Y133D02*
X1820Y133D01*
X1837Y133D02*
X1843Y133D01*
X1858Y133D02*
X1869Y133D01*
X1875Y133D02*
X1886Y133D01*
X1599Y132D02*
X1604Y132D01*
X1621Y132D02*
X1627Y132D01*
X1653Y132D02*
X1661Y132D01*
X1685Y132D02*
X1690Y132D01*
X1697Y132D02*
X1702Y132D01*
X1709Y132D02*
X1714Y132D01*
X1749Y132D02*
X1755Y132D01*
X1771Y132D02*
X1777Y132D01*
X1795Y132D02*
X1800Y132D01*
X1815Y132D02*
X1820Y132D01*
X1838Y132D02*
X1843Y132D01*
X1858Y132D02*
X1869Y132D01*
X1875Y132D02*
X1886Y132D01*
X1599Y131D02*
X1604Y131D01*
X1622Y131D02*
X1627Y131D01*
X1652Y131D02*
X1661Y131D01*
X1685Y131D02*
X1690Y131D01*
X1697Y131D02*
X1702Y131D01*
X1709Y131D02*
X1714Y131D01*
X1749Y131D02*
X1755Y131D01*
X1771Y131D02*
X1777Y131D01*
X1795Y131D02*
X1800Y131D01*
X1815Y131D02*
X1820Y131D01*
X1838Y131D02*
X1843Y131D01*
X1858Y131D02*
X1870Y131D01*
X1874Y131D02*
X1886Y131D01*
X1599Y130D02*
X1604Y130D01*
X1622Y130D02*
X1628Y130D01*
X1652Y130D02*
X1661Y130D01*
X1686Y130D02*
X1690Y130D01*
X1697Y130D02*
X1702Y130D01*
X1709Y130D02*
X1714Y130D01*
X1748Y130D02*
X1754Y130D01*
X1771Y130D02*
X1777Y130D01*
X1795Y130D02*
X1800Y130D01*
X1815Y130D02*
X1820Y130D01*
X1838Y130D02*
X1843Y130D01*
X1858Y130D02*
X1871Y130D01*
X1873Y130D02*
X1886Y130D01*
X1599Y129D02*
X1604Y129D01*
X1623Y129D02*
X1628Y129D01*
X1652Y129D02*
X1661Y129D01*
X1686Y129D02*
X1689Y129D01*
X1697Y129D02*
X1702Y129D01*
X1710Y129D02*
X1713Y129D01*
X1747Y129D02*
X1753Y129D01*
X1771Y129D02*
X1777Y129D01*
X1795Y129D02*
X1800Y129D01*
X1815Y129D02*
X1820Y129D01*
X1838Y129D02*
X1843Y129D01*
X1858Y129D02*
X1863Y129D01*
X1865Y129D02*
X1879Y129D01*
X1881Y129D02*
X1886Y129D01*
X1599Y128D02*
X1604Y128D01*
X1623Y128D02*
X1628Y128D01*
X1652Y128D02*
X1662Y128D01*
X1697Y128D02*
X1702Y128D01*
X1747Y128D02*
X1753Y128D01*
X1771Y128D02*
X1777Y128D01*
X1795Y128D02*
X1800Y128D01*
X1815Y128D02*
X1820Y128D01*
X1838Y128D02*
X1843Y128D01*
X1858Y128D02*
X1863Y128D01*
X1866Y128D02*
X1878Y128D01*
X1881Y128D02*
X1886Y128D01*
X1599Y127D02*
X1604Y127D01*
X1623Y127D02*
X1628Y127D01*
X1651Y127D02*
X1662Y127D01*
X1697Y127D02*
X1702Y127D01*
X1746Y127D02*
X1752Y127D01*
X1771Y127D02*
X1777Y127D01*
X1795Y127D02*
X1800Y127D01*
X1815Y127D02*
X1820Y127D01*
X1838Y127D02*
X1843Y127D01*
X1858Y127D02*
X1863Y127D01*
X1866Y127D02*
X1878Y127D01*
X1881Y127D02*
X1886Y127D01*
X1599Y126D02*
X1604Y126D01*
X1623Y126D02*
X1628Y126D01*
X1651Y126D02*
X1662Y126D01*
X1697Y126D02*
X1702Y126D01*
X1746Y126D02*
X1752Y126D01*
X1771Y126D02*
X1777Y126D01*
X1795Y126D02*
X1800Y126D01*
X1815Y126D02*
X1820Y126D01*
X1838Y126D02*
X1843Y126D01*
X1858Y126D02*
X1863Y126D01*
X1867Y126D02*
X1877Y126D01*
X1881Y126D02*
X1886Y126D01*
X1599Y125D02*
X1604Y125D01*
X1623Y125D02*
X1628Y125D01*
X1651Y125D02*
X1663Y125D01*
X1697Y125D02*
X1702Y125D01*
X1745Y125D02*
X1751Y125D01*
X1771Y125D02*
X1777Y125D01*
X1795Y125D02*
X1800Y125D01*
X1815Y125D02*
X1820Y125D01*
X1838Y125D02*
X1843Y125D01*
X1858Y125D02*
X1863Y125D01*
X1868Y125D02*
X1876Y125D01*
X1881Y125D02*
X1886Y125D01*
X1599Y124D02*
X1604Y124D01*
X1623Y124D02*
X1628Y124D01*
X1650Y124D02*
X1656Y124D01*
X1658Y124D02*
X1663Y124D01*
X1697Y124D02*
X1702Y124D01*
X1744Y124D02*
X1750Y124D01*
X1771Y124D02*
X1777Y124D01*
X1795Y124D02*
X1800Y124D01*
X1815Y124D02*
X1820Y124D01*
X1838Y124D02*
X1843Y124D01*
X1858Y124D02*
X1863Y124D01*
X1869Y124D02*
X1875Y124D01*
X1881Y124D02*
X1886Y124D01*
X1599Y123D02*
X1604Y123D01*
X1623Y123D02*
X1628Y123D01*
X1650Y123D02*
X1655Y123D01*
X1658Y123D02*
X1663Y123D01*
X1697Y123D02*
X1702Y123D01*
X1744Y123D02*
X1750Y123D01*
X1771Y123D02*
X1777Y123D01*
X1795Y123D02*
X1800Y123D01*
X1815Y123D02*
X1820Y123D01*
X1838Y123D02*
X1843Y123D01*
X1858Y123D02*
X1863Y123D01*
X1869Y123D02*
X1875Y123D01*
X1881Y123D02*
X1886Y123D01*
X1599Y122D02*
X1604Y122D01*
X1622Y122D02*
X1628Y122D01*
X1650Y122D02*
X1655Y122D01*
X1658Y122D02*
X1663Y122D01*
X1697Y122D02*
X1702Y122D01*
X1743Y122D02*
X1749Y122D01*
X1771Y122D02*
X1777Y122D01*
X1795Y122D02*
X1800Y122D01*
X1815Y122D02*
X1820Y122D01*
X1838Y122D02*
X1843Y122D01*
X1858Y122D02*
X1863Y122D01*
X1869Y122D02*
X1875Y122D01*
X1881Y122D02*
X1886Y122D01*
X1599Y121D02*
X1604Y121D01*
X1621Y121D02*
X1627Y121D01*
X1649Y121D02*
X1655Y121D01*
X1658Y121D02*
X1664Y121D01*
X1697Y121D02*
X1702Y121D01*
X1743Y121D02*
X1749Y121D01*
X1771Y121D02*
X1777Y121D01*
X1795Y121D02*
X1800Y121D01*
X1815Y121D02*
X1820Y121D01*
X1838Y121D02*
X1843Y121D01*
X1858Y121D02*
X1863Y121D01*
X1869Y121D02*
X1875Y121D01*
X1881Y121D02*
X1886Y121D01*
X1599Y120D02*
X1604Y120D01*
X1620Y120D02*
X1627Y120D01*
X1649Y120D02*
X1654Y120D01*
X1659Y120D02*
X1664Y120D01*
X1697Y120D02*
X1702Y120D01*
X1742Y120D02*
X1748Y120D01*
X1771Y120D02*
X1777Y120D01*
X1795Y120D02*
X1800Y120D01*
X1815Y120D02*
X1820Y120D01*
X1838Y120D02*
X1843Y120D01*
X1858Y120D02*
X1863Y120D01*
X1870Y120D02*
X1874Y120D01*
X1881Y120D02*
X1886Y120D01*
X1599Y119D02*
X1626Y119D01*
X1649Y119D02*
X1654Y119D01*
X1659Y119D02*
X1664Y119D01*
X1697Y119D02*
X1702Y119D01*
X1741Y119D02*
X1748Y119D01*
X1771Y119D02*
X1777Y119D01*
X1795Y119D02*
X1800Y119D01*
X1815Y119D02*
X1820Y119D01*
X1838Y119D02*
X1843Y119D01*
X1858Y119D02*
X1863Y119D01*
X1870Y119D02*
X1874Y119D01*
X1881Y119D02*
X1886Y119D01*
X1599Y118D02*
X1626Y118D01*
X1649Y118D02*
X1654Y118D01*
X1659Y118D02*
X1665Y118D01*
X1697Y118D02*
X1702Y118D01*
X1741Y118D02*
X1747Y118D01*
X1771Y118D02*
X1777Y118D01*
X1795Y118D02*
X1800Y118D01*
X1815Y118D02*
X1820Y118D01*
X1838Y118D02*
X1843Y118D01*
X1858Y118D02*
X1863Y118D01*
X1881Y118D02*
X1886Y118D01*
X1599Y117D02*
X1625Y117D01*
X1648Y117D02*
X1654Y117D01*
X1660Y117D02*
X1665Y117D01*
X1697Y117D02*
X1702Y117D01*
X1740Y117D02*
X1746Y117D01*
X1771Y117D02*
X1777Y117D01*
X1794Y117D02*
X1800Y117D01*
X1815Y117D02*
X1820Y117D01*
X1837Y117D02*
X1843Y117D01*
X1858Y117D02*
X1863Y117D01*
X1881Y117D02*
X1886Y117D01*
X1599Y116D02*
X1624Y116D01*
X1648Y116D02*
X1653Y116D01*
X1660Y116D02*
X1665Y116D01*
X1697Y116D02*
X1702Y116D01*
X1740Y116D02*
X1746Y116D01*
X1771Y116D02*
X1800Y116D01*
X1815Y116D02*
X1843Y116D01*
X1858Y116D02*
X1863Y116D01*
X1881Y116D02*
X1886Y116D01*
X1599Y115D02*
X1625Y115D01*
X1648Y115D02*
X1653Y115D01*
X1660Y115D02*
X1666Y115D01*
X1697Y115D02*
X1702Y115D01*
X1739Y115D02*
X1745Y115D01*
X1771Y115D02*
X1799Y115D01*
X1815Y115D02*
X1842Y115D01*
X1858Y115D02*
X1863Y115D01*
X1881Y115D02*
X1886Y115D01*
X1599Y114D02*
X1626Y114D01*
X1647Y114D02*
X1653Y114D01*
X1661Y114D02*
X1666Y114D01*
X1697Y114D02*
X1702Y114D01*
X1739Y114D02*
X1745Y114D01*
X1771Y114D02*
X1798Y114D01*
X1815Y114D02*
X1841Y114D01*
X1858Y114D02*
X1863Y114D01*
X1881Y114D02*
X1886Y114D01*
X1599Y113D02*
X1605Y113D01*
X1618Y113D02*
X1626Y113D01*
X1647Y113D02*
X1652Y113D01*
X1661Y113D02*
X1666Y113D01*
X1697Y113D02*
X1702Y113D01*
X1738Y113D02*
X1744Y113D01*
X1771Y113D02*
X1797Y113D01*
X1815Y113D02*
X1840Y113D01*
X1858Y113D02*
X1863Y113D01*
X1881Y113D02*
X1886Y113D01*
X1599Y112D02*
X1604Y112D01*
X1620Y112D02*
X1627Y112D01*
X1647Y112D02*
X1652Y112D01*
X1661Y112D02*
X1666Y112D01*
X1697Y112D02*
X1702Y112D01*
X1737Y112D02*
X1743Y112D01*
X1771Y112D02*
X1796Y112D01*
X1815Y112D02*
X1839Y112D01*
X1858Y112D02*
X1863Y112D01*
X1881Y112D02*
X1886Y112D01*
X1599Y111D02*
X1604Y111D01*
X1621Y111D02*
X1627Y111D01*
X1647Y111D02*
X1652Y111D01*
X1661Y111D02*
X1667Y111D01*
X1697Y111D02*
X1702Y111D01*
X1737Y111D02*
X1743Y111D01*
X1771Y111D02*
X1794Y111D01*
X1815Y111D02*
X1837Y111D01*
X1858Y111D02*
X1863Y111D01*
X1881Y111D02*
X1886Y111D01*
X1599Y110D02*
X1604Y110D01*
X1622Y110D02*
X1628Y110D01*
X1646Y110D02*
X1652Y110D01*
X1662Y110D02*
X1667Y110D01*
X1697Y110D02*
X1702Y110D01*
X1736Y110D02*
X1742Y110D01*
X1771Y110D02*
X1777Y110D01*
X1815Y110D02*
X1820Y110D01*
X1858Y110D02*
X1863Y110D01*
X1881Y110D02*
X1886Y110D01*
X1599Y109D02*
X1604Y109D01*
X1623Y109D02*
X1628Y109D01*
X1646Y109D02*
X1652Y109D01*
X1662Y109D02*
X1667Y109D01*
X1697Y109D02*
X1702Y109D01*
X1736Y109D02*
X1742Y109D01*
X1771Y109D02*
X1777Y109D01*
X1815Y109D02*
X1820Y109D01*
X1858Y109D02*
X1863Y109D01*
X1881Y109D02*
X1886Y109D01*
X1599Y108D02*
X1604Y108D01*
X1623Y108D02*
X1628Y108D01*
X1646Y108D02*
X1668Y108D01*
X1697Y108D02*
X1702Y108D01*
X1735Y108D02*
X1741Y108D01*
X1771Y108D02*
X1777Y108D01*
X1815Y108D02*
X1820Y108D01*
X1858Y108D02*
X1863Y108D01*
X1881Y108D02*
X1886Y108D01*
X1599Y107D02*
X1604Y107D01*
X1623Y107D02*
X1628Y107D01*
X1645Y107D02*
X1668Y107D01*
X1697Y107D02*
X1702Y107D01*
X1734Y107D02*
X1741Y107D01*
X1771Y107D02*
X1777Y107D01*
X1815Y107D02*
X1820Y107D01*
X1858Y107D02*
X1863Y107D01*
X1881Y107D02*
X1886Y107D01*
X1599Y106D02*
X1604Y106D01*
X1623Y106D02*
X1628Y106D01*
X1645Y106D02*
X1668Y106D01*
X1697Y106D02*
X1702Y106D01*
X1734Y106D02*
X1740Y106D01*
X1771Y106D02*
X1777Y106D01*
X1815Y106D02*
X1820Y106D01*
X1858Y106D02*
X1863Y106D01*
X1881Y106D02*
X1886Y106D01*
X1599Y105D02*
X1604Y105D01*
X1623Y105D02*
X1628Y105D01*
X1645Y105D02*
X1668Y105D01*
X1697Y105D02*
X1702Y105D01*
X1733Y105D02*
X1739Y105D01*
X1771Y105D02*
X1777Y105D01*
X1815Y105D02*
X1820Y105D01*
X1858Y105D02*
X1863Y105D01*
X1881Y105D02*
X1886Y105D01*
X1599Y104D02*
X1604Y104D01*
X1623Y104D02*
X1628Y104D01*
X1645Y104D02*
X1669Y104D01*
X1697Y104D02*
X1702Y104D01*
X1733Y104D02*
X1739Y104D01*
X1771Y104D02*
X1777Y104D01*
X1815Y104D02*
X1820Y104D01*
X1858Y104D02*
X1863Y104D01*
X1881Y104D02*
X1886Y104D01*
X1599Y103D02*
X1604Y103D01*
X1623Y103D02*
X1628Y103D01*
X1644Y103D02*
X1669Y103D01*
X1697Y103D02*
X1702Y103D01*
X1732Y103D02*
X1738Y103D01*
X1771Y103D02*
X1777Y103D01*
X1815Y103D02*
X1820Y103D01*
X1858Y103D02*
X1863Y103D01*
X1881Y103D02*
X1886Y103D01*
X1599Y102D02*
X1604Y102D01*
X1622Y102D02*
X1628Y102D01*
X1644Y102D02*
X1649Y102D01*
X1664Y102D02*
X1669Y102D01*
X1697Y102D02*
X1702Y102D01*
X1732Y102D02*
X1738Y102D01*
X1771Y102D02*
X1777Y102D01*
X1815Y102D02*
X1820Y102D01*
X1858Y102D02*
X1863Y102D01*
X1881Y102D02*
X1886Y102D01*
X1599Y101D02*
X1604Y101D01*
X1622Y101D02*
X1627Y101D01*
X1644Y101D02*
X1649Y101D01*
X1664Y101D02*
X1670Y101D01*
X1697Y101D02*
X1702Y101D01*
X1731Y101D02*
X1737Y101D01*
X1771Y101D02*
X1777Y101D01*
X1815Y101D02*
X1820Y101D01*
X1858Y101D02*
X1863Y101D01*
X1881Y101D02*
X1886Y101D01*
X1599Y100D02*
X1604Y100D01*
X1620Y100D02*
X1627Y100D01*
X1643Y100D02*
X1649Y100D01*
X1665Y100D02*
X1670Y100D01*
X1697Y100D02*
X1702Y100D01*
X1730Y100D02*
X1736Y100D01*
X1771Y100D02*
X1777Y100D01*
X1815Y100D02*
X1820Y100D01*
X1858Y100D02*
X1863Y100D01*
X1881Y100D02*
X1886Y100D01*
X1599Y99D02*
X1604Y99D01*
X1619Y99D02*
X1626Y99D01*
X1643Y99D02*
X1648Y99D01*
X1665Y99D02*
X1670Y99D01*
X1697Y99D02*
X1702Y99D01*
X1730Y99D02*
X1736Y99D01*
X1771Y99D02*
X1777Y99D01*
X1815Y99D02*
X1820Y99D01*
X1858Y99D02*
X1863Y99D01*
X1881Y99D02*
X1886Y99D01*
X1599Y98D02*
X1626Y98D01*
X1643Y98D02*
X1648Y98D01*
X1665Y98D02*
X1670Y98D01*
X1697Y98D02*
X1702Y98D01*
X1729Y98D02*
X1735Y98D01*
X1771Y98D02*
X1777Y98D01*
X1815Y98D02*
X1820Y98D01*
X1858Y98D02*
X1863Y98D01*
X1881Y98D02*
X1886Y98D01*
X1599Y97D02*
X1625Y97D01*
X1642Y97D02*
X1648Y97D01*
X1666Y97D02*
X1671Y97D01*
X1697Y97D02*
X1702Y97D01*
X1729Y97D02*
X1735Y97D01*
X1771Y97D02*
X1777Y97D01*
X1815Y97D02*
X1820Y97D01*
X1858Y97D02*
X1863Y97D01*
X1881Y97D02*
X1886Y97D01*
X1599Y96D02*
X1624Y96D01*
X1642Y96D02*
X1647Y96D01*
X1666Y96D02*
X1671Y96D01*
X1697Y96D02*
X1702Y96D01*
X1728Y96D02*
X1734Y96D01*
X1771Y96D02*
X1777Y96D01*
X1815Y96D02*
X1820Y96D01*
X1858Y96D02*
X1863Y96D01*
X1881Y96D02*
X1886Y96D01*
X1599Y95D02*
X1623Y95D01*
X1642Y95D02*
X1647Y95D01*
X1666Y95D02*
X1671Y95D01*
X1697Y95D02*
X1702Y95D01*
X1729Y95D02*
X1733Y95D01*
X1772Y95D02*
X1776Y95D01*
X1815Y95D02*
X1819Y95D01*
X1858Y95D02*
X1863Y95D01*
X1881Y95D02*
X1886Y95D01*
X1599Y94D02*
X1621Y94D01*
X1643Y94D02*
X1647Y94D01*
X1667Y94D02*
X1671Y94D01*
X1698Y94D02*
X1702Y94D01*
X1729Y94D02*
X1733Y94D01*
X1772Y94D02*
X1776Y94D01*
X1815Y94D02*
X1819Y94D01*
X1858Y94D02*
X1862Y94D01*
X1882Y94D02*
X1886Y94D01*
X1599Y93D02*
X1619Y93D01*
X1644Y93D02*
X1645Y93D01*
X1668Y93D02*
X1669Y93D01*
X1699Y93D02*
X1700Y93D01*
X1730Y93D02*
X1732Y93D01*
X1773Y93D02*
X1775Y93D01*
X1816Y93D02*
X1818Y93D01*
X1859Y93D02*
X1861Y93D01*
X1883Y93D02*
X1885Y93D01*
D02*
G04 End of Silk1*
M02*