G04 MADE WITH FRITZING*
G04 WWW.FRITZING.ORG*
G04 DOUBLE SIDED*
G04 HOLES PLATED*
G04 CONTOUR ON CENTER OF CONTOUR VECTOR*
%ASAXBY*%
%FSLAX23Y23*%
%MOIN*%
%OFA0B0*%
%SFA1.0B1.0*%
%ADD10C,0.085833*%
%ADD11C,0.069000*%
%ADD12C,0.088000*%
%ADD13R,0.069000X0.069000*%
%ADD14R,0.088000X0.088000*%
%LNMASK0*%
G90*
G70*
G54D10*
X2049Y2140D03*
X2049Y2040D03*
X2049Y1933D03*
X2049Y1833D03*
X2049Y1733D03*
X2049Y1633D03*
X2049Y1533D03*
X2049Y1433D03*
X2049Y1333D03*
X2049Y1233D03*
X2049Y1063D03*
X2049Y963D03*
X2049Y863D03*
X2049Y763D03*
X2049Y663D03*
X2049Y563D03*
X2049Y463D03*
X2049Y363D03*
X149Y1763D03*
X149Y1663D03*
X149Y1563D03*
X149Y1463D03*
X149Y1363D03*
X149Y1263D03*
X149Y1163D03*
X149Y1063D03*
X149Y863D03*
X149Y763D03*
X149Y663D03*
X149Y563D03*
X149Y463D03*
X149Y363D03*
G54D11*
X1249Y563D03*
X1149Y563D03*
X1049Y563D03*
X1249Y763D03*
X1149Y763D03*
X1049Y763D03*
X1249Y963D03*
X1149Y963D03*
X1049Y963D03*
X1249Y1163D03*
X1149Y1163D03*
X1049Y1163D03*
X1249Y1363D03*
X1149Y1363D03*
X1049Y1363D03*
X1249Y1563D03*
X1149Y1563D03*
X1049Y1563D03*
X1249Y263D03*
X1149Y263D03*
X1049Y263D03*
X1249Y1763D03*
X1149Y1763D03*
X1049Y1763D03*
X1249Y1963D03*
X1149Y1963D03*
X1049Y1963D03*
G54D12*
X1749Y463D03*
X1749Y363D03*
X1749Y263D03*
G54D13*
X1249Y563D03*
X1249Y763D03*
X1249Y963D03*
X1249Y1163D03*
X1249Y1363D03*
X1249Y1563D03*
X1249Y263D03*
X1249Y1763D03*
X1249Y1963D03*
G54D14*
X1749Y463D03*
G04 End of Mask0*
M02*