G04 MADE WITH FRITZING*
G04 WWW.FRITZING.ORG*
G04 DOUBLE SIDED*
G04 HOLES PLATED*
G04 CONTOUR ON CENTER OF CONTOUR VECTOR*
%ASAXBY*%
%FSLAX23Y23*%
%MOIN*%
%OFA0B0*%
%SFA1.0B1.0*%
%ADD10C,0.075000*%
%ADD11C,0.075833*%
%ADD12C,0.059000*%
%ADD13C,0.078000*%
%ADD14R,0.059000X0.059000*%
%ADD15R,0.078000X0.078000*%
%ADD16C,0.024000*%
%LNCOPPER0*%
G90*
G70*
G54D10*
X2182Y2187D03*
X1596Y1845D03*
X1361Y1466D03*
X1364Y1266D03*
X1366Y1066D03*
X1374Y866D03*
X1341Y666D03*
X1271Y453D03*
X1875Y453D03*
G54D11*
X2049Y2140D03*
X2049Y2040D03*
X2049Y1933D03*
X2049Y1833D03*
X2049Y1733D03*
X2049Y1633D03*
X2049Y1533D03*
X2049Y1433D03*
X2049Y1333D03*
X2049Y1233D03*
X2049Y1063D03*
X2049Y963D03*
X2049Y863D03*
X2049Y763D03*
X2049Y663D03*
X2049Y563D03*
X2049Y463D03*
X2049Y363D03*
X149Y1763D03*
X149Y1663D03*
X149Y1563D03*
X149Y1463D03*
X149Y1363D03*
X149Y1263D03*
X149Y1163D03*
X149Y1063D03*
X149Y863D03*
X149Y763D03*
X149Y663D03*
X149Y563D03*
X149Y463D03*
X149Y363D03*
G54D12*
X1249Y563D03*
X1149Y563D03*
X1049Y563D03*
X1249Y763D03*
X1149Y763D03*
X1049Y763D03*
X1249Y963D03*
X1149Y963D03*
X1049Y963D03*
X1249Y1163D03*
X1149Y1163D03*
X1049Y1163D03*
X1249Y1363D03*
X1149Y1363D03*
X1049Y1363D03*
X1249Y1563D03*
X1149Y1563D03*
X1049Y1563D03*
X1249Y263D03*
X1149Y263D03*
X1049Y263D03*
X1249Y1763D03*
X1149Y1763D03*
X1049Y1763D03*
X1249Y1963D03*
X1149Y1963D03*
X1049Y1963D03*
G54D13*
X1749Y463D03*
X1749Y363D03*
X1749Y263D03*
G54D14*
X1249Y563D03*
X1249Y763D03*
X1249Y963D03*
X1249Y1163D03*
X1249Y1363D03*
X1249Y1563D03*
X1249Y263D03*
X1249Y1763D03*
X1249Y1963D03*
G54D15*
X1749Y463D03*
G54D16*
X1549Y1563D02*
X2029Y1083D01*
D02*
X1279Y1563D02*
X1549Y1563D01*
D02*
X1849Y1563D02*
X2031Y1354D01*
D02*
X1849Y1963D02*
X1849Y1563D01*
D02*
X1279Y1963D02*
X1849Y1963D01*
D02*
X1649Y1363D02*
X1279Y1363D01*
D02*
X2029Y983D02*
X1649Y1363D01*
D02*
X1749Y1163D02*
X2029Y883D01*
D02*
X1279Y1163D02*
X1749Y1163D01*
D02*
X1849Y963D02*
X2029Y783D01*
D02*
X1279Y963D02*
X1849Y963D01*
D02*
X1949Y763D02*
X1279Y763D01*
D02*
X2029Y683D02*
X1949Y763D01*
D02*
X1279Y563D02*
X2021Y563D01*
D02*
X1049Y1792D02*
X1049Y1933D01*
D02*
X1049Y1733D02*
X1049Y1592D01*
D02*
X1049Y1533D02*
X1049Y1392D01*
D02*
X1049Y1333D02*
X1049Y1192D01*
D02*
X1049Y1133D02*
X1049Y992D01*
D02*
X1049Y933D02*
X1049Y792D01*
D02*
X1049Y733D02*
X1049Y592D01*
D02*
X1149Y733D02*
X1149Y592D01*
D02*
X1149Y933D02*
X1149Y792D01*
D02*
X1149Y1133D02*
X1149Y992D01*
D02*
X1149Y1333D02*
X1149Y1192D01*
D02*
X1149Y1533D02*
X1149Y1392D01*
D02*
X1149Y1733D02*
X1149Y1592D01*
D02*
X1149Y1792D02*
X1149Y1933D01*
D02*
X1649Y363D02*
X1719Y363D01*
D02*
X1649Y263D02*
X1649Y363D01*
D02*
X1279Y263D02*
X1649Y263D01*
D02*
X1549Y1763D02*
X2030Y1253D01*
D02*
X1279Y1763D02*
X1549Y1763D01*
D02*
X2149Y1163D02*
X2149Y263D01*
D02*
X2149Y263D02*
X1779Y263D01*
D02*
X2072Y1217D02*
X2149Y1163D01*
D02*
X1149Y292D02*
X1149Y533D01*
D02*
X1049Y533D02*
X1049Y292D01*
D02*
X1019Y1163D02*
X177Y1163D01*
D02*
X249Y2064D02*
X249Y1363D01*
D02*
X1147Y2064D02*
X249Y2064D01*
D02*
X1149Y1992D02*
X1147Y2064D01*
D02*
X249Y1363D02*
X177Y1363D01*
G36*
X44Y2269D02*
X44Y2209D01*
X2066Y2209D01*
X2066Y2207D01*
X2072Y2207D01*
X2072Y2205D01*
X2078Y2205D01*
X2078Y2203D01*
X2082Y2203D01*
X2082Y2201D01*
X2084Y2201D01*
X2084Y2199D01*
X2088Y2199D01*
X2088Y2197D01*
X2090Y2197D01*
X2090Y2195D01*
X2094Y2195D01*
X2094Y2193D01*
X2096Y2193D01*
X2096Y2191D01*
X2098Y2191D01*
X2098Y2189D01*
X2100Y2189D01*
X2100Y2187D01*
X2102Y2187D01*
X2102Y2185D01*
X2104Y2185D01*
X2104Y2181D01*
X2106Y2181D01*
X2106Y2179D01*
X2108Y2179D01*
X2108Y2177D01*
X2110Y2177D01*
X2110Y2173D01*
X2112Y2173D01*
X2112Y2169D01*
X2114Y2169D01*
X2114Y2165D01*
X2116Y2165D01*
X2116Y2159D01*
X2118Y2159D01*
X2118Y2119D01*
X2116Y2119D01*
X2116Y2113D01*
X2114Y2113D01*
X2114Y2109D01*
X2112Y2109D01*
X2112Y2105D01*
X2110Y2105D01*
X2110Y2103D01*
X2108Y2103D01*
X2108Y2099D01*
X2106Y2099D01*
X2106Y2079D01*
X2108Y2079D01*
X2108Y2077D01*
X2110Y2077D01*
X2110Y2073D01*
X2112Y2073D01*
X2112Y2069D01*
X2114Y2069D01*
X2114Y2065D01*
X2116Y2065D01*
X2116Y2059D01*
X2118Y2059D01*
X2118Y2019D01*
X2116Y2019D01*
X2116Y2013D01*
X2114Y2013D01*
X2114Y2009D01*
X2112Y2009D01*
X2112Y2005D01*
X2110Y2005D01*
X2110Y2003D01*
X2108Y2003D01*
X2108Y1999D01*
X2106Y1999D01*
X2106Y1997D01*
X2104Y1997D01*
X2104Y1975D01*
X2106Y1975D01*
X2106Y1973D01*
X2108Y1973D01*
X2108Y1969D01*
X2110Y1969D01*
X2110Y1967D01*
X2112Y1967D01*
X2112Y1963D01*
X2114Y1963D01*
X2114Y1957D01*
X2116Y1957D01*
X2116Y1953D01*
X2118Y1953D01*
X2118Y1913D01*
X2116Y1913D01*
X2116Y1907D01*
X2114Y1907D01*
X2114Y1903D01*
X2112Y1903D01*
X2112Y1899D01*
X2110Y1899D01*
X2110Y1895D01*
X2108Y1895D01*
X2108Y1893D01*
X2106Y1893D01*
X2106Y1873D01*
X2108Y1873D01*
X2108Y1869D01*
X2110Y1869D01*
X2110Y1867D01*
X2112Y1867D01*
X2112Y1863D01*
X2114Y1863D01*
X2114Y1857D01*
X2116Y1857D01*
X2116Y1853D01*
X2118Y1853D01*
X2118Y1813D01*
X2116Y1813D01*
X2116Y1807D01*
X2114Y1807D01*
X2114Y1803D01*
X2112Y1803D01*
X2112Y1799D01*
X2110Y1799D01*
X2110Y1795D01*
X2108Y1795D01*
X2108Y1793D01*
X2106Y1793D01*
X2106Y1773D01*
X2108Y1773D01*
X2108Y1769D01*
X2110Y1769D01*
X2110Y1767D01*
X2112Y1767D01*
X2112Y1763D01*
X2114Y1763D01*
X2114Y1757D01*
X2116Y1757D01*
X2116Y1753D01*
X2118Y1753D01*
X2118Y1713D01*
X2116Y1713D01*
X2116Y1707D01*
X2114Y1707D01*
X2114Y1703D01*
X2112Y1703D01*
X2112Y1699D01*
X2110Y1699D01*
X2110Y1695D01*
X2108Y1695D01*
X2108Y1693D01*
X2106Y1693D01*
X2106Y1673D01*
X2108Y1673D01*
X2108Y1669D01*
X2110Y1669D01*
X2110Y1665D01*
X2112Y1665D01*
X2112Y1663D01*
X2114Y1663D01*
X2114Y1657D01*
X2116Y1657D01*
X2116Y1653D01*
X2118Y1653D01*
X2118Y1613D01*
X2116Y1613D01*
X2116Y1607D01*
X2114Y1607D01*
X2114Y1603D01*
X2112Y1603D01*
X2112Y1599D01*
X2110Y1599D01*
X2110Y1595D01*
X2108Y1595D01*
X2108Y1593D01*
X2106Y1593D01*
X2106Y1573D01*
X2108Y1573D01*
X2108Y1569D01*
X2110Y1569D01*
X2110Y1565D01*
X2112Y1565D01*
X2112Y1563D01*
X2114Y1563D01*
X2114Y1557D01*
X2116Y1557D01*
X2116Y1553D01*
X2118Y1553D01*
X2118Y1513D01*
X2116Y1513D01*
X2116Y1507D01*
X2114Y1507D01*
X2114Y1503D01*
X2112Y1503D01*
X2112Y1499D01*
X2110Y1499D01*
X2110Y1495D01*
X2108Y1495D01*
X2108Y1493D01*
X2106Y1493D01*
X2106Y1473D01*
X2108Y1473D01*
X2108Y1469D01*
X2110Y1469D01*
X2110Y1467D01*
X2112Y1467D01*
X2112Y1463D01*
X2114Y1463D01*
X2114Y1457D01*
X2116Y1457D01*
X2116Y1453D01*
X2118Y1453D01*
X2118Y1413D01*
X2116Y1413D01*
X2116Y1407D01*
X2114Y1407D01*
X2114Y1403D01*
X2112Y1403D01*
X2112Y1399D01*
X2110Y1399D01*
X2110Y1395D01*
X2108Y1395D01*
X2108Y1393D01*
X2106Y1393D01*
X2106Y1373D01*
X2108Y1373D01*
X2108Y1369D01*
X2110Y1369D01*
X2110Y1367D01*
X2112Y1367D01*
X2112Y1363D01*
X2114Y1363D01*
X2114Y1357D01*
X2116Y1357D01*
X2116Y1353D01*
X2118Y1353D01*
X2118Y1313D01*
X2116Y1313D01*
X2116Y1307D01*
X2114Y1307D01*
X2114Y1303D01*
X2112Y1303D01*
X2112Y1299D01*
X2110Y1299D01*
X2110Y1295D01*
X2108Y1295D01*
X2108Y1293D01*
X2106Y1293D01*
X2106Y1273D01*
X2108Y1273D01*
X2108Y1269D01*
X2110Y1269D01*
X2110Y1267D01*
X2112Y1267D01*
X2112Y1263D01*
X2114Y1263D01*
X2114Y1257D01*
X2116Y1257D01*
X2116Y1253D01*
X2118Y1253D01*
X2118Y1241D01*
X2120Y1241D01*
X2120Y1239D01*
X2122Y1239D01*
X2122Y1237D01*
X2126Y1237D01*
X2126Y1235D01*
X2128Y1235D01*
X2128Y1233D01*
X2130Y1233D01*
X2130Y1231D01*
X2134Y1231D01*
X2134Y1229D01*
X2136Y1229D01*
X2136Y1227D01*
X2140Y1227D01*
X2140Y1225D01*
X2142Y1225D01*
X2142Y1223D01*
X2146Y1223D01*
X2146Y1221D01*
X2148Y1221D01*
X2148Y1219D01*
X2150Y1219D01*
X2150Y1217D01*
X2154Y1217D01*
X2154Y1215D01*
X2156Y1215D01*
X2156Y1213D01*
X2160Y1213D01*
X2160Y1211D01*
X2162Y1211D01*
X2162Y1209D01*
X2166Y1209D01*
X2166Y1207D01*
X2168Y1207D01*
X2168Y1205D01*
X2170Y1205D01*
X2170Y1203D01*
X2174Y1203D01*
X2174Y1201D01*
X2176Y1201D01*
X2176Y1199D01*
X2180Y1199D01*
X2180Y1197D01*
X2182Y1197D01*
X2182Y1195D01*
X2184Y1195D01*
X2184Y1193D01*
X2186Y1193D01*
X2186Y1189D01*
X2188Y1189D01*
X2188Y1187D01*
X2190Y1187D01*
X2190Y1181D01*
X2192Y1181D01*
X2192Y1169D01*
X2194Y1169D01*
X2194Y255D01*
X2192Y255D01*
X2192Y243D01*
X2190Y243D01*
X2190Y239D01*
X2188Y239D01*
X2188Y235D01*
X2186Y235D01*
X2186Y233D01*
X2184Y233D01*
X2184Y229D01*
X2180Y229D01*
X2180Y227D01*
X2178Y227D01*
X2178Y225D01*
X2176Y225D01*
X2176Y223D01*
X2172Y223D01*
X2172Y221D01*
X2168Y221D01*
X2168Y219D01*
X1806Y219D01*
X1806Y217D01*
X1804Y217D01*
X1804Y215D01*
X1802Y215D01*
X1802Y213D01*
X1800Y213D01*
X1800Y211D01*
X1798Y211D01*
X1798Y209D01*
X1796Y209D01*
X1796Y207D01*
X1792Y207D01*
X1792Y205D01*
X1790Y205D01*
X1790Y203D01*
X1788Y203D01*
X1788Y201D01*
X1784Y201D01*
X1784Y199D01*
X1780Y199D01*
X1780Y197D01*
X1776Y197D01*
X1776Y195D01*
X1772Y195D01*
X1772Y193D01*
X1764Y193D01*
X1764Y191D01*
X2264Y191D01*
X2264Y2269D01*
X44Y2269D01*
G37*
D02*
G36*
X44Y2209D02*
X44Y2109D01*
X1156Y2109D01*
X1156Y2107D01*
X1166Y2107D01*
X1166Y2105D01*
X1172Y2105D01*
X1172Y2103D01*
X1174Y2103D01*
X1174Y2101D01*
X1178Y2101D01*
X1178Y2099D01*
X1180Y2099D01*
X1180Y2097D01*
X1182Y2097D01*
X1182Y2095D01*
X1184Y2095D01*
X1184Y2091D01*
X1186Y2091D01*
X1186Y2089D01*
X1188Y2089D01*
X1188Y2083D01*
X1190Y2083D01*
X1190Y2075D01*
X1192Y2075D01*
X1192Y2023D01*
X1310Y2023D01*
X1310Y2007D01*
X1860Y2007D01*
X1860Y2005D01*
X1868Y2005D01*
X1868Y2003D01*
X1874Y2003D01*
X1874Y2001D01*
X1876Y2001D01*
X1876Y1999D01*
X1880Y1999D01*
X1880Y1997D01*
X1882Y1997D01*
X1882Y1995D01*
X1884Y1995D01*
X1884Y1993D01*
X1886Y1993D01*
X1886Y1989D01*
X1888Y1989D01*
X1888Y1985D01*
X1890Y1985D01*
X1890Y1981D01*
X1892Y1981D01*
X1892Y1969D01*
X1894Y1969D01*
X1894Y1581D01*
X1896Y1581D01*
X1896Y1579D01*
X1898Y1579D01*
X1898Y1577D01*
X1900Y1577D01*
X1900Y1573D01*
X1902Y1573D01*
X1902Y1571D01*
X1904Y1571D01*
X1904Y1569D01*
X1906Y1569D01*
X1906Y1567D01*
X1908Y1567D01*
X1908Y1565D01*
X1910Y1565D01*
X1910Y1563D01*
X1912Y1563D01*
X1912Y1561D01*
X1914Y1561D01*
X1914Y1557D01*
X1916Y1557D01*
X1916Y1555D01*
X1918Y1555D01*
X1918Y1553D01*
X1920Y1553D01*
X1920Y1551D01*
X1922Y1551D01*
X1922Y1549D01*
X1924Y1549D01*
X1924Y1547D01*
X1926Y1547D01*
X1926Y1545D01*
X1928Y1545D01*
X1928Y1541D01*
X1930Y1541D01*
X1930Y1539D01*
X1932Y1539D01*
X1932Y1537D01*
X1934Y1537D01*
X1934Y1535D01*
X1936Y1535D01*
X1936Y1533D01*
X1938Y1533D01*
X1938Y1531D01*
X1940Y1531D01*
X1940Y1527D01*
X1942Y1527D01*
X1942Y1525D01*
X1944Y1525D01*
X1944Y1523D01*
X1946Y1523D01*
X1946Y1521D01*
X1948Y1521D01*
X1948Y1519D01*
X1950Y1519D01*
X1950Y1517D01*
X1952Y1517D01*
X1952Y1515D01*
X1954Y1515D01*
X1954Y1511D01*
X1956Y1511D01*
X1956Y1509D01*
X1958Y1509D01*
X1958Y1507D01*
X1960Y1507D01*
X1960Y1505D01*
X1962Y1505D01*
X1962Y1503D01*
X1964Y1503D01*
X1964Y1501D01*
X1966Y1501D01*
X1966Y1499D01*
X1968Y1499D01*
X1968Y1495D01*
X1970Y1495D01*
X1970Y1493D01*
X1972Y1493D01*
X1972Y1491D01*
X1992Y1491D01*
X1992Y1493D01*
X1990Y1493D01*
X1990Y1495D01*
X1988Y1495D01*
X1988Y1499D01*
X1986Y1499D01*
X1986Y1503D01*
X1984Y1503D01*
X1984Y1507D01*
X1982Y1507D01*
X1982Y1513D01*
X1980Y1513D01*
X1980Y1553D01*
X1982Y1553D01*
X1982Y1557D01*
X1984Y1557D01*
X1984Y1563D01*
X1986Y1563D01*
X1986Y1565D01*
X1988Y1565D01*
X1988Y1569D01*
X1990Y1569D01*
X1990Y1573D01*
X1992Y1573D01*
X1992Y1593D01*
X1990Y1593D01*
X1990Y1595D01*
X1988Y1595D01*
X1988Y1599D01*
X1986Y1599D01*
X1986Y1603D01*
X1984Y1603D01*
X1984Y1607D01*
X1982Y1607D01*
X1982Y1613D01*
X1980Y1613D01*
X1980Y1653D01*
X1982Y1653D01*
X1982Y1657D01*
X1984Y1657D01*
X1984Y1663D01*
X1986Y1663D01*
X1986Y1665D01*
X1988Y1665D01*
X1988Y1669D01*
X1990Y1669D01*
X1990Y1673D01*
X1992Y1673D01*
X1992Y1693D01*
X1990Y1693D01*
X1990Y1695D01*
X1988Y1695D01*
X1988Y1699D01*
X1986Y1699D01*
X1986Y1703D01*
X1984Y1703D01*
X1984Y1707D01*
X1982Y1707D01*
X1982Y1713D01*
X1980Y1713D01*
X1980Y1753D01*
X1982Y1753D01*
X1982Y1757D01*
X1984Y1757D01*
X1984Y1763D01*
X1986Y1763D01*
X1986Y1765D01*
X1988Y1765D01*
X1988Y1769D01*
X1990Y1769D01*
X1990Y1773D01*
X1992Y1773D01*
X1992Y1793D01*
X1990Y1793D01*
X1990Y1795D01*
X1988Y1795D01*
X1988Y1799D01*
X1986Y1799D01*
X1986Y1803D01*
X1984Y1803D01*
X1984Y1807D01*
X1982Y1807D01*
X1982Y1813D01*
X1980Y1813D01*
X1980Y1853D01*
X1982Y1853D01*
X1982Y1857D01*
X1984Y1857D01*
X1984Y1863D01*
X1986Y1863D01*
X1986Y1865D01*
X1988Y1865D01*
X1988Y1869D01*
X1990Y1869D01*
X1990Y1873D01*
X1992Y1873D01*
X1992Y1893D01*
X1990Y1893D01*
X1990Y1895D01*
X1988Y1895D01*
X1988Y1899D01*
X1986Y1899D01*
X1986Y1903D01*
X1984Y1903D01*
X1984Y1907D01*
X1982Y1907D01*
X1982Y1913D01*
X1980Y1913D01*
X1980Y1953D01*
X1982Y1953D01*
X1982Y1957D01*
X1984Y1957D01*
X1984Y1963D01*
X1986Y1963D01*
X1986Y1965D01*
X1988Y1965D01*
X1988Y1969D01*
X1990Y1969D01*
X1990Y1973D01*
X1992Y1973D01*
X1992Y1975D01*
X1994Y1975D01*
X1994Y1997D01*
X1992Y1997D01*
X1992Y1999D01*
X1990Y1999D01*
X1990Y2003D01*
X1988Y2003D01*
X1988Y2005D01*
X1986Y2005D01*
X1986Y2009D01*
X1984Y2009D01*
X1984Y2013D01*
X1982Y2013D01*
X1982Y2019D01*
X1980Y2019D01*
X1980Y2059D01*
X1982Y2059D01*
X1982Y2065D01*
X1984Y2065D01*
X1984Y2069D01*
X1986Y2069D01*
X1986Y2073D01*
X1988Y2073D01*
X1988Y2077D01*
X1990Y2077D01*
X1990Y2079D01*
X1992Y2079D01*
X1992Y2099D01*
X1990Y2099D01*
X1990Y2103D01*
X1988Y2103D01*
X1988Y2105D01*
X1986Y2105D01*
X1986Y2109D01*
X1984Y2109D01*
X1984Y2113D01*
X1982Y2113D01*
X1982Y2119D01*
X1980Y2119D01*
X1980Y2159D01*
X1982Y2159D01*
X1982Y2165D01*
X1984Y2165D01*
X1984Y2169D01*
X1986Y2169D01*
X1986Y2173D01*
X1988Y2173D01*
X1988Y2177D01*
X1990Y2177D01*
X1990Y2179D01*
X1992Y2179D01*
X1992Y2181D01*
X1994Y2181D01*
X1994Y2185D01*
X1996Y2185D01*
X1996Y2187D01*
X1998Y2187D01*
X1998Y2189D01*
X2000Y2189D01*
X2000Y2191D01*
X2002Y2191D01*
X2002Y2193D01*
X2004Y2193D01*
X2004Y2195D01*
X2008Y2195D01*
X2008Y2197D01*
X2010Y2197D01*
X2010Y2199D01*
X2014Y2199D01*
X2014Y2201D01*
X2016Y2201D01*
X2016Y2203D01*
X2020Y2203D01*
X2020Y2205D01*
X2026Y2205D01*
X2026Y2207D01*
X2032Y2207D01*
X2032Y2209D01*
X44Y2209D01*
G37*
D02*
G36*
X44Y2109D02*
X44Y1833D01*
X160Y1833D01*
X160Y1831D01*
X170Y1831D01*
X170Y1829D01*
X176Y1829D01*
X176Y1827D01*
X180Y1827D01*
X180Y1825D01*
X184Y1825D01*
X184Y1823D01*
X186Y1823D01*
X186Y1821D01*
X206Y1821D01*
X206Y2083D01*
X208Y2083D01*
X208Y2087D01*
X210Y2087D01*
X210Y2091D01*
X212Y2091D01*
X212Y2093D01*
X214Y2093D01*
X214Y2097D01*
X216Y2097D01*
X216Y2099D01*
X220Y2099D01*
X220Y2101D01*
X222Y2101D01*
X222Y2103D01*
X226Y2103D01*
X226Y2105D01*
X230Y2105D01*
X230Y2107D01*
X242Y2107D01*
X242Y2109D01*
X44Y2109D01*
G37*
D02*
G36*
X294Y2019D02*
X294Y1901D01*
X1032Y1901D01*
X1032Y1903D01*
X1026Y1903D01*
X1026Y1905D01*
X1022Y1905D01*
X1022Y1907D01*
X1018Y1907D01*
X1018Y1909D01*
X1016Y1909D01*
X1016Y1911D01*
X1012Y1911D01*
X1012Y1913D01*
X1010Y1913D01*
X1010Y1915D01*
X1008Y1915D01*
X1008Y1917D01*
X1006Y1917D01*
X1006Y1919D01*
X1004Y1919D01*
X1004Y1921D01*
X1002Y1921D01*
X1002Y1923D01*
X1000Y1923D01*
X1000Y1925D01*
X998Y1925D01*
X998Y1927D01*
X996Y1927D01*
X996Y1931D01*
X994Y1931D01*
X994Y1935D01*
X992Y1935D01*
X992Y1939D01*
X990Y1939D01*
X990Y1945D01*
X988Y1945D01*
X988Y1979D01*
X990Y1979D01*
X990Y1985D01*
X992Y1985D01*
X992Y1989D01*
X994Y1989D01*
X994Y1993D01*
X996Y1993D01*
X996Y1997D01*
X998Y1997D01*
X998Y1999D01*
X1000Y1999D01*
X1000Y2019D01*
X294Y2019D01*
G37*
D02*
G36*
X1082Y1911D02*
X1082Y1909D01*
X1080Y1909D01*
X1080Y1907D01*
X1076Y1907D01*
X1076Y1905D01*
X1072Y1905D01*
X1072Y1903D01*
X1066Y1903D01*
X1066Y1901D01*
X1104Y1901D01*
X1104Y1911D01*
X1082Y1911D01*
G37*
D02*
G36*
X294Y1901D02*
X294Y1899D01*
X1104Y1899D01*
X1104Y1901D01*
X294Y1901D01*
G37*
D02*
G36*
X294Y1901D02*
X294Y1899D01*
X1104Y1899D01*
X1104Y1901D01*
X294Y1901D01*
G37*
D02*
G36*
X294Y1899D02*
X294Y1823D01*
X1068Y1823D01*
X1068Y1821D01*
X1072Y1821D01*
X1072Y1819D01*
X1078Y1819D01*
X1078Y1817D01*
X1080Y1817D01*
X1080Y1815D01*
X1084Y1815D01*
X1084Y1813D01*
X1104Y1813D01*
X1104Y1899D01*
X294Y1899D01*
G37*
D02*
G36*
X44Y1833D02*
X44Y993D01*
X130Y993D01*
X130Y995D01*
X124Y995D01*
X124Y997D01*
X120Y997D01*
X120Y999D01*
X116Y999D01*
X116Y1001D01*
X112Y1001D01*
X112Y1003D01*
X110Y1003D01*
X110Y1005D01*
X106Y1005D01*
X106Y1007D01*
X104Y1007D01*
X104Y1009D01*
X102Y1009D01*
X102Y1011D01*
X100Y1011D01*
X100Y1013D01*
X98Y1013D01*
X98Y1015D01*
X96Y1015D01*
X96Y1017D01*
X94Y1017D01*
X94Y1019D01*
X92Y1019D01*
X92Y1023D01*
X90Y1023D01*
X90Y1025D01*
X88Y1025D01*
X88Y1029D01*
X86Y1029D01*
X86Y1033D01*
X84Y1033D01*
X84Y1037D01*
X82Y1037D01*
X82Y1043D01*
X80Y1043D01*
X80Y1083D01*
X82Y1083D01*
X82Y1087D01*
X84Y1087D01*
X84Y1093D01*
X86Y1093D01*
X86Y1095D01*
X88Y1095D01*
X88Y1099D01*
X90Y1099D01*
X90Y1103D01*
X92Y1103D01*
X92Y1123D01*
X90Y1123D01*
X90Y1125D01*
X88Y1125D01*
X88Y1129D01*
X86Y1129D01*
X86Y1133D01*
X84Y1133D01*
X84Y1137D01*
X82Y1137D01*
X82Y1143D01*
X80Y1143D01*
X80Y1183D01*
X82Y1183D01*
X82Y1187D01*
X84Y1187D01*
X84Y1193D01*
X86Y1193D01*
X86Y1195D01*
X88Y1195D01*
X88Y1199D01*
X90Y1199D01*
X90Y1203D01*
X92Y1203D01*
X92Y1223D01*
X90Y1223D01*
X90Y1225D01*
X88Y1225D01*
X88Y1229D01*
X86Y1229D01*
X86Y1233D01*
X84Y1233D01*
X84Y1237D01*
X82Y1237D01*
X82Y1243D01*
X80Y1243D01*
X80Y1283D01*
X82Y1283D01*
X82Y1287D01*
X84Y1287D01*
X84Y1293D01*
X86Y1293D01*
X86Y1295D01*
X88Y1295D01*
X88Y1299D01*
X90Y1299D01*
X90Y1303D01*
X92Y1303D01*
X92Y1323D01*
X90Y1323D01*
X90Y1325D01*
X88Y1325D01*
X88Y1329D01*
X86Y1329D01*
X86Y1333D01*
X84Y1333D01*
X84Y1337D01*
X82Y1337D01*
X82Y1343D01*
X80Y1343D01*
X80Y1383D01*
X82Y1383D01*
X82Y1387D01*
X84Y1387D01*
X84Y1393D01*
X86Y1393D01*
X86Y1395D01*
X88Y1395D01*
X88Y1399D01*
X90Y1399D01*
X90Y1403D01*
X92Y1403D01*
X92Y1423D01*
X90Y1423D01*
X90Y1425D01*
X88Y1425D01*
X88Y1429D01*
X86Y1429D01*
X86Y1433D01*
X84Y1433D01*
X84Y1437D01*
X82Y1437D01*
X82Y1443D01*
X80Y1443D01*
X80Y1483D01*
X82Y1483D01*
X82Y1487D01*
X84Y1487D01*
X84Y1493D01*
X86Y1493D01*
X86Y1495D01*
X88Y1495D01*
X88Y1499D01*
X90Y1499D01*
X90Y1503D01*
X92Y1503D01*
X92Y1523D01*
X90Y1523D01*
X90Y1525D01*
X88Y1525D01*
X88Y1529D01*
X86Y1529D01*
X86Y1533D01*
X84Y1533D01*
X84Y1537D01*
X82Y1537D01*
X82Y1543D01*
X80Y1543D01*
X80Y1583D01*
X82Y1583D01*
X82Y1587D01*
X84Y1587D01*
X84Y1593D01*
X86Y1593D01*
X86Y1595D01*
X88Y1595D01*
X88Y1599D01*
X90Y1599D01*
X90Y1603D01*
X92Y1603D01*
X92Y1623D01*
X90Y1623D01*
X90Y1625D01*
X88Y1625D01*
X88Y1629D01*
X86Y1629D01*
X86Y1633D01*
X84Y1633D01*
X84Y1637D01*
X82Y1637D01*
X82Y1643D01*
X80Y1643D01*
X80Y1683D01*
X82Y1683D01*
X82Y1687D01*
X84Y1687D01*
X84Y1693D01*
X86Y1693D01*
X86Y1695D01*
X88Y1695D01*
X88Y1699D01*
X90Y1699D01*
X90Y1703D01*
X92Y1703D01*
X92Y1723D01*
X90Y1723D01*
X90Y1725D01*
X88Y1725D01*
X88Y1729D01*
X86Y1729D01*
X86Y1733D01*
X84Y1733D01*
X84Y1737D01*
X82Y1737D01*
X82Y1743D01*
X80Y1743D01*
X80Y1783D01*
X82Y1783D01*
X82Y1787D01*
X84Y1787D01*
X84Y1793D01*
X86Y1793D01*
X86Y1795D01*
X88Y1795D01*
X88Y1799D01*
X90Y1799D01*
X90Y1803D01*
X92Y1803D01*
X92Y1805D01*
X94Y1805D01*
X94Y1807D01*
X96Y1807D01*
X96Y1809D01*
X98Y1809D01*
X98Y1811D01*
X100Y1811D01*
X100Y1813D01*
X102Y1813D01*
X102Y1815D01*
X104Y1815D01*
X104Y1817D01*
X106Y1817D01*
X106Y1819D01*
X108Y1819D01*
X108Y1821D01*
X112Y1821D01*
X112Y1823D01*
X114Y1823D01*
X114Y1825D01*
X118Y1825D01*
X118Y1827D01*
X122Y1827D01*
X122Y1829D01*
X128Y1829D01*
X128Y1831D01*
X138Y1831D01*
X138Y1833D01*
X44Y1833D01*
G37*
D02*
G36*
X294Y1823D02*
X294Y1701D01*
X1032Y1701D01*
X1032Y1703D01*
X1026Y1703D01*
X1026Y1705D01*
X1022Y1705D01*
X1022Y1707D01*
X1018Y1707D01*
X1018Y1709D01*
X1016Y1709D01*
X1016Y1711D01*
X1012Y1711D01*
X1012Y1713D01*
X1010Y1713D01*
X1010Y1715D01*
X1008Y1715D01*
X1008Y1717D01*
X1006Y1717D01*
X1006Y1719D01*
X1004Y1719D01*
X1004Y1721D01*
X1002Y1721D01*
X1002Y1723D01*
X1000Y1723D01*
X1000Y1725D01*
X998Y1725D01*
X998Y1727D01*
X996Y1727D01*
X996Y1731D01*
X994Y1731D01*
X994Y1735D01*
X992Y1735D01*
X992Y1739D01*
X990Y1739D01*
X990Y1745D01*
X988Y1745D01*
X988Y1779D01*
X990Y1779D01*
X990Y1785D01*
X992Y1785D01*
X992Y1789D01*
X994Y1789D01*
X994Y1793D01*
X996Y1793D01*
X996Y1797D01*
X998Y1797D01*
X998Y1799D01*
X1000Y1799D01*
X1000Y1801D01*
X1002Y1801D01*
X1002Y1805D01*
X1004Y1805D01*
X1004Y1807D01*
X1006Y1807D01*
X1006Y1809D01*
X1010Y1809D01*
X1010Y1811D01*
X1012Y1811D01*
X1012Y1813D01*
X1014Y1813D01*
X1014Y1815D01*
X1018Y1815D01*
X1018Y1817D01*
X1020Y1817D01*
X1020Y1819D01*
X1024Y1819D01*
X1024Y1821D01*
X1030Y1821D01*
X1030Y1823D01*
X294Y1823D01*
G37*
D02*
G36*
X1082Y1711D02*
X1082Y1709D01*
X1080Y1709D01*
X1080Y1707D01*
X1076Y1707D01*
X1076Y1705D01*
X1072Y1705D01*
X1072Y1703D01*
X1066Y1703D01*
X1066Y1701D01*
X1104Y1701D01*
X1104Y1711D01*
X1082Y1711D01*
G37*
D02*
G36*
X294Y1701D02*
X294Y1699D01*
X1104Y1699D01*
X1104Y1701D01*
X294Y1701D01*
G37*
D02*
G36*
X294Y1701D02*
X294Y1699D01*
X1104Y1699D01*
X1104Y1701D01*
X294Y1701D01*
G37*
D02*
G36*
X294Y1699D02*
X294Y1623D01*
X1068Y1623D01*
X1068Y1621D01*
X1072Y1621D01*
X1072Y1619D01*
X1078Y1619D01*
X1078Y1617D01*
X1080Y1617D01*
X1080Y1615D01*
X1084Y1615D01*
X1084Y1613D01*
X1104Y1613D01*
X1104Y1699D01*
X294Y1699D01*
G37*
D02*
G36*
X294Y1623D02*
X294Y1501D01*
X1032Y1501D01*
X1032Y1503D01*
X1026Y1503D01*
X1026Y1505D01*
X1022Y1505D01*
X1022Y1507D01*
X1018Y1507D01*
X1018Y1509D01*
X1016Y1509D01*
X1016Y1511D01*
X1012Y1511D01*
X1012Y1513D01*
X1010Y1513D01*
X1010Y1515D01*
X1008Y1515D01*
X1008Y1517D01*
X1006Y1517D01*
X1006Y1519D01*
X1004Y1519D01*
X1004Y1521D01*
X1002Y1521D01*
X1002Y1523D01*
X1000Y1523D01*
X1000Y1525D01*
X998Y1525D01*
X998Y1527D01*
X996Y1527D01*
X996Y1531D01*
X994Y1531D01*
X994Y1535D01*
X992Y1535D01*
X992Y1539D01*
X990Y1539D01*
X990Y1545D01*
X988Y1545D01*
X988Y1579D01*
X990Y1579D01*
X990Y1585D01*
X992Y1585D01*
X992Y1589D01*
X994Y1589D01*
X994Y1593D01*
X996Y1593D01*
X996Y1597D01*
X998Y1597D01*
X998Y1599D01*
X1000Y1599D01*
X1000Y1601D01*
X1002Y1601D01*
X1002Y1605D01*
X1004Y1605D01*
X1004Y1607D01*
X1006Y1607D01*
X1006Y1609D01*
X1010Y1609D01*
X1010Y1611D01*
X1012Y1611D01*
X1012Y1613D01*
X1014Y1613D01*
X1014Y1615D01*
X1018Y1615D01*
X1018Y1617D01*
X1020Y1617D01*
X1020Y1619D01*
X1024Y1619D01*
X1024Y1621D01*
X1030Y1621D01*
X1030Y1623D01*
X294Y1623D01*
G37*
D02*
G36*
X1082Y1511D02*
X1082Y1509D01*
X1080Y1509D01*
X1080Y1507D01*
X1076Y1507D01*
X1076Y1505D01*
X1072Y1505D01*
X1072Y1503D01*
X1066Y1503D01*
X1066Y1501D01*
X1104Y1501D01*
X1104Y1511D01*
X1082Y1511D01*
G37*
D02*
G36*
X294Y1501D02*
X294Y1499D01*
X1104Y1499D01*
X1104Y1501D01*
X294Y1501D01*
G37*
D02*
G36*
X294Y1501D02*
X294Y1499D01*
X1104Y1499D01*
X1104Y1501D01*
X294Y1501D01*
G37*
D02*
G36*
X294Y1499D02*
X294Y1423D01*
X1068Y1423D01*
X1068Y1421D01*
X1072Y1421D01*
X1072Y1419D01*
X1078Y1419D01*
X1078Y1417D01*
X1080Y1417D01*
X1080Y1415D01*
X1084Y1415D01*
X1084Y1413D01*
X1104Y1413D01*
X1104Y1499D01*
X294Y1499D01*
G37*
D02*
G36*
X294Y1423D02*
X294Y1353D01*
X292Y1353D01*
X292Y1343D01*
X290Y1343D01*
X290Y1339D01*
X288Y1339D01*
X288Y1335D01*
X286Y1335D01*
X286Y1333D01*
X284Y1333D01*
X284Y1329D01*
X282Y1329D01*
X282Y1327D01*
X278Y1327D01*
X278Y1325D01*
X276Y1325D01*
X276Y1323D01*
X272Y1323D01*
X272Y1321D01*
X268Y1321D01*
X268Y1319D01*
X208Y1319D01*
X208Y1301D01*
X1032Y1301D01*
X1032Y1303D01*
X1026Y1303D01*
X1026Y1305D01*
X1022Y1305D01*
X1022Y1307D01*
X1018Y1307D01*
X1018Y1309D01*
X1016Y1309D01*
X1016Y1311D01*
X1012Y1311D01*
X1012Y1313D01*
X1010Y1313D01*
X1010Y1315D01*
X1008Y1315D01*
X1008Y1317D01*
X1006Y1317D01*
X1006Y1319D01*
X1004Y1319D01*
X1004Y1321D01*
X1002Y1321D01*
X1002Y1323D01*
X1000Y1323D01*
X1000Y1325D01*
X998Y1325D01*
X998Y1327D01*
X996Y1327D01*
X996Y1331D01*
X994Y1331D01*
X994Y1335D01*
X992Y1335D01*
X992Y1339D01*
X990Y1339D01*
X990Y1345D01*
X988Y1345D01*
X988Y1379D01*
X990Y1379D01*
X990Y1385D01*
X992Y1385D01*
X992Y1389D01*
X994Y1389D01*
X994Y1393D01*
X996Y1393D01*
X996Y1397D01*
X998Y1397D01*
X998Y1399D01*
X1000Y1399D01*
X1000Y1401D01*
X1002Y1401D01*
X1002Y1405D01*
X1004Y1405D01*
X1004Y1407D01*
X1006Y1407D01*
X1006Y1409D01*
X1010Y1409D01*
X1010Y1411D01*
X1012Y1411D01*
X1012Y1413D01*
X1014Y1413D01*
X1014Y1415D01*
X1018Y1415D01*
X1018Y1417D01*
X1020Y1417D01*
X1020Y1419D01*
X1024Y1419D01*
X1024Y1421D01*
X1030Y1421D01*
X1030Y1423D01*
X294Y1423D01*
G37*
D02*
G36*
X1082Y1311D02*
X1082Y1309D01*
X1080Y1309D01*
X1080Y1307D01*
X1076Y1307D01*
X1076Y1305D01*
X1072Y1305D01*
X1072Y1303D01*
X1066Y1303D01*
X1066Y1301D01*
X1104Y1301D01*
X1104Y1311D01*
X1082Y1311D01*
G37*
D02*
G36*
X208Y1301D02*
X208Y1299D01*
X1104Y1299D01*
X1104Y1301D01*
X208Y1301D01*
G37*
D02*
G36*
X208Y1301D02*
X208Y1299D01*
X1104Y1299D01*
X1104Y1301D01*
X208Y1301D01*
G37*
D02*
G36*
X210Y1299D02*
X210Y1295D01*
X212Y1295D01*
X212Y1293D01*
X214Y1293D01*
X214Y1287D01*
X216Y1287D01*
X216Y1283D01*
X218Y1283D01*
X218Y1243D01*
X216Y1243D01*
X216Y1237D01*
X214Y1237D01*
X214Y1233D01*
X212Y1233D01*
X212Y1229D01*
X210Y1229D01*
X210Y1225D01*
X208Y1225D01*
X208Y1223D01*
X1068Y1223D01*
X1068Y1221D01*
X1072Y1221D01*
X1072Y1219D01*
X1078Y1219D01*
X1078Y1217D01*
X1080Y1217D01*
X1080Y1215D01*
X1084Y1215D01*
X1084Y1213D01*
X1104Y1213D01*
X1104Y1299D01*
X210Y1299D01*
G37*
D02*
G36*
X206Y1223D02*
X206Y1203D01*
X208Y1203D01*
X208Y1199D01*
X210Y1199D01*
X210Y1195D01*
X212Y1195D01*
X212Y1193D01*
X214Y1193D01*
X214Y1187D01*
X216Y1187D01*
X216Y1183D01*
X218Y1183D01*
X218Y1143D01*
X216Y1143D01*
X216Y1137D01*
X214Y1137D01*
X214Y1133D01*
X212Y1133D01*
X212Y1129D01*
X210Y1129D01*
X210Y1125D01*
X208Y1125D01*
X208Y1123D01*
X206Y1123D01*
X206Y1103D01*
X208Y1103D01*
X208Y1101D01*
X1032Y1101D01*
X1032Y1103D01*
X1026Y1103D01*
X1026Y1105D01*
X1022Y1105D01*
X1022Y1107D01*
X1018Y1107D01*
X1018Y1109D01*
X1016Y1109D01*
X1016Y1111D01*
X1012Y1111D01*
X1012Y1113D01*
X1010Y1113D01*
X1010Y1115D01*
X1008Y1115D01*
X1008Y1117D01*
X1006Y1117D01*
X1006Y1119D01*
X1004Y1119D01*
X1004Y1121D01*
X1002Y1121D01*
X1002Y1123D01*
X1000Y1123D01*
X1000Y1125D01*
X998Y1125D01*
X998Y1127D01*
X996Y1127D01*
X996Y1131D01*
X994Y1131D01*
X994Y1135D01*
X992Y1135D01*
X992Y1139D01*
X990Y1139D01*
X990Y1145D01*
X988Y1145D01*
X988Y1179D01*
X990Y1179D01*
X990Y1185D01*
X992Y1185D01*
X992Y1189D01*
X994Y1189D01*
X994Y1193D01*
X996Y1193D01*
X996Y1197D01*
X998Y1197D01*
X998Y1199D01*
X1000Y1199D01*
X1000Y1201D01*
X1002Y1201D01*
X1002Y1205D01*
X1004Y1205D01*
X1004Y1207D01*
X1006Y1207D01*
X1006Y1209D01*
X1010Y1209D01*
X1010Y1211D01*
X1012Y1211D01*
X1012Y1213D01*
X1014Y1213D01*
X1014Y1215D01*
X1018Y1215D01*
X1018Y1217D01*
X1020Y1217D01*
X1020Y1219D01*
X1024Y1219D01*
X1024Y1221D01*
X1030Y1221D01*
X1030Y1223D01*
X206Y1223D01*
G37*
D02*
G36*
X1082Y1111D02*
X1082Y1109D01*
X1080Y1109D01*
X1080Y1107D01*
X1076Y1107D01*
X1076Y1105D01*
X1072Y1105D01*
X1072Y1103D01*
X1066Y1103D01*
X1066Y1101D01*
X1104Y1101D01*
X1104Y1111D01*
X1082Y1111D01*
G37*
D02*
G36*
X208Y1101D02*
X208Y1099D01*
X1104Y1099D01*
X1104Y1101D01*
X208Y1101D01*
G37*
D02*
G36*
X208Y1101D02*
X208Y1099D01*
X1104Y1099D01*
X1104Y1101D01*
X208Y1101D01*
G37*
D02*
G36*
X210Y1099D02*
X210Y1095D01*
X212Y1095D01*
X212Y1093D01*
X214Y1093D01*
X214Y1087D01*
X216Y1087D01*
X216Y1083D01*
X218Y1083D01*
X218Y1043D01*
X216Y1043D01*
X216Y1037D01*
X214Y1037D01*
X214Y1033D01*
X212Y1033D01*
X212Y1029D01*
X210Y1029D01*
X210Y1025D01*
X208Y1025D01*
X208Y1023D01*
X1068Y1023D01*
X1068Y1021D01*
X1072Y1021D01*
X1072Y1019D01*
X1078Y1019D01*
X1078Y1017D01*
X1080Y1017D01*
X1080Y1015D01*
X1084Y1015D01*
X1084Y1013D01*
X1104Y1013D01*
X1104Y1099D01*
X210Y1099D01*
G37*
D02*
G36*
X206Y1023D02*
X206Y1019D01*
X204Y1019D01*
X204Y1017D01*
X202Y1017D01*
X202Y1015D01*
X200Y1015D01*
X200Y1013D01*
X198Y1013D01*
X198Y1011D01*
X196Y1011D01*
X196Y1009D01*
X194Y1009D01*
X194Y1007D01*
X192Y1007D01*
X192Y1005D01*
X188Y1005D01*
X188Y1003D01*
X186Y1003D01*
X186Y1001D01*
X182Y1001D01*
X182Y999D01*
X178Y999D01*
X178Y997D01*
X174Y997D01*
X174Y995D01*
X168Y995D01*
X168Y993D01*
X996Y993D01*
X996Y997D01*
X998Y997D01*
X998Y999D01*
X1000Y999D01*
X1000Y1001D01*
X1002Y1001D01*
X1002Y1005D01*
X1004Y1005D01*
X1004Y1007D01*
X1006Y1007D01*
X1006Y1009D01*
X1010Y1009D01*
X1010Y1011D01*
X1012Y1011D01*
X1012Y1013D01*
X1014Y1013D01*
X1014Y1015D01*
X1018Y1015D01*
X1018Y1017D01*
X1020Y1017D01*
X1020Y1019D01*
X1024Y1019D01*
X1024Y1021D01*
X1030Y1021D01*
X1030Y1023D01*
X206Y1023D01*
G37*
D02*
G36*
X44Y993D02*
X44Y991D01*
X994Y991D01*
X994Y993D01*
X44Y993D01*
G37*
D02*
G36*
X44Y993D02*
X44Y991D01*
X994Y991D01*
X994Y993D01*
X44Y993D01*
G37*
D02*
G36*
X44Y991D02*
X44Y933D01*
X160Y933D01*
X160Y931D01*
X170Y931D01*
X170Y929D01*
X176Y929D01*
X176Y927D01*
X180Y927D01*
X180Y925D01*
X184Y925D01*
X184Y923D01*
X186Y923D01*
X186Y921D01*
X190Y921D01*
X190Y919D01*
X192Y919D01*
X192Y917D01*
X194Y917D01*
X194Y915D01*
X196Y915D01*
X196Y913D01*
X198Y913D01*
X198Y911D01*
X200Y911D01*
X200Y909D01*
X202Y909D01*
X202Y907D01*
X204Y907D01*
X204Y905D01*
X206Y905D01*
X206Y903D01*
X208Y903D01*
X208Y901D01*
X1032Y901D01*
X1032Y903D01*
X1026Y903D01*
X1026Y905D01*
X1022Y905D01*
X1022Y907D01*
X1018Y907D01*
X1018Y909D01*
X1016Y909D01*
X1016Y911D01*
X1012Y911D01*
X1012Y913D01*
X1010Y913D01*
X1010Y915D01*
X1008Y915D01*
X1008Y917D01*
X1006Y917D01*
X1006Y919D01*
X1004Y919D01*
X1004Y921D01*
X1002Y921D01*
X1002Y923D01*
X1000Y923D01*
X1000Y925D01*
X998Y925D01*
X998Y927D01*
X996Y927D01*
X996Y931D01*
X994Y931D01*
X994Y935D01*
X992Y935D01*
X992Y939D01*
X990Y939D01*
X990Y945D01*
X988Y945D01*
X988Y979D01*
X990Y979D01*
X990Y985D01*
X992Y985D01*
X992Y989D01*
X994Y989D01*
X994Y991D01*
X44Y991D01*
G37*
D02*
G36*
X44Y933D02*
X44Y293D01*
X130Y293D01*
X130Y295D01*
X124Y295D01*
X124Y297D01*
X120Y297D01*
X120Y299D01*
X116Y299D01*
X116Y301D01*
X112Y301D01*
X112Y303D01*
X110Y303D01*
X110Y305D01*
X106Y305D01*
X106Y307D01*
X104Y307D01*
X104Y309D01*
X102Y309D01*
X102Y311D01*
X100Y311D01*
X100Y313D01*
X98Y313D01*
X98Y315D01*
X96Y315D01*
X96Y317D01*
X94Y317D01*
X94Y319D01*
X92Y319D01*
X92Y323D01*
X90Y323D01*
X90Y325D01*
X88Y325D01*
X88Y329D01*
X86Y329D01*
X86Y333D01*
X84Y333D01*
X84Y337D01*
X82Y337D01*
X82Y343D01*
X80Y343D01*
X80Y383D01*
X82Y383D01*
X82Y387D01*
X84Y387D01*
X84Y393D01*
X86Y393D01*
X86Y395D01*
X88Y395D01*
X88Y399D01*
X90Y399D01*
X90Y403D01*
X92Y403D01*
X92Y423D01*
X90Y423D01*
X90Y425D01*
X88Y425D01*
X88Y429D01*
X86Y429D01*
X86Y433D01*
X84Y433D01*
X84Y437D01*
X82Y437D01*
X82Y443D01*
X80Y443D01*
X80Y483D01*
X82Y483D01*
X82Y487D01*
X84Y487D01*
X84Y493D01*
X86Y493D01*
X86Y495D01*
X88Y495D01*
X88Y499D01*
X90Y499D01*
X90Y503D01*
X92Y503D01*
X92Y523D01*
X90Y523D01*
X90Y525D01*
X88Y525D01*
X88Y529D01*
X86Y529D01*
X86Y533D01*
X84Y533D01*
X84Y537D01*
X82Y537D01*
X82Y543D01*
X80Y543D01*
X80Y583D01*
X82Y583D01*
X82Y587D01*
X84Y587D01*
X84Y593D01*
X86Y593D01*
X86Y595D01*
X88Y595D01*
X88Y599D01*
X90Y599D01*
X90Y603D01*
X92Y603D01*
X92Y623D01*
X90Y623D01*
X90Y625D01*
X88Y625D01*
X88Y629D01*
X86Y629D01*
X86Y633D01*
X84Y633D01*
X84Y637D01*
X82Y637D01*
X82Y643D01*
X80Y643D01*
X80Y683D01*
X82Y683D01*
X82Y687D01*
X84Y687D01*
X84Y693D01*
X86Y693D01*
X86Y695D01*
X88Y695D01*
X88Y699D01*
X90Y699D01*
X90Y703D01*
X92Y703D01*
X92Y723D01*
X90Y723D01*
X90Y725D01*
X88Y725D01*
X88Y729D01*
X86Y729D01*
X86Y733D01*
X84Y733D01*
X84Y737D01*
X82Y737D01*
X82Y743D01*
X80Y743D01*
X80Y783D01*
X82Y783D01*
X82Y787D01*
X84Y787D01*
X84Y793D01*
X86Y793D01*
X86Y795D01*
X88Y795D01*
X88Y799D01*
X90Y799D01*
X90Y803D01*
X92Y803D01*
X92Y823D01*
X90Y823D01*
X90Y825D01*
X88Y825D01*
X88Y829D01*
X86Y829D01*
X86Y833D01*
X84Y833D01*
X84Y837D01*
X82Y837D01*
X82Y843D01*
X80Y843D01*
X80Y883D01*
X82Y883D01*
X82Y887D01*
X84Y887D01*
X84Y893D01*
X86Y893D01*
X86Y895D01*
X88Y895D01*
X88Y899D01*
X90Y899D01*
X90Y903D01*
X92Y903D01*
X92Y905D01*
X94Y905D01*
X94Y907D01*
X96Y907D01*
X96Y909D01*
X98Y909D01*
X98Y911D01*
X100Y911D01*
X100Y913D01*
X102Y913D01*
X102Y915D01*
X104Y915D01*
X104Y917D01*
X106Y917D01*
X106Y919D01*
X108Y919D01*
X108Y921D01*
X112Y921D01*
X112Y923D01*
X114Y923D01*
X114Y925D01*
X118Y925D01*
X118Y927D01*
X122Y927D01*
X122Y929D01*
X128Y929D01*
X128Y931D01*
X138Y931D01*
X138Y933D01*
X44Y933D01*
G37*
D02*
G36*
X1082Y911D02*
X1082Y909D01*
X1080Y909D01*
X1080Y907D01*
X1076Y907D01*
X1076Y905D01*
X1072Y905D01*
X1072Y903D01*
X1066Y903D01*
X1066Y901D01*
X1104Y901D01*
X1104Y911D01*
X1082Y911D01*
G37*
D02*
G36*
X208Y901D02*
X208Y899D01*
X1104Y899D01*
X1104Y901D01*
X208Y901D01*
G37*
D02*
G36*
X208Y901D02*
X208Y899D01*
X1104Y899D01*
X1104Y901D01*
X208Y901D01*
G37*
D02*
G36*
X210Y899D02*
X210Y895D01*
X212Y895D01*
X212Y893D01*
X214Y893D01*
X214Y887D01*
X216Y887D01*
X216Y883D01*
X218Y883D01*
X218Y843D01*
X216Y843D01*
X216Y837D01*
X214Y837D01*
X214Y833D01*
X212Y833D01*
X212Y829D01*
X210Y829D01*
X210Y825D01*
X208Y825D01*
X208Y823D01*
X1068Y823D01*
X1068Y821D01*
X1072Y821D01*
X1072Y819D01*
X1078Y819D01*
X1078Y817D01*
X1080Y817D01*
X1080Y815D01*
X1084Y815D01*
X1084Y813D01*
X1104Y813D01*
X1104Y899D01*
X210Y899D01*
G37*
D02*
G36*
X206Y823D02*
X206Y803D01*
X208Y803D01*
X208Y799D01*
X210Y799D01*
X210Y795D01*
X212Y795D01*
X212Y793D01*
X214Y793D01*
X214Y787D01*
X216Y787D01*
X216Y783D01*
X218Y783D01*
X218Y743D01*
X216Y743D01*
X216Y737D01*
X214Y737D01*
X214Y733D01*
X212Y733D01*
X212Y729D01*
X210Y729D01*
X210Y725D01*
X208Y725D01*
X208Y723D01*
X206Y723D01*
X206Y703D01*
X208Y703D01*
X208Y701D01*
X1032Y701D01*
X1032Y703D01*
X1026Y703D01*
X1026Y705D01*
X1022Y705D01*
X1022Y707D01*
X1018Y707D01*
X1018Y709D01*
X1016Y709D01*
X1016Y711D01*
X1012Y711D01*
X1012Y713D01*
X1010Y713D01*
X1010Y715D01*
X1008Y715D01*
X1008Y717D01*
X1006Y717D01*
X1006Y719D01*
X1004Y719D01*
X1004Y721D01*
X1002Y721D01*
X1002Y723D01*
X1000Y723D01*
X1000Y725D01*
X998Y725D01*
X998Y727D01*
X996Y727D01*
X996Y731D01*
X994Y731D01*
X994Y735D01*
X992Y735D01*
X992Y739D01*
X990Y739D01*
X990Y745D01*
X988Y745D01*
X988Y779D01*
X990Y779D01*
X990Y785D01*
X992Y785D01*
X992Y789D01*
X994Y789D01*
X994Y793D01*
X996Y793D01*
X996Y797D01*
X998Y797D01*
X998Y799D01*
X1000Y799D01*
X1000Y801D01*
X1002Y801D01*
X1002Y805D01*
X1004Y805D01*
X1004Y807D01*
X1006Y807D01*
X1006Y809D01*
X1010Y809D01*
X1010Y811D01*
X1012Y811D01*
X1012Y813D01*
X1014Y813D01*
X1014Y815D01*
X1018Y815D01*
X1018Y817D01*
X1020Y817D01*
X1020Y819D01*
X1024Y819D01*
X1024Y821D01*
X1030Y821D01*
X1030Y823D01*
X206Y823D01*
G37*
D02*
G36*
X1082Y711D02*
X1082Y709D01*
X1080Y709D01*
X1080Y707D01*
X1076Y707D01*
X1076Y705D01*
X1072Y705D01*
X1072Y703D01*
X1066Y703D01*
X1066Y701D01*
X1104Y701D01*
X1104Y711D01*
X1082Y711D01*
G37*
D02*
G36*
X208Y701D02*
X208Y699D01*
X1104Y699D01*
X1104Y701D01*
X208Y701D01*
G37*
D02*
G36*
X208Y701D02*
X208Y699D01*
X1104Y699D01*
X1104Y701D01*
X208Y701D01*
G37*
D02*
G36*
X210Y699D02*
X210Y695D01*
X212Y695D01*
X212Y693D01*
X214Y693D01*
X214Y687D01*
X216Y687D01*
X216Y683D01*
X218Y683D01*
X218Y643D01*
X216Y643D01*
X216Y637D01*
X214Y637D01*
X214Y633D01*
X212Y633D01*
X212Y629D01*
X210Y629D01*
X210Y625D01*
X208Y625D01*
X208Y623D01*
X1068Y623D01*
X1068Y621D01*
X1072Y621D01*
X1072Y619D01*
X1078Y619D01*
X1078Y617D01*
X1080Y617D01*
X1080Y615D01*
X1084Y615D01*
X1084Y613D01*
X1104Y613D01*
X1104Y699D01*
X210Y699D01*
G37*
D02*
G36*
X206Y623D02*
X206Y603D01*
X208Y603D01*
X208Y599D01*
X210Y599D01*
X210Y595D01*
X212Y595D01*
X212Y593D01*
X214Y593D01*
X214Y587D01*
X216Y587D01*
X216Y583D01*
X218Y583D01*
X218Y543D01*
X216Y543D01*
X216Y537D01*
X214Y537D01*
X214Y533D01*
X212Y533D01*
X212Y529D01*
X210Y529D01*
X210Y525D01*
X208Y525D01*
X208Y523D01*
X206Y523D01*
X206Y503D01*
X208Y503D01*
X208Y501D01*
X1032Y501D01*
X1032Y503D01*
X1026Y503D01*
X1026Y505D01*
X1022Y505D01*
X1022Y507D01*
X1018Y507D01*
X1018Y509D01*
X1016Y509D01*
X1016Y511D01*
X1012Y511D01*
X1012Y513D01*
X1010Y513D01*
X1010Y515D01*
X1008Y515D01*
X1008Y517D01*
X1006Y517D01*
X1006Y519D01*
X1004Y519D01*
X1004Y521D01*
X1002Y521D01*
X1002Y523D01*
X1000Y523D01*
X1000Y525D01*
X998Y525D01*
X998Y527D01*
X996Y527D01*
X996Y531D01*
X994Y531D01*
X994Y535D01*
X992Y535D01*
X992Y539D01*
X990Y539D01*
X990Y545D01*
X988Y545D01*
X988Y579D01*
X990Y579D01*
X990Y585D01*
X992Y585D01*
X992Y589D01*
X994Y589D01*
X994Y593D01*
X996Y593D01*
X996Y597D01*
X998Y597D01*
X998Y599D01*
X1000Y599D01*
X1000Y601D01*
X1002Y601D01*
X1002Y605D01*
X1004Y605D01*
X1004Y607D01*
X1006Y607D01*
X1006Y609D01*
X1010Y609D01*
X1010Y611D01*
X1012Y611D01*
X1012Y613D01*
X1014Y613D01*
X1014Y615D01*
X1018Y615D01*
X1018Y617D01*
X1020Y617D01*
X1020Y619D01*
X1024Y619D01*
X1024Y621D01*
X1030Y621D01*
X1030Y623D01*
X206Y623D01*
G37*
D02*
G36*
X1082Y511D02*
X1082Y509D01*
X1080Y509D01*
X1080Y507D01*
X1076Y507D01*
X1076Y505D01*
X1072Y505D01*
X1072Y503D01*
X1066Y503D01*
X1066Y501D01*
X1104Y501D01*
X1104Y511D01*
X1082Y511D01*
G37*
D02*
G36*
X208Y501D02*
X208Y499D01*
X1104Y499D01*
X1104Y501D01*
X208Y501D01*
G37*
D02*
G36*
X208Y501D02*
X208Y499D01*
X1104Y499D01*
X1104Y501D01*
X208Y501D01*
G37*
D02*
G36*
X210Y499D02*
X210Y495D01*
X212Y495D01*
X212Y493D01*
X214Y493D01*
X214Y487D01*
X216Y487D01*
X216Y483D01*
X218Y483D01*
X218Y443D01*
X216Y443D01*
X216Y437D01*
X214Y437D01*
X214Y433D01*
X212Y433D01*
X212Y429D01*
X210Y429D01*
X210Y425D01*
X208Y425D01*
X208Y423D01*
X206Y423D01*
X206Y403D01*
X208Y403D01*
X208Y399D01*
X210Y399D01*
X210Y395D01*
X212Y395D01*
X212Y393D01*
X214Y393D01*
X214Y387D01*
X216Y387D01*
X216Y383D01*
X218Y383D01*
X218Y343D01*
X216Y343D01*
X216Y337D01*
X214Y337D01*
X214Y333D01*
X212Y333D01*
X212Y329D01*
X210Y329D01*
X210Y325D01*
X208Y325D01*
X208Y323D01*
X1068Y323D01*
X1068Y321D01*
X1072Y321D01*
X1072Y319D01*
X1078Y319D01*
X1078Y317D01*
X1080Y317D01*
X1080Y315D01*
X1084Y315D01*
X1084Y313D01*
X1104Y313D01*
X1104Y499D01*
X210Y499D01*
G37*
D02*
G36*
X206Y323D02*
X206Y319D01*
X204Y319D01*
X204Y317D01*
X202Y317D01*
X202Y315D01*
X200Y315D01*
X200Y313D01*
X198Y313D01*
X198Y311D01*
X196Y311D01*
X196Y309D01*
X194Y309D01*
X194Y307D01*
X192Y307D01*
X192Y305D01*
X188Y305D01*
X188Y303D01*
X186Y303D01*
X186Y301D01*
X182Y301D01*
X182Y299D01*
X178Y299D01*
X178Y297D01*
X174Y297D01*
X174Y295D01*
X168Y295D01*
X168Y293D01*
X996Y293D01*
X996Y297D01*
X998Y297D01*
X998Y299D01*
X1000Y299D01*
X1000Y301D01*
X1002Y301D01*
X1002Y305D01*
X1004Y305D01*
X1004Y307D01*
X1006Y307D01*
X1006Y309D01*
X1010Y309D01*
X1010Y311D01*
X1012Y311D01*
X1012Y313D01*
X1014Y313D01*
X1014Y315D01*
X1018Y315D01*
X1018Y317D01*
X1020Y317D01*
X1020Y319D01*
X1026Y319D01*
X1026Y321D01*
X1030Y321D01*
X1030Y323D01*
X206Y323D01*
G37*
D02*
G36*
X44Y293D02*
X44Y291D01*
X994Y291D01*
X994Y293D01*
X44Y293D01*
G37*
D02*
G36*
X44Y293D02*
X44Y291D01*
X994Y291D01*
X994Y293D01*
X44Y293D01*
G37*
D02*
G36*
X44Y291D02*
X44Y201D01*
X1032Y201D01*
X1032Y203D01*
X1026Y203D01*
X1026Y205D01*
X1022Y205D01*
X1022Y207D01*
X1018Y207D01*
X1018Y209D01*
X1016Y209D01*
X1016Y211D01*
X1012Y211D01*
X1012Y213D01*
X1010Y213D01*
X1010Y215D01*
X1008Y215D01*
X1008Y217D01*
X1006Y217D01*
X1006Y219D01*
X1004Y219D01*
X1004Y221D01*
X1002Y221D01*
X1002Y223D01*
X1000Y223D01*
X1000Y225D01*
X998Y225D01*
X998Y227D01*
X996Y227D01*
X996Y231D01*
X994Y231D01*
X994Y235D01*
X992Y235D01*
X992Y239D01*
X990Y239D01*
X990Y245D01*
X988Y245D01*
X988Y279D01*
X990Y279D01*
X990Y285D01*
X992Y285D01*
X992Y289D01*
X994Y289D01*
X994Y291D01*
X44Y291D01*
G37*
D02*
G36*
X1668Y221D02*
X1668Y219D01*
X1310Y219D01*
X1310Y201D01*
X1710Y201D01*
X1710Y203D01*
X1708Y203D01*
X1708Y205D01*
X1706Y205D01*
X1706Y207D01*
X1702Y207D01*
X1702Y209D01*
X1700Y209D01*
X1700Y211D01*
X1698Y211D01*
X1698Y213D01*
X1696Y213D01*
X1696Y215D01*
X1694Y215D01*
X1694Y217D01*
X1692Y217D01*
X1692Y221D01*
X1668Y221D01*
G37*
D02*
G36*
X1088Y215D02*
X1088Y213D01*
X1086Y213D01*
X1086Y211D01*
X1082Y211D01*
X1082Y209D01*
X1080Y209D01*
X1080Y207D01*
X1076Y207D01*
X1076Y205D01*
X1072Y205D01*
X1072Y203D01*
X1066Y203D01*
X1066Y201D01*
X1132Y201D01*
X1132Y203D01*
X1126Y203D01*
X1126Y205D01*
X1122Y205D01*
X1122Y207D01*
X1118Y207D01*
X1118Y209D01*
X1116Y209D01*
X1116Y211D01*
X1112Y211D01*
X1112Y213D01*
X1110Y213D01*
X1110Y215D01*
X1088Y215D01*
G37*
D02*
G36*
X1166Y203D02*
X1166Y201D01*
X1188Y201D01*
X1188Y203D01*
X1166Y203D01*
G37*
D02*
G36*
X44Y201D02*
X44Y199D01*
X1714Y199D01*
X1714Y201D01*
X44Y201D01*
G37*
D02*
G36*
X44Y201D02*
X44Y199D01*
X1714Y199D01*
X1714Y201D01*
X44Y201D01*
G37*
D02*
G36*
X44Y201D02*
X44Y199D01*
X1714Y199D01*
X1714Y201D01*
X44Y201D01*
G37*
D02*
G36*
X44Y201D02*
X44Y199D01*
X1714Y199D01*
X1714Y201D01*
X44Y201D01*
G37*
D02*
G36*
X44Y199D02*
X44Y191D01*
X1734Y191D01*
X1734Y193D01*
X1726Y193D01*
X1726Y195D01*
X1722Y195D01*
X1722Y197D01*
X1718Y197D01*
X1718Y199D01*
X44Y199D01*
G37*
D02*
G36*
X44Y191D02*
X44Y189D01*
X2264Y189D01*
X2264Y191D01*
X44Y191D01*
G37*
D02*
G36*
X44Y191D02*
X44Y189D01*
X2264Y189D01*
X2264Y191D01*
X44Y191D01*
G37*
D02*
G36*
X44Y189D02*
X44Y41D01*
X2264Y41D01*
X2264Y189D01*
X44Y189D01*
G37*
D02*
G36*
X1310Y1919D02*
X1310Y1901D01*
X1194Y1901D01*
X1194Y1823D01*
X1310Y1823D01*
X1310Y1807D01*
X1560Y1807D01*
X1560Y1805D01*
X1568Y1805D01*
X1568Y1803D01*
X1574Y1803D01*
X1574Y1801D01*
X1576Y1801D01*
X1576Y1799D01*
X1580Y1799D01*
X1580Y1797D01*
X1582Y1797D01*
X1582Y1795D01*
X1584Y1795D01*
X1584Y1793D01*
X1586Y1793D01*
X1586Y1791D01*
X1588Y1791D01*
X1588Y1789D01*
X1590Y1789D01*
X1590Y1787D01*
X1592Y1787D01*
X1592Y1783D01*
X1594Y1783D01*
X1594Y1781D01*
X1596Y1781D01*
X1596Y1779D01*
X1598Y1779D01*
X1598Y1777D01*
X1600Y1777D01*
X1600Y1775D01*
X1602Y1775D01*
X1602Y1773D01*
X1604Y1773D01*
X1604Y1771D01*
X1606Y1771D01*
X1606Y1769D01*
X1608Y1769D01*
X1608Y1767D01*
X1610Y1767D01*
X1610Y1765D01*
X1612Y1765D01*
X1612Y1763D01*
X1614Y1763D01*
X1614Y1761D01*
X1616Y1761D01*
X1616Y1759D01*
X1618Y1759D01*
X1618Y1757D01*
X1620Y1757D01*
X1620Y1755D01*
X1622Y1755D01*
X1622Y1753D01*
X1624Y1753D01*
X1624Y1751D01*
X1626Y1751D01*
X1626Y1747D01*
X1628Y1747D01*
X1628Y1745D01*
X1630Y1745D01*
X1630Y1743D01*
X1632Y1743D01*
X1632Y1741D01*
X1634Y1741D01*
X1634Y1739D01*
X1636Y1739D01*
X1636Y1737D01*
X1638Y1737D01*
X1638Y1735D01*
X1640Y1735D01*
X1640Y1733D01*
X1642Y1733D01*
X1642Y1731D01*
X1644Y1731D01*
X1644Y1729D01*
X1646Y1729D01*
X1646Y1727D01*
X1648Y1727D01*
X1648Y1725D01*
X1650Y1725D01*
X1650Y1723D01*
X1652Y1723D01*
X1652Y1721D01*
X1654Y1721D01*
X1654Y1719D01*
X1656Y1719D01*
X1656Y1717D01*
X1658Y1717D01*
X1658Y1715D01*
X1660Y1715D01*
X1660Y1711D01*
X1662Y1711D01*
X1662Y1709D01*
X1664Y1709D01*
X1664Y1707D01*
X1666Y1707D01*
X1666Y1705D01*
X1668Y1705D01*
X1668Y1703D01*
X1670Y1703D01*
X1670Y1701D01*
X1672Y1701D01*
X1672Y1699D01*
X1674Y1699D01*
X1674Y1697D01*
X1676Y1697D01*
X1676Y1695D01*
X1678Y1695D01*
X1678Y1693D01*
X1680Y1693D01*
X1680Y1691D01*
X1682Y1691D01*
X1682Y1689D01*
X1684Y1689D01*
X1684Y1687D01*
X1686Y1687D01*
X1686Y1685D01*
X1688Y1685D01*
X1688Y1683D01*
X1690Y1683D01*
X1690Y1681D01*
X1692Y1681D01*
X1692Y1677D01*
X1694Y1677D01*
X1694Y1675D01*
X1696Y1675D01*
X1696Y1673D01*
X1698Y1673D01*
X1698Y1671D01*
X1700Y1671D01*
X1700Y1669D01*
X1702Y1669D01*
X1702Y1667D01*
X1704Y1667D01*
X1704Y1665D01*
X1706Y1665D01*
X1706Y1663D01*
X1708Y1663D01*
X1708Y1661D01*
X1710Y1661D01*
X1710Y1659D01*
X1712Y1659D01*
X1712Y1657D01*
X1714Y1657D01*
X1714Y1655D01*
X1716Y1655D01*
X1716Y1653D01*
X1718Y1653D01*
X1718Y1651D01*
X1720Y1651D01*
X1720Y1649D01*
X1722Y1649D01*
X1722Y1647D01*
X1724Y1647D01*
X1724Y1645D01*
X1726Y1645D01*
X1726Y1641D01*
X1728Y1641D01*
X1728Y1639D01*
X1730Y1639D01*
X1730Y1637D01*
X1732Y1637D01*
X1732Y1635D01*
X1734Y1635D01*
X1734Y1633D01*
X1736Y1633D01*
X1736Y1631D01*
X1738Y1631D01*
X1738Y1629D01*
X1740Y1629D01*
X1740Y1627D01*
X1742Y1627D01*
X1742Y1625D01*
X1744Y1625D01*
X1744Y1623D01*
X1746Y1623D01*
X1746Y1621D01*
X1748Y1621D01*
X1748Y1619D01*
X1750Y1619D01*
X1750Y1617D01*
X1752Y1617D01*
X1752Y1615D01*
X1754Y1615D01*
X1754Y1613D01*
X1756Y1613D01*
X1756Y1611D01*
X1758Y1611D01*
X1758Y1609D01*
X1760Y1609D01*
X1760Y1605D01*
X1762Y1605D01*
X1762Y1603D01*
X1764Y1603D01*
X1764Y1601D01*
X1766Y1601D01*
X1766Y1599D01*
X1768Y1599D01*
X1768Y1597D01*
X1770Y1597D01*
X1770Y1595D01*
X1772Y1595D01*
X1772Y1593D01*
X1774Y1593D01*
X1774Y1591D01*
X1776Y1591D01*
X1776Y1589D01*
X1778Y1589D01*
X1778Y1587D01*
X1780Y1587D01*
X1780Y1585D01*
X1782Y1585D01*
X1782Y1583D01*
X1784Y1583D01*
X1784Y1581D01*
X1804Y1581D01*
X1804Y1919D01*
X1310Y1919D01*
G37*
D02*
G36*
X1310Y1719D02*
X1310Y1701D01*
X1194Y1701D01*
X1194Y1623D01*
X1310Y1623D01*
X1310Y1607D01*
X1560Y1607D01*
X1560Y1605D01*
X1568Y1605D01*
X1568Y1603D01*
X1574Y1603D01*
X1574Y1601D01*
X1576Y1601D01*
X1576Y1599D01*
X1580Y1599D01*
X1580Y1597D01*
X1582Y1597D01*
X1582Y1595D01*
X1584Y1595D01*
X1584Y1593D01*
X1586Y1593D01*
X1586Y1591D01*
X1588Y1591D01*
X1588Y1589D01*
X1590Y1589D01*
X1590Y1587D01*
X1592Y1587D01*
X1592Y1585D01*
X1594Y1585D01*
X1594Y1583D01*
X1596Y1583D01*
X1596Y1581D01*
X1598Y1581D01*
X1598Y1579D01*
X1600Y1579D01*
X1600Y1577D01*
X1602Y1577D01*
X1602Y1575D01*
X1604Y1575D01*
X1604Y1573D01*
X1606Y1573D01*
X1606Y1571D01*
X1608Y1571D01*
X1608Y1569D01*
X1610Y1569D01*
X1610Y1567D01*
X1612Y1567D01*
X1612Y1565D01*
X1614Y1565D01*
X1614Y1563D01*
X1616Y1563D01*
X1616Y1561D01*
X1618Y1561D01*
X1618Y1559D01*
X1620Y1559D01*
X1620Y1557D01*
X1622Y1557D01*
X1622Y1555D01*
X1624Y1555D01*
X1624Y1553D01*
X1626Y1553D01*
X1626Y1551D01*
X1628Y1551D01*
X1628Y1549D01*
X1630Y1549D01*
X1630Y1547D01*
X1632Y1547D01*
X1632Y1545D01*
X1634Y1545D01*
X1634Y1543D01*
X1636Y1543D01*
X1636Y1541D01*
X1638Y1541D01*
X1638Y1539D01*
X1640Y1539D01*
X1640Y1537D01*
X1642Y1537D01*
X1642Y1535D01*
X1644Y1535D01*
X1644Y1533D01*
X1646Y1533D01*
X1646Y1531D01*
X1648Y1531D01*
X1648Y1529D01*
X1650Y1529D01*
X1650Y1527D01*
X1652Y1527D01*
X1652Y1525D01*
X1654Y1525D01*
X1654Y1523D01*
X1656Y1523D01*
X1656Y1521D01*
X1658Y1521D01*
X1658Y1519D01*
X1660Y1519D01*
X1660Y1517D01*
X1662Y1517D01*
X1662Y1515D01*
X1664Y1515D01*
X1664Y1513D01*
X1666Y1513D01*
X1666Y1511D01*
X1668Y1511D01*
X1668Y1509D01*
X1670Y1509D01*
X1670Y1507D01*
X1672Y1507D01*
X1672Y1505D01*
X1674Y1505D01*
X1674Y1503D01*
X1676Y1503D01*
X1676Y1501D01*
X1678Y1501D01*
X1678Y1499D01*
X1680Y1499D01*
X1680Y1497D01*
X1682Y1497D01*
X1682Y1495D01*
X1684Y1495D01*
X1684Y1493D01*
X1686Y1493D01*
X1686Y1491D01*
X1688Y1491D01*
X1688Y1489D01*
X1690Y1489D01*
X1690Y1487D01*
X1692Y1487D01*
X1692Y1485D01*
X1694Y1485D01*
X1694Y1483D01*
X1696Y1483D01*
X1696Y1481D01*
X1698Y1481D01*
X1698Y1479D01*
X1700Y1479D01*
X1700Y1477D01*
X1702Y1477D01*
X1702Y1475D01*
X1704Y1475D01*
X1704Y1473D01*
X1706Y1473D01*
X1706Y1471D01*
X1708Y1471D01*
X1708Y1469D01*
X1710Y1469D01*
X1710Y1467D01*
X1712Y1467D01*
X1712Y1465D01*
X1714Y1465D01*
X1714Y1463D01*
X1716Y1463D01*
X1716Y1461D01*
X1718Y1461D01*
X1718Y1459D01*
X1720Y1459D01*
X1720Y1457D01*
X1722Y1457D01*
X1722Y1455D01*
X1724Y1455D01*
X1724Y1453D01*
X1726Y1453D01*
X1726Y1451D01*
X1728Y1451D01*
X1728Y1449D01*
X1730Y1449D01*
X1730Y1447D01*
X1732Y1447D01*
X1732Y1445D01*
X1734Y1445D01*
X1734Y1443D01*
X1736Y1443D01*
X1736Y1441D01*
X1738Y1441D01*
X1738Y1439D01*
X1740Y1439D01*
X1740Y1437D01*
X1742Y1437D01*
X1742Y1435D01*
X1744Y1435D01*
X1744Y1433D01*
X1746Y1433D01*
X1746Y1431D01*
X1748Y1431D01*
X1748Y1429D01*
X1750Y1429D01*
X1750Y1427D01*
X1752Y1427D01*
X1752Y1425D01*
X1754Y1425D01*
X1754Y1423D01*
X1756Y1423D01*
X1756Y1421D01*
X1758Y1421D01*
X1758Y1419D01*
X1760Y1419D01*
X1760Y1417D01*
X1762Y1417D01*
X1762Y1415D01*
X1764Y1415D01*
X1764Y1413D01*
X1766Y1413D01*
X1766Y1411D01*
X1768Y1411D01*
X1768Y1409D01*
X1770Y1409D01*
X1770Y1407D01*
X1772Y1407D01*
X1772Y1405D01*
X1774Y1405D01*
X1774Y1403D01*
X1776Y1403D01*
X1776Y1401D01*
X1778Y1401D01*
X1778Y1399D01*
X1780Y1399D01*
X1780Y1397D01*
X1782Y1397D01*
X1782Y1395D01*
X1784Y1395D01*
X1784Y1393D01*
X1786Y1393D01*
X1786Y1391D01*
X1788Y1391D01*
X1788Y1389D01*
X1790Y1389D01*
X1790Y1387D01*
X1792Y1387D01*
X1792Y1385D01*
X1794Y1385D01*
X1794Y1383D01*
X1796Y1383D01*
X1796Y1381D01*
X1798Y1381D01*
X1798Y1379D01*
X1800Y1379D01*
X1800Y1377D01*
X1802Y1377D01*
X1802Y1375D01*
X1804Y1375D01*
X1804Y1373D01*
X1806Y1373D01*
X1806Y1371D01*
X1808Y1371D01*
X1808Y1369D01*
X1810Y1369D01*
X1810Y1367D01*
X1812Y1367D01*
X1812Y1365D01*
X1814Y1365D01*
X1814Y1363D01*
X1816Y1363D01*
X1816Y1361D01*
X1818Y1361D01*
X1818Y1359D01*
X1820Y1359D01*
X1820Y1357D01*
X1822Y1357D01*
X1822Y1355D01*
X1824Y1355D01*
X1824Y1353D01*
X1826Y1353D01*
X1826Y1351D01*
X1828Y1351D01*
X1828Y1349D01*
X1830Y1349D01*
X1830Y1347D01*
X1832Y1347D01*
X1832Y1345D01*
X1834Y1345D01*
X1834Y1343D01*
X1836Y1343D01*
X1836Y1341D01*
X1838Y1341D01*
X1838Y1339D01*
X1840Y1339D01*
X1840Y1337D01*
X1842Y1337D01*
X1842Y1335D01*
X1844Y1335D01*
X1844Y1333D01*
X1846Y1333D01*
X1846Y1331D01*
X1848Y1331D01*
X1848Y1329D01*
X1850Y1329D01*
X1850Y1327D01*
X1852Y1327D01*
X1852Y1325D01*
X1854Y1325D01*
X1854Y1323D01*
X1856Y1323D01*
X1856Y1321D01*
X1858Y1321D01*
X1858Y1319D01*
X1860Y1319D01*
X1860Y1317D01*
X1862Y1317D01*
X1862Y1315D01*
X1864Y1315D01*
X1864Y1313D01*
X1866Y1313D01*
X1866Y1311D01*
X1868Y1311D01*
X1868Y1309D01*
X1870Y1309D01*
X1870Y1307D01*
X1872Y1307D01*
X1872Y1305D01*
X1874Y1305D01*
X1874Y1303D01*
X1876Y1303D01*
X1876Y1301D01*
X1878Y1301D01*
X1878Y1299D01*
X1880Y1299D01*
X1880Y1297D01*
X1882Y1297D01*
X1882Y1295D01*
X1884Y1295D01*
X1884Y1293D01*
X1886Y1293D01*
X1886Y1291D01*
X1888Y1291D01*
X1888Y1289D01*
X1890Y1289D01*
X1890Y1287D01*
X1892Y1287D01*
X1892Y1285D01*
X1894Y1285D01*
X1894Y1283D01*
X1896Y1283D01*
X1896Y1281D01*
X1898Y1281D01*
X1898Y1279D01*
X1900Y1279D01*
X1900Y1277D01*
X1902Y1277D01*
X1902Y1275D01*
X1904Y1275D01*
X1904Y1273D01*
X1906Y1273D01*
X1906Y1271D01*
X1908Y1271D01*
X1908Y1269D01*
X1910Y1269D01*
X1910Y1267D01*
X1912Y1267D01*
X1912Y1265D01*
X1914Y1265D01*
X1914Y1263D01*
X1916Y1263D01*
X1916Y1261D01*
X1918Y1261D01*
X1918Y1259D01*
X1920Y1259D01*
X1920Y1257D01*
X1922Y1257D01*
X1922Y1255D01*
X1924Y1255D01*
X1924Y1253D01*
X1926Y1253D01*
X1926Y1251D01*
X1928Y1251D01*
X1928Y1249D01*
X1930Y1249D01*
X1930Y1247D01*
X1932Y1247D01*
X1932Y1245D01*
X1934Y1245D01*
X1934Y1243D01*
X1936Y1243D01*
X1936Y1241D01*
X1938Y1241D01*
X1938Y1239D01*
X1940Y1239D01*
X1940Y1237D01*
X1942Y1237D01*
X1942Y1235D01*
X1944Y1235D01*
X1944Y1233D01*
X1946Y1233D01*
X1946Y1231D01*
X1948Y1231D01*
X1948Y1229D01*
X1950Y1229D01*
X1950Y1227D01*
X1952Y1227D01*
X1952Y1225D01*
X1954Y1225D01*
X1954Y1223D01*
X1956Y1223D01*
X1956Y1221D01*
X1958Y1221D01*
X1958Y1219D01*
X1960Y1219D01*
X1960Y1217D01*
X1980Y1217D01*
X1980Y1239D01*
X1978Y1239D01*
X1978Y1241D01*
X1976Y1241D01*
X1976Y1243D01*
X1974Y1243D01*
X1974Y1245D01*
X1972Y1245D01*
X1972Y1247D01*
X1970Y1247D01*
X1970Y1249D01*
X1968Y1249D01*
X1968Y1251D01*
X1966Y1251D01*
X1966Y1253D01*
X1964Y1253D01*
X1964Y1255D01*
X1962Y1255D01*
X1962Y1257D01*
X1960Y1257D01*
X1960Y1259D01*
X1958Y1259D01*
X1958Y1261D01*
X1956Y1261D01*
X1956Y1263D01*
X1954Y1263D01*
X1954Y1265D01*
X1952Y1265D01*
X1952Y1267D01*
X1950Y1267D01*
X1950Y1269D01*
X1948Y1269D01*
X1948Y1273D01*
X1946Y1273D01*
X1946Y1275D01*
X1944Y1275D01*
X1944Y1277D01*
X1942Y1277D01*
X1942Y1279D01*
X1940Y1279D01*
X1940Y1281D01*
X1938Y1281D01*
X1938Y1283D01*
X1936Y1283D01*
X1936Y1285D01*
X1934Y1285D01*
X1934Y1287D01*
X1932Y1287D01*
X1932Y1289D01*
X1930Y1289D01*
X1930Y1291D01*
X1928Y1291D01*
X1928Y1293D01*
X1926Y1293D01*
X1926Y1295D01*
X1924Y1295D01*
X1924Y1297D01*
X1922Y1297D01*
X1922Y1299D01*
X1920Y1299D01*
X1920Y1301D01*
X1918Y1301D01*
X1918Y1303D01*
X1916Y1303D01*
X1916Y1305D01*
X1914Y1305D01*
X1914Y1309D01*
X1912Y1309D01*
X1912Y1311D01*
X1910Y1311D01*
X1910Y1313D01*
X1908Y1313D01*
X1908Y1315D01*
X1906Y1315D01*
X1906Y1317D01*
X1904Y1317D01*
X1904Y1319D01*
X1902Y1319D01*
X1902Y1321D01*
X1900Y1321D01*
X1900Y1323D01*
X1898Y1323D01*
X1898Y1325D01*
X1896Y1325D01*
X1896Y1327D01*
X1894Y1327D01*
X1894Y1329D01*
X1892Y1329D01*
X1892Y1331D01*
X1890Y1331D01*
X1890Y1333D01*
X1888Y1333D01*
X1888Y1335D01*
X1886Y1335D01*
X1886Y1337D01*
X1884Y1337D01*
X1884Y1339D01*
X1882Y1339D01*
X1882Y1343D01*
X1880Y1343D01*
X1880Y1345D01*
X1878Y1345D01*
X1878Y1347D01*
X1876Y1347D01*
X1876Y1349D01*
X1874Y1349D01*
X1874Y1351D01*
X1872Y1351D01*
X1872Y1353D01*
X1870Y1353D01*
X1870Y1355D01*
X1868Y1355D01*
X1868Y1357D01*
X1866Y1357D01*
X1866Y1359D01*
X1864Y1359D01*
X1864Y1361D01*
X1862Y1361D01*
X1862Y1363D01*
X1860Y1363D01*
X1860Y1365D01*
X1858Y1365D01*
X1858Y1367D01*
X1856Y1367D01*
X1856Y1369D01*
X1854Y1369D01*
X1854Y1371D01*
X1852Y1371D01*
X1852Y1373D01*
X1850Y1373D01*
X1850Y1375D01*
X1848Y1375D01*
X1848Y1379D01*
X1846Y1379D01*
X1846Y1381D01*
X1844Y1381D01*
X1844Y1383D01*
X1842Y1383D01*
X1842Y1385D01*
X1840Y1385D01*
X1840Y1387D01*
X1838Y1387D01*
X1838Y1389D01*
X1836Y1389D01*
X1836Y1391D01*
X1834Y1391D01*
X1834Y1393D01*
X1832Y1393D01*
X1832Y1395D01*
X1830Y1395D01*
X1830Y1397D01*
X1828Y1397D01*
X1828Y1399D01*
X1826Y1399D01*
X1826Y1401D01*
X1824Y1401D01*
X1824Y1403D01*
X1822Y1403D01*
X1822Y1405D01*
X1820Y1405D01*
X1820Y1407D01*
X1818Y1407D01*
X1818Y1409D01*
X1816Y1409D01*
X1816Y1411D01*
X1814Y1411D01*
X1814Y1415D01*
X1812Y1415D01*
X1812Y1417D01*
X1810Y1417D01*
X1810Y1419D01*
X1808Y1419D01*
X1808Y1421D01*
X1806Y1421D01*
X1806Y1423D01*
X1804Y1423D01*
X1804Y1425D01*
X1802Y1425D01*
X1802Y1427D01*
X1800Y1427D01*
X1800Y1429D01*
X1798Y1429D01*
X1798Y1431D01*
X1796Y1431D01*
X1796Y1433D01*
X1794Y1433D01*
X1794Y1435D01*
X1792Y1435D01*
X1792Y1437D01*
X1790Y1437D01*
X1790Y1439D01*
X1788Y1439D01*
X1788Y1441D01*
X1786Y1441D01*
X1786Y1443D01*
X1784Y1443D01*
X1784Y1445D01*
X1782Y1445D01*
X1782Y1449D01*
X1780Y1449D01*
X1780Y1451D01*
X1778Y1451D01*
X1778Y1453D01*
X1776Y1453D01*
X1776Y1455D01*
X1774Y1455D01*
X1774Y1457D01*
X1772Y1457D01*
X1772Y1459D01*
X1770Y1459D01*
X1770Y1461D01*
X1768Y1461D01*
X1768Y1463D01*
X1766Y1463D01*
X1766Y1465D01*
X1764Y1465D01*
X1764Y1467D01*
X1762Y1467D01*
X1762Y1469D01*
X1760Y1469D01*
X1760Y1471D01*
X1758Y1471D01*
X1758Y1473D01*
X1756Y1473D01*
X1756Y1475D01*
X1754Y1475D01*
X1754Y1477D01*
X1752Y1477D01*
X1752Y1479D01*
X1750Y1479D01*
X1750Y1481D01*
X1748Y1481D01*
X1748Y1485D01*
X1746Y1485D01*
X1746Y1487D01*
X1744Y1487D01*
X1744Y1489D01*
X1742Y1489D01*
X1742Y1491D01*
X1740Y1491D01*
X1740Y1493D01*
X1738Y1493D01*
X1738Y1495D01*
X1736Y1495D01*
X1736Y1497D01*
X1734Y1497D01*
X1734Y1499D01*
X1732Y1499D01*
X1732Y1501D01*
X1730Y1501D01*
X1730Y1503D01*
X1728Y1503D01*
X1728Y1505D01*
X1726Y1505D01*
X1726Y1507D01*
X1724Y1507D01*
X1724Y1509D01*
X1722Y1509D01*
X1722Y1511D01*
X1720Y1511D01*
X1720Y1513D01*
X1718Y1513D01*
X1718Y1515D01*
X1716Y1515D01*
X1716Y1517D01*
X1714Y1517D01*
X1714Y1521D01*
X1712Y1521D01*
X1712Y1523D01*
X1710Y1523D01*
X1710Y1525D01*
X1708Y1525D01*
X1708Y1527D01*
X1706Y1527D01*
X1706Y1529D01*
X1704Y1529D01*
X1704Y1531D01*
X1702Y1531D01*
X1702Y1533D01*
X1700Y1533D01*
X1700Y1535D01*
X1698Y1535D01*
X1698Y1537D01*
X1696Y1537D01*
X1696Y1539D01*
X1694Y1539D01*
X1694Y1541D01*
X1692Y1541D01*
X1692Y1543D01*
X1690Y1543D01*
X1690Y1545D01*
X1688Y1545D01*
X1688Y1547D01*
X1686Y1547D01*
X1686Y1549D01*
X1684Y1549D01*
X1684Y1551D01*
X1682Y1551D01*
X1682Y1555D01*
X1680Y1555D01*
X1680Y1557D01*
X1678Y1557D01*
X1678Y1559D01*
X1676Y1559D01*
X1676Y1561D01*
X1674Y1561D01*
X1674Y1563D01*
X1672Y1563D01*
X1672Y1565D01*
X1670Y1565D01*
X1670Y1567D01*
X1668Y1567D01*
X1668Y1569D01*
X1666Y1569D01*
X1666Y1571D01*
X1664Y1571D01*
X1664Y1573D01*
X1662Y1573D01*
X1662Y1575D01*
X1660Y1575D01*
X1660Y1577D01*
X1658Y1577D01*
X1658Y1579D01*
X1656Y1579D01*
X1656Y1581D01*
X1654Y1581D01*
X1654Y1583D01*
X1652Y1583D01*
X1652Y1585D01*
X1650Y1585D01*
X1650Y1587D01*
X1648Y1587D01*
X1648Y1591D01*
X1646Y1591D01*
X1646Y1593D01*
X1644Y1593D01*
X1644Y1595D01*
X1642Y1595D01*
X1642Y1597D01*
X1640Y1597D01*
X1640Y1599D01*
X1638Y1599D01*
X1638Y1601D01*
X1636Y1601D01*
X1636Y1603D01*
X1634Y1603D01*
X1634Y1605D01*
X1632Y1605D01*
X1632Y1607D01*
X1630Y1607D01*
X1630Y1609D01*
X1628Y1609D01*
X1628Y1611D01*
X1626Y1611D01*
X1626Y1613D01*
X1624Y1613D01*
X1624Y1615D01*
X1622Y1615D01*
X1622Y1617D01*
X1620Y1617D01*
X1620Y1619D01*
X1618Y1619D01*
X1618Y1621D01*
X1616Y1621D01*
X1616Y1623D01*
X1614Y1623D01*
X1614Y1627D01*
X1612Y1627D01*
X1612Y1629D01*
X1610Y1629D01*
X1610Y1631D01*
X1608Y1631D01*
X1608Y1633D01*
X1606Y1633D01*
X1606Y1635D01*
X1604Y1635D01*
X1604Y1637D01*
X1602Y1637D01*
X1602Y1639D01*
X1600Y1639D01*
X1600Y1641D01*
X1598Y1641D01*
X1598Y1643D01*
X1596Y1643D01*
X1596Y1645D01*
X1594Y1645D01*
X1594Y1647D01*
X1592Y1647D01*
X1592Y1649D01*
X1590Y1649D01*
X1590Y1651D01*
X1588Y1651D01*
X1588Y1653D01*
X1586Y1653D01*
X1586Y1655D01*
X1584Y1655D01*
X1584Y1657D01*
X1582Y1657D01*
X1582Y1661D01*
X1580Y1661D01*
X1580Y1663D01*
X1578Y1663D01*
X1578Y1665D01*
X1576Y1665D01*
X1576Y1667D01*
X1574Y1667D01*
X1574Y1669D01*
X1572Y1669D01*
X1572Y1671D01*
X1570Y1671D01*
X1570Y1673D01*
X1568Y1673D01*
X1568Y1675D01*
X1566Y1675D01*
X1566Y1677D01*
X1564Y1677D01*
X1564Y1679D01*
X1562Y1679D01*
X1562Y1681D01*
X1560Y1681D01*
X1560Y1683D01*
X1558Y1683D01*
X1558Y1685D01*
X1556Y1685D01*
X1556Y1687D01*
X1554Y1687D01*
X1554Y1689D01*
X1552Y1689D01*
X1552Y1691D01*
X1550Y1691D01*
X1550Y1693D01*
X1548Y1693D01*
X1548Y1697D01*
X1546Y1697D01*
X1546Y1699D01*
X1544Y1699D01*
X1544Y1701D01*
X1542Y1701D01*
X1542Y1703D01*
X1540Y1703D01*
X1540Y1705D01*
X1538Y1705D01*
X1538Y1707D01*
X1536Y1707D01*
X1536Y1709D01*
X1534Y1709D01*
X1534Y1711D01*
X1532Y1711D01*
X1532Y1713D01*
X1530Y1713D01*
X1530Y1715D01*
X1528Y1715D01*
X1528Y1717D01*
X1526Y1717D01*
X1526Y1719D01*
X1310Y1719D01*
G37*
D02*
G36*
X1310Y1519D02*
X1310Y1501D01*
X1194Y1501D01*
X1194Y1423D01*
X1310Y1423D01*
X1310Y1407D01*
X1618Y1407D01*
X1618Y1427D01*
X1616Y1427D01*
X1616Y1429D01*
X1614Y1429D01*
X1614Y1431D01*
X1612Y1431D01*
X1612Y1433D01*
X1610Y1433D01*
X1610Y1435D01*
X1608Y1435D01*
X1608Y1437D01*
X1606Y1437D01*
X1606Y1439D01*
X1604Y1439D01*
X1604Y1441D01*
X1602Y1441D01*
X1602Y1443D01*
X1600Y1443D01*
X1600Y1445D01*
X1598Y1445D01*
X1598Y1447D01*
X1596Y1447D01*
X1596Y1449D01*
X1594Y1449D01*
X1594Y1451D01*
X1592Y1451D01*
X1592Y1453D01*
X1590Y1453D01*
X1590Y1455D01*
X1588Y1455D01*
X1588Y1457D01*
X1586Y1457D01*
X1586Y1459D01*
X1584Y1459D01*
X1584Y1461D01*
X1582Y1461D01*
X1582Y1463D01*
X1580Y1463D01*
X1580Y1465D01*
X1578Y1465D01*
X1578Y1467D01*
X1576Y1467D01*
X1576Y1469D01*
X1574Y1469D01*
X1574Y1471D01*
X1572Y1471D01*
X1572Y1473D01*
X1570Y1473D01*
X1570Y1475D01*
X1568Y1475D01*
X1568Y1477D01*
X1566Y1477D01*
X1566Y1479D01*
X1564Y1479D01*
X1564Y1481D01*
X1562Y1481D01*
X1562Y1483D01*
X1560Y1483D01*
X1560Y1485D01*
X1558Y1485D01*
X1558Y1487D01*
X1556Y1487D01*
X1556Y1489D01*
X1554Y1489D01*
X1554Y1491D01*
X1552Y1491D01*
X1552Y1493D01*
X1550Y1493D01*
X1550Y1495D01*
X1548Y1495D01*
X1548Y1497D01*
X1546Y1497D01*
X1546Y1499D01*
X1544Y1499D01*
X1544Y1501D01*
X1542Y1501D01*
X1542Y1503D01*
X1540Y1503D01*
X1540Y1505D01*
X1538Y1505D01*
X1538Y1507D01*
X1536Y1507D01*
X1536Y1509D01*
X1534Y1509D01*
X1534Y1511D01*
X1532Y1511D01*
X1532Y1513D01*
X1530Y1513D01*
X1530Y1515D01*
X1528Y1515D01*
X1528Y1517D01*
X1526Y1517D01*
X1526Y1519D01*
X1310Y1519D01*
G37*
D02*
G36*
X1310Y1319D02*
X1310Y1301D01*
X1194Y1301D01*
X1194Y1223D01*
X1310Y1223D01*
X1310Y1207D01*
X1718Y1207D01*
X1718Y1227D01*
X1716Y1227D01*
X1716Y1229D01*
X1714Y1229D01*
X1714Y1231D01*
X1712Y1231D01*
X1712Y1233D01*
X1710Y1233D01*
X1710Y1235D01*
X1708Y1235D01*
X1708Y1237D01*
X1706Y1237D01*
X1706Y1239D01*
X1704Y1239D01*
X1704Y1241D01*
X1702Y1241D01*
X1702Y1243D01*
X1700Y1243D01*
X1700Y1245D01*
X1698Y1245D01*
X1698Y1247D01*
X1696Y1247D01*
X1696Y1249D01*
X1694Y1249D01*
X1694Y1251D01*
X1692Y1251D01*
X1692Y1253D01*
X1690Y1253D01*
X1690Y1255D01*
X1688Y1255D01*
X1688Y1257D01*
X1686Y1257D01*
X1686Y1259D01*
X1684Y1259D01*
X1684Y1261D01*
X1682Y1261D01*
X1682Y1263D01*
X1680Y1263D01*
X1680Y1265D01*
X1678Y1265D01*
X1678Y1267D01*
X1676Y1267D01*
X1676Y1269D01*
X1674Y1269D01*
X1674Y1271D01*
X1672Y1271D01*
X1672Y1273D01*
X1670Y1273D01*
X1670Y1275D01*
X1668Y1275D01*
X1668Y1277D01*
X1666Y1277D01*
X1666Y1279D01*
X1664Y1279D01*
X1664Y1281D01*
X1662Y1281D01*
X1662Y1283D01*
X1660Y1283D01*
X1660Y1285D01*
X1658Y1285D01*
X1658Y1287D01*
X1656Y1287D01*
X1656Y1289D01*
X1654Y1289D01*
X1654Y1291D01*
X1652Y1291D01*
X1652Y1293D01*
X1650Y1293D01*
X1650Y1295D01*
X1648Y1295D01*
X1648Y1297D01*
X1646Y1297D01*
X1646Y1299D01*
X1644Y1299D01*
X1644Y1301D01*
X1642Y1301D01*
X1642Y1303D01*
X1640Y1303D01*
X1640Y1305D01*
X1638Y1305D01*
X1638Y1307D01*
X1636Y1307D01*
X1636Y1309D01*
X1634Y1309D01*
X1634Y1311D01*
X1632Y1311D01*
X1632Y1313D01*
X1630Y1313D01*
X1630Y1315D01*
X1628Y1315D01*
X1628Y1317D01*
X1626Y1317D01*
X1626Y1319D01*
X1310Y1319D01*
G37*
D02*
G36*
X1310Y1119D02*
X1310Y1101D01*
X1194Y1101D01*
X1194Y1023D01*
X1310Y1023D01*
X1310Y1007D01*
X1818Y1007D01*
X1818Y1027D01*
X1816Y1027D01*
X1816Y1029D01*
X1814Y1029D01*
X1814Y1031D01*
X1812Y1031D01*
X1812Y1033D01*
X1810Y1033D01*
X1810Y1035D01*
X1808Y1035D01*
X1808Y1037D01*
X1806Y1037D01*
X1806Y1039D01*
X1804Y1039D01*
X1804Y1041D01*
X1802Y1041D01*
X1802Y1043D01*
X1800Y1043D01*
X1800Y1045D01*
X1798Y1045D01*
X1798Y1047D01*
X1796Y1047D01*
X1796Y1049D01*
X1794Y1049D01*
X1794Y1051D01*
X1792Y1051D01*
X1792Y1053D01*
X1790Y1053D01*
X1790Y1055D01*
X1788Y1055D01*
X1788Y1057D01*
X1786Y1057D01*
X1786Y1059D01*
X1784Y1059D01*
X1784Y1061D01*
X1782Y1061D01*
X1782Y1063D01*
X1780Y1063D01*
X1780Y1065D01*
X1778Y1065D01*
X1778Y1067D01*
X1776Y1067D01*
X1776Y1069D01*
X1774Y1069D01*
X1774Y1071D01*
X1772Y1071D01*
X1772Y1073D01*
X1770Y1073D01*
X1770Y1075D01*
X1768Y1075D01*
X1768Y1077D01*
X1766Y1077D01*
X1766Y1079D01*
X1764Y1079D01*
X1764Y1081D01*
X1762Y1081D01*
X1762Y1083D01*
X1760Y1083D01*
X1760Y1085D01*
X1758Y1085D01*
X1758Y1087D01*
X1756Y1087D01*
X1756Y1089D01*
X1754Y1089D01*
X1754Y1091D01*
X1752Y1091D01*
X1752Y1093D01*
X1750Y1093D01*
X1750Y1095D01*
X1748Y1095D01*
X1748Y1097D01*
X1746Y1097D01*
X1746Y1099D01*
X1744Y1099D01*
X1744Y1101D01*
X1742Y1101D01*
X1742Y1103D01*
X1740Y1103D01*
X1740Y1105D01*
X1738Y1105D01*
X1738Y1107D01*
X1736Y1107D01*
X1736Y1109D01*
X1734Y1109D01*
X1734Y1111D01*
X1732Y1111D01*
X1732Y1113D01*
X1730Y1113D01*
X1730Y1115D01*
X1728Y1115D01*
X1728Y1117D01*
X1726Y1117D01*
X1726Y1119D01*
X1310Y1119D01*
G37*
D02*
G36*
X1310Y919D02*
X1310Y901D01*
X1194Y901D01*
X1194Y823D01*
X1310Y823D01*
X1310Y807D01*
X1918Y807D01*
X1918Y827D01*
X1916Y827D01*
X1916Y829D01*
X1914Y829D01*
X1914Y831D01*
X1912Y831D01*
X1912Y833D01*
X1910Y833D01*
X1910Y835D01*
X1908Y835D01*
X1908Y837D01*
X1906Y837D01*
X1906Y839D01*
X1904Y839D01*
X1904Y841D01*
X1902Y841D01*
X1902Y843D01*
X1900Y843D01*
X1900Y845D01*
X1898Y845D01*
X1898Y847D01*
X1896Y847D01*
X1896Y849D01*
X1894Y849D01*
X1894Y851D01*
X1892Y851D01*
X1892Y853D01*
X1890Y853D01*
X1890Y855D01*
X1888Y855D01*
X1888Y857D01*
X1886Y857D01*
X1886Y859D01*
X1884Y859D01*
X1884Y861D01*
X1882Y861D01*
X1882Y863D01*
X1880Y863D01*
X1880Y865D01*
X1878Y865D01*
X1878Y867D01*
X1876Y867D01*
X1876Y869D01*
X1874Y869D01*
X1874Y871D01*
X1872Y871D01*
X1872Y873D01*
X1870Y873D01*
X1870Y875D01*
X1868Y875D01*
X1868Y877D01*
X1866Y877D01*
X1866Y879D01*
X1864Y879D01*
X1864Y881D01*
X1862Y881D01*
X1862Y883D01*
X1860Y883D01*
X1860Y885D01*
X1858Y885D01*
X1858Y887D01*
X1856Y887D01*
X1856Y889D01*
X1854Y889D01*
X1854Y891D01*
X1852Y891D01*
X1852Y893D01*
X1850Y893D01*
X1850Y895D01*
X1848Y895D01*
X1848Y897D01*
X1846Y897D01*
X1846Y899D01*
X1844Y899D01*
X1844Y901D01*
X1842Y901D01*
X1842Y903D01*
X1840Y903D01*
X1840Y905D01*
X1838Y905D01*
X1838Y907D01*
X1836Y907D01*
X1836Y909D01*
X1834Y909D01*
X1834Y911D01*
X1832Y911D01*
X1832Y913D01*
X1830Y913D01*
X1830Y915D01*
X1828Y915D01*
X1828Y917D01*
X1826Y917D01*
X1826Y919D01*
X1310Y919D01*
G37*
D02*
G36*
X1310Y719D02*
X1310Y701D01*
X1194Y701D01*
X1194Y623D01*
X1310Y623D01*
X1310Y607D01*
X1988Y607D01*
X1988Y629D01*
X1986Y629D01*
X1986Y633D01*
X1984Y633D01*
X1984Y637D01*
X1982Y637D01*
X1982Y643D01*
X1980Y643D01*
X1980Y665D01*
X1978Y665D01*
X1978Y667D01*
X1976Y667D01*
X1976Y669D01*
X1974Y669D01*
X1974Y671D01*
X1972Y671D01*
X1972Y673D01*
X1970Y673D01*
X1970Y675D01*
X1968Y675D01*
X1968Y677D01*
X1966Y677D01*
X1966Y679D01*
X1964Y679D01*
X1964Y681D01*
X1962Y681D01*
X1962Y683D01*
X1960Y683D01*
X1960Y685D01*
X1958Y685D01*
X1958Y687D01*
X1956Y687D01*
X1956Y689D01*
X1954Y689D01*
X1954Y691D01*
X1952Y691D01*
X1952Y693D01*
X1950Y693D01*
X1950Y695D01*
X1948Y695D01*
X1948Y697D01*
X1946Y697D01*
X1946Y699D01*
X1944Y699D01*
X1944Y701D01*
X1942Y701D01*
X1942Y703D01*
X1940Y703D01*
X1940Y705D01*
X1938Y705D01*
X1938Y707D01*
X1936Y707D01*
X1936Y709D01*
X1934Y709D01*
X1934Y711D01*
X1932Y711D01*
X1932Y713D01*
X1930Y713D01*
X1930Y715D01*
X1928Y715D01*
X1928Y717D01*
X1926Y717D01*
X1926Y719D01*
X1310Y719D01*
G37*
D02*
G36*
X1310Y519D02*
X1310Y501D01*
X1194Y501D01*
X1194Y323D01*
X1310Y323D01*
X1310Y307D01*
X1604Y307D01*
X1604Y369D01*
X1606Y369D01*
X1606Y381D01*
X1608Y381D01*
X1608Y387D01*
X1610Y387D01*
X1610Y389D01*
X1612Y389D01*
X1612Y393D01*
X1614Y393D01*
X1614Y395D01*
X1616Y395D01*
X1616Y397D01*
X1618Y397D01*
X1618Y399D01*
X1622Y399D01*
X1622Y401D01*
X1624Y401D01*
X1624Y403D01*
X1630Y403D01*
X1630Y405D01*
X1638Y405D01*
X1638Y407D01*
X1678Y407D01*
X1678Y519D01*
X1310Y519D01*
G37*
D02*
G36*
X1820Y519D02*
X1820Y345D01*
X1818Y345D01*
X1818Y339D01*
X1816Y339D01*
X1816Y333D01*
X1814Y333D01*
X1814Y329D01*
X1812Y329D01*
X1812Y327D01*
X1810Y327D01*
X1810Y307D01*
X1988Y307D01*
X1988Y329D01*
X1986Y329D01*
X1986Y333D01*
X1984Y333D01*
X1984Y337D01*
X1982Y337D01*
X1982Y343D01*
X1980Y343D01*
X1980Y383D01*
X1982Y383D01*
X1982Y387D01*
X1984Y387D01*
X1984Y393D01*
X1986Y393D01*
X1986Y395D01*
X1988Y395D01*
X1988Y399D01*
X1990Y399D01*
X1990Y403D01*
X1992Y403D01*
X1992Y423D01*
X1990Y423D01*
X1990Y425D01*
X1988Y425D01*
X1988Y429D01*
X1986Y429D01*
X1986Y433D01*
X1984Y433D01*
X1984Y437D01*
X1982Y437D01*
X1982Y443D01*
X1980Y443D01*
X1980Y483D01*
X1982Y483D01*
X1982Y487D01*
X1984Y487D01*
X1984Y493D01*
X1986Y493D01*
X1986Y495D01*
X1988Y495D01*
X1988Y499D01*
X1990Y499D01*
X1990Y519D01*
X1820Y519D01*
G37*
D02*
G36*
X1976Y1852D02*
X2030Y1852D01*
X2030Y1815D01*
X1976Y1815D01*
X1976Y1852D01*
G37*
D02*
G36*
X2064Y1852D02*
X2118Y1852D01*
X2118Y1815D01*
X2064Y1815D01*
X2064Y1852D01*
G37*
D02*
G36*
X76Y1282D02*
X130Y1282D01*
X130Y1245D01*
X76Y1245D01*
X76Y1282D01*
G37*
D02*
G36*
X164Y1282D02*
X218Y1282D01*
X218Y1245D01*
X164Y1245D01*
X164Y1282D01*
G37*
D02*
G36*
X76Y1182D02*
X130Y1182D01*
X130Y1145D01*
X76Y1145D01*
X76Y1182D01*
G37*
D02*
G36*
X984Y1378D02*
X1028Y1378D01*
X1028Y1349D01*
X984Y1349D01*
X984Y1378D01*
G37*
D02*
G36*
X984Y980D02*
X1028Y980D01*
X1028Y951D01*
X984Y951D01*
X984Y980D01*
G37*
D02*
G36*
X984Y1578D02*
X1028Y1578D01*
X1028Y1549D01*
X984Y1549D01*
X984Y1578D01*
G37*
D02*
G36*
X984Y780D02*
X1028Y780D01*
X1028Y751D01*
X984Y751D01*
X984Y780D01*
G37*
D02*
G36*
X984Y1778D02*
X1028Y1778D01*
X1028Y1749D01*
X984Y1749D01*
X984Y1778D01*
G37*
D02*
G36*
X984Y580D02*
X1028Y580D01*
X1028Y551D01*
X984Y551D01*
X984Y580D01*
G37*
D02*
G36*
X984Y1978D02*
X1028Y1978D01*
X1028Y1949D01*
X984Y1949D01*
X984Y1978D01*
G37*
D02*
G36*
X1033Y247D02*
X1062Y247D01*
X1062Y201D01*
X1033Y201D01*
X1033Y247D01*
G37*
D02*
G36*
X984Y280D02*
X1028Y280D01*
X1028Y251D01*
X984Y251D01*
X984Y280D01*
G37*
D02*
G04 End of Copper0*
M02*